G75*
%MOIN*%
%OFA0B0*%
%FSLAX25Y25*%
%IPPOS*%
%LPD*%
%AMOC8*
5,1,8,0,0,1.08239X$1,22.5*
%
%ADD10C,0.00591*%
%ADD11C,0.00000*%
%ADD12C,0.13198*%
%ADD13OC8,0.07200*%
%ADD14OC8,0.08000*%
%ADD15C,0.01208*%
%ADD16C,0.01244*%
%ADD17C,0.01549*%
%ADD18R,0.12598X0.12598*%
%ADD19C,0.08000*%
%ADD20C,0.02340*%
%ADD21C,0.01240*%
%ADD22R,0.10100X0.10100*%
%ADD23C,0.10100*%
%ADD24C,0.01104*%
%ADD25C,0.01100*%
%ADD26C,0.01189*%
%ADD27C,0.01200*%
%ADD28C,0.11811*%
%ADD29R,0.08000X0.08000*%
%ADD30R,0.08600X0.08600*%
%ADD31C,0.08600*%
D10*
X0001500Y0005437D02*
X0001500Y0218035D01*
X0001502Y0218225D01*
X0001509Y0218415D01*
X0001521Y0218605D01*
X0001537Y0218795D01*
X0001557Y0218984D01*
X0001583Y0219173D01*
X0001612Y0219361D01*
X0001647Y0219548D01*
X0001686Y0219734D01*
X0001729Y0219919D01*
X0001777Y0220104D01*
X0001829Y0220287D01*
X0001885Y0220468D01*
X0001946Y0220648D01*
X0002012Y0220827D01*
X0002081Y0221004D01*
X0002155Y0221180D01*
X0002233Y0221353D01*
X0002316Y0221525D01*
X0002402Y0221694D01*
X0002492Y0221862D01*
X0002587Y0222027D01*
X0002685Y0222190D01*
X0002788Y0222350D01*
X0002894Y0222508D01*
X0003004Y0222663D01*
X0003117Y0222816D01*
X0003235Y0222966D01*
X0003356Y0223112D01*
X0003480Y0223256D01*
X0003608Y0223397D01*
X0003739Y0223535D01*
X0003874Y0223670D01*
X0004012Y0223801D01*
X0004153Y0223929D01*
X0004297Y0224053D01*
X0004443Y0224174D01*
X0004593Y0224292D01*
X0004746Y0224405D01*
X0004901Y0224515D01*
X0005059Y0224621D01*
X0005219Y0224724D01*
X0005382Y0224822D01*
X0005547Y0224917D01*
X0005715Y0225007D01*
X0005884Y0225093D01*
X0006056Y0225176D01*
X0006229Y0225254D01*
X0006405Y0225328D01*
X0006582Y0225397D01*
X0006761Y0225463D01*
X0006941Y0225524D01*
X0007122Y0225580D01*
X0007305Y0225632D01*
X0007490Y0225680D01*
X0007675Y0225723D01*
X0007861Y0225762D01*
X0008048Y0225797D01*
X0008236Y0225826D01*
X0008425Y0225852D01*
X0008614Y0225872D01*
X0008804Y0225888D01*
X0008994Y0225900D01*
X0009184Y0225907D01*
X0009374Y0225909D01*
X0107799Y0225909D01*
X0107989Y0225911D01*
X0108179Y0225918D01*
X0108369Y0225930D01*
X0108559Y0225946D01*
X0108748Y0225966D01*
X0108937Y0225992D01*
X0109125Y0226021D01*
X0109312Y0226056D01*
X0109498Y0226095D01*
X0109683Y0226138D01*
X0109868Y0226186D01*
X0110051Y0226238D01*
X0110232Y0226294D01*
X0110412Y0226355D01*
X0110591Y0226421D01*
X0110768Y0226490D01*
X0110944Y0226564D01*
X0111117Y0226642D01*
X0111289Y0226725D01*
X0111458Y0226811D01*
X0111626Y0226901D01*
X0111791Y0226996D01*
X0111954Y0227094D01*
X0112114Y0227197D01*
X0112272Y0227303D01*
X0112427Y0227413D01*
X0112580Y0227526D01*
X0112730Y0227644D01*
X0112876Y0227765D01*
X0113020Y0227889D01*
X0113161Y0228017D01*
X0113299Y0228148D01*
X0113434Y0228283D01*
X0113565Y0228421D01*
X0113693Y0228562D01*
X0113817Y0228706D01*
X0113938Y0228852D01*
X0114056Y0229002D01*
X0114169Y0229155D01*
X0114279Y0229310D01*
X0114385Y0229468D01*
X0114488Y0229628D01*
X0114586Y0229791D01*
X0114681Y0229956D01*
X0114771Y0230124D01*
X0114857Y0230293D01*
X0114940Y0230465D01*
X0115018Y0230638D01*
X0115092Y0230814D01*
X0115161Y0230991D01*
X0115227Y0231170D01*
X0115288Y0231350D01*
X0115344Y0231531D01*
X0115396Y0231714D01*
X0115444Y0231899D01*
X0115487Y0232084D01*
X0115526Y0232270D01*
X0115561Y0232457D01*
X0115590Y0232645D01*
X0115616Y0232834D01*
X0115636Y0233023D01*
X0115652Y0233213D01*
X0115664Y0233403D01*
X0115671Y0233593D01*
X0115673Y0233783D01*
X0115673Y0367642D01*
X0115675Y0367832D01*
X0115682Y0368022D01*
X0115694Y0368212D01*
X0115710Y0368402D01*
X0115730Y0368591D01*
X0115756Y0368780D01*
X0115785Y0368968D01*
X0115820Y0369155D01*
X0115859Y0369341D01*
X0115902Y0369526D01*
X0115950Y0369711D01*
X0116002Y0369894D01*
X0116058Y0370075D01*
X0116119Y0370255D01*
X0116185Y0370434D01*
X0116254Y0370611D01*
X0116328Y0370787D01*
X0116406Y0370960D01*
X0116489Y0371132D01*
X0116575Y0371301D01*
X0116665Y0371469D01*
X0116760Y0371634D01*
X0116858Y0371797D01*
X0116961Y0371957D01*
X0117067Y0372115D01*
X0117177Y0372270D01*
X0117290Y0372423D01*
X0117408Y0372573D01*
X0117529Y0372719D01*
X0117653Y0372863D01*
X0117781Y0373004D01*
X0117912Y0373142D01*
X0118047Y0373277D01*
X0118185Y0373408D01*
X0118326Y0373536D01*
X0118470Y0373660D01*
X0118616Y0373781D01*
X0118766Y0373899D01*
X0118919Y0374012D01*
X0119074Y0374122D01*
X0119232Y0374228D01*
X0119392Y0374331D01*
X0119555Y0374429D01*
X0119720Y0374524D01*
X0119888Y0374614D01*
X0120057Y0374700D01*
X0120229Y0374783D01*
X0120402Y0374861D01*
X0120578Y0374935D01*
X0120755Y0375004D01*
X0120934Y0375070D01*
X0121114Y0375131D01*
X0121295Y0375187D01*
X0121478Y0375239D01*
X0121663Y0375287D01*
X0121848Y0375330D01*
X0122034Y0375369D01*
X0122221Y0375404D01*
X0122409Y0375433D01*
X0122598Y0375459D01*
X0122787Y0375479D01*
X0122977Y0375495D01*
X0123167Y0375507D01*
X0123357Y0375514D01*
X0123547Y0375516D01*
X0377327Y0375516D01*
X0377517Y0375514D01*
X0377707Y0375507D01*
X0377897Y0375495D01*
X0378087Y0375479D01*
X0378276Y0375459D01*
X0378465Y0375433D01*
X0378653Y0375404D01*
X0378840Y0375369D01*
X0379026Y0375330D01*
X0379211Y0375287D01*
X0379396Y0375239D01*
X0379579Y0375187D01*
X0379760Y0375131D01*
X0379940Y0375070D01*
X0380119Y0375004D01*
X0380296Y0374935D01*
X0380472Y0374861D01*
X0380645Y0374783D01*
X0380817Y0374700D01*
X0380986Y0374614D01*
X0381154Y0374524D01*
X0381319Y0374429D01*
X0381482Y0374331D01*
X0381642Y0374228D01*
X0381800Y0374122D01*
X0381955Y0374012D01*
X0382108Y0373899D01*
X0382258Y0373781D01*
X0382404Y0373660D01*
X0382548Y0373536D01*
X0382689Y0373408D01*
X0382827Y0373277D01*
X0382962Y0373142D01*
X0383093Y0373004D01*
X0383221Y0372863D01*
X0383345Y0372719D01*
X0383466Y0372573D01*
X0383584Y0372423D01*
X0383697Y0372270D01*
X0383807Y0372115D01*
X0383913Y0371957D01*
X0384016Y0371797D01*
X0384114Y0371634D01*
X0384209Y0371469D01*
X0384299Y0371301D01*
X0384385Y0371132D01*
X0384468Y0370960D01*
X0384546Y0370787D01*
X0384620Y0370611D01*
X0384689Y0370434D01*
X0384755Y0370255D01*
X0384816Y0370075D01*
X0384872Y0369894D01*
X0384924Y0369711D01*
X0384972Y0369526D01*
X0385015Y0369341D01*
X0385054Y0369155D01*
X0385089Y0368968D01*
X0385118Y0368780D01*
X0385144Y0368591D01*
X0385164Y0368402D01*
X0385180Y0368212D01*
X0385192Y0368022D01*
X0385199Y0367832D01*
X0385201Y0367642D01*
X0385201Y0243177D01*
X0395201Y0233177D01*
X0395201Y0104177D01*
X0385201Y0094177D01*
X0385201Y0005437D01*
X0385199Y0005313D01*
X0385193Y0005190D01*
X0385184Y0005066D01*
X0385170Y0004944D01*
X0385153Y0004821D01*
X0385131Y0004699D01*
X0385106Y0004578D01*
X0385077Y0004458D01*
X0385045Y0004339D01*
X0385008Y0004220D01*
X0384968Y0004103D01*
X0384925Y0003988D01*
X0384877Y0003873D01*
X0384826Y0003761D01*
X0384772Y0003650D01*
X0384714Y0003540D01*
X0384653Y0003433D01*
X0384588Y0003327D01*
X0384520Y0003224D01*
X0384449Y0003123D01*
X0384375Y0003024D01*
X0384298Y0002927D01*
X0384217Y0002833D01*
X0384134Y0002742D01*
X0384048Y0002653D01*
X0383959Y0002567D01*
X0383868Y0002484D01*
X0383774Y0002403D01*
X0383677Y0002326D01*
X0383578Y0002252D01*
X0383477Y0002181D01*
X0383374Y0002113D01*
X0383268Y0002048D01*
X0383161Y0001987D01*
X0383051Y0001929D01*
X0382940Y0001875D01*
X0382828Y0001824D01*
X0382713Y0001776D01*
X0382598Y0001733D01*
X0382481Y0001693D01*
X0382362Y0001656D01*
X0382243Y0001624D01*
X0382123Y0001595D01*
X0382002Y0001570D01*
X0381880Y0001548D01*
X0381757Y0001531D01*
X0381635Y0001517D01*
X0381511Y0001508D01*
X0381388Y0001502D01*
X0381264Y0001500D01*
X0005437Y0001500D01*
X0005313Y0001502D01*
X0005190Y0001508D01*
X0005066Y0001517D01*
X0004944Y0001531D01*
X0004821Y0001548D01*
X0004699Y0001570D01*
X0004578Y0001595D01*
X0004458Y0001624D01*
X0004339Y0001656D01*
X0004220Y0001693D01*
X0004103Y0001733D01*
X0003988Y0001776D01*
X0003873Y0001824D01*
X0003761Y0001875D01*
X0003650Y0001929D01*
X0003540Y0001987D01*
X0003433Y0002048D01*
X0003327Y0002113D01*
X0003224Y0002181D01*
X0003123Y0002252D01*
X0003024Y0002326D01*
X0002927Y0002403D01*
X0002833Y0002484D01*
X0002742Y0002567D01*
X0002653Y0002653D01*
X0002567Y0002742D01*
X0002484Y0002833D01*
X0002403Y0002927D01*
X0002326Y0003024D01*
X0002252Y0003123D01*
X0002181Y0003224D01*
X0002113Y0003327D01*
X0002048Y0003433D01*
X0001987Y0003540D01*
X0001929Y0003650D01*
X0001875Y0003761D01*
X0001824Y0003873D01*
X0001776Y0003988D01*
X0001733Y0004103D01*
X0001693Y0004220D01*
X0001656Y0004339D01*
X0001624Y0004458D01*
X0001595Y0004578D01*
X0001570Y0004699D01*
X0001548Y0004821D01*
X0001531Y0004944D01*
X0001517Y0005066D01*
X0001508Y0005190D01*
X0001502Y0005313D01*
X0001500Y0005437D01*
D11*
X0005201Y0011500D02*
X0005203Y0011658D01*
X0005209Y0011816D01*
X0005219Y0011974D01*
X0005233Y0012132D01*
X0005251Y0012289D01*
X0005272Y0012446D01*
X0005298Y0012602D01*
X0005328Y0012758D01*
X0005361Y0012913D01*
X0005399Y0013066D01*
X0005440Y0013219D01*
X0005485Y0013371D01*
X0005534Y0013522D01*
X0005587Y0013671D01*
X0005643Y0013819D01*
X0005703Y0013965D01*
X0005767Y0014110D01*
X0005835Y0014253D01*
X0005906Y0014395D01*
X0005980Y0014535D01*
X0006058Y0014672D01*
X0006140Y0014808D01*
X0006224Y0014942D01*
X0006313Y0015073D01*
X0006404Y0015202D01*
X0006499Y0015329D01*
X0006596Y0015454D01*
X0006697Y0015576D01*
X0006801Y0015695D01*
X0006908Y0015812D01*
X0007018Y0015926D01*
X0007131Y0016037D01*
X0007246Y0016146D01*
X0007364Y0016251D01*
X0007485Y0016353D01*
X0007608Y0016453D01*
X0007734Y0016549D01*
X0007862Y0016642D01*
X0007992Y0016732D01*
X0008125Y0016818D01*
X0008260Y0016902D01*
X0008396Y0016981D01*
X0008535Y0017058D01*
X0008676Y0017130D01*
X0008818Y0017200D01*
X0008962Y0017265D01*
X0009108Y0017327D01*
X0009255Y0017385D01*
X0009404Y0017440D01*
X0009554Y0017491D01*
X0009705Y0017538D01*
X0009857Y0017581D01*
X0010010Y0017620D01*
X0010165Y0017656D01*
X0010320Y0017687D01*
X0010476Y0017715D01*
X0010632Y0017739D01*
X0010789Y0017759D01*
X0010947Y0017775D01*
X0011104Y0017787D01*
X0011263Y0017795D01*
X0011421Y0017799D01*
X0011579Y0017799D01*
X0011737Y0017795D01*
X0011896Y0017787D01*
X0012053Y0017775D01*
X0012211Y0017759D01*
X0012368Y0017739D01*
X0012524Y0017715D01*
X0012680Y0017687D01*
X0012835Y0017656D01*
X0012990Y0017620D01*
X0013143Y0017581D01*
X0013295Y0017538D01*
X0013446Y0017491D01*
X0013596Y0017440D01*
X0013745Y0017385D01*
X0013892Y0017327D01*
X0014038Y0017265D01*
X0014182Y0017200D01*
X0014324Y0017130D01*
X0014465Y0017058D01*
X0014604Y0016981D01*
X0014740Y0016902D01*
X0014875Y0016818D01*
X0015008Y0016732D01*
X0015138Y0016642D01*
X0015266Y0016549D01*
X0015392Y0016453D01*
X0015515Y0016353D01*
X0015636Y0016251D01*
X0015754Y0016146D01*
X0015869Y0016037D01*
X0015982Y0015926D01*
X0016092Y0015812D01*
X0016199Y0015695D01*
X0016303Y0015576D01*
X0016404Y0015454D01*
X0016501Y0015329D01*
X0016596Y0015202D01*
X0016687Y0015073D01*
X0016776Y0014942D01*
X0016860Y0014808D01*
X0016942Y0014672D01*
X0017020Y0014535D01*
X0017094Y0014395D01*
X0017165Y0014253D01*
X0017233Y0014110D01*
X0017297Y0013965D01*
X0017357Y0013819D01*
X0017413Y0013671D01*
X0017466Y0013522D01*
X0017515Y0013371D01*
X0017560Y0013219D01*
X0017601Y0013066D01*
X0017639Y0012913D01*
X0017672Y0012758D01*
X0017702Y0012602D01*
X0017728Y0012446D01*
X0017749Y0012289D01*
X0017767Y0012132D01*
X0017781Y0011974D01*
X0017791Y0011816D01*
X0017797Y0011658D01*
X0017799Y0011500D01*
X0017797Y0011342D01*
X0017791Y0011184D01*
X0017781Y0011026D01*
X0017767Y0010868D01*
X0017749Y0010711D01*
X0017728Y0010554D01*
X0017702Y0010398D01*
X0017672Y0010242D01*
X0017639Y0010087D01*
X0017601Y0009934D01*
X0017560Y0009781D01*
X0017515Y0009629D01*
X0017466Y0009478D01*
X0017413Y0009329D01*
X0017357Y0009181D01*
X0017297Y0009035D01*
X0017233Y0008890D01*
X0017165Y0008747D01*
X0017094Y0008605D01*
X0017020Y0008465D01*
X0016942Y0008328D01*
X0016860Y0008192D01*
X0016776Y0008058D01*
X0016687Y0007927D01*
X0016596Y0007798D01*
X0016501Y0007671D01*
X0016404Y0007546D01*
X0016303Y0007424D01*
X0016199Y0007305D01*
X0016092Y0007188D01*
X0015982Y0007074D01*
X0015869Y0006963D01*
X0015754Y0006854D01*
X0015636Y0006749D01*
X0015515Y0006647D01*
X0015392Y0006547D01*
X0015266Y0006451D01*
X0015138Y0006358D01*
X0015008Y0006268D01*
X0014875Y0006182D01*
X0014740Y0006098D01*
X0014604Y0006019D01*
X0014465Y0005942D01*
X0014324Y0005870D01*
X0014182Y0005800D01*
X0014038Y0005735D01*
X0013892Y0005673D01*
X0013745Y0005615D01*
X0013596Y0005560D01*
X0013446Y0005509D01*
X0013295Y0005462D01*
X0013143Y0005419D01*
X0012990Y0005380D01*
X0012835Y0005344D01*
X0012680Y0005313D01*
X0012524Y0005285D01*
X0012368Y0005261D01*
X0012211Y0005241D01*
X0012053Y0005225D01*
X0011896Y0005213D01*
X0011737Y0005205D01*
X0011579Y0005201D01*
X0011421Y0005201D01*
X0011263Y0005205D01*
X0011104Y0005213D01*
X0010947Y0005225D01*
X0010789Y0005241D01*
X0010632Y0005261D01*
X0010476Y0005285D01*
X0010320Y0005313D01*
X0010165Y0005344D01*
X0010010Y0005380D01*
X0009857Y0005419D01*
X0009705Y0005462D01*
X0009554Y0005509D01*
X0009404Y0005560D01*
X0009255Y0005615D01*
X0009108Y0005673D01*
X0008962Y0005735D01*
X0008818Y0005800D01*
X0008676Y0005870D01*
X0008535Y0005942D01*
X0008396Y0006019D01*
X0008260Y0006098D01*
X0008125Y0006182D01*
X0007992Y0006268D01*
X0007862Y0006358D01*
X0007734Y0006451D01*
X0007608Y0006547D01*
X0007485Y0006647D01*
X0007364Y0006749D01*
X0007246Y0006854D01*
X0007131Y0006963D01*
X0007018Y0007074D01*
X0006908Y0007188D01*
X0006801Y0007305D01*
X0006697Y0007424D01*
X0006596Y0007546D01*
X0006499Y0007671D01*
X0006404Y0007798D01*
X0006313Y0007927D01*
X0006224Y0008058D01*
X0006140Y0008192D01*
X0006058Y0008328D01*
X0005980Y0008465D01*
X0005906Y0008605D01*
X0005835Y0008747D01*
X0005767Y0008890D01*
X0005703Y0009035D01*
X0005643Y0009181D01*
X0005587Y0009329D01*
X0005534Y0009478D01*
X0005485Y0009629D01*
X0005440Y0009781D01*
X0005399Y0009934D01*
X0005361Y0010087D01*
X0005328Y0010242D01*
X0005298Y0010398D01*
X0005272Y0010554D01*
X0005251Y0010711D01*
X0005233Y0010868D01*
X0005219Y0011026D01*
X0005209Y0011184D01*
X0005203Y0011342D01*
X0005201Y0011500D01*
X0121185Y0011500D02*
X0121187Y0011658D01*
X0121193Y0011816D01*
X0121203Y0011974D01*
X0121217Y0012132D01*
X0121235Y0012289D01*
X0121256Y0012446D01*
X0121282Y0012602D01*
X0121312Y0012758D01*
X0121345Y0012913D01*
X0121383Y0013066D01*
X0121424Y0013219D01*
X0121469Y0013371D01*
X0121518Y0013522D01*
X0121571Y0013671D01*
X0121627Y0013819D01*
X0121687Y0013965D01*
X0121751Y0014110D01*
X0121819Y0014253D01*
X0121890Y0014395D01*
X0121964Y0014535D01*
X0122042Y0014672D01*
X0122124Y0014808D01*
X0122208Y0014942D01*
X0122297Y0015073D01*
X0122388Y0015202D01*
X0122483Y0015329D01*
X0122580Y0015454D01*
X0122681Y0015576D01*
X0122785Y0015695D01*
X0122892Y0015812D01*
X0123002Y0015926D01*
X0123115Y0016037D01*
X0123230Y0016146D01*
X0123348Y0016251D01*
X0123469Y0016353D01*
X0123592Y0016453D01*
X0123718Y0016549D01*
X0123846Y0016642D01*
X0123976Y0016732D01*
X0124109Y0016818D01*
X0124244Y0016902D01*
X0124380Y0016981D01*
X0124519Y0017058D01*
X0124660Y0017130D01*
X0124802Y0017200D01*
X0124946Y0017265D01*
X0125092Y0017327D01*
X0125239Y0017385D01*
X0125388Y0017440D01*
X0125538Y0017491D01*
X0125689Y0017538D01*
X0125841Y0017581D01*
X0125994Y0017620D01*
X0126149Y0017656D01*
X0126304Y0017687D01*
X0126460Y0017715D01*
X0126616Y0017739D01*
X0126773Y0017759D01*
X0126931Y0017775D01*
X0127088Y0017787D01*
X0127247Y0017795D01*
X0127405Y0017799D01*
X0127563Y0017799D01*
X0127721Y0017795D01*
X0127880Y0017787D01*
X0128037Y0017775D01*
X0128195Y0017759D01*
X0128352Y0017739D01*
X0128508Y0017715D01*
X0128664Y0017687D01*
X0128819Y0017656D01*
X0128974Y0017620D01*
X0129127Y0017581D01*
X0129279Y0017538D01*
X0129430Y0017491D01*
X0129580Y0017440D01*
X0129729Y0017385D01*
X0129876Y0017327D01*
X0130022Y0017265D01*
X0130166Y0017200D01*
X0130308Y0017130D01*
X0130449Y0017058D01*
X0130588Y0016981D01*
X0130724Y0016902D01*
X0130859Y0016818D01*
X0130992Y0016732D01*
X0131122Y0016642D01*
X0131250Y0016549D01*
X0131376Y0016453D01*
X0131499Y0016353D01*
X0131620Y0016251D01*
X0131738Y0016146D01*
X0131853Y0016037D01*
X0131966Y0015926D01*
X0132076Y0015812D01*
X0132183Y0015695D01*
X0132287Y0015576D01*
X0132388Y0015454D01*
X0132485Y0015329D01*
X0132580Y0015202D01*
X0132671Y0015073D01*
X0132760Y0014942D01*
X0132844Y0014808D01*
X0132926Y0014672D01*
X0133004Y0014535D01*
X0133078Y0014395D01*
X0133149Y0014253D01*
X0133217Y0014110D01*
X0133281Y0013965D01*
X0133341Y0013819D01*
X0133397Y0013671D01*
X0133450Y0013522D01*
X0133499Y0013371D01*
X0133544Y0013219D01*
X0133585Y0013066D01*
X0133623Y0012913D01*
X0133656Y0012758D01*
X0133686Y0012602D01*
X0133712Y0012446D01*
X0133733Y0012289D01*
X0133751Y0012132D01*
X0133765Y0011974D01*
X0133775Y0011816D01*
X0133781Y0011658D01*
X0133783Y0011500D01*
X0133781Y0011342D01*
X0133775Y0011184D01*
X0133765Y0011026D01*
X0133751Y0010868D01*
X0133733Y0010711D01*
X0133712Y0010554D01*
X0133686Y0010398D01*
X0133656Y0010242D01*
X0133623Y0010087D01*
X0133585Y0009934D01*
X0133544Y0009781D01*
X0133499Y0009629D01*
X0133450Y0009478D01*
X0133397Y0009329D01*
X0133341Y0009181D01*
X0133281Y0009035D01*
X0133217Y0008890D01*
X0133149Y0008747D01*
X0133078Y0008605D01*
X0133004Y0008465D01*
X0132926Y0008328D01*
X0132844Y0008192D01*
X0132760Y0008058D01*
X0132671Y0007927D01*
X0132580Y0007798D01*
X0132485Y0007671D01*
X0132388Y0007546D01*
X0132287Y0007424D01*
X0132183Y0007305D01*
X0132076Y0007188D01*
X0131966Y0007074D01*
X0131853Y0006963D01*
X0131738Y0006854D01*
X0131620Y0006749D01*
X0131499Y0006647D01*
X0131376Y0006547D01*
X0131250Y0006451D01*
X0131122Y0006358D01*
X0130992Y0006268D01*
X0130859Y0006182D01*
X0130724Y0006098D01*
X0130588Y0006019D01*
X0130449Y0005942D01*
X0130308Y0005870D01*
X0130166Y0005800D01*
X0130022Y0005735D01*
X0129876Y0005673D01*
X0129729Y0005615D01*
X0129580Y0005560D01*
X0129430Y0005509D01*
X0129279Y0005462D01*
X0129127Y0005419D01*
X0128974Y0005380D01*
X0128819Y0005344D01*
X0128664Y0005313D01*
X0128508Y0005285D01*
X0128352Y0005261D01*
X0128195Y0005241D01*
X0128037Y0005225D01*
X0127880Y0005213D01*
X0127721Y0005205D01*
X0127563Y0005201D01*
X0127405Y0005201D01*
X0127247Y0005205D01*
X0127088Y0005213D01*
X0126931Y0005225D01*
X0126773Y0005241D01*
X0126616Y0005261D01*
X0126460Y0005285D01*
X0126304Y0005313D01*
X0126149Y0005344D01*
X0125994Y0005380D01*
X0125841Y0005419D01*
X0125689Y0005462D01*
X0125538Y0005509D01*
X0125388Y0005560D01*
X0125239Y0005615D01*
X0125092Y0005673D01*
X0124946Y0005735D01*
X0124802Y0005800D01*
X0124660Y0005870D01*
X0124519Y0005942D01*
X0124380Y0006019D01*
X0124244Y0006098D01*
X0124109Y0006182D01*
X0123976Y0006268D01*
X0123846Y0006358D01*
X0123718Y0006451D01*
X0123592Y0006547D01*
X0123469Y0006647D01*
X0123348Y0006749D01*
X0123230Y0006854D01*
X0123115Y0006963D01*
X0123002Y0007074D01*
X0122892Y0007188D01*
X0122785Y0007305D01*
X0122681Y0007424D01*
X0122580Y0007546D01*
X0122483Y0007671D01*
X0122388Y0007798D01*
X0122297Y0007927D01*
X0122208Y0008058D01*
X0122124Y0008192D01*
X0122042Y0008328D01*
X0121964Y0008465D01*
X0121890Y0008605D01*
X0121819Y0008747D01*
X0121751Y0008890D01*
X0121687Y0009035D01*
X0121627Y0009181D01*
X0121571Y0009329D01*
X0121518Y0009478D01*
X0121469Y0009629D01*
X0121424Y0009781D01*
X0121383Y0009934D01*
X0121345Y0010087D01*
X0121312Y0010242D01*
X0121282Y0010398D01*
X0121256Y0010554D01*
X0121235Y0010711D01*
X0121217Y0010868D01*
X0121203Y0011026D01*
X0121193Y0011184D01*
X0121187Y0011342D01*
X0121185Y0011500D01*
X0378981Y0114177D02*
X0378983Y0114335D01*
X0378989Y0114493D01*
X0378999Y0114651D01*
X0379013Y0114809D01*
X0379031Y0114966D01*
X0379052Y0115123D01*
X0379078Y0115279D01*
X0379108Y0115435D01*
X0379141Y0115590D01*
X0379179Y0115743D01*
X0379220Y0115896D01*
X0379265Y0116048D01*
X0379314Y0116199D01*
X0379367Y0116348D01*
X0379423Y0116496D01*
X0379483Y0116642D01*
X0379547Y0116787D01*
X0379615Y0116930D01*
X0379686Y0117072D01*
X0379760Y0117212D01*
X0379838Y0117349D01*
X0379920Y0117485D01*
X0380004Y0117619D01*
X0380093Y0117750D01*
X0380184Y0117879D01*
X0380279Y0118006D01*
X0380376Y0118131D01*
X0380477Y0118253D01*
X0380581Y0118372D01*
X0380688Y0118489D01*
X0380798Y0118603D01*
X0380911Y0118714D01*
X0381026Y0118823D01*
X0381144Y0118928D01*
X0381265Y0119030D01*
X0381388Y0119130D01*
X0381514Y0119226D01*
X0381642Y0119319D01*
X0381772Y0119409D01*
X0381905Y0119495D01*
X0382040Y0119579D01*
X0382176Y0119658D01*
X0382315Y0119735D01*
X0382456Y0119807D01*
X0382598Y0119877D01*
X0382742Y0119942D01*
X0382888Y0120004D01*
X0383035Y0120062D01*
X0383184Y0120117D01*
X0383334Y0120168D01*
X0383485Y0120215D01*
X0383637Y0120258D01*
X0383790Y0120297D01*
X0383945Y0120333D01*
X0384100Y0120364D01*
X0384256Y0120392D01*
X0384412Y0120416D01*
X0384569Y0120436D01*
X0384727Y0120452D01*
X0384884Y0120464D01*
X0385043Y0120472D01*
X0385201Y0120476D01*
X0385359Y0120476D01*
X0385517Y0120472D01*
X0385676Y0120464D01*
X0385833Y0120452D01*
X0385991Y0120436D01*
X0386148Y0120416D01*
X0386304Y0120392D01*
X0386460Y0120364D01*
X0386615Y0120333D01*
X0386770Y0120297D01*
X0386923Y0120258D01*
X0387075Y0120215D01*
X0387226Y0120168D01*
X0387376Y0120117D01*
X0387525Y0120062D01*
X0387672Y0120004D01*
X0387818Y0119942D01*
X0387962Y0119877D01*
X0388104Y0119807D01*
X0388245Y0119735D01*
X0388384Y0119658D01*
X0388520Y0119579D01*
X0388655Y0119495D01*
X0388788Y0119409D01*
X0388918Y0119319D01*
X0389046Y0119226D01*
X0389172Y0119130D01*
X0389295Y0119030D01*
X0389416Y0118928D01*
X0389534Y0118823D01*
X0389649Y0118714D01*
X0389762Y0118603D01*
X0389872Y0118489D01*
X0389979Y0118372D01*
X0390083Y0118253D01*
X0390184Y0118131D01*
X0390281Y0118006D01*
X0390376Y0117879D01*
X0390467Y0117750D01*
X0390556Y0117619D01*
X0390640Y0117485D01*
X0390722Y0117349D01*
X0390800Y0117212D01*
X0390874Y0117072D01*
X0390945Y0116930D01*
X0391013Y0116787D01*
X0391077Y0116642D01*
X0391137Y0116496D01*
X0391193Y0116348D01*
X0391246Y0116199D01*
X0391295Y0116048D01*
X0391340Y0115896D01*
X0391381Y0115743D01*
X0391419Y0115590D01*
X0391452Y0115435D01*
X0391482Y0115279D01*
X0391508Y0115123D01*
X0391529Y0114966D01*
X0391547Y0114809D01*
X0391561Y0114651D01*
X0391571Y0114493D01*
X0391577Y0114335D01*
X0391579Y0114177D01*
X0391577Y0114019D01*
X0391571Y0113861D01*
X0391561Y0113703D01*
X0391547Y0113545D01*
X0391529Y0113388D01*
X0391508Y0113231D01*
X0391482Y0113075D01*
X0391452Y0112919D01*
X0391419Y0112764D01*
X0391381Y0112611D01*
X0391340Y0112458D01*
X0391295Y0112306D01*
X0391246Y0112155D01*
X0391193Y0112006D01*
X0391137Y0111858D01*
X0391077Y0111712D01*
X0391013Y0111567D01*
X0390945Y0111424D01*
X0390874Y0111282D01*
X0390800Y0111142D01*
X0390722Y0111005D01*
X0390640Y0110869D01*
X0390556Y0110735D01*
X0390467Y0110604D01*
X0390376Y0110475D01*
X0390281Y0110348D01*
X0390184Y0110223D01*
X0390083Y0110101D01*
X0389979Y0109982D01*
X0389872Y0109865D01*
X0389762Y0109751D01*
X0389649Y0109640D01*
X0389534Y0109531D01*
X0389416Y0109426D01*
X0389295Y0109324D01*
X0389172Y0109224D01*
X0389046Y0109128D01*
X0388918Y0109035D01*
X0388788Y0108945D01*
X0388655Y0108859D01*
X0388520Y0108775D01*
X0388384Y0108696D01*
X0388245Y0108619D01*
X0388104Y0108547D01*
X0387962Y0108477D01*
X0387818Y0108412D01*
X0387672Y0108350D01*
X0387525Y0108292D01*
X0387376Y0108237D01*
X0387226Y0108186D01*
X0387075Y0108139D01*
X0386923Y0108096D01*
X0386770Y0108057D01*
X0386615Y0108021D01*
X0386460Y0107990D01*
X0386304Y0107962D01*
X0386148Y0107938D01*
X0385991Y0107918D01*
X0385833Y0107902D01*
X0385676Y0107890D01*
X0385517Y0107882D01*
X0385359Y0107878D01*
X0385201Y0107878D01*
X0385043Y0107882D01*
X0384884Y0107890D01*
X0384727Y0107902D01*
X0384569Y0107918D01*
X0384412Y0107938D01*
X0384256Y0107962D01*
X0384100Y0107990D01*
X0383945Y0108021D01*
X0383790Y0108057D01*
X0383637Y0108096D01*
X0383485Y0108139D01*
X0383334Y0108186D01*
X0383184Y0108237D01*
X0383035Y0108292D01*
X0382888Y0108350D01*
X0382742Y0108412D01*
X0382598Y0108477D01*
X0382456Y0108547D01*
X0382315Y0108619D01*
X0382176Y0108696D01*
X0382040Y0108775D01*
X0381905Y0108859D01*
X0381772Y0108945D01*
X0381642Y0109035D01*
X0381514Y0109128D01*
X0381388Y0109224D01*
X0381265Y0109324D01*
X0381144Y0109426D01*
X0381026Y0109531D01*
X0380911Y0109640D01*
X0380798Y0109751D01*
X0380688Y0109865D01*
X0380581Y0109982D01*
X0380477Y0110101D01*
X0380376Y0110223D01*
X0380279Y0110348D01*
X0380184Y0110475D01*
X0380093Y0110604D01*
X0380004Y0110735D01*
X0379920Y0110869D01*
X0379838Y0111005D01*
X0379760Y0111142D01*
X0379686Y0111282D01*
X0379615Y0111424D01*
X0379547Y0111567D01*
X0379483Y0111712D01*
X0379423Y0111858D01*
X0379367Y0112006D01*
X0379314Y0112155D01*
X0379265Y0112306D01*
X0379220Y0112458D01*
X0379179Y0112611D01*
X0379141Y0112764D01*
X0379108Y0112919D01*
X0379078Y0113075D01*
X0379052Y0113231D01*
X0379031Y0113388D01*
X0379013Y0113545D01*
X0378999Y0113703D01*
X0378989Y0113861D01*
X0378983Y0114019D01*
X0378981Y0114177D01*
X0378981Y0224177D02*
X0378983Y0224335D01*
X0378989Y0224493D01*
X0378999Y0224651D01*
X0379013Y0224809D01*
X0379031Y0224966D01*
X0379052Y0225123D01*
X0379078Y0225279D01*
X0379108Y0225435D01*
X0379141Y0225590D01*
X0379179Y0225743D01*
X0379220Y0225896D01*
X0379265Y0226048D01*
X0379314Y0226199D01*
X0379367Y0226348D01*
X0379423Y0226496D01*
X0379483Y0226642D01*
X0379547Y0226787D01*
X0379615Y0226930D01*
X0379686Y0227072D01*
X0379760Y0227212D01*
X0379838Y0227349D01*
X0379920Y0227485D01*
X0380004Y0227619D01*
X0380093Y0227750D01*
X0380184Y0227879D01*
X0380279Y0228006D01*
X0380376Y0228131D01*
X0380477Y0228253D01*
X0380581Y0228372D01*
X0380688Y0228489D01*
X0380798Y0228603D01*
X0380911Y0228714D01*
X0381026Y0228823D01*
X0381144Y0228928D01*
X0381265Y0229030D01*
X0381388Y0229130D01*
X0381514Y0229226D01*
X0381642Y0229319D01*
X0381772Y0229409D01*
X0381905Y0229495D01*
X0382040Y0229579D01*
X0382176Y0229658D01*
X0382315Y0229735D01*
X0382456Y0229807D01*
X0382598Y0229877D01*
X0382742Y0229942D01*
X0382888Y0230004D01*
X0383035Y0230062D01*
X0383184Y0230117D01*
X0383334Y0230168D01*
X0383485Y0230215D01*
X0383637Y0230258D01*
X0383790Y0230297D01*
X0383945Y0230333D01*
X0384100Y0230364D01*
X0384256Y0230392D01*
X0384412Y0230416D01*
X0384569Y0230436D01*
X0384727Y0230452D01*
X0384884Y0230464D01*
X0385043Y0230472D01*
X0385201Y0230476D01*
X0385359Y0230476D01*
X0385517Y0230472D01*
X0385676Y0230464D01*
X0385833Y0230452D01*
X0385991Y0230436D01*
X0386148Y0230416D01*
X0386304Y0230392D01*
X0386460Y0230364D01*
X0386615Y0230333D01*
X0386770Y0230297D01*
X0386923Y0230258D01*
X0387075Y0230215D01*
X0387226Y0230168D01*
X0387376Y0230117D01*
X0387525Y0230062D01*
X0387672Y0230004D01*
X0387818Y0229942D01*
X0387962Y0229877D01*
X0388104Y0229807D01*
X0388245Y0229735D01*
X0388384Y0229658D01*
X0388520Y0229579D01*
X0388655Y0229495D01*
X0388788Y0229409D01*
X0388918Y0229319D01*
X0389046Y0229226D01*
X0389172Y0229130D01*
X0389295Y0229030D01*
X0389416Y0228928D01*
X0389534Y0228823D01*
X0389649Y0228714D01*
X0389762Y0228603D01*
X0389872Y0228489D01*
X0389979Y0228372D01*
X0390083Y0228253D01*
X0390184Y0228131D01*
X0390281Y0228006D01*
X0390376Y0227879D01*
X0390467Y0227750D01*
X0390556Y0227619D01*
X0390640Y0227485D01*
X0390722Y0227349D01*
X0390800Y0227212D01*
X0390874Y0227072D01*
X0390945Y0226930D01*
X0391013Y0226787D01*
X0391077Y0226642D01*
X0391137Y0226496D01*
X0391193Y0226348D01*
X0391246Y0226199D01*
X0391295Y0226048D01*
X0391340Y0225896D01*
X0391381Y0225743D01*
X0391419Y0225590D01*
X0391452Y0225435D01*
X0391482Y0225279D01*
X0391508Y0225123D01*
X0391529Y0224966D01*
X0391547Y0224809D01*
X0391561Y0224651D01*
X0391571Y0224493D01*
X0391577Y0224335D01*
X0391579Y0224177D01*
X0391577Y0224019D01*
X0391571Y0223861D01*
X0391561Y0223703D01*
X0391547Y0223545D01*
X0391529Y0223388D01*
X0391508Y0223231D01*
X0391482Y0223075D01*
X0391452Y0222919D01*
X0391419Y0222764D01*
X0391381Y0222611D01*
X0391340Y0222458D01*
X0391295Y0222306D01*
X0391246Y0222155D01*
X0391193Y0222006D01*
X0391137Y0221858D01*
X0391077Y0221712D01*
X0391013Y0221567D01*
X0390945Y0221424D01*
X0390874Y0221282D01*
X0390800Y0221142D01*
X0390722Y0221005D01*
X0390640Y0220869D01*
X0390556Y0220735D01*
X0390467Y0220604D01*
X0390376Y0220475D01*
X0390281Y0220348D01*
X0390184Y0220223D01*
X0390083Y0220101D01*
X0389979Y0219982D01*
X0389872Y0219865D01*
X0389762Y0219751D01*
X0389649Y0219640D01*
X0389534Y0219531D01*
X0389416Y0219426D01*
X0389295Y0219324D01*
X0389172Y0219224D01*
X0389046Y0219128D01*
X0388918Y0219035D01*
X0388788Y0218945D01*
X0388655Y0218859D01*
X0388520Y0218775D01*
X0388384Y0218696D01*
X0388245Y0218619D01*
X0388104Y0218547D01*
X0387962Y0218477D01*
X0387818Y0218412D01*
X0387672Y0218350D01*
X0387525Y0218292D01*
X0387376Y0218237D01*
X0387226Y0218186D01*
X0387075Y0218139D01*
X0386923Y0218096D01*
X0386770Y0218057D01*
X0386615Y0218021D01*
X0386460Y0217990D01*
X0386304Y0217962D01*
X0386148Y0217938D01*
X0385991Y0217918D01*
X0385833Y0217902D01*
X0385676Y0217890D01*
X0385517Y0217882D01*
X0385359Y0217878D01*
X0385201Y0217878D01*
X0385043Y0217882D01*
X0384884Y0217890D01*
X0384727Y0217902D01*
X0384569Y0217918D01*
X0384412Y0217938D01*
X0384256Y0217962D01*
X0384100Y0217990D01*
X0383945Y0218021D01*
X0383790Y0218057D01*
X0383637Y0218096D01*
X0383485Y0218139D01*
X0383334Y0218186D01*
X0383184Y0218237D01*
X0383035Y0218292D01*
X0382888Y0218350D01*
X0382742Y0218412D01*
X0382598Y0218477D01*
X0382456Y0218547D01*
X0382315Y0218619D01*
X0382176Y0218696D01*
X0382040Y0218775D01*
X0381905Y0218859D01*
X0381772Y0218945D01*
X0381642Y0219035D01*
X0381514Y0219128D01*
X0381388Y0219224D01*
X0381265Y0219324D01*
X0381144Y0219426D01*
X0381026Y0219531D01*
X0380911Y0219640D01*
X0380798Y0219751D01*
X0380688Y0219865D01*
X0380581Y0219982D01*
X0380477Y0220101D01*
X0380376Y0220223D01*
X0380279Y0220348D01*
X0380184Y0220475D01*
X0380093Y0220604D01*
X0380004Y0220735D01*
X0379920Y0220869D01*
X0379838Y0221005D01*
X0379760Y0221142D01*
X0379686Y0221282D01*
X0379615Y0221424D01*
X0379547Y0221567D01*
X0379483Y0221712D01*
X0379423Y0221858D01*
X0379367Y0222006D01*
X0379314Y0222155D01*
X0379265Y0222306D01*
X0379220Y0222458D01*
X0379179Y0222611D01*
X0379141Y0222764D01*
X0379108Y0222919D01*
X0379078Y0223075D01*
X0379052Y0223231D01*
X0379031Y0223388D01*
X0379013Y0223545D01*
X0378999Y0223703D01*
X0378989Y0223861D01*
X0378983Y0224019D01*
X0378981Y0224177D01*
X0121185Y0365516D02*
X0121187Y0365674D01*
X0121193Y0365832D01*
X0121203Y0365990D01*
X0121217Y0366148D01*
X0121235Y0366305D01*
X0121256Y0366462D01*
X0121282Y0366618D01*
X0121312Y0366774D01*
X0121345Y0366929D01*
X0121383Y0367082D01*
X0121424Y0367235D01*
X0121469Y0367387D01*
X0121518Y0367538D01*
X0121571Y0367687D01*
X0121627Y0367835D01*
X0121687Y0367981D01*
X0121751Y0368126D01*
X0121819Y0368269D01*
X0121890Y0368411D01*
X0121964Y0368551D01*
X0122042Y0368688D01*
X0122124Y0368824D01*
X0122208Y0368958D01*
X0122297Y0369089D01*
X0122388Y0369218D01*
X0122483Y0369345D01*
X0122580Y0369470D01*
X0122681Y0369592D01*
X0122785Y0369711D01*
X0122892Y0369828D01*
X0123002Y0369942D01*
X0123115Y0370053D01*
X0123230Y0370162D01*
X0123348Y0370267D01*
X0123469Y0370369D01*
X0123592Y0370469D01*
X0123718Y0370565D01*
X0123846Y0370658D01*
X0123976Y0370748D01*
X0124109Y0370834D01*
X0124244Y0370918D01*
X0124380Y0370997D01*
X0124519Y0371074D01*
X0124660Y0371146D01*
X0124802Y0371216D01*
X0124946Y0371281D01*
X0125092Y0371343D01*
X0125239Y0371401D01*
X0125388Y0371456D01*
X0125538Y0371507D01*
X0125689Y0371554D01*
X0125841Y0371597D01*
X0125994Y0371636D01*
X0126149Y0371672D01*
X0126304Y0371703D01*
X0126460Y0371731D01*
X0126616Y0371755D01*
X0126773Y0371775D01*
X0126931Y0371791D01*
X0127088Y0371803D01*
X0127247Y0371811D01*
X0127405Y0371815D01*
X0127563Y0371815D01*
X0127721Y0371811D01*
X0127880Y0371803D01*
X0128037Y0371791D01*
X0128195Y0371775D01*
X0128352Y0371755D01*
X0128508Y0371731D01*
X0128664Y0371703D01*
X0128819Y0371672D01*
X0128974Y0371636D01*
X0129127Y0371597D01*
X0129279Y0371554D01*
X0129430Y0371507D01*
X0129580Y0371456D01*
X0129729Y0371401D01*
X0129876Y0371343D01*
X0130022Y0371281D01*
X0130166Y0371216D01*
X0130308Y0371146D01*
X0130449Y0371074D01*
X0130588Y0370997D01*
X0130724Y0370918D01*
X0130859Y0370834D01*
X0130992Y0370748D01*
X0131122Y0370658D01*
X0131250Y0370565D01*
X0131376Y0370469D01*
X0131499Y0370369D01*
X0131620Y0370267D01*
X0131738Y0370162D01*
X0131853Y0370053D01*
X0131966Y0369942D01*
X0132076Y0369828D01*
X0132183Y0369711D01*
X0132287Y0369592D01*
X0132388Y0369470D01*
X0132485Y0369345D01*
X0132580Y0369218D01*
X0132671Y0369089D01*
X0132760Y0368958D01*
X0132844Y0368824D01*
X0132926Y0368688D01*
X0133004Y0368551D01*
X0133078Y0368411D01*
X0133149Y0368269D01*
X0133217Y0368126D01*
X0133281Y0367981D01*
X0133341Y0367835D01*
X0133397Y0367687D01*
X0133450Y0367538D01*
X0133499Y0367387D01*
X0133544Y0367235D01*
X0133585Y0367082D01*
X0133623Y0366929D01*
X0133656Y0366774D01*
X0133686Y0366618D01*
X0133712Y0366462D01*
X0133733Y0366305D01*
X0133751Y0366148D01*
X0133765Y0365990D01*
X0133775Y0365832D01*
X0133781Y0365674D01*
X0133783Y0365516D01*
X0133781Y0365358D01*
X0133775Y0365200D01*
X0133765Y0365042D01*
X0133751Y0364884D01*
X0133733Y0364727D01*
X0133712Y0364570D01*
X0133686Y0364414D01*
X0133656Y0364258D01*
X0133623Y0364103D01*
X0133585Y0363950D01*
X0133544Y0363797D01*
X0133499Y0363645D01*
X0133450Y0363494D01*
X0133397Y0363345D01*
X0133341Y0363197D01*
X0133281Y0363051D01*
X0133217Y0362906D01*
X0133149Y0362763D01*
X0133078Y0362621D01*
X0133004Y0362481D01*
X0132926Y0362344D01*
X0132844Y0362208D01*
X0132760Y0362074D01*
X0132671Y0361943D01*
X0132580Y0361814D01*
X0132485Y0361687D01*
X0132388Y0361562D01*
X0132287Y0361440D01*
X0132183Y0361321D01*
X0132076Y0361204D01*
X0131966Y0361090D01*
X0131853Y0360979D01*
X0131738Y0360870D01*
X0131620Y0360765D01*
X0131499Y0360663D01*
X0131376Y0360563D01*
X0131250Y0360467D01*
X0131122Y0360374D01*
X0130992Y0360284D01*
X0130859Y0360198D01*
X0130724Y0360114D01*
X0130588Y0360035D01*
X0130449Y0359958D01*
X0130308Y0359886D01*
X0130166Y0359816D01*
X0130022Y0359751D01*
X0129876Y0359689D01*
X0129729Y0359631D01*
X0129580Y0359576D01*
X0129430Y0359525D01*
X0129279Y0359478D01*
X0129127Y0359435D01*
X0128974Y0359396D01*
X0128819Y0359360D01*
X0128664Y0359329D01*
X0128508Y0359301D01*
X0128352Y0359277D01*
X0128195Y0359257D01*
X0128037Y0359241D01*
X0127880Y0359229D01*
X0127721Y0359221D01*
X0127563Y0359217D01*
X0127405Y0359217D01*
X0127247Y0359221D01*
X0127088Y0359229D01*
X0126931Y0359241D01*
X0126773Y0359257D01*
X0126616Y0359277D01*
X0126460Y0359301D01*
X0126304Y0359329D01*
X0126149Y0359360D01*
X0125994Y0359396D01*
X0125841Y0359435D01*
X0125689Y0359478D01*
X0125538Y0359525D01*
X0125388Y0359576D01*
X0125239Y0359631D01*
X0125092Y0359689D01*
X0124946Y0359751D01*
X0124802Y0359816D01*
X0124660Y0359886D01*
X0124519Y0359958D01*
X0124380Y0360035D01*
X0124244Y0360114D01*
X0124109Y0360198D01*
X0123976Y0360284D01*
X0123846Y0360374D01*
X0123718Y0360467D01*
X0123592Y0360563D01*
X0123469Y0360663D01*
X0123348Y0360765D01*
X0123230Y0360870D01*
X0123115Y0360979D01*
X0123002Y0361090D01*
X0122892Y0361204D01*
X0122785Y0361321D01*
X0122681Y0361440D01*
X0122580Y0361562D01*
X0122483Y0361687D01*
X0122388Y0361814D01*
X0122297Y0361943D01*
X0122208Y0362074D01*
X0122124Y0362208D01*
X0122042Y0362344D01*
X0121964Y0362481D01*
X0121890Y0362621D01*
X0121819Y0362763D01*
X0121751Y0362906D01*
X0121687Y0363051D01*
X0121627Y0363197D01*
X0121571Y0363345D01*
X0121518Y0363494D01*
X0121469Y0363645D01*
X0121424Y0363797D01*
X0121383Y0363950D01*
X0121345Y0364103D01*
X0121312Y0364258D01*
X0121282Y0364414D01*
X0121256Y0364570D01*
X0121235Y0364727D01*
X0121217Y0364884D01*
X0121203Y0365042D01*
X0121193Y0365200D01*
X0121187Y0365358D01*
X0121185Y0365516D01*
D12*
X0127484Y0365516D03*
X0385280Y0224177D03*
X0385280Y0114177D03*
X0127484Y0011500D03*
X0011500Y0011500D03*
D13*
X0235201Y0094177D03*
X0245201Y0094177D03*
X0255201Y0094177D03*
X0265201Y0094177D03*
X0275201Y0094177D03*
X0285201Y0094177D03*
X0295201Y0094177D03*
X0305201Y0094177D03*
X0325201Y0094177D03*
X0335201Y0094177D03*
X0345201Y0094177D03*
X0355201Y0094177D03*
X0365201Y0094177D03*
X0375201Y0094177D03*
X0375201Y0284177D03*
X0365201Y0284177D03*
X0355201Y0284177D03*
X0345201Y0284177D03*
X0335201Y0284177D03*
X0325201Y0284177D03*
X0315201Y0284177D03*
X0305201Y0284177D03*
X0289201Y0284177D03*
X0279201Y0284177D03*
X0269201Y0284177D03*
X0259201Y0284177D03*
X0249201Y0284177D03*
X0239201Y0284177D03*
X0229201Y0284177D03*
X0219201Y0284177D03*
X0209201Y0284177D03*
X0199201Y0284177D03*
D14*
X0375701Y0204177D03*
X0385701Y0204177D03*
X0385701Y0194177D03*
X0385701Y0184177D03*
X0375701Y0184177D03*
X0375701Y0194177D03*
D15*
X0295639Y0209784D02*
X0295639Y0217050D01*
X0297787Y0217050D01*
X0297787Y0209784D01*
X0295639Y0209784D01*
X0295639Y0210991D02*
X0297787Y0210991D01*
X0297787Y0212198D02*
X0295639Y0212198D01*
X0295639Y0213405D02*
X0297787Y0213405D01*
X0297787Y0214612D02*
X0295639Y0214612D01*
X0295639Y0215819D02*
X0297787Y0215819D01*
X0297787Y0217026D02*
X0295639Y0217026D01*
X0291702Y0217050D02*
X0291702Y0209784D01*
X0291702Y0217050D02*
X0293850Y0217050D01*
X0293850Y0209784D01*
X0291702Y0209784D01*
X0291702Y0210991D02*
X0293850Y0210991D01*
X0293850Y0212198D02*
X0291702Y0212198D01*
X0291702Y0213405D02*
X0293850Y0213405D01*
X0293850Y0214612D02*
X0291702Y0214612D01*
X0291702Y0215819D02*
X0293850Y0215819D01*
X0293850Y0217026D02*
X0291702Y0217026D01*
X0287765Y0217050D02*
X0287765Y0209784D01*
X0287765Y0217050D02*
X0289913Y0217050D01*
X0289913Y0209784D01*
X0287765Y0209784D01*
X0287765Y0210991D02*
X0289913Y0210991D01*
X0289913Y0212198D02*
X0287765Y0212198D01*
X0287765Y0213405D02*
X0289913Y0213405D01*
X0289913Y0214612D02*
X0287765Y0214612D01*
X0287765Y0215819D02*
X0289913Y0215819D01*
X0289913Y0217026D02*
X0287765Y0217026D01*
D16*
X0301539Y0214729D02*
X0303257Y0214729D01*
X0303257Y0213011D01*
X0301539Y0213011D01*
X0301539Y0214729D01*
X0301539Y0214254D02*
X0303257Y0214254D01*
X0305476Y0214729D02*
X0307194Y0214729D01*
X0307194Y0213011D01*
X0305476Y0213011D01*
X0305476Y0214729D01*
X0305476Y0214254D02*
X0307194Y0214254D01*
X0324263Y0194342D02*
X0325981Y0194342D01*
X0324263Y0194342D02*
X0324263Y0196060D01*
X0325981Y0196060D01*
X0325981Y0194342D01*
X0325981Y0195585D02*
X0324263Y0195585D01*
X0328200Y0194342D02*
X0329918Y0194342D01*
X0328200Y0194342D02*
X0328200Y0196060D01*
X0329918Y0196060D01*
X0329918Y0194342D01*
X0329918Y0195585D02*
X0328200Y0195585D01*
X0308461Y0179131D02*
X0306743Y0179131D01*
X0308461Y0179131D02*
X0308461Y0177413D01*
X0306743Y0177413D01*
X0306743Y0179131D01*
X0306743Y0178656D02*
X0308461Y0178656D01*
X0304524Y0179131D02*
X0302806Y0179131D01*
X0304524Y0179131D02*
X0304524Y0177413D01*
X0302806Y0177413D01*
X0302806Y0179131D01*
X0302806Y0178656D02*
X0304524Y0178656D01*
X0300587Y0177806D02*
X0298869Y0177806D01*
X0298869Y0179524D01*
X0300587Y0179524D01*
X0300587Y0177806D01*
X0300587Y0179049D02*
X0298869Y0179049D01*
X0296650Y0177806D02*
X0294932Y0177806D01*
X0294932Y0179524D01*
X0296650Y0179524D01*
X0296650Y0177806D01*
X0296650Y0179049D02*
X0294932Y0179049D01*
X0344879Y0230464D02*
X0344879Y0232182D01*
X0344879Y0230464D02*
X0343161Y0230464D01*
X0343161Y0232182D01*
X0344879Y0232182D01*
X0344879Y0231707D02*
X0343161Y0231707D01*
X0344879Y0234401D02*
X0344879Y0236119D01*
X0344879Y0234401D02*
X0343161Y0234401D01*
X0343161Y0236119D01*
X0344879Y0236119D01*
X0344879Y0235644D02*
X0343161Y0235644D01*
X0337989Y0297635D02*
X0336271Y0297635D01*
X0337989Y0297635D02*
X0337989Y0295917D01*
X0336271Y0295917D01*
X0336271Y0297635D01*
X0336271Y0297160D02*
X0337989Y0297160D01*
X0334052Y0297635D02*
X0332334Y0297635D01*
X0334052Y0297635D02*
X0334052Y0295917D01*
X0332334Y0295917D01*
X0332334Y0297635D01*
X0332334Y0297160D02*
X0334052Y0297160D01*
X0324209Y0297635D02*
X0322491Y0297635D01*
X0324209Y0297635D02*
X0324209Y0295917D01*
X0322491Y0295917D01*
X0322491Y0297635D01*
X0322491Y0297160D02*
X0324209Y0297160D01*
X0320272Y0297635D02*
X0318554Y0297635D01*
X0320272Y0297635D02*
X0320272Y0295917D01*
X0318554Y0295917D01*
X0318554Y0297635D01*
X0318554Y0297160D02*
X0320272Y0297160D01*
X0310430Y0297635D02*
X0308712Y0297635D01*
X0310430Y0297635D02*
X0310430Y0295917D01*
X0308712Y0295917D01*
X0308712Y0297635D01*
X0308712Y0297160D02*
X0310430Y0297160D01*
X0306493Y0297635D02*
X0304775Y0297635D01*
X0306493Y0297635D02*
X0306493Y0295917D01*
X0304775Y0295917D01*
X0304775Y0297635D01*
X0304775Y0297160D02*
X0306493Y0297160D01*
X0296650Y0297635D02*
X0294932Y0297635D01*
X0296650Y0297635D02*
X0296650Y0295917D01*
X0294932Y0295917D01*
X0294932Y0297635D01*
X0294932Y0297160D02*
X0296650Y0297160D01*
X0292713Y0297635D02*
X0290995Y0297635D01*
X0292713Y0297635D02*
X0292713Y0295917D01*
X0290995Y0295917D01*
X0290995Y0297635D01*
X0290995Y0297160D02*
X0292713Y0297160D01*
X0282871Y0297635D02*
X0281153Y0297635D01*
X0282871Y0297635D02*
X0282871Y0295917D01*
X0281153Y0295917D01*
X0281153Y0297635D01*
X0281153Y0297160D02*
X0282871Y0297160D01*
X0278934Y0297635D02*
X0277216Y0297635D01*
X0278934Y0297635D02*
X0278934Y0295917D01*
X0277216Y0295917D01*
X0277216Y0297635D01*
X0277216Y0297160D02*
X0278934Y0297160D01*
X0269091Y0297635D02*
X0267373Y0297635D01*
X0269091Y0297635D02*
X0269091Y0295917D01*
X0267373Y0295917D01*
X0267373Y0297635D01*
X0267373Y0297160D02*
X0269091Y0297160D01*
X0265154Y0297635D02*
X0263436Y0297635D01*
X0265154Y0297635D02*
X0265154Y0295917D01*
X0263436Y0295917D01*
X0263436Y0297635D01*
X0263436Y0297160D02*
X0265154Y0297160D01*
X0255312Y0297635D02*
X0253594Y0297635D01*
X0255312Y0297635D02*
X0255312Y0295917D01*
X0253594Y0295917D01*
X0253594Y0297635D01*
X0253594Y0297160D02*
X0255312Y0297160D01*
X0251375Y0297635D02*
X0249657Y0297635D01*
X0251375Y0297635D02*
X0251375Y0295917D01*
X0249657Y0295917D01*
X0249657Y0297635D01*
X0249657Y0297160D02*
X0251375Y0297160D01*
X0241532Y0297635D02*
X0239814Y0297635D01*
X0241532Y0297635D02*
X0241532Y0295917D01*
X0239814Y0295917D01*
X0239814Y0297635D01*
X0239814Y0297160D02*
X0241532Y0297160D01*
X0237595Y0297635D02*
X0235877Y0297635D01*
X0237595Y0297635D02*
X0237595Y0295917D01*
X0235877Y0295917D01*
X0235877Y0297635D01*
X0235877Y0297160D02*
X0237595Y0297160D01*
X0227753Y0297635D02*
X0226035Y0297635D01*
X0227753Y0297635D02*
X0227753Y0295917D01*
X0226035Y0295917D01*
X0226035Y0297635D01*
X0226035Y0297160D02*
X0227753Y0297160D01*
X0223816Y0297635D02*
X0222098Y0297635D01*
X0223816Y0297635D02*
X0223816Y0295917D01*
X0222098Y0295917D01*
X0222098Y0297635D01*
X0222098Y0297160D02*
X0223816Y0297160D01*
X0213973Y0297635D02*
X0212255Y0297635D01*
X0213973Y0297635D02*
X0213973Y0295917D01*
X0212255Y0295917D01*
X0212255Y0297635D01*
X0212255Y0297160D02*
X0213973Y0297160D01*
X0210036Y0297635D02*
X0208318Y0297635D01*
X0210036Y0297635D02*
X0210036Y0295917D01*
X0208318Y0295917D01*
X0208318Y0297635D01*
X0208318Y0297160D02*
X0210036Y0297160D01*
X0200194Y0297635D02*
X0198476Y0297635D01*
X0200194Y0297635D02*
X0200194Y0295917D01*
X0198476Y0295917D01*
X0198476Y0297635D01*
X0198476Y0297160D02*
X0200194Y0297160D01*
X0196257Y0297635D02*
X0194539Y0297635D01*
X0196257Y0297635D02*
X0196257Y0295917D01*
X0194539Y0295917D01*
X0194539Y0297635D01*
X0194539Y0297160D02*
X0196257Y0297160D01*
X0186414Y0297635D02*
X0184696Y0297635D01*
X0186414Y0297635D02*
X0186414Y0295917D01*
X0184696Y0295917D01*
X0184696Y0297635D01*
X0184696Y0297160D02*
X0186414Y0297160D01*
X0182477Y0297635D02*
X0180759Y0297635D01*
X0182477Y0297635D02*
X0182477Y0295917D01*
X0180759Y0295917D01*
X0180759Y0297635D01*
X0180759Y0297160D02*
X0182477Y0297160D01*
X0176572Y0325194D02*
X0174854Y0325194D01*
X0176572Y0325194D02*
X0176572Y0323476D01*
X0174854Y0323476D01*
X0174854Y0325194D01*
X0174854Y0324719D02*
X0176572Y0324719D01*
X0172635Y0325194D02*
X0170917Y0325194D01*
X0172635Y0325194D02*
X0172635Y0323476D01*
X0170917Y0323476D01*
X0170917Y0325194D01*
X0170917Y0324719D02*
X0172635Y0324719D01*
X0156887Y0325194D02*
X0155169Y0325194D01*
X0156887Y0325194D02*
X0156887Y0323476D01*
X0155169Y0323476D01*
X0155169Y0325194D01*
X0155169Y0324719D02*
X0156887Y0324719D01*
X0152950Y0325194D02*
X0151232Y0325194D01*
X0152950Y0325194D02*
X0152950Y0323476D01*
X0151232Y0323476D01*
X0151232Y0325194D01*
X0151232Y0324719D02*
X0152950Y0324719D01*
X0190602Y0325194D02*
X0192320Y0325194D01*
X0192320Y0323476D01*
X0190602Y0323476D01*
X0190602Y0325194D01*
X0190602Y0324719D02*
X0192320Y0324719D01*
X0194539Y0325194D02*
X0196257Y0325194D01*
X0196257Y0323476D01*
X0194539Y0323476D01*
X0194539Y0325194D01*
X0194539Y0324719D02*
X0196257Y0324719D01*
X0210287Y0325194D02*
X0212005Y0325194D01*
X0212005Y0323476D01*
X0210287Y0323476D01*
X0210287Y0325194D01*
X0210287Y0324719D02*
X0212005Y0324719D01*
X0214224Y0325194D02*
X0215942Y0325194D01*
X0215942Y0323476D01*
X0214224Y0323476D01*
X0214224Y0325194D01*
X0214224Y0324719D02*
X0215942Y0324719D01*
X0229972Y0325194D02*
X0231690Y0325194D01*
X0231690Y0323476D01*
X0229972Y0323476D01*
X0229972Y0325194D01*
X0229972Y0324719D02*
X0231690Y0324719D01*
X0233909Y0325194D02*
X0235627Y0325194D01*
X0235627Y0323476D01*
X0233909Y0323476D01*
X0233909Y0325194D01*
X0233909Y0324719D02*
X0235627Y0324719D01*
X0249657Y0325194D02*
X0251375Y0325194D01*
X0251375Y0323476D01*
X0249657Y0323476D01*
X0249657Y0325194D01*
X0249657Y0324719D02*
X0251375Y0324719D01*
X0253594Y0325194D02*
X0255312Y0325194D01*
X0255312Y0323476D01*
X0253594Y0323476D01*
X0253594Y0325194D01*
X0253594Y0324719D02*
X0255312Y0324719D01*
X0269342Y0325194D02*
X0271060Y0325194D01*
X0271060Y0323476D01*
X0269342Y0323476D01*
X0269342Y0325194D01*
X0269342Y0324719D02*
X0271060Y0324719D01*
X0273279Y0325194D02*
X0274997Y0325194D01*
X0274997Y0323476D01*
X0273279Y0323476D01*
X0273279Y0325194D01*
X0273279Y0324719D02*
X0274997Y0324719D01*
X0289027Y0325194D02*
X0290745Y0325194D01*
X0290745Y0323476D01*
X0289027Y0323476D01*
X0289027Y0325194D01*
X0289027Y0324719D02*
X0290745Y0324719D01*
X0292964Y0325194D02*
X0294682Y0325194D01*
X0294682Y0323476D01*
X0292964Y0323476D01*
X0292964Y0325194D01*
X0292964Y0324719D02*
X0294682Y0324719D01*
X0308712Y0325194D02*
X0310430Y0325194D01*
X0310430Y0323476D01*
X0308712Y0323476D01*
X0308712Y0325194D01*
X0308712Y0324719D02*
X0310430Y0324719D01*
X0312649Y0325194D02*
X0314367Y0325194D01*
X0314367Y0323476D01*
X0312649Y0323476D01*
X0312649Y0325194D01*
X0312649Y0324719D02*
X0314367Y0324719D01*
X0328397Y0325194D02*
X0330115Y0325194D01*
X0330115Y0323476D01*
X0328397Y0323476D01*
X0328397Y0325194D01*
X0328397Y0324719D02*
X0330115Y0324719D01*
X0332334Y0325194D02*
X0334052Y0325194D01*
X0334052Y0323476D01*
X0332334Y0323476D01*
X0332334Y0325194D01*
X0332334Y0324719D02*
X0334052Y0324719D01*
X0348082Y0325194D02*
X0349800Y0325194D01*
X0349800Y0323476D01*
X0348082Y0323476D01*
X0348082Y0325194D01*
X0348082Y0324719D02*
X0349800Y0324719D01*
X0352019Y0325194D02*
X0353737Y0325194D01*
X0353737Y0323476D01*
X0352019Y0323476D01*
X0352019Y0325194D01*
X0352019Y0324719D02*
X0353737Y0324719D01*
X0367767Y0325194D02*
X0369485Y0325194D01*
X0369485Y0323476D01*
X0367767Y0323476D01*
X0367767Y0325194D01*
X0367767Y0324719D02*
X0369485Y0324719D01*
X0371704Y0325194D02*
X0373422Y0325194D01*
X0373422Y0323476D01*
X0371704Y0323476D01*
X0371704Y0325194D01*
X0371704Y0324719D02*
X0373422Y0324719D01*
X0337989Y0079381D02*
X0336271Y0079381D01*
X0336271Y0081099D01*
X0337989Y0081099D01*
X0337989Y0079381D01*
X0337989Y0080624D02*
X0336271Y0080624D01*
X0334052Y0079381D02*
X0332334Y0079381D01*
X0332334Y0081099D01*
X0334052Y0081099D01*
X0334052Y0079381D01*
X0334052Y0080624D02*
X0332334Y0080624D01*
X0324209Y0079381D02*
X0322491Y0079381D01*
X0322491Y0081099D01*
X0324209Y0081099D01*
X0324209Y0079381D01*
X0324209Y0080624D02*
X0322491Y0080624D01*
X0320272Y0079381D02*
X0318554Y0079381D01*
X0318554Y0081099D01*
X0320272Y0081099D01*
X0320272Y0079381D01*
X0320272Y0080624D02*
X0318554Y0080624D01*
X0310430Y0079381D02*
X0308712Y0079381D01*
X0308712Y0081099D01*
X0310430Y0081099D01*
X0310430Y0079381D01*
X0310430Y0080624D02*
X0308712Y0080624D01*
X0306493Y0079381D02*
X0304775Y0079381D01*
X0304775Y0081099D01*
X0306493Y0081099D01*
X0306493Y0079381D01*
X0306493Y0080624D02*
X0304775Y0080624D01*
X0296650Y0079381D02*
X0294932Y0079381D01*
X0294932Y0081099D01*
X0296650Y0081099D01*
X0296650Y0079381D01*
X0296650Y0080624D02*
X0294932Y0080624D01*
X0292713Y0079381D02*
X0290995Y0079381D01*
X0290995Y0081099D01*
X0292713Y0081099D01*
X0292713Y0079381D01*
X0292713Y0080624D02*
X0290995Y0080624D01*
X0282871Y0079381D02*
X0281153Y0079381D01*
X0281153Y0081099D01*
X0282871Y0081099D01*
X0282871Y0079381D01*
X0282871Y0080624D02*
X0281153Y0080624D01*
X0278934Y0079381D02*
X0277216Y0079381D01*
X0277216Y0081099D01*
X0278934Y0081099D01*
X0278934Y0079381D01*
X0278934Y0080624D02*
X0277216Y0080624D01*
X0269091Y0079381D02*
X0267373Y0079381D01*
X0267373Y0081099D01*
X0269091Y0081099D01*
X0269091Y0079381D01*
X0269091Y0080624D02*
X0267373Y0080624D01*
X0265154Y0079381D02*
X0263436Y0079381D01*
X0263436Y0081099D01*
X0265154Y0081099D01*
X0265154Y0079381D01*
X0265154Y0080624D02*
X0263436Y0080624D01*
X0255312Y0079381D02*
X0253594Y0079381D01*
X0253594Y0081099D01*
X0255312Y0081099D01*
X0255312Y0079381D01*
X0255312Y0080624D02*
X0253594Y0080624D01*
X0251375Y0079381D02*
X0249657Y0079381D01*
X0249657Y0081099D01*
X0251375Y0081099D01*
X0251375Y0079381D01*
X0251375Y0080624D02*
X0249657Y0080624D01*
X0241532Y0079381D02*
X0239814Y0079381D01*
X0239814Y0081099D01*
X0241532Y0081099D01*
X0241532Y0079381D01*
X0241532Y0080624D02*
X0239814Y0080624D01*
X0237595Y0079381D02*
X0235877Y0079381D01*
X0235877Y0081099D01*
X0237595Y0081099D01*
X0237595Y0079381D01*
X0237595Y0080624D02*
X0235877Y0080624D01*
X0227753Y0079381D02*
X0226035Y0079381D01*
X0226035Y0081099D01*
X0227753Y0081099D01*
X0227753Y0079381D01*
X0227753Y0080624D02*
X0226035Y0080624D01*
X0223816Y0079381D02*
X0222098Y0079381D01*
X0222098Y0081099D01*
X0223816Y0081099D01*
X0223816Y0079381D01*
X0223816Y0080624D02*
X0222098Y0080624D01*
X0213973Y0079381D02*
X0212255Y0079381D01*
X0212255Y0081099D01*
X0213973Y0081099D01*
X0213973Y0079381D01*
X0213973Y0080624D02*
X0212255Y0080624D01*
X0210036Y0079381D02*
X0208318Y0079381D01*
X0208318Y0081099D01*
X0210036Y0081099D01*
X0210036Y0079381D01*
X0210036Y0080624D02*
X0208318Y0080624D01*
X0200194Y0079381D02*
X0198476Y0079381D01*
X0198476Y0081099D01*
X0200194Y0081099D01*
X0200194Y0079381D01*
X0200194Y0080624D02*
X0198476Y0080624D01*
X0196257Y0079381D02*
X0194539Y0079381D01*
X0194539Y0081099D01*
X0196257Y0081099D01*
X0196257Y0079381D01*
X0196257Y0080624D02*
X0194539Y0080624D01*
X0186414Y0079381D02*
X0184696Y0079381D01*
X0184696Y0081099D01*
X0186414Y0081099D01*
X0186414Y0079381D01*
X0186414Y0080624D02*
X0184696Y0080624D01*
X0182477Y0079381D02*
X0180759Y0079381D01*
X0180759Y0081099D01*
X0182477Y0081099D01*
X0182477Y0079381D01*
X0182477Y0080624D02*
X0180759Y0080624D01*
X0184696Y0051822D02*
X0186414Y0051822D01*
X0184696Y0051822D02*
X0184696Y0053540D01*
X0186414Y0053540D01*
X0186414Y0051822D01*
X0186414Y0053065D02*
X0184696Y0053065D01*
X0188633Y0051822D02*
X0190351Y0051822D01*
X0188633Y0051822D02*
X0188633Y0053540D01*
X0190351Y0053540D01*
X0190351Y0051822D01*
X0190351Y0053065D02*
X0188633Y0053065D01*
X0204381Y0051822D02*
X0206099Y0051822D01*
X0204381Y0051822D02*
X0204381Y0053540D01*
X0206099Y0053540D01*
X0206099Y0051822D01*
X0206099Y0053065D02*
X0204381Y0053065D01*
X0208318Y0051822D02*
X0210036Y0051822D01*
X0208318Y0051822D02*
X0208318Y0053540D01*
X0210036Y0053540D01*
X0210036Y0051822D01*
X0210036Y0053065D02*
X0208318Y0053065D01*
X0224066Y0051822D02*
X0225784Y0051822D01*
X0224066Y0051822D02*
X0224066Y0053540D01*
X0225784Y0053540D01*
X0225784Y0051822D01*
X0225784Y0053065D02*
X0224066Y0053065D01*
X0228003Y0051822D02*
X0229721Y0051822D01*
X0228003Y0051822D02*
X0228003Y0053540D01*
X0229721Y0053540D01*
X0229721Y0051822D01*
X0229721Y0053065D02*
X0228003Y0053065D01*
X0243751Y0051822D02*
X0245469Y0051822D01*
X0243751Y0051822D02*
X0243751Y0053540D01*
X0245469Y0053540D01*
X0245469Y0051822D01*
X0245469Y0053065D02*
X0243751Y0053065D01*
X0247688Y0051822D02*
X0249406Y0051822D01*
X0247688Y0051822D02*
X0247688Y0053540D01*
X0249406Y0053540D01*
X0249406Y0051822D01*
X0249406Y0053065D02*
X0247688Y0053065D01*
X0263436Y0051822D02*
X0265154Y0051822D01*
X0263436Y0051822D02*
X0263436Y0053540D01*
X0265154Y0053540D01*
X0265154Y0051822D01*
X0265154Y0053065D02*
X0263436Y0053065D01*
X0267373Y0051822D02*
X0269091Y0051822D01*
X0267373Y0051822D02*
X0267373Y0053540D01*
X0269091Y0053540D01*
X0269091Y0051822D01*
X0269091Y0053065D02*
X0267373Y0053065D01*
X0283121Y0051822D02*
X0284839Y0051822D01*
X0283121Y0051822D02*
X0283121Y0053540D01*
X0284839Y0053540D01*
X0284839Y0051822D01*
X0284839Y0053065D02*
X0283121Y0053065D01*
X0287058Y0051822D02*
X0288776Y0051822D01*
X0287058Y0051822D02*
X0287058Y0053540D01*
X0288776Y0053540D01*
X0288776Y0051822D01*
X0288776Y0053065D02*
X0287058Y0053065D01*
X0302806Y0051822D02*
X0304524Y0051822D01*
X0302806Y0051822D02*
X0302806Y0053540D01*
X0304524Y0053540D01*
X0304524Y0051822D01*
X0304524Y0053065D02*
X0302806Y0053065D01*
X0306743Y0051822D02*
X0308461Y0051822D01*
X0306743Y0051822D02*
X0306743Y0053540D01*
X0308461Y0053540D01*
X0308461Y0051822D01*
X0308461Y0053065D02*
X0306743Y0053065D01*
X0322491Y0051822D02*
X0324209Y0051822D01*
X0322491Y0051822D02*
X0322491Y0053540D01*
X0324209Y0053540D01*
X0324209Y0051822D01*
X0324209Y0053065D02*
X0322491Y0053065D01*
X0326428Y0051822D02*
X0328146Y0051822D01*
X0326428Y0051822D02*
X0326428Y0053540D01*
X0328146Y0053540D01*
X0328146Y0051822D01*
X0328146Y0053065D02*
X0326428Y0053065D01*
X0342176Y0051822D02*
X0343894Y0051822D01*
X0342176Y0051822D02*
X0342176Y0053540D01*
X0343894Y0053540D01*
X0343894Y0051822D01*
X0343894Y0053065D02*
X0342176Y0053065D01*
X0346113Y0051822D02*
X0347831Y0051822D01*
X0346113Y0051822D02*
X0346113Y0053540D01*
X0347831Y0053540D01*
X0347831Y0051822D01*
X0347831Y0053065D02*
X0346113Y0053065D01*
X0346847Y0064367D02*
X0345129Y0064367D01*
X0346847Y0064367D02*
X0346847Y0062649D01*
X0345129Y0062649D01*
X0345129Y0064367D01*
X0345129Y0063892D02*
X0346847Y0063892D01*
X0349066Y0064367D02*
X0350784Y0064367D01*
X0350784Y0062649D01*
X0349066Y0062649D01*
X0349066Y0064367D01*
X0349066Y0063892D02*
X0350784Y0063892D01*
X0356940Y0062649D02*
X0358658Y0062649D01*
X0356940Y0062649D02*
X0356940Y0064367D01*
X0358658Y0064367D01*
X0358658Y0062649D01*
X0358658Y0063892D02*
X0356940Y0063892D01*
X0360877Y0062649D02*
X0362595Y0062649D01*
X0360877Y0062649D02*
X0360877Y0064367D01*
X0362595Y0064367D01*
X0362595Y0062649D01*
X0362595Y0063892D02*
X0360877Y0063892D01*
X0364814Y0062649D02*
X0366532Y0062649D01*
X0364814Y0062649D02*
X0364814Y0064367D01*
X0366532Y0064367D01*
X0366532Y0062649D01*
X0366532Y0063892D02*
X0364814Y0063892D01*
X0368751Y0062649D02*
X0370469Y0062649D01*
X0368751Y0062649D02*
X0368751Y0064367D01*
X0370469Y0064367D01*
X0370469Y0062649D01*
X0370469Y0063892D02*
X0368751Y0063892D01*
X0372688Y0062649D02*
X0374406Y0062649D01*
X0372688Y0062649D02*
X0372688Y0064367D01*
X0374406Y0064367D01*
X0374406Y0062649D01*
X0374406Y0063892D02*
X0372688Y0063892D01*
X0376625Y0062649D02*
X0378343Y0062649D01*
X0376625Y0062649D02*
X0376625Y0064367D01*
X0378343Y0064367D01*
X0378343Y0062649D01*
X0378343Y0063892D02*
X0376625Y0063892D01*
X0367516Y0051822D02*
X0365798Y0051822D01*
X0365798Y0053540D01*
X0367516Y0053540D01*
X0367516Y0051822D01*
X0367516Y0053065D02*
X0365798Y0053065D01*
X0363579Y0051822D02*
X0361861Y0051822D01*
X0361861Y0053540D01*
X0363579Y0053540D01*
X0363579Y0051822D01*
X0363579Y0053065D02*
X0361861Y0053065D01*
X0170666Y0051822D02*
X0168948Y0051822D01*
X0168948Y0053540D01*
X0170666Y0053540D01*
X0170666Y0051822D01*
X0170666Y0053065D02*
X0168948Y0053065D01*
X0166729Y0051822D02*
X0165011Y0051822D01*
X0165011Y0053540D01*
X0166729Y0053540D01*
X0166729Y0051822D01*
X0166729Y0053065D02*
X0165011Y0053065D01*
X0150981Y0051822D02*
X0149263Y0051822D01*
X0149263Y0053540D01*
X0150981Y0053540D01*
X0150981Y0051822D01*
X0150981Y0053065D02*
X0149263Y0053065D01*
X0147044Y0051822D02*
X0145326Y0051822D01*
X0145326Y0053540D01*
X0147044Y0053540D01*
X0147044Y0051822D01*
X0147044Y0053065D02*
X0145326Y0053065D01*
X0118284Y0066586D02*
X0116566Y0066586D01*
X0116566Y0071060D01*
X0118284Y0071060D01*
X0118284Y0066586D01*
X0118284Y0067829D02*
X0116566Y0067829D01*
X0116566Y0069072D02*
X0118284Y0069072D01*
X0118284Y0070315D02*
X0116566Y0070315D01*
X0113284Y0066586D02*
X0111566Y0066586D01*
X0111566Y0071060D01*
X0113284Y0071060D01*
X0113284Y0066586D01*
X0113284Y0067829D02*
X0111566Y0067829D01*
X0111566Y0069072D02*
X0113284Y0069072D01*
X0113284Y0070315D02*
X0111566Y0070315D01*
X0108284Y0066586D02*
X0106566Y0066586D01*
X0106566Y0071060D01*
X0108284Y0071060D01*
X0108284Y0066586D01*
X0108284Y0067829D02*
X0106566Y0067829D01*
X0106566Y0069072D02*
X0108284Y0069072D01*
X0108284Y0070315D02*
X0106566Y0070315D01*
X0103284Y0066586D02*
X0101566Y0066586D01*
X0101566Y0071060D01*
X0103284Y0071060D01*
X0103284Y0066586D01*
X0103284Y0067829D02*
X0101566Y0067829D01*
X0101566Y0069072D02*
X0103284Y0069072D01*
X0103284Y0070315D02*
X0101566Y0070315D01*
X0098284Y0066586D02*
X0096566Y0066586D01*
X0096566Y0071060D01*
X0098284Y0071060D01*
X0098284Y0066586D01*
X0098284Y0067829D02*
X0096566Y0067829D01*
X0096566Y0069072D02*
X0098284Y0069072D01*
X0098284Y0070315D02*
X0096566Y0070315D01*
X0093284Y0066586D02*
X0091566Y0066586D01*
X0091566Y0071060D01*
X0093284Y0071060D01*
X0093284Y0066586D01*
X0093284Y0067829D02*
X0091566Y0067829D01*
X0091566Y0069072D02*
X0093284Y0069072D01*
X0093284Y0070315D02*
X0091566Y0070315D01*
X0088284Y0066586D02*
X0086566Y0066586D01*
X0086566Y0071060D01*
X0088284Y0071060D01*
X0088284Y0066586D01*
X0088284Y0067829D02*
X0086566Y0067829D01*
X0086566Y0069072D02*
X0088284Y0069072D01*
X0088284Y0070315D02*
X0086566Y0070315D01*
X0083284Y0066586D02*
X0081566Y0066586D01*
X0081566Y0071060D01*
X0083284Y0071060D01*
X0083284Y0066586D01*
X0083284Y0067829D02*
X0081566Y0067829D01*
X0081566Y0069072D02*
X0083284Y0069072D01*
X0083284Y0070315D02*
X0081566Y0070315D01*
X0076428Y0069288D02*
X0076428Y0067570D01*
X0076428Y0069288D02*
X0078146Y0069288D01*
X0078146Y0067570D01*
X0076428Y0067570D01*
X0076428Y0068813D02*
X0078146Y0068813D01*
X0076428Y0065351D02*
X0076428Y0063633D01*
X0076428Y0065351D02*
X0078146Y0065351D01*
X0078146Y0063633D01*
X0076428Y0063633D01*
X0076428Y0064876D02*
X0078146Y0064876D01*
X0081566Y0077609D02*
X0083284Y0077609D01*
X0081566Y0077609D02*
X0081566Y0082083D01*
X0083284Y0082083D01*
X0083284Y0077609D01*
X0083284Y0078852D02*
X0081566Y0078852D01*
X0081566Y0080095D02*
X0083284Y0080095D01*
X0083284Y0081338D02*
X0081566Y0081338D01*
X0086566Y0077609D02*
X0088284Y0077609D01*
X0086566Y0077609D02*
X0086566Y0082083D01*
X0088284Y0082083D01*
X0088284Y0077609D01*
X0088284Y0078852D02*
X0086566Y0078852D01*
X0086566Y0080095D02*
X0088284Y0080095D01*
X0088284Y0081338D02*
X0086566Y0081338D01*
X0091566Y0077609D02*
X0093284Y0077609D01*
X0091566Y0077609D02*
X0091566Y0082083D01*
X0093284Y0082083D01*
X0093284Y0077609D01*
X0093284Y0078852D02*
X0091566Y0078852D01*
X0091566Y0080095D02*
X0093284Y0080095D01*
X0093284Y0081338D02*
X0091566Y0081338D01*
X0096566Y0077609D02*
X0098284Y0077609D01*
X0096566Y0077609D02*
X0096566Y0082083D01*
X0098284Y0082083D01*
X0098284Y0077609D01*
X0098284Y0078852D02*
X0096566Y0078852D01*
X0096566Y0080095D02*
X0098284Y0080095D01*
X0098284Y0081338D02*
X0096566Y0081338D01*
X0101566Y0077609D02*
X0103284Y0077609D01*
X0101566Y0077609D02*
X0101566Y0082083D01*
X0103284Y0082083D01*
X0103284Y0077609D01*
X0103284Y0078852D02*
X0101566Y0078852D01*
X0101566Y0080095D02*
X0103284Y0080095D01*
X0103284Y0081338D02*
X0101566Y0081338D01*
X0106566Y0077609D02*
X0108284Y0077609D01*
X0106566Y0077609D02*
X0106566Y0082083D01*
X0108284Y0082083D01*
X0108284Y0077609D01*
X0108284Y0078852D02*
X0106566Y0078852D01*
X0106566Y0080095D02*
X0108284Y0080095D01*
X0108284Y0081338D02*
X0106566Y0081338D01*
X0111566Y0077609D02*
X0113284Y0077609D01*
X0111566Y0077609D02*
X0111566Y0082083D01*
X0113284Y0082083D01*
X0113284Y0077609D01*
X0113284Y0078852D02*
X0111566Y0078852D01*
X0111566Y0080095D02*
X0113284Y0080095D01*
X0113284Y0081338D02*
X0111566Y0081338D01*
X0116566Y0077609D02*
X0118284Y0077609D01*
X0116566Y0077609D02*
X0116566Y0082083D01*
X0118284Y0082083D01*
X0118284Y0077609D01*
X0118284Y0078852D02*
X0116566Y0078852D01*
X0116566Y0080095D02*
X0118284Y0080095D01*
X0118284Y0081338D02*
X0116566Y0081338D01*
X0116566Y0113830D02*
X0118284Y0113830D01*
X0116566Y0113830D02*
X0116566Y0118304D01*
X0118284Y0118304D01*
X0118284Y0113830D01*
X0118284Y0115073D02*
X0116566Y0115073D01*
X0116566Y0116316D02*
X0118284Y0116316D01*
X0118284Y0117559D02*
X0116566Y0117559D01*
X0113284Y0113830D02*
X0111566Y0113830D01*
X0111566Y0118304D01*
X0113284Y0118304D01*
X0113284Y0113830D01*
X0113284Y0115073D02*
X0111566Y0115073D01*
X0111566Y0116316D02*
X0113284Y0116316D01*
X0113284Y0117559D02*
X0111566Y0117559D01*
X0108284Y0113830D02*
X0106566Y0113830D01*
X0106566Y0118304D01*
X0108284Y0118304D01*
X0108284Y0113830D01*
X0108284Y0115073D02*
X0106566Y0115073D01*
X0106566Y0116316D02*
X0108284Y0116316D01*
X0108284Y0117559D02*
X0106566Y0117559D01*
X0103284Y0113830D02*
X0101566Y0113830D01*
X0101566Y0118304D01*
X0103284Y0118304D01*
X0103284Y0113830D01*
X0103284Y0115073D02*
X0101566Y0115073D01*
X0101566Y0116316D02*
X0103284Y0116316D01*
X0103284Y0117559D02*
X0101566Y0117559D01*
X0098284Y0113830D02*
X0096566Y0113830D01*
X0096566Y0118304D01*
X0098284Y0118304D01*
X0098284Y0113830D01*
X0098284Y0115073D02*
X0096566Y0115073D01*
X0096566Y0116316D02*
X0098284Y0116316D01*
X0098284Y0117559D02*
X0096566Y0117559D01*
X0093284Y0113830D02*
X0091566Y0113830D01*
X0091566Y0118304D01*
X0093284Y0118304D01*
X0093284Y0113830D01*
X0093284Y0115073D02*
X0091566Y0115073D01*
X0091566Y0116316D02*
X0093284Y0116316D01*
X0093284Y0117559D02*
X0091566Y0117559D01*
X0088284Y0113830D02*
X0086566Y0113830D01*
X0086566Y0118304D01*
X0088284Y0118304D01*
X0088284Y0113830D01*
X0088284Y0115073D02*
X0086566Y0115073D01*
X0086566Y0116316D02*
X0088284Y0116316D01*
X0088284Y0117559D02*
X0086566Y0117559D01*
X0083284Y0113830D02*
X0081566Y0113830D01*
X0081566Y0118304D01*
X0083284Y0118304D01*
X0083284Y0113830D01*
X0083284Y0115073D02*
X0081566Y0115073D01*
X0081566Y0116316D02*
X0083284Y0116316D01*
X0083284Y0117559D02*
X0081566Y0117559D01*
X0076428Y0116532D02*
X0076428Y0114814D01*
X0076428Y0116532D02*
X0078146Y0116532D01*
X0078146Y0114814D01*
X0076428Y0114814D01*
X0076428Y0116057D02*
X0078146Y0116057D01*
X0076428Y0112595D02*
X0076428Y0110877D01*
X0076428Y0112595D02*
X0078146Y0112595D01*
X0078146Y0110877D01*
X0076428Y0110877D01*
X0076428Y0112120D02*
X0078146Y0112120D01*
X0081566Y0126822D02*
X0083284Y0126822D01*
X0081566Y0126822D02*
X0081566Y0131296D01*
X0083284Y0131296D01*
X0083284Y0126822D01*
X0083284Y0128065D02*
X0081566Y0128065D01*
X0081566Y0129308D02*
X0083284Y0129308D01*
X0083284Y0130551D02*
X0081566Y0130551D01*
X0086566Y0126822D02*
X0088284Y0126822D01*
X0086566Y0126822D02*
X0086566Y0131296D01*
X0088284Y0131296D01*
X0088284Y0126822D01*
X0088284Y0128065D02*
X0086566Y0128065D01*
X0086566Y0129308D02*
X0088284Y0129308D01*
X0088284Y0130551D02*
X0086566Y0130551D01*
X0091566Y0126822D02*
X0093284Y0126822D01*
X0091566Y0126822D02*
X0091566Y0131296D01*
X0093284Y0131296D01*
X0093284Y0126822D01*
X0093284Y0128065D02*
X0091566Y0128065D01*
X0091566Y0129308D02*
X0093284Y0129308D01*
X0093284Y0130551D02*
X0091566Y0130551D01*
X0096566Y0126822D02*
X0098284Y0126822D01*
X0096566Y0126822D02*
X0096566Y0131296D01*
X0098284Y0131296D01*
X0098284Y0126822D01*
X0098284Y0128065D02*
X0096566Y0128065D01*
X0096566Y0129308D02*
X0098284Y0129308D01*
X0098284Y0130551D02*
X0096566Y0130551D01*
X0101566Y0126822D02*
X0103284Y0126822D01*
X0101566Y0126822D02*
X0101566Y0131296D01*
X0103284Y0131296D01*
X0103284Y0126822D01*
X0103284Y0128065D02*
X0101566Y0128065D01*
X0101566Y0129308D02*
X0103284Y0129308D01*
X0103284Y0130551D02*
X0101566Y0130551D01*
X0106566Y0126822D02*
X0108284Y0126822D01*
X0106566Y0126822D02*
X0106566Y0131296D01*
X0108284Y0131296D01*
X0108284Y0126822D01*
X0108284Y0128065D02*
X0106566Y0128065D01*
X0106566Y0129308D02*
X0108284Y0129308D01*
X0108284Y0130551D02*
X0106566Y0130551D01*
X0111566Y0126822D02*
X0113284Y0126822D01*
X0111566Y0126822D02*
X0111566Y0131296D01*
X0113284Y0131296D01*
X0113284Y0126822D01*
X0113284Y0128065D02*
X0111566Y0128065D01*
X0111566Y0129308D02*
X0113284Y0129308D01*
X0113284Y0130551D02*
X0111566Y0130551D01*
X0116566Y0126822D02*
X0118284Y0126822D01*
X0116566Y0126822D02*
X0116566Y0131296D01*
X0118284Y0131296D01*
X0118284Y0126822D01*
X0118284Y0128065D02*
X0116566Y0128065D01*
X0116566Y0129308D02*
X0118284Y0129308D01*
X0118284Y0130551D02*
X0116566Y0130551D01*
X0116566Y0163043D02*
X0118284Y0163043D01*
X0116566Y0163043D02*
X0116566Y0167517D01*
X0118284Y0167517D01*
X0118284Y0163043D01*
X0118284Y0164286D02*
X0116566Y0164286D01*
X0116566Y0165529D02*
X0118284Y0165529D01*
X0118284Y0166772D02*
X0116566Y0166772D01*
X0113284Y0163043D02*
X0111566Y0163043D01*
X0111566Y0167517D01*
X0113284Y0167517D01*
X0113284Y0163043D01*
X0113284Y0164286D02*
X0111566Y0164286D01*
X0111566Y0165529D02*
X0113284Y0165529D01*
X0113284Y0166772D02*
X0111566Y0166772D01*
X0108284Y0163043D02*
X0106566Y0163043D01*
X0106566Y0167517D01*
X0108284Y0167517D01*
X0108284Y0163043D01*
X0108284Y0164286D02*
X0106566Y0164286D01*
X0106566Y0165529D02*
X0108284Y0165529D01*
X0108284Y0166772D02*
X0106566Y0166772D01*
X0103284Y0163043D02*
X0101566Y0163043D01*
X0101566Y0167517D01*
X0103284Y0167517D01*
X0103284Y0163043D01*
X0103284Y0164286D02*
X0101566Y0164286D01*
X0101566Y0165529D02*
X0103284Y0165529D01*
X0103284Y0166772D02*
X0101566Y0166772D01*
X0098284Y0163043D02*
X0096566Y0163043D01*
X0096566Y0167517D01*
X0098284Y0167517D01*
X0098284Y0163043D01*
X0098284Y0164286D02*
X0096566Y0164286D01*
X0096566Y0165529D02*
X0098284Y0165529D01*
X0098284Y0166772D02*
X0096566Y0166772D01*
X0093284Y0163043D02*
X0091566Y0163043D01*
X0091566Y0167517D01*
X0093284Y0167517D01*
X0093284Y0163043D01*
X0093284Y0164286D02*
X0091566Y0164286D01*
X0091566Y0165529D02*
X0093284Y0165529D01*
X0093284Y0166772D02*
X0091566Y0166772D01*
X0088284Y0163043D02*
X0086566Y0163043D01*
X0086566Y0167517D01*
X0088284Y0167517D01*
X0088284Y0163043D01*
X0088284Y0164286D02*
X0086566Y0164286D01*
X0086566Y0165529D02*
X0088284Y0165529D01*
X0088284Y0166772D02*
X0086566Y0166772D01*
X0083284Y0163043D02*
X0081566Y0163043D01*
X0081566Y0167517D01*
X0083284Y0167517D01*
X0083284Y0163043D01*
X0083284Y0164286D02*
X0081566Y0164286D01*
X0081566Y0165529D02*
X0083284Y0165529D01*
X0083284Y0166772D02*
X0081566Y0166772D01*
X0076428Y0165745D02*
X0076428Y0164027D01*
X0076428Y0165745D02*
X0078146Y0165745D01*
X0078146Y0164027D01*
X0076428Y0164027D01*
X0076428Y0165270D02*
X0078146Y0165270D01*
X0076428Y0161808D02*
X0076428Y0160090D01*
X0076428Y0161808D02*
X0078146Y0161808D01*
X0078146Y0160090D01*
X0076428Y0160090D01*
X0076428Y0161333D02*
X0078146Y0161333D01*
X0081566Y0176035D02*
X0083284Y0176035D01*
X0081566Y0176035D02*
X0081566Y0180509D01*
X0083284Y0180509D01*
X0083284Y0176035D01*
X0083284Y0177278D02*
X0081566Y0177278D01*
X0081566Y0178521D02*
X0083284Y0178521D01*
X0083284Y0179764D02*
X0081566Y0179764D01*
X0086566Y0176035D02*
X0088284Y0176035D01*
X0086566Y0176035D02*
X0086566Y0180509D01*
X0088284Y0180509D01*
X0088284Y0176035D01*
X0088284Y0177278D02*
X0086566Y0177278D01*
X0086566Y0178521D02*
X0088284Y0178521D01*
X0088284Y0179764D02*
X0086566Y0179764D01*
X0091566Y0176035D02*
X0093284Y0176035D01*
X0091566Y0176035D02*
X0091566Y0180509D01*
X0093284Y0180509D01*
X0093284Y0176035D01*
X0093284Y0177278D02*
X0091566Y0177278D01*
X0091566Y0178521D02*
X0093284Y0178521D01*
X0093284Y0179764D02*
X0091566Y0179764D01*
X0096566Y0176035D02*
X0098284Y0176035D01*
X0096566Y0176035D02*
X0096566Y0180509D01*
X0098284Y0180509D01*
X0098284Y0176035D01*
X0098284Y0177278D02*
X0096566Y0177278D01*
X0096566Y0178521D02*
X0098284Y0178521D01*
X0098284Y0179764D02*
X0096566Y0179764D01*
X0101566Y0176035D02*
X0103284Y0176035D01*
X0101566Y0176035D02*
X0101566Y0180509D01*
X0103284Y0180509D01*
X0103284Y0176035D01*
X0103284Y0177278D02*
X0101566Y0177278D01*
X0101566Y0178521D02*
X0103284Y0178521D01*
X0103284Y0179764D02*
X0101566Y0179764D01*
X0106566Y0176035D02*
X0108284Y0176035D01*
X0106566Y0176035D02*
X0106566Y0180509D01*
X0108284Y0180509D01*
X0108284Y0176035D01*
X0108284Y0177278D02*
X0106566Y0177278D01*
X0106566Y0178521D02*
X0108284Y0178521D01*
X0108284Y0179764D02*
X0106566Y0179764D01*
X0111566Y0176035D02*
X0113284Y0176035D01*
X0111566Y0176035D02*
X0111566Y0180509D01*
X0113284Y0180509D01*
X0113284Y0176035D01*
X0113284Y0177278D02*
X0111566Y0177278D01*
X0111566Y0178521D02*
X0113284Y0178521D01*
X0113284Y0179764D02*
X0111566Y0179764D01*
X0116566Y0176035D02*
X0118284Y0176035D01*
X0116566Y0176035D02*
X0116566Y0180509D01*
X0118284Y0180509D01*
X0118284Y0176035D01*
X0118284Y0177278D02*
X0116566Y0177278D01*
X0116566Y0178521D02*
X0118284Y0178521D01*
X0118284Y0179764D02*
X0116566Y0179764D01*
X0116566Y0212255D02*
X0118284Y0212255D01*
X0116566Y0212255D02*
X0116566Y0216729D01*
X0118284Y0216729D01*
X0118284Y0212255D01*
X0118284Y0213498D02*
X0116566Y0213498D01*
X0116566Y0214741D02*
X0118284Y0214741D01*
X0118284Y0215984D02*
X0116566Y0215984D01*
X0113284Y0212255D02*
X0111566Y0212255D01*
X0111566Y0216729D01*
X0113284Y0216729D01*
X0113284Y0212255D01*
X0113284Y0213498D02*
X0111566Y0213498D01*
X0111566Y0214741D02*
X0113284Y0214741D01*
X0113284Y0215984D02*
X0111566Y0215984D01*
X0108284Y0212255D02*
X0106566Y0212255D01*
X0106566Y0216729D01*
X0108284Y0216729D01*
X0108284Y0212255D01*
X0108284Y0213498D02*
X0106566Y0213498D01*
X0106566Y0214741D02*
X0108284Y0214741D01*
X0108284Y0215984D02*
X0106566Y0215984D01*
X0103284Y0212255D02*
X0101566Y0212255D01*
X0101566Y0216729D01*
X0103284Y0216729D01*
X0103284Y0212255D01*
X0103284Y0213498D02*
X0101566Y0213498D01*
X0101566Y0214741D02*
X0103284Y0214741D01*
X0103284Y0215984D02*
X0101566Y0215984D01*
X0098284Y0212255D02*
X0096566Y0212255D01*
X0096566Y0216729D01*
X0098284Y0216729D01*
X0098284Y0212255D01*
X0098284Y0213498D02*
X0096566Y0213498D01*
X0096566Y0214741D02*
X0098284Y0214741D01*
X0098284Y0215984D02*
X0096566Y0215984D01*
X0093284Y0212255D02*
X0091566Y0212255D01*
X0091566Y0216729D01*
X0093284Y0216729D01*
X0093284Y0212255D01*
X0093284Y0213498D02*
X0091566Y0213498D01*
X0091566Y0214741D02*
X0093284Y0214741D01*
X0093284Y0215984D02*
X0091566Y0215984D01*
X0088284Y0212255D02*
X0086566Y0212255D01*
X0086566Y0216729D01*
X0088284Y0216729D01*
X0088284Y0212255D01*
X0088284Y0213498D02*
X0086566Y0213498D01*
X0086566Y0214741D02*
X0088284Y0214741D01*
X0088284Y0215984D02*
X0086566Y0215984D01*
X0083284Y0212255D02*
X0081566Y0212255D01*
X0081566Y0216729D01*
X0083284Y0216729D01*
X0083284Y0212255D01*
X0083284Y0213498D02*
X0081566Y0213498D01*
X0081566Y0214741D02*
X0083284Y0214741D01*
X0083284Y0215984D02*
X0081566Y0215984D01*
X0078146Y0212989D02*
X0076428Y0212989D01*
X0078146Y0212989D02*
X0078146Y0211271D01*
X0076428Y0211271D01*
X0076428Y0212989D01*
X0076428Y0212514D02*
X0078146Y0212514D01*
X0074209Y0212989D02*
X0072491Y0212989D01*
X0074209Y0212989D02*
X0074209Y0211271D01*
X0072491Y0211271D01*
X0072491Y0212989D01*
X0072491Y0212514D02*
X0074209Y0212514D01*
X0051572Y0185680D02*
X0049854Y0185680D01*
X0049854Y0187398D01*
X0051572Y0187398D01*
X0051572Y0185680D01*
X0051572Y0186923D02*
X0049854Y0186923D01*
X0047635Y0185680D02*
X0045917Y0185680D01*
X0045917Y0187398D01*
X0047635Y0187398D01*
X0047635Y0185680D01*
X0047635Y0186923D02*
X0045917Y0186923D01*
X0045917Y0165995D02*
X0047635Y0165995D01*
X0045917Y0165995D02*
X0045917Y0167713D01*
X0047635Y0167713D01*
X0047635Y0165995D01*
X0047635Y0167238D02*
X0045917Y0167238D01*
X0049854Y0165995D02*
X0051572Y0165995D01*
X0049854Y0165995D02*
X0049854Y0167713D01*
X0051572Y0167713D01*
X0051572Y0165995D01*
X0051572Y0167238D02*
X0049854Y0167238D01*
X0049854Y0146310D02*
X0051572Y0146310D01*
X0049854Y0146310D02*
X0049854Y0148028D01*
X0051572Y0148028D01*
X0051572Y0146310D01*
X0051572Y0147553D02*
X0049854Y0147553D01*
X0047635Y0146310D02*
X0045917Y0146310D01*
X0045917Y0148028D01*
X0047635Y0148028D01*
X0047635Y0146310D01*
X0047635Y0147553D02*
X0045917Y0147553D01*
X0045917Y0126625D02*
X0047635Y0126625D01*
X0045917Y0126625D02*
X0045917Y0128343D01*
X0047635Y0128343D01*
X0047635Y0126625D01*
X0047635Y0127868D02*
X0045917Y0127868D01*
X0049854Y0126625D02*
X0051572Y0126625D01*
X0049854Y0126625D02*
X0049854Y0128343D01*
X0051572Y0128343D01*
X0051572Y0126625D01*
X0051572Y0127868D02*
X0049854Y0127868D01*
X0049854Y0106940D02*
X0051572Y0106940D01*
X0049854Y0106940D02*
X0049854Y0108658D01*
X0051572Y0108658D01*
X0051572Y0106940D01*
X0051572Y0108183D02*
X0049854Y0108183D01*
X0047635Y0106940D02*
X0045917Y0106940D01*
X0045917Y0108658D01*
X0047635Y0108658D01*
X0047635Y0106940D01*
X0047635Y0108183D02*
X0045917Y0108183D01*
X0045917Y0087255D02*
X0047635Y0087255D01*
X0045917Y0087255D02*
X0045917Y0088973D01*
X0047635Y0088973D01*
X0047635Y0087255D01*
X0047635Y0088498D02*
X0045917Y0088498D01*
X0049854Y0087255D02*
X0051572Y0087255D01*
X0049854Y0087255D02*
X0049854Y0088973D01*
X0051572Y0088973D01*
X0051572Y0087255D01*
X0051572Y0088498D02*
X0049854Y0088498D01*
X0049854Y0067570D02*
X0051572Y0067570D01*
X0049854Y0067570D02*
X0049854Y0069288D01*
X0051572Y0069288D01*
X0051572Y0067570D01*
X0051572Y0068813D02*
X0049854Y0068813D01*
X0047635Y0067570D02*
X0045917Y0067570D01*
X0045917Y0069288D01*
X0047635Y0069288D01*
X0047635Y0067570D01*
X0047635Y0068813D02*
X0045917Y0068813D01*
X0045917Y0047885D02*
X0047635Y0047885D01*
X0045917Y0047885D02*
X0045917Y0049603D01*
X0047635Y0049603D01*
X0047635Y0047885D01*
X0047635Y0049128D02*
X0045917Y0049128D01*
X0049854Y0047885D02*
X0051572Y0047885D01*
X0049854Y0047885D02*
X0049854Y0049603D01*
X0051572Y0049603D01*
X0051572Y0047885D01*
X0051572Y0049128D02*
X0049854Y0049128D01*
X0081566Y0030365D02*
X0083284Y0030365D01*
X0081566Y0030365D02*
X0081566Y0034839D01*
X0083284Y0034839D01*
X0083284Y0030365D01*
X0083284Y0031608D02*
X0081566Y0031608D01*
X0081566Y0032851D02*
X0083284Y0032851D01*
X0083284Y0034094D02*
X0081566Y0034094D01*
X0086566Y0030365D02*
X0088284Y0030365D01*
X0086566Y0030365D02*
X0086566Y0034839D01*
X0088284Y0034839D01*
X0088284Y0030365D01*
X0088284Y0031608D02*
X0086566Y0031608D01*
X0086566Y0032851D02*
X0088284Y0032851D01*
X0088284Y0034094D02*
X0086566Y0034094D01*
X0091566Y0030365D02*
X0093284Y0030365D01*
X0091566Y0030365D02*
X0091566Y0034839D01*
X0093284Y0034839D01*
X0093284Y0030365D01*
X0093284Y0031608D02*
X0091566Y0031608D01*
X0091566Y0032851D02*
X0093284Y0032851D01*
X0093284Y0034094D02*
X0091566Y0034094D01*
X0096566Y0030365D02*
X0098284Y0030365D01*
X0096566Y0030365D02*
X0096566Y0034839D01*
X0098284Y0034839D01*
X0098284Y0030365D01*
X0098284Y0031608D02*
X0096566Y0031608D01*
X0096566Y0032851D02*
X0098284Y0032851D01*
X0098284Y0034094D02*
X0096566Y0034094D01*
X0101566Y0030365D02*
X0103284Y0030365D01*
X0101566Y0030365D02*
X0101566Y0034839D01*
X0103284Y0034839D01*
X0103284Y0030365D01*
X0103284Y0031608D02*
X0101566Y0031608D01*
X0101566Y0032851D02*
X0103284Y0032851D01*
X0103284Y0034094D02*
X0101566Y0034094D01*
X0106566Y0030365D02*
X0108284Y0030365D01*
X0106566Y0030365D02*
X0106566Y0034839D01*
X0108284Y0034839D01*
X0108284Y0030365D01*
X0108284Y0031608D02*
X0106566Y0031608D01*
X0106566Y0032851D02*
X0108284Y0032851D01*
X0108284Y0034094D02*
X0106566Y0034094D01*
X0111566Y0030365D02*
X0113284Y0030365D01*
X0111566Y0030365D02*
X0111566Y0034839D01*
X0113284Y0034839D01*
X0113284Y0030365D01*
X0113284Y0031608D02*
X0111566Y0031608D01*
X0111566Y0032851D02*
X0113284Y0032851D01*
X0113284Y0034094D02*
X0111566Y0034094D01*
X0116566Y0030365D02*
X0118284Y0030365D01*
X0116566Y0030365D02*
X0116566Y0034839D01*
X0118284Y0034839D01*
X0118284Y0030365D01*
X0118284Y0031608D02*
X0116566Y0031608D01*
X0116566Y0032851D02*
X0118284Y0032851D01*
X0118284Y0034094D02*
X0116566Y0034094D01*
D17*
X0294297Y0187250D02*
X0294297Y0187404D01*
X0296105Y0187404D01*
X0296105Y0187250D01*
X0294297Y0187250D01*
X0294297Y0189218D02*
X0294297Y0189372D01*
X0296105Y0189372D01*
X0296105Y0189218D01*
X0294297Y0189218D01*
X0294297Y0191187D02*
X0294297Y0191341D01*
X0296105Y0191341D01*
X0296105Y0191187D01*
X0294297Y0191187D01*
X0294297Y0193155D02*
X0294297Y0193309D01*
X0296105Y0193309D01*
X0296105Y0193155D01*
X0294297Y0193155D01*
X0294297Y0195124D02*
X0294297Y0195278D01*
X0296105Y0195278D01*
X0296105Y0195124D01*
X0294297Y0195124D01*
X0294297Y0197092D02*
X0294297Y0197246D01*
X0296105Y0197246D01*
X0296105Y0197092D01*
X0294297Y0197092D01*
X0294297Y0199061D02*
X0294297Y0199215D01*
X0296105Y0199215D01*
X0296105Y0199061D01*
X0294297Y0199061D01*
X0294297Y0201029D02*
X0294297Y0201183D01*
X0296105Y0201183D01*
X0296105Y0201029D01*
X0294297Y0201029D01*
X0297683Y0202761D02*
X0297683Y0204569D01*
X0297837Y0204569D01*
X0297837Y0202761D01*
X0297683Y0202761D01*
X0297683Y0204309D02*
X0297837Y0204309D01*
X0299651Y0204569D02*
X0299651Y0202761D01*
X0299651Y0204569D02*
X0299805Y0204569D01*
X0299805Y0202761D01*
X0299651Y0202761D01*
X0299651Y0204309D02*
X0299805Y0204309D01*
X0301620Y0204569D02*
X0301620Y0202761D01*
X0301620Y0204569D02*
X0301774Y0204569D01*
X0301774Y0202761D01*
X0301620Y0202761D01*
X0301620Y0204309D02*
X0301774Y0204309D01*
X0303588Y0204569D02*
X0303588Y0202761D01*
X0303588Y0204569D02*
X0303742Y0204569D01*
X0303742Y0202761D01*
X0303588Y0202761D01*
X0303588Y0204309D02*
X0303742Y0204309D01*
X0305557Y0204569D02*
X0305557Y0202761D01*
X0305557Y0204569D02*
X0305711Y0204569D01*
X0305711Y0202761D01*
X0305557Y0202761D01*
X0305557Y0204309D02*
X0305711Y0204309D01*
X0307525Y0204569D02*
X0307525Y0202761D01*
X0307525Y0204569D02*
X0307679Y0204569D01*
X0307679Y0202761D01*
X0307525Y0202761D01*
X0307525Y0204309D02*
X0307679Y0204309D01*
X0309494Y0204569D02*
X0309494Y0202761D01*
X0309494Y0204569D02*
X0309648Y0204569D01*
X0309648Y0202761D01*
X0309494Y0202761D01*
X0309494Y0204309D02*
X0309648Y0204309D01*
X0311462Y0204569D02*
X0311462Y0202761D01*
X0311462Y0204569D02*
X0311616Y0204569D01*
X0311616Y0202761D01*
X0311462Y0202761D01*
X0311462Y0204309D02*
X0311616Y0204309D01*
X0313194Y0201183D02*
X0313194Y0201029D01*
X0313194Y0201183D02*
X0315002Y0201183D01*
X0315002Y0201029D01*
X0313194Y0201029D01*
X0313194Y0199215D02*
X0313194Y0199061D01*
X0313194Y0199215D02*
X0315002Y0199215D01*
X0315002Y0199061D01*
X0313194Y0199061D01*
X0313194Y0197246D02*
X0313194Y0197092D01*
X0313194Y0197246D02*
X0315002Y0197246D01*
X0315002Y0197092D01*
X0313194Y0197092D01*
X0313194Y0195278D02*
X0313194Y0195124D01*
X0313194Y0195278D02*
X0315002Y0195278D01*
X0315002Y0195124D01*
X0313194Y0195124D01*
X0313194Y0193309D02*
X0313194Y0193155D01*
X0313194Y0193309D02*
X0315002Y0193309D01*
X0315002Y0193155D01*
X0313194Y0193155D01*
X0313194Y0191341D02*
X0313194Y0191187D01*
X0313194Y0191341D02*
X0315002Y0191341D01*
X0315002Y0191187D01*
X0313194Y0191187D01*
X0313194Y0189372D02*
X0313194Y0189218D01*
X0313194Y0189372D02*
X0315002Y0189372D01*
X0315002Y0189218D01*
X0313194Y0189218D01*
X0313194Y0187404D02*
X0313194Y0187250D01*
X0313194Y0187404D02*
X0315002Y0187404D01*
X0315002Y0187250D01*
X0313194Y0187250D01*
X0311462Y0185672D02*
X0311462Y0183864D01*
X0311462Y0185672D02*
X0311616Y0185672D01*
X0311616Y0183864D01*
X0311462Y0183864D01*
X0311462Y0185412D02*
X0311616Y0185412D01*
X0309494Y0185672D02*
X0309494Y0183864D01*
X0309494Y0185672D02*
X0309648Y0185672D01*
X0309648Y0183864D01*
X0309494Y0183864D01*
X0309494Y0185412D02*
X0309648Y0185412D01*
X0307525Y0185672D02*
X0307525Y0183864D01*
X0307525Y0185672D02*
X0307679Y0185672D01*
X0307679Y0183864D01*
X0307525Y0183864D01*
X0307525Y0185412D02*
X0307679Y0185412D01*
X0305557Y0185672D02*
X0305557Y0183864D01*
X0305557Y0185672D02*
X0305711Y0185672D01*
X0305711Y0183864D01*
X0305557Y0183864D01*
X0305557Y0185412D02*
X0305711Y0185412D01*
X0303588Y0185672D02*
X0303588Y0183864D01*
X0303588Y0185672D02*
X0303742Y0185672D01*
X0303742Y0183864D01*
X0303588Y0183864D01*
X0303588Y0185412D02*
X0303742Y0185412D01*
X0301620Y0185672D02*
X0301620Y0183864D01*
X0301620Y0185672D02*
X0301774Y0185672D01*
X0301774Y0183864D01*
X0301620Y0183864D01*
X0301620Y0185412D02*
X0301774Y0185412D01*
X0299651Y0185672D02*
X0299651Y0183864D01*
X0299651Y0185672D02*
X0299805Y0185672D01*
X0299805Y0183864D01*
X0299651Y0183864D01*
X0299651Y0185412D02*
X0299805Y0185412D01*
X0297683Y0185672D02*
X0297683Y0183864D01*
X0297683Y0185672D02*
X0297837Y0185672D01*
X0297837Y0183864D01*
X0297683Y0183864D01*
X0297683Y0185412D02*
X0297837Y0185412D01*
D18*
X0304650Y0194217D03*
D19*
X0334177Y0164965D03*
X0334177Y0154965D03*
X0334177Y0144965D03*
X0363705Y0218035D03*
X0363705Y0228035D03*
X0363705Y0238035D03*
X0363705Y0248035D03*
X0363705Y0258035D03*
X0363705Y0268035D03*
X0225161Y0202287D03*
X0215161Y0202287D03*
X0205161Y0202287D03*
X0195161Y0202287D03*
X0195161Y0182602D03*
X0205161Y0182602D03*
X0215161Y0182602D03*
X0225161Y0182602D03*
D20*
X0351982Y0244256D02*
X0352242Y0244256D01*
X0352242Y0242996D01*
X0351982Y0242996D01*
X0351982Y0244256D01*
X0355482Y0244256D02*
X0355742Y0244256D01*
X0355742Y0242996D01*
X0355482Y0242996D01*
X0355482Y0244256D01*
X0355482Y0254099D02*
X0355742Y0254099D01*
X0355742Y0252839D01*
X0355482Y0252839D01*
X0355482Y0254099D01*
X0352242Y0254099D02*
X0351982Y0254099D01*
X0352242Y0254099D02*
X0352242Y0252839D01*
X0351982Y0252839D01*
X0351982Y0254099D01*
X0351982Y0262681D02*
X0352242Y0262681D01*
X0351982Y0262681D02*
X0351982Y0263941D01*
X0352242Y0263941D01*
X0352242Y0262681D01*
X0355482Y0262681D02*
X0355742Y0262681D01*
X0355482Y0262681D02*
X0355482Y0263941D01*
X0355742Y0263941D01*
X0355742Y0262681D01*
D21*
X0338288Y0237538D02*
X0336428Y0237538D01*
X0338288Y0237538D02*
X0338288Y0233178D01*
X0336428Y0233178D01*
X0336428Y0237538D01*
X0336428Y0234417D02*
X0338288Y0234417D01*
X0338288Y0235656D02*
X0336428Y0235656D01*
X0336428Y0236895D02*
X0338288Y0236895D01*
X0334288Y0237538D02*
X0332428Y0237538D01*
X0334288Y0237538D02*
X0334288Y0233178D01*
X0332428Y0233178D01*
X0332428Y0237538D01*
X0332428Y0234417D02*
X0334288Y0234417D01*
X0334288Y0235656D02*
X0332428Y0235656D01*
X0332428Y0236895D02*
X0334288Y0236895D01*
D22*
X0328272Y0347957D03*
X0269217Y0347957D03*
X0210161Y0347957D03*
X0151106Y0347957D03*
X0141264Y0241657D03*
X0029059Y0147169D03*
X0029059Y0088114D03*
X0190476Y0029059D03*
X0249531Y0029059D03*
X0308587Y0029059D03*
X0367642Y0029059D03*
D23*
X0347957Y0029059D03*
X0328272Y0029059D03*
X0288902Y0029059D03*
X0269217Y0029059D03*
X0229846Y0029059D03*
X0210161Y0029059D03*
X0170791Y0029059D03*
X0151106Y0029059D03*
X0029059Y0107799D03*
X0029059Y0127484D03*
X0029059Y0166854D03*
X0029059Y0186539D03*
X0141264Y0261343D03*
X0141264Y0281028D03*
X0170791Y0347957D03*
X0190476Y0347957D03*
X0229846Y0347957D03*
X0249531Y0347957D03*
X0288902Y0347957D03*
X0308587Y0347957D03*
X0347957Y0347957D03*
X0367642Y0347957D03*
D24*
X0179004Y0248885D02*
X0179004Y0243091D01*
X0168878Y0243091D01*
X0168878Y0248885D01*
X0179004Y0248885D01*
X0179004Y0244194D02*
X0168878Y0244194D01*
X0168878Y0245297D02*
X0179004Y0245297D01*
X0179004Y0246400D02*
X0168878Y0246400D01*
X0168878Y0247503D02*
X0179004Y0247503D01*
X0179004Y0248606D02*
X0168878Y0248606D01*
X0179004Y0237862D02*
X0179004Y0232068D01*
X0168878Y0232068D01*
X0168878Y0237862D01*
X0179004Y0237862D01*
X0179004Y0233171D02*
X0168878Y0233171D01*
X0168878Y0234274D02*
X0179004Y0234274D01*
X0179004Y0235377D02*
X0168878Y0235377D01*
X0168878Y0236480D02*
X0179004Y0236480D01*
X0179004Y0237583D02*
X0168878Y0237583D01*
X0167980Y0266320D02*
X0167980Y0272114D01*
X0167980Y0266320D02*
X0157854Y0266320D01*
X0157854Y0272114D01*
X0167980Y0272114D01*
X0167980Y0267423D02*
X0157854Y0267423D01*
X0157854Y0268526D02*
X0167980Y0268526D01*
X0167980Y0269629D02*
X0157854Y0269629D01*
X0157854Y0270732D02*
X0167980Y0270732D01*
X0167980Y0271835D02*
X0157854Y0271835D01*
X0167980Y0277343D02*
X0167980Y0283137D01*
X0167980Y0277343D02*
X0157854Y0277343D01*
X0157854Y0283137D01*
X0167980Y0283137D01*
X0167980Y0278446D02*
X0157854Y0278446D01*
X0157854Y0279549D02*
X0167980Y0279549D01*
X0167980Y0280652D02*
X0157854Y0280652D01*
X0157854Y0281755D02*
X0167980Y0281755D01*
X0167980Y0282858D02*
X0157854Y0282858D01*
X0148209Y0143767D02*
X0148209Y0137973D01*
X0148209Y0143767D02*
X0158335Y0143767D01*
X0158335Y0137973D01*
X0148209Y0137973D01*
X0148209Y0139076D02*
X0158335Y0139076D01*
X0158335Y0140179D02*
X0148209Y0140179D01*
X0148209Y0141282D02*
X0158335Y0141282D01*
X0158335Y0142385D02*
X0148209Y0142385D01*
X0148209Y0143488D02*
X0158335Y0143488D01*
X0148209Y0132743D02*
X0148209Y0126949D01*
X0148209Y0132743D02*
X0158335Y0132743D01*
X0158335Y0126949D01*
X0148209Y0126949D01*
X0148209Y0128052D02*
X0158335Y0128052D01*
X0158335Y0129155D02*
X0148209Y0129155D01*
X0148209Y0130258D02*
X0158335Y0130258D01*
X0158335Y0131361D02*
X0148209Y0131361D01*
X0148209Y0132464D02*
X0158335Y0132464D01*
D25*
X0171919Y0134624D02*
X0171919Y0144360D01*
X0171919Y0134624D02*
X0166907Y0134624D01*
X0166907Y0144360D01*
X0171919Y0144360D01*
X0171919Y0135723D02*
X0166907Y0135723D01*
X0166907Y0136822D02*
X0171919Y0136822D01*
X0171919Y0137921D02*
X0166907Y0137921D01*
X0166907Y0139020D02*
X0171919Y0139020D01*
X0171919Y0140119D02*
X0166907Y0140119D01*
X0166907Y0141218D02*
X0171919Y0141218D01*
X0171919Y0142317D02*
X0166907Y0142317D01*
X0166907Y0143416D02*
X0171919Y0143416D01*
X0171919Y0128218D02*
X0171919Y0118482D01*
X0166907Y0118482D01*
X0166907Y0128218D01*
X0171919Y0128218D01*
X0171919Y0119581D02*
X0166907Y0119581D01*
X0166907Y0120680D02*
X0171919Y0120680D01*
X0171919Y0121779D02*
X0166907Y0121779D01*
X0166907Y0122878D02*
X0171919Y0122878D01*
X0171919Y0123977D02*
X0166907Y0123977D01*
X0166907Y0125076D02*
X0171919Y0125076D01*
X0171919Y0126175D02*
X0166907Y0126175D01*
X0166907Y0127274D02*
X0171919Y0127274D01*
X0173010Y0049282D02*
X0173010Y0044270D01*
X0173010Y0049282D02*
X0178808Y0049282D01*
X0178808Y0044270D01*
X0173010Y0044270D01*
X0173010Y0045369D02*
X0178808Y0045369D01*
X0178808Y0046468D02*
X0173010Y0046468D01*
X0173010Y0047567D02*
X0178808Y0047567D01*
X0178808Y0048666D02*
X0173010Y0048666D01*
X0162774Y0049282D02*
X0162774Y0044270D01*
X0162774Y0049282D02*
X0168572Y0049282D01*
X0168572Y0044270D01*
X0162774Y0044270D01*
X0162774Y0045369D02*
X0168572Y0045369D01*
X0168572Y0046468D02*
X0162774Y0046468D01*
X0162774Y0047567D02*
X0168572Y0047567D01*
X0168572Y0048666D02*
X0162774Y0048666D01*
X0153325Y0049282D02*
X0153325Y0044270D01*
X0153325Y0049282D02*
X0159123Y0049282D01*
X0159123Y0044270D01*
X0153325Y0044270D01*
X0153325Y0045369D02*
X0159123Y0045369D01*
X0159123Y0046468D02*
X0153325Y0046468D01*
X0153325Y0047567D02*
X0159123Y0047567D01*
X0159123Y0048666D02*
X0153325Y0048666D01*
X0143089Y0049282D02*
X0143089Y0044270D01*
X0143089Y0049282D02*
X0148887Y0049282D01*
X0148887Y0044270D01*
X0143089Y0044270D01*
X0143089Y0045369D02*
X0148887Y0045369D01*
X0148887Y0046468D02*
X0143089Y0046468D01*
X0143089Y0047567D02*
X0148887Y0047567D01*
X0148887Y0048666D02*
X0143089Y0048666D01*
X0182459Y0049282D02*
X0182459Y0044270D01*
X0182459Y0049282D02*
X0188257Y0049282D01*
X0188257Y0044270D01*
X0182459Y0044270D01*
X0182459Y0045369D02*
X0188257Y0045369D01*
X0188257Y0046468D02*
X0182459Y0046468D01*
X0182459Y0047567D02*
X0188257Y0047567D01*
X0188257Y0048666D02*
X0182459Y0048666D01*
X0192695Y0049282D02*
X0192695Y0044270D01*
X0192695Y0049282D02*
X0198493Y0049282D01*
X0198493Y0044270D01*
X0192695Y0044270D01*
X0192695Y0045369D02*
X0198493Y0045369D01*
X0198493Y0046468D02*
X0192695Y0046468D01*
X0192695Y0047567D02*
X0198493Y0047567D01*
X0198493Y0048666D02*
X0192695Y0048666D01*
X0202144Y0049282D02*
X0202144Y0044270D01*
X0202144Y0049282D02*
X0207942Y0049282D01*
X0207942Y0044270D01*
X0202144Y0044270D01*
X0202144Y0045369D02*
X0207942Y0045369D01*
X0207942Y0046468D02*
X0202144Y0046468D01*
X0202144Y0047567D02*
X0207942Y0047567D01*
X0207942Y0048666D02*
X0202144Y0048666D01*
X0212381Y0049282D02*
X0212381Y0044270D01*
X0212381Y0049282D02*
X0218179Y0049282D01*
X0218179Y0044270D01*
X0212381Y0044270D01*
X0212381Y0045369D02*
X0218179Y0045369D01*
X0218179Y0046468D02*
X0212381Y0046468D01*
X0212381Y0047567D02*
X0218179Y0047567D01*
X0218179Y0048666D02*
X0212381Y0048666D01*
X0221829Y0049282D02*
X0221829Y0044270D01*
X0221829Y0049282D02*
X0227627Y0049282D01*
X0227627Y0044270D01*
X0221829Y0044270D01*
X0221829Y0045369D02*
X0227627Y0045369D01*
X0227627Y0046468D02*
X0221829Y0046468D01*
X0221829Y0047567D02*
X0227627Y0047567D01*
X0227627Y0048666D02*
X0221829Y0048666D01*
X0232066Y0049282D02*
X0232066Y0044270D01*
X0232066Y0049282D02*
X0237864Y0049282D01*
X0237864Y0044270D01*
X0232066Y0044270D01*
X0232066Y0045369D02*
X0237864Y0045369D01*
X0237864Y0046468D02*
X0232066Y0046468D01*
X0232066Y0047567D02*
X0237864Y0047567D01*
X0237864Y0048666D02*
X0232066Y0048666D01*
X0241514Y0049282D02*
X0241514Y0044270D01*
X0241514Y0049282D02*
X0247312Y0049282D01*
X0247312Y0044270D01*
X0241514Y0044270D01*
X0241514Y0045369D02*
X0247312Y0045369D01*
X0247312Y0046468D02*
X0241514Y0046468D01*
X0241514Y0047567D02*
X0247312Y0047567D01*
X0247312Y0048666D02*
X0241514Y0048666D01*
X0251751Y0049282D02*
X0251751Y0044270D01*
X0251751Y0049282D02*
X0257549Y0049282D01*
X0257549Y0044270D01*
X0251751Y0044270D01*
X0251751Y0045369D02*
X0257549Y0045369D01*
X0257549Y0046468D02*
X0251751Y0046468D01*
X0251751Y0047567D02*
X0257549Y0047567D01*
X0257549Y0048666D02*
X0251751Y0048666D01*
X0261199Y0049282D02*
X0261199Y0044270D01*
X0261199Y0049282D02*
X0266997Y0049282D01*
X0266997Y0044270D01*
X0261199Y0044270D01*
X0261199Y0045369D02*
X0266997Y0045369D01*
X0266997Y0046468D02*
X0261199Y0046468D01*
X0261199Y0047567D02*
X0266997Y0047567D01*
X0266997Y0048666D02*
X0261199Y0048666D01*
X0271436Y0049282D02*
X0271436Y0044270D01*
X0271436Y0049282D02*
X0277234Y0049282D01*
X0277234Y0044270D01*
X0271436Y0044270D01*
X0271436Y0045369D02*
X0277234Y0045369D01*
X0277234Y0046468D02*
X0271436Y0046468D01*
X0271436Y0047567D02*
X0277234Y0047567D01*
X0277234Y0048666D02*
X0271436Y0048666D01*
X0280884Y0049282D02*
X0280884Y0044270D01*
X0280884Y0049282D02*
X0286682Y0049282D01*
X0286682Y0044270D01*
X0280884Y0044270D01*
X0280884Y0045369D02*
X0286682Y0045369D01*
X0286682Y0046468D02*
X0280884Y0046468D01*
X0280884Y0047567D02*
X0286682Y0047567D01*
X0286682Y0048666D02*
X0280884Y0048666D01*
X0291121Y0049282D02*
X0291121Y0044270D01*
X0291121Y0049282D02*
X0296919Y0049282D01*
X0296919Y0044270D01*
X0291121Y0044270D01*
X0291121Y0045369D02*
X0296919Y0045369D01*
X0296919Y0046468D02*
X0291121Y0046468D01*
X0291121Y0047567D02*
X0296919Y0047567D01*
X0296919Y0048666D02*
X0291121Y0048666D01*
X0300570Y0049282D02*
X0300570Y0044270D01*
X0300570Y0049282D02*
X0306368Y0049282D01*
X0306368Y0044270D01*
X0300570Y0044270D01*
X0300570Y0045369D02*
X0306368Y0045369D01*
X0306368Y0046468D02*
X0300570Y0046468D01*
X0300570Y0047567D02*
X0306368Y0047567D01*
X0306368Y0048666D02*
X0300570Y0048666D01*
X0310806Y0049282D02*
X0310806Y0044270D01*
X0310806Y0049282D02*
X0316604Y0049282D01*
X0316604Y0044270D01*
X0310806Y0044270D01*
X0310806Y0045369D02*
X0316604Y0045369D01*
X0316604Y0046468D02*
X0310806Y0046468D01*
X0310806Y0047567D02*
X0316604Y0047567D01*
X0316604Y0048666D02*
X0310806Y0048666D01*
X0320255Y0049282D02*
X0320255Y0044270D01*
X0320255Y0049282D02*
X0326053Y0049282D01*
X0326053Y0044270D01*
X0320255Y0044270D01*
X0320255Y0045369D02*
X0326053Y0045369D01*
X0326053Y0046468D02*
X0320255Y0046468D01*
X0320255Y0047567D02*
X0326053Y0047567D01*
X0326053Y0048666D02*
X0320255Y0048666D01*
X0330491Y0049282D02*
X0330491Y0044270D01*
X0330491Y0049282D02*
X0336289Y0049282D01*
X0336289Y0044270D01*
X0330491Y0044270D01*
X0330491Y0045369D02*
X0336289Y0045369D01*
X0336289Y0046468D02*
X0330491Y0046468D01*
X0330491Y0047567D02*
X0336289Y0047567D01*
X0336289Y0048666D02*
X0330491Y0048666D01*
X0339940Y0049282D02*
X0339940Y0044270D01*
X0339940Y0049282D02*
X0345738Y0049282D01*
X0345738Y0044270D01*
X0339940Y0044270D01*
X0339940Y0045369D02*
X0345738Y0045369D01*
X0345738Y0046468D02*
X0339940Y0046468D01*
X0339940Y0047567D02*
X0345738Y0047567D01*
X0345738Y0048666D02*
X0339940Y0048666D01*
X0350176Y0049282D02*
X0350176Y0044270D01*
X0350176Y0049282D02*
X0355974Y0049282D01*
X0355974Y0044270D01*
X0350176Y0044270D01*
X0350176Y0045369D02*
X0355974Y0045369D01*
X0355974Y0046468D02*
X0350176Y0046468D01*
X0350176Y0047567D02*
X0355974Y0047567D01*
X0355974Y0048666D02*
X0350176Y0048666D01*
X0359625Y0049282D02*
X0359625Y0044270D01*
X0359625Y0049282D02*
X0365423Y0049282D01*
X0365423Y0044270D01*
X0359625Y0044270D01*
X0359625Y0045369D02*
X0365423Y0045369D01*
X0365423Y0046468D02*
X0359625Y0046468D01*
X0359625Y0047567D02*
X0365423Y0047567D01*
X0365423Y0048666D02*
X0359625Y0048666D01*
X0369861Y0049282D02*
X0369861Y0044270D01*
X0369861Y0049282D02*
X0375659Y0049282D01*
X0375659Y0044270D01*
X0369861Y0044270D01*
X0369861Y0045369D02*
X0375659Y0045369D01*
X0375659Y0046468D02*
X0369861Y0046468D01*
X0369861Y0047567D02*
X0375659Y0047567D01*
X0375659Y0048666D02*
X0369861Y0048666D01*
X0371041Y0066318D02*
X0376053Y0066318D01*
X0371041Y0066318D02*
X0371041Y0072116D01*
X0376053Y0072116D01*
X0376053Y0066318D01*
X0376053Y0067417D02*
X0371041Y0067417D01*
X0371041Y0068516D02*
X0376053Y0068516D01*
X0376053Y0069615D02*
X0371041Y0069615D01*
X0371041Y0070714D02*
X0376053Y0070714D01*
X0376053Y0071813D02*
X0371041Y0071813D01*
X0368179Y0066318D02*
X0363167Y0066318D01*
X0363167Y0072116D01*
X0368179Y0072116D01*
X0368179Y0066318D01*
X0368179Y0067417D02*
X0363167Y0067417D01*
X0363167Y0068516D02*
X0368179Y0068516D01*
X0368179Y0069615D02*
X0363167Y0069615D01*
X0363167Y0070714D02*
X0368179Y0070714D01*
X0368179Y0071813D02*
X0363167Y0071813D01*
X0360305Y0066318D02*
X0355293Y0066318D01*
X0355293Y0072116D01*
X0360305Y0072116D01*
X0360305Y0066318D01*
X0360305Y0067417D02*
X0355293Y0067417D01*
X0355293Y0068516D02*
X0360305Y0068516D01*
X0360305Y0069615D02*
X0355293Y0069615D01*
X0355293Y0070714D02*
X0360305Y0070714D01*
X0360305Y0071813D02*
X0355293Y0071813D01*
X0352431Y0066318D02*
X0347419Y0066318D01*
X0347419Y0072116D01*
X0352431Y0072116D01*
X0352431Y0066318D01*
X0352431Y0067417D02*
X0347419Y0067417D01*
X0347419Y0068516D02*
X0352431Y0068516D01*
X0352431Y0069615D02*
X0347419Y0069615D01*
X0347419Y0070714D02*
X0352431Y0070714D01*
X0352431Y0071813D02*
X0347419Y0071813D01*
X0347419Y0076554D02*
X0352431Y0076554D01*
X0347419Y0076554D02*
X0347419Y0082352D01*
X0352431Y0082352D01*
X0352431Y0076554D01*
X0352431Y0077653D02*
X0347419Y0077653D01*
X0347419Y0078752D02*
X0352431Y0078752D01*
X0352431Y0079851D02*
X0347419Y0079851D01*
X0347419Y0080950D02*
X0352431Y0080950D01*
X0352431Y0082049D02*
X0347419Y0082049D01*
X0355293Y0076554D02*
X0360305Y0076554D01*
X0355293Y0076554D02*
X0355293Y0082352D01*
X0360305Y0082352D01*
X0360305Y0076554D01*
X0360305Y0077653D02*
X0355293Y0077653D01*
X0355293Y0078752D02*
X0360305Y0078752D01*
X0360305Y0079851D02*
X0355293Y0079851D01*
X0355293Y0080950D02*
X0360305Y0080950D01*
X0360305Y0082049D02*
X0355293Y0082049D01*
X0363167Y0076554D02*
X0368179Y0076554D01*
X0363167Y0076554D02*
X0363167Y0082352D01*
X0368179Y0082352D01*
X0368179Y0076554D01*
X0368179Y0077653D02*
X0363167Y0077653D01*
X0363167Y0078752D02*
X0368179Y0078752D01*
X0368179Y0079851D02*
X0363167Y0079851D01*
X0363167Y0080950D02*
X0368179Y0080950D01*
X0368179Y0082049D02*
X0363167Y0082049D01*
X0371041Y0076554D02*
X0376053Y0076554D01*
X0371041Y0076554D02*
X0371041Y0082352D01*
X0376053Y0082352D01*
X0376053Y0076554D01*
X0376053Y0077653D02*
X0371041Y0077653D01*
X0371041Y0078752D02*
X0376053Y0078752D01*
X0376053Y0079851D02*
X0371041Y0079851D01*
X0371041Y0080950D02*
X0376053Y0080950D01*
X0376053Y0082049D02*
X0371041Y0082049D01*
X0250175Y0199978D02*
X0250175Y0209714D01*
X0255187Y0209714D01*
X0255187Y0199978D01*
X0250175Y0199978D01*
X0250175Y0201077D02*
X0255187Y0201077D01*
X0255187Y0202176D02*
X0250175Y0202176D01*
X0250175Y0203275D02*
X0255187Y0203275D01*
X0255187Y0204374D02*
X0250175Y0204374D01*
X0250175Y0205473D02*
X0255187Y0205473D01*
X0255187Y0206572D02*
X0250175Y0206572D01*
X0250175Y0207671D02*
X0255187Y0207671D01*
X0255187Y0208770D02*
X0250175Y0208770D01*
X0250175Y0216120D02*
X0250175Y0225856D01*
X0255187Y0225856D01*
X0255187Y0216120D01*
X0250175Y0216120D01*
X0250175Y0217219D02*
X0255187Y0217219D01*
X0255187Y0218318D02*
X0250175Y0218318D01*
X0250175Y0219417D02*
X0255187Y0219417D01*
X0255187Y0220516D02*
X0250175Y0220516D01*
X0250175Y0221615D02*
X0255187Y0221615D01*
X0255187Y0222714D02*
X0250175Y0222714D01*
X0250175Y0223813D02*
X0255187Y0223813D01*
X0255187Y0224912D02*
X0250175Y0224912D01*
X0179309Y0266120D02*
X0179309Y0275856D01*
X0184321Y0275856D01*
X0184321Y0266120D01*
X0179309Y0266120D01*
X0179309Y0267219D02*
X0184321Y0267219D01*
X0184321Y0268318D02*
X0179309Y0268318D01*
X0179309Y0269417D02*
X0184321Y0269417D01*
X0184321Y0270516D02*
X0179309Y0270516D01*
X0179309Y0271615D02*
X0184321Y0271615D01*
X0184321Y0272714D02*
X0179309Y0272714D01*
X0179309Y0273813D02*
X0184321Y0273813D01*
X0184321Y0274912D02*
X0179309Y0274912D01*
X0179309Y0282262D02*
X0179309Y0291998D01*
X0184321Y0291998D01*
X0184321Y0282262D01*
X0179309Y0282262D01*
X0179309Y0283361D02*
X0184321Y0283361D01*
X0184321Y0284460D02*
X0179309Y0284460D01*
X0179309Y0285559D02*
X0184321Y0285559D01*
X0184321Y0286658D02*
X0179309Y0286658D01*
X0179309Y0287757D02*
X0184321Y0287757D01*
X0184321Y0288856D02*
X0179309Y0288856D01*
X0179309Y0289955D02*
X0184321Y0289955D01*
X0184321Y0291054D02*
X0179309Y0291054D01*
X0178808Y0327734D02*
X0178808Y0332746D01*
X0178808Y0327734D02*
X0173010Y0327734D01*
X0173010Y0332746D01*
X0178808Y0332746D01*
X0178808Y0328833D02*
X0173010Y0328833D01*
X0173010Y0329932D02*
X0178808Y0329932D01*
X0178808Y0331031D02*
X0173010Y0331031D01*
X0173010Y0332130D02*
X0178808Y0332130D01*
X0188257Y0332746D02*
X0188257Y0327734D01*
X0182459Y0327734D01*
X0182459Y0332746D01*
X0188257Y0332746D01*
X0188257Y0328833D02*
X0182459Y0328833D01*
X0182459Y0329932D02*
X0188257Y0329932D01*
X0188257Y0331031D02*
X0182459Y0331031D01*
X0182459Y0332130D02*
X0188257Y0332130D01*
X0198493Y0332746D02*
X0198493Y0327734D01*
X0192695Y0327734D01*
X0192695Y0332746D01*
X0198493Y0332746D01*
X0198493Y0328833D02*
X0192695Y0328833D01*
X0192695Y0329932D02*
X0198493Y0329932D01*
X0198493Y0331031D02*
X0192695Y0331031D01*
X0192695Y0332130D02*
X0198493Y0332130D01*
X0207942Y0332746D02*
X0207942Y0327734D01*
X0202144Y0327734D01*
X0202144Y0332746D01*
X0207942Y0332746D01*
X0207942Y0328833D02*
X0202144Y0328833D01*
X0202144Y0329932D02*
X0207942Y0329932D01*
X0207942Y0331031D02*
X0202144Y0331031D01*
X0202144Y0332130D02*
X0207942Y0332130D01*
X0218179Y0332746D02*
X0218179Y0327734D01*
X0212381Y0327734D01*
X0212381Y0332746D01*
X0218179Y0332746D01*
X0218179Y0328833D02*
X0212381Y0328833D01*
X0212381Y0329932D02*
X0218179Y0329932D01*
X0218179Y0331031D02*
X0212381Y0331031D01*
X0212381Y0332130D02*
X0218179Y0332130D01*
X0227627Y0332746D02*
X0227627Y0327734D01*
X0221829Y0327734D01*
X0221829Y0332746D01*
X0227627Y0332746D01*
X0227627Y0328833D02*
X0221829Y0328833D01*
X0221829Y0329932D02*
X0227627Y0329932D01*
X0227627Y0331031D02*
X0221829Y0331031D01*
X0221829Y0332130D02*
X0227627Y0332130D01*
X0237864Y0332746D02*
X0237864Y0327734D01*
X0232066Y0327734D01*
X0232066Y0332746D01*
X0237864Y0332746D01*
X0237864Y0328833D02*
X0232066Y0328833D01*
X0232066Y0329932D02*
X0237864Y0329932D01*
X0237864Y0331031D02*
X0232066Y0331031D01*
X0232066Y0332130D02*
X0237864Y0332130D01*
X0247312Y0332746D02*
X0247312Y0327734D01*
X0241514Y0327734D01*
X0241514Y0332746D01*
X0247312Y0332746D01*
X0247312Y0328833D02*
X0241514Y0328833D01*
X0241514Y0329932D02*
X0247312Y0329932D01*
X0247312Y0331031D02*
X0241514Y0331031D01*
X0241514Y0332130D02*
X0247312Y0332130D01*
X0257549Y0332746D02*
X0257549Y0327734D01*
X0251751Y0327734D01*
X0251751Y0332746D01*
X0257549Y0332746D01*
X0257549Y0328833D02*
X0251751Y0328833D01*
X0251751Y0329932D02*
X0257549Y0329932D01*
X0257549Y0331031D02*
X0251751Y0331031D01*
X0251751Y0332130D02*
X0257549Y0332130D01*
X0266997Y0332746D02*
X0266997Y0327734D01*
X0261199Y0327734D01*
X0261199Y0332746D01*
X0266997Y0332746D01*
X0266997Y0328833D02*
X0261199Y0328833D01*
X0261199Y0329932D02*
X0266997Y0329932D01*
X0266997Y0331031D02*
X0261199Y0331031D01*
X0261199Y0332130D02*
X0266997Y0332130D01*
X0277234Y0332746D02*
X0277234Y0327734D01*
X0271436Y0327734D01*
X0271436Y0332746D01*
X0277234Y0332746D01*
X0277234Y0328833D02*
X0271436Y0328833D01*
X0271436Y0329932D02*
X0277234Y0329932D01*
X0277234Y0331031D02*
X0271436Y0331031D01*
X0271436Y0332130D02*
X0277234Y0332130D01*
X0286682Y0332746D02*
X0286682Y0327734D01*
X0280884Y0327734D01*
X0280884Y0332746D01*
X0286682Y0332746D01*
X0286682Y0328833D02*
X0280884Y0328833D01*
X0280884Y0329932D02*
X0286682Y0329932D01*
X0286682Y0331031D02*
X0280884Y0331031D01*
X0280884Y0332130D02*
X0286682Y0332130D01*
X0296919Y0332746D02*
X0296919Y0327734D01*
X0291121Y0327734D01*
X0291121Y0332746D01*
X0296919Y0332746D01*
X0296919Y0328833D02*
X0291121Y0328833D01*
X0291121Y0329932D02*
X0296919Y0329932D01*
X0296919Y0331031D02*
X0291121Y0331031D01*
X0291121Y0332130D02*
X0296919Y0332130D01*
X0306368Y0332746D02*
X0306368Y0327734D01*
X0300570Y0327734D01*
X0300570Y0332746D01*
X0306368Y0332746D01*
X0306368Y0328833D02*
X0300570Y0328833D01*
X0300570Y0329932D02*
X0306368Y0329932D01*
X0306368Y0331031D02*
X0300570Y0331031D01*
X0300570Y0332130D02*
X0306368Y0332130D01*
X0316604Y0332746D02*
X0316604Y0327734D01*
X0310806Y0327734D01*
X0310806Y0332746D01*
X0316604Y0332746D01*
X0316604Y0328833D02*
X0310806Y0328833D01*
X0310806Y0329932D02*
X0316604Y0329932D01*
X0316604Y0331031D02*
X0310806Y0331031D01*
X0310806Y0332130D02*
X0316604Y0332130D01*
X0326053Y0332746D02*
X0326053Y0327734D01*
X0320255Y0327734D01*
X0320255Y0332746D01*
X0326053Y0332746D01*
X0326053Y0328833D02*
X0320255Y0328833D01*
X0320255Y0329932D02*
X0326053Y0329932D01*
X0326053Y0331031D02*
X0320255Y0331031D01*
X0320255Y0332130D02*
X0326053Y0332130D01*
X0336289Y0332746D02*
X0336289Y0327734D01*
X0330491Y0327734D01*
X0330491Y0332746D01*
X0336289Y0332746D01*
X0336289Y0328833D02*
X0330491Y0328833D01*
X0330491Y0329932D02*
X0336289Y0329932D01*
X0336289Y0331031D02*
X0330491Y0331031D01*
X0330491Y0332130D02*
X0336289Y0332130D01*
X0345738Y0332746D02*
X0345738Y0327734D01*
X0339940Y0327734D01*
X0339940Y0332746D01*
X0345738Y0332746D01*
X0345738Y0328833D02*
X0339940Y0328833D01*
X0339940Y0329932D02*
X0345738Y0329932D01*
X0345738Y0331031D02*
X0339940Y0331031D01*
X0339940Y0332130D02*
X0345738Y0332130D01*
X0355974Y0332746D02*
X0355974Y0327734D01*
X0350176Y0327734D01*
X0350176Y0332746D01*
X0355974Y0332746D01*
X0355974Y0328833D02*
X0350176Y0328833D01*
X0350176Y0329932D02*
X0355974Y0329932D01*
X0355974Y0331031D02*
X0350176Y0331031D01*
X0350176Y0332130D02*
X0355974Y0332130D01*
X0365423Y0332746D02*
X0365423Y0327734D01*
X0359625Y0327734D01*
X0359625Y0332746D01*
X0365423Y0332746D01*
X0365423Y0328833D02*
X0359625Y0328833D01*
X0359625Y0329932D02*
X0365423Y0329932D01*
X0365423Y0331031D02*
X0359625Y0331031D01*
X0359625Y0332130D02*
X0365423Y0332130D01*
X0375659Y0332746D02*
X0375659Y0327734D01*
X0369861Y0327734D01*
X0369861Y0332746D01*
X0375659Y0332746D01*
X0375659Y0328833D02*
X0369861Y0328833D01*
X0369861Y0329932D02*
X0375659Y0329932D01*
X0375659Y0331031D02*
X0369861Y0331031D01*
X0369861Y0332130D02*
X0375659Y0332130D01*
X0168572Y0332746D02*
X0168572Y0327734D01*
X0162774Y0327734D01*
X0162774Y0332746D01*
X0168572Y0332746D01*
X0168572Y0328833D02*
X0162774Y0328833D01*
X0162774Y0329932D02*
X0168572Y0329932D01*
X0168572Y0331031D02*
X0162774Y0331031D01*
X0162774Y0332130D02*
X0168572Y0332130D01*
X0159123Y0332746D02*
X0159123Y0327734D01*
X0153325Y0327734D01*
X0153325Y0332746D01*
X0159123Y0332746D01*
X0159123Y0328833D02*
X0153325Y0328833D01*
X0153325Y0329932D02*
X0159123Y0329932D01*
X0159123Y0331031D02*
X0153325Y0331031D01*
X0153325Y0332130D02*
X0159123Y0332130D01*
X0148887Y0332746D02*
X0148887Y0327734D01*
X0143089Y0327734D01*
X0143089Y0332746D01*
X0148887Y0332746D01*
X0148887Y0328833D02*
X0143089Y0328833D01*
X0143089Y0329932D02*
X0148887Y0329932D01*
X0148887Y0331031D02*
X0143089Y0331031D01*
X0143089Y0332130D02*
X0148887Y0332130D01*
D26*
X0283213Y0173272D02*
X0286125Y0173272D01*
X0283213Y0173272D02*
X0283213Y0176184D01*
X0286125Y0176184D01*
X0286125Y0173272D01*
X0286125Y0174460D02*
X0283213Y0174460D01*
X0283213Y0175648D02*
X0286125Y0175648D01*
X0290103Y0173272D02*
X0293015Y0173272D01*
X0290103Y0173272D02*
X0290103Y0176184D01*
X0293015Y0176184D01*
X0293015Y0173272D01*
X0293015Y0174460D02*
X0290103Y0174460D01*
X0290103Y0175648D02*
X0293015Y0175648D01*
D27*
X0291358Y0075806D02*
X0288808Y0075806D01*
X0291358Y0075806D02*
X0291358Y0072864D01*
X0288808Y0072864D01*
X0288808Y0075806D01*
X0288808Y0074063D02*
X0291358Y0074063D01*
X0291358Y0075262D02*
X0288808Y0075262D01*
X0285058Y0075806D02*
X0282508Y0075806D01*
X0285058Y0075806D02*
X0285058Y0072864D01*
X0282508Y0072864D01*
X0282508Y0075806D01*
X0282508Y0074063D02*
X0285058Y0074063D01*
X0285058Y0075262D02*
X0282508Y0075262D01*
X0277578Y0075806D02*
X0275028Y0075806D01*
X0277578Y0075806D02*
X0277578Y0072864D01*
X0275028Y0072864D01*
X0275028Y0075806D01*
X0275028Y0074063D02*
X0277578Y0074063D01*
X0277578Y0075262D02*
X0275028Y0075262D01*
X0271279Y0075806D02*
X0268729Y0075806D01*
X0271279Y0075806D02*
X0271279Y0072864D01*
X0268729Y0072864D01*
X0268729Y0075806D01*
X0268729Y0074063D02*
X0271279Y0074063D01*
X0271279Y0075262D02*
X0268729Y0075262D01*
X0263799Y0075806D02*
X0261249Y0075806D01*
X0263799Y0075806D02*
X0263799Y0072864D01*
X0261249Y0072864D01*
X0261249Y0075806D01*
X0261249Y0074063D02*
X0263799Y0074063D01*
X0263799Y0075262D02*
X0261249Y0075262D01*
X0257499Y0075806D02*
X0254949Y0075806D01*
X0257499Y0075806D02*
X0257499Y0072864D01*
X0254949Y0072864D01*
X0254949Y0075806D01*
X0254949Y0074063D02*
X0257499Y0074063D01*
X0257499Y0075262D02*
X0254949Y0075262D01*
X0250019Y0075806D02*
X0247469Y0075806D01*
X0250019Y0075806D02*
X0250019Y0072864D01*
X0247469Y0072864D01*
X0247469Y0075806D01*
X0247469Y0074063D02*
X0250019Y0074063D01*
X0250019Y0075262D02*
X0247469Y0075262D01*
X0243720Y0075806D02*
X0241170Y0075806D01*
X0243720Y0075806D02*
X0243720Y0072864D01*
X0241170Y0072864D01*
X0241170Y0075806D01*
X0241170Y0074063D02*
X0243720Y0074063D01*
X0243720Y0075262D02*
X0241170Y0075262D01*
X0236240Y0075806D02*
X0233690Y0075806D01*
X0236240Y0075806D02*
X0236240Y0072864D01*
X0233690Y0072864D01*
X0233690Y0075806D01*
X0233690Y0074063D02*
X0236240Y0074063D01*
X0236240Y0075262D02*
X0233690Y0075262D01*
X0229940Y0075806D02*
X0227390Y0075806D01*
X0229940Y0075806D02*
X0229940Y0072864D01*
X0227390Y0072864D01*
X0227390Y0075806D01*
X0227390Y0074063D02*
X0229940Y0074063D01*
X0229940Y0075262D02*
X0227390Y0075262D01*
X0222460Y0075806D02*
X0219910Y0075806D01*
X0222460Y0075806D02*
X0222460Y0072864D01*
X0219910Y0072864D01*
X0219910Y0075806D01*
X0219910Y0074063D02*
X0222460Y0074063D01*
X0222460Y0075262D02*
X0219910Y0075262D01*
X0216161Y0075806D02*
X0213611Y0075806D01*
X0216161Y0075806D02*
X0216161Y0072864D01*
X0213611Y0072864D01*
X0213611Y0075806D01*
X0213611Y0074063D02*
X0216161Y0074063D01*
X0216161Y0075262D02*
X0213611Y0075262D01*
X0208681Y0075806D02*
X0206131Y0075806D01*
X0208681Y0075806D02*
X0208681Y0072864D01*
X0206131Y0072864D01*
X0206131Y0075806D01*
X0206131Y0074063D02*
X0208681Y0074063D01*
X0208681Y0075262D02*
X0206131Y0075262D01*
X0202381Y0075806D02*
X0199831Y0075806D01*
X0202381Y0075806D02*
X0202381Y0072864D01*
X0199831Y0072864D01*
X0199831Y0075806D01*
X0199831Y0074063D02*
X0202381Y0074063D01*
X0202381Y0075262D02*
X0199831Y0075262D01*
X0194901Y0075806D02*
X0192351Y0075806D01*
X0194901Y0075806D02*
X0194901Y0072864D01*
X0192351Y0072864D01*
X0192351Y0075806D01*
X0192351Y0074063D02*
X0194901Y0074063D01*
X0194901Y0075262D02*
X0192351Y0075262D01*
X0188602Y0075806D02*
X0186052Y0075806D01*
X0188602Y0075806D02*
X0188602Y0072864D01*
X0186052Y0072864D01*
X0186052Y0075806D01*
X0186052Y0074063D02*
X0188602Y0074063D01*
X0188602Y0075262D02*
X0186052Y0075262D01*
X0181121Y0075806D02*
X0178571Y0075806D01*
X0181121Y0075806D02*
X0181121Y0072864D01*
X0178571Y0072864D01*
X0178571Y0075806D01*
X0178571Y0074063D02*
X0181121Y0074063D01*
X0181121Y0075262D02*
X0178571Y0075262D01*
X0182312Y0067538D02*
X0184862Y0067538D01*
X0184862Y0064596D01*
X0182312Y0064596D01*
X0182312Y0067538D01*
X0182312Y0065795D02*
X0184862Y0065795D01*
X0184862Y0066994D02*
X0182312Y0066994D01*
X0196091Y0067538D02*
X0198641Y0067538D01*
X0198641Y0064596D01*
X0196091Y0064596D01*
X0196091Y0067538D01*
X0196091Y0065795D02*
X0198641Y0065795D01*
X0198641Y0066994D02*
X0196091Y0066994D01*
X0209871Y0067538D02*
X0212421Y0067538D01*
X0212421Y0064596D01*
X0209871Y0064596D01*
X0209871Y0067538D01*
X0209871Y0065795D02*
X0212421Y0065795D01*
X0212421Y0066994D02*
X0209871Y0066994D01*
X0223650Y0067538D02*
X0226200Y0067538D01*
X0226200Y0064596D01*
X0223650Y0064596D01*
X0223650Y0067538D01*
X0223650Y0065795D02*
X0226200Y0065795D01*
X0226200Y0066994D02*
X0223650Y0066994D01*
X0237430Y0067538D02*
X0239980Y0067538D01*
X0239980Y0064596D01*
X0237430Y0064596D01*
X0237430Y0067538D01*
X0237430Y0065795D02*
X0239980Y0065795D01*
X0239980Y0066994D02*
X0237430Y0066994D01*
X0251209Y0067538D02*
X0253759Y0067538D01*
X0253759Y0064596D01*
X0251209Y0064596D01*
X0251209Y0067538D01*
X0251209Y0065795D02*
X0253759Y0065795D01*
X0253759Y0066994D02*
X0251209Y0066994D01*
X0264989Y0067538D02*
X0267539Y0067538D01*
X0267539Y0064596D01*
X0264989Y0064596D01*
X0264989Y0067538D01*
X0264989Y0065795D02*
X0267539Y0065795D01*
X0267539Y0066994D02*
X0264989Y0066994D01*
X0278768Y0067538D02*
X0281318Y0067538D01*
X0281318Y0064596D01*
X0278768Y0064596D01*
X0278768Y0067538D01*
X0278768Y0065795D02*
X0281318Y0065795D01*
X0281318Y0066994D02*
X0278768Y0066994D01*
X0292548Y0067538D02*
X0295098Y0067538D01*
X0295098Y0064596D01*
X0292548Y0064596D01*
X0292548Y0067538D01*
X0292548Y0065795D02*
X0295098Y0065795D01*
X0295098Y0066994D02*
X0292548Y0066994D01*
X0296288Y0075806D02*
X0298838Y0075806D01*
X0298838Y0072864D01*
X0296288Y0072864D01*
X0296288Y0075806D01*
X0296288Y0074063D02*
X0298838Y0074063D01*
X0298838Y0075262D02*
X0296288Y0075262D01*
X0302587Y0075806D02*
X0305137Y0075806D01*
X0305137Y0072864D01*
X0302587Y0072864D01*
X0302587Y0075806D01*
X0302587Y0074063D02*
X0305137Y0074063D01*
X0305137Y0075262D02*
X0302587Y0075262D01*
X0310068Y0075806D02*
X0312618Y0075806D01*
X0312618Y0072864D01*
X0310068Y0072864D01*
X0310068Y0075806D01*
X0310068Y0074063D02*
X0312618Y0074063D01*
X0312618Y0075262D02*
X0310068Y0075262D01*
X0316367Y0075806D02*
X0318917Y0075806D01*
X0318917Y0072864D01*
X0316367Y0072864D01*
X0316367Y0075806D01*
X0316367Y0074063D02*
X0318917Y0074063D01*
X0318917Y0075262D02*
X0316367Y0075262D01*
X0323847Y0075806D02*
X0326397Y0075806D01*
X0326397Y0072864D01*
X0323847Y0072864D01*
X0323847Y0075806D01*
X0323847Y0074063D02*
X0326397Y0074063D01*
X0326397Y0075262D02*
X0323847Y0075262D01*
X0330146Y0075806D02*
X0332696Y0075806D01*
X0332696Y0072864D01*
X0330146Y0072864D01*
X0330146Y0075806D01*
X0330146Y0074063D02*
X0332696Y0074063D01*
X0332696Y0075262D02*
X0330146Y0075262D01*
X0337627Y0075806D02*
X0340177Y0075806D01*
X0340177Y0072864D01*
X0337627Y0072864D01*
X0337627Y0075806D01*
X0337627Y0074063D02*
X0340177Y0074063D01*
X0340177Y0075262D02*
X0337627Y0075262D01*
X0336436Y0067538D02*
X0333886Y0067538D01*
X0336436Y0067538D02*
X0336436Y0064596D01*
X0333886Y0064596D01*
X0333886Y0067538D01*
X0333886Y0065795D02*
X0336436Y0065795D01*
X0336436Y0066994D02*
X0333886Y0066994D01*
X0322657Y0067538D02*
X0320107Y0067538D01*
X0322657Y0067538D02*
X0322657Y0064596D01*
X0320107Y0064596D01*
X0320107Y0067538D01*
X0320107Y0065795D02*
X0322657Y0065795D01*
X0322657Y0066994D02*
X0320107Y0066994D01*
X0308877Y0067538D02*
X0306327Y0067538D01*
X0308877Y0067538D02*
X0308877Y0064596D01*
X0306327Y0064596D01*
X0306327Y0067538D01*
X0306327Y0065795D02*
X0308877Y0065795D01*
X0308877Y0066994D02*
X0306327Y0066994D01*
X0305137Y0301210D02*
X0302587Y0301210D01*
X0302587Y0304152D01*
X0305137Y0304152D01*
X0305137Y0301210D01*
X0305137Y0302409D02*
X0302587Y0302409D01*
X0302587Y0303608D02*
X0305137Y0303608D01*
X0298838Y0301210D02*
X0296288Y0301210D01*
X0296288Y0304152D01*
X0298838Y0304152D01*
X0298838Y0301210D01*
X0298838Y0302409D02*
X0296288Y0302409D01*
X0296288Y0303608D02*
X0298838Y0303608D01*
X0291358Y0301210D02*
X0288808Y0301210D01*
X0288808Y0304152D01*
X0291358Y0304152D01*
X0291358Y0301210D01*
X0291358Y0302409D02*
X0288808Y0302409D01*
X0288808Y0303608D02*
X0291358Y0303608D01*
X0285058Y0301210D02*
X0282508Y0301210D01*
X0282508Y0304152D01*
X0285058Y0304152D01*
X0285058Y0301210D01*
X0285058Y0302409D02*
X0282508Y0302409D01*
X0282508Y0303608D02*
X0285058Y0303608D01*
X0277578Y0301210D02*
X0275028Y0301210D01*
X0275028Y0304152D01*
X0277578Y0304152D01*
X0277578Y0301210D01*
X0277578Y0302409D02*
X0275028Y0302409D01*
X0275028Y0303608D02*
X0277578Y0303608D01*
X0271279Y0301210D02*
X0268729Y0301210D01*
X0268729Y0304152D01*
X0271279Y0304152D01*
X0271279Y0301210D01*
X0271279Y0302409D02*
X0268729Y0302409D01*
X0268729Y0303608D02*
X0271279Y0303608D01*
X0263799Y0301210D02*
X0261249Y0301210D01*
X0261249Y0304152D01*
X0263799Y0304152D01*
X0263799Y0301210D01*
X0263799Y0302409D02*
X0261249Y0302409D01*
X0261249Y0303608D02*
X0263799Y0303608D01*
X0257499Y0301210D02*
X0254949Y0301210D01*
X0254949Y0304152D01*
X0257499Y0304152D01*
X0257499Y0301210D01*
X0257499Y0302409D02*
X0254949Y0302409D01*
X0254949Y0303608D02*
X0257499Y0303608D01*
X0250019Y0301210D02*
X0247469Y0301210D01*
X0247469Y0304152D01*
X0250019Y0304152D01*
X0250019Y0301210D01*
X0250019Y0302409D02*
X0247469Y0302409D01*
X0247469Y0303608D02*
X0250019Y0303608D01*
X0243720Y0301210D02*
X0241170Y0301210D01*
X0241170Y0304152D01*
X0243720Y0304152D01*
X0243720Y0301210D01*
X0243720Y0302409D02*
X0241170Y0302409D01*
X0241170Y0303608D02*
X0243720Y0303608D01*
X0236240Y0301210D02*
X0233690Y0301210D01*
X0233690Y0304152D01*
X0236240Y0304152D01*
X0236240Y0301210D01*
X0236240Y0302409D02*
X0233690Y0302409D01*
X0233690Y0303608D02*
X0236240Y0303608D01*
X0229940Y0301210D02*
X0227390Y0301210D01*
X0227390Y0304152D01*
X0229940Y0304152D01*
X0229940Y0301210D01*
X0229940Y0302409D02*
X0227390Y0302409D01*
X0227390Y0303608D02*
X0229940Y0303608D01*
X0222460Y0301210D02*
X0219910Y0301210D01*
X0219910Y0304152D01*
X0222460Y0304152D01*
X0222460Y0301210D01*
X0222460Y0302409D02*
X0219910Y0302409D01*
X0219910Y0303608D02*
X0222460Y0303608D01*
X0216161Y0301210D02*
X0213611Y0301210D01*
X0213611Y0304152D01*
X0216161Y0304152D01*
X0216161Y0301210D01*
X0216161Y0302409D02*
X0213611Y0302409D01*
X0213611Y0303608D02*
X0216161Y0303608D01*
X0208681Y0301210D02*
X0206131Y0301210D01*
X0206131Y0304152D01*
X0208681Y0304152D01*
X0208681Y0301210D01*
X0208681Y0302409D02*
X0206131Y0302409D01*
X0206131Y0303608D02*
X0208681Y0303608D01*
X0202381Y0301210D02*
X0199831Y0301210D01*
X0199831Y0304152D01*
X0202381Y0304152D01*
X0202381Y0301210D01*
X0202381Y0302409D02*
X0199831Y0302409D01*
X0199831Y0303608D02*
X0202381Y0303608D01*
X0198641Y0309478D02*
X0196091Y0309478D01*
X0196091Y0312420D01*
X0198641Y0312420D01*
X0198641Y0309478D01*
X0198641Y0310677D02*
X0196091Y0310677D01*
X0196091Y0311876D02*
X0198641Y0311876D01*
X0194901Y0301210D02*
X0192351Y0301210D01*
X0192351Y0304152D01*
X0194901Y0304152D01*
X0194901Y0301210D01*
X0194901Y0302409D02*
X0192351Y0302409D01*
X0192351Y0303608D02*
X0194901Y0303608D01*
X0188602Y0301210D02*
X0186052Y0301210D01*
X0186052Y0304152D01*
X0188602Y0304152D01*
X0188602Y0301210D01*
X0188602Y0302409D02*
X0186052Y0302409D01*
X0186052Y0303608D02*
X0188602Y0303608D01*
X0181121Y0301210D02*
X0178571Y0301210D01*
X0178571Y0304152D01*
X0181121Y0304152D01*
X0181121Y0301210D01*
X0181121Y0302409D02*
X0178571Y0302409D01*
X0178571Y0303608D02*
X0181121Y0303608D01*
X0182312Y0309478D02*
X0184862Y0309478D01*
X0182312Y0309478D02*
X0182312Y0312420D01*
X0184862Y0312420D01*
X0184862Y0309478D01*
X0184862Y0310677D02*
X0182312Y0310677D01*
X0182312Y0311876D02*
X0184862Y0311876D01*
X0209871Y0309478D02*
X0212421Y0309478D01*
X0209871Y0309478D02*
X0209871Y0312420D01*
X0212421Y0312420D01*
X0212421Y0309478D01*
X0212421Y0310677D02*
X0209871Y0310677D01*
X0209871Y0311876D02*
X0212421Y0311876D01*
X0223650Y0309478D02*
X0226200Y0309478D01*
X0223650Y0309478D02*
X0223650Y0312420D01*
X0226200Y0312420D01*
X0226200Y0309478D01*
X0226200Y0310677D02*
X0223650Y0310677D01*
X0223650Y0311876D02*
X0226200Y0311876D01*
X0237430Y0309478D02*
X0239980Y0309478D01*
X0237430Y0309478D02*
X0237430Y0312420D01*
X0239980Y0312420D01*
X0239980Y0309478D01*
X0239980Y0310677D02*
X0237430Y0310677D01*
X0237430Y0311876D02*
X0239980Y0311876D01*
X0251209Y0309478D02*
X0253759Y0309478D01*
X0251209Y0309478D02*
X0251209Y0312420D01*
X0253759Y0312420D01*
X0253759Y0309478D01*
X0253759Y0310677D02*
X0251209Y0310677D01*
X0251209Y0311876D02*
X0253759Y0311876D01*
X0264989Y0309478D02*
X0267539Y0309478D01*
X0264989Y0309478D02*
X0264989Y0312420D01*
X0267539Y0312420D01*
X0267539Y0309478D01*
X0267539Y0310677D02*
X0264989Y0310677D01*
X0264989Y0311876D02*
X0267539Y0311876D01*
X0278768Y0309478D02*
X0281318Y0309478D01*
X0278768Y0309478D02*
X0278768Y0312420D01*
X0281318Y0312420D01*
X0281318Y0309478D01*
X0281318Y0310677D02*
X0278768Y0310677D01*
X0278768Y0311876D02*
X0281318Y0311876D01*
X0292548Y0309478D02*
X0295098Y0309478D01*
X0292548Y0309478D02*
X0292548Y0312420D01*
X0295098Y0312420D01*
X0295098Y0309478D01*
X0295098Y0310677D02*
X0292548Y0310677D01*
X0292548Y0311876D02*
X0295098Y0311876D01*
X0306327Y0309478D02*
X0308877Y0309478D01*
X0306327Y0309478D02*
X0306327Y0312420D01*
X0308877Y0312420D01*
X0308877Y0309478D01*
X0308877Y0310677D02*
X0306327Y0310677D01*
X0306327Y0311876D02*
X0308877Y0311876D01*
X0310068Y0301210D02*
X0312618Y0301210D01*
X0310068Y0301210D02*
X0310068Y0304152D01*
X0312618Y0304152D01*
X0312618Y0301210D01*
X0312618Y0302409D02*
X0310068Y0302409D01*
X0310068Y0303608D02*
X0312618Y0303608D01*
X0316367Y0301210D02*
X0318917Y0301210D01*
X0316367Y0301210D02*
X0316367Y0304152D01*
X0318917Y0304152D01*
X0318917Y0301210D01*
X0318917Y0302409D02*
X0316367Y0302409D01*
X0316367Y0303608D02*
X0318917Y0303608D01*
X0323847Y0301210D02*
X0326397Y0301210D01*
X0323847Y0301210D02*
X0323847Y0304152D01*
X0326397Y0304152D01*
X0326397Y0301210D01*
X0326397Y0302409D02*
X0323847Y0302409D01*
X0323847Y0303608D02*
X0326397Y0303608D01*
X0330146Y0301210D02*
X0332696Y0301210D01*
X0330146Y0301210D02*
X0330146Y0304152D01*
X0332696Y0304152D01*
X0332696Y0301210D01*
X0332696Y0302409D02*
X0330146Y0302409D01*
X0330146Y0303608D02*
X0332696Y0303608D01*
X0337627Y0301210D02*
X0340177Y0301210D01*
X0337627Y0301210D02*
X0337627Y0304152D01*
X0340177Y0304152D01*
X0340177Y0301210D01*
X0340177Y0302409D02*
X0337627Y0302409D01*
X0337627Y0303608D02*
X0340177Y0303608D01*
X0336436Y0309478D02*
X0333886Y0309478D01*
X0333886Y0312420D01*
X0336436Y0312420D01*
X0336436Y0309478D01*
X0336436Y0310677D02*
X0333886Y0310677D01*
X0333886Y0311876D02*
X0336436Y0311876D01*
X0322657Y0309478D02*
X0320107Y0309478D01*
X0320107Y0312420D01*
X0322657Y0312420D01*
X0322657Y0309478D01*
X0322657Y0310677D02*
X0320107Y0310677D01*
X0320107Y0311876D02*
X0322657Y0311876D01*
D28*
X0355831Y0176697D03*
X0166854Y0304650D03*
X0072366Y0013311D03*
D29*
X0334177Y0134965D03*
D30*
X0029059Y0048744D03*
D31*
X0029059Y0068429D03*
M02*
