G75*
%MOIN*%
%OFA0B0*%
%FSLAX25Y25*%
%IPPOS*%
%LPD*%
%AMOC8*
5,1,8,0,0,1.08239X$1,22.5*
%
%ADD10C,0.00591*%
%ADD11C,0.00500*%
%ADD12C,0.00800*%
%ADD13C,0.01100*%
%ADD14C,0.00000*%
%ADD15C,0.00600*%
%ADD16C,0.00866*%
%ADD17C,0.01000*%
%ADD18C,0.01181*%
%ADD19C,0.00400*%
D10*
X0001500Y0005437D02*
X0001500Y0218035D01*
X0001502Y0218225D01*
X0001509Y0218415D01*
X0001521Y0218605D01*
X0001537Y0218795D01*
X0001557Y0218984D01*
X0001583Y0219173D01*
X0001612Y0219361D01*
X0001647Y0219548D01*
X0001686Y0219734D01*
X0001729Y0219919D01*
X0001777Y0220104D01*
X0001829Y0220287D01*
X0001885Y0220468D01*
X0001946Y0220648D01*
X0002012Y0220827D01*
X0002081Y0221004D01*
X0002155Y0221180D01*
X0002233Y0221353D01*
X0002316Y0221525D01*
X0002402Y0221694D01*
X0002492Y0221862D01*
X0002587Y0222027D01*
X0002685Y0222190D01*
X0002788Y0222350D01*
X0002894Y0222508D01*
X0003004Y0222663D01*
X0003117Y0222816D01*
X0003235Y0222966D01*
X0003356Y0223112D01*
X0003480Y0223256D01*
X0003608Y0223397D01*
X0003739Y0223535D01*
X0003874Y0223670D01*
X0004012Y0223801D01*
X0004153Y0223929D01*
X0004297Y0224053D01*
X0004443Y0224174D01*
X0004593Y0224292D01*
X0004746Y0224405D01*
X0004901Y0224515D01*
X0005059Y0224621D01*
X0005219Y0224724D01*
X0005382Y0224822D01*
X0005547Y0224917D01*
X0005715Y0225007D01*
X0005884Y0225093D01*
X0006056Y0225176D01*
X0006229Y0225254D01*
X0006405Y0225328D01*
X0006582Y0225397D01*
X0006761Y0225463D01*
X0006941Y0225524D01*
X0007122Y0225580D01*
X0007305Y0225632D01*
X0007490Y0225680D01*
X0007675Y0225723D01*
X0007861Y0225762D01*
X0008048Y0225797D01*
X0008236Y0225826D01*
X0008425Y0225852D01*
X0008614Y0225872D01*
X0008804Y0225888D01*
X0008994Y0225900D01*
X0009184Y0225907D01*
X0009374Y0225909D01*
X0107799Y0225909D01*
X0107989Y0225911D01*
X0108179Y0225918D01*
X0108369Y0225930D01*
X0108559Y0225946D01*
X0108748Y0225966D01*
X0108937Y0225992D01*
X0109125Y0226021D01*
X0109312Y0226056D01*
X0109498Y0226095D01*
X0109683Y0226138D01*
X0109868Y0226186D01*
X0110051Y0226238D01*
X0110232Y0226294D01*
X0110412Y0226355D01*
X0110591Y0226421D01*
X0110768Y0226490D01*
X0110944Y0226564D01*
X0111117Y0226642D01*
X0111289Y0226725D01*
X0111458Y0226811D01*
X0111626Y0226901D01*
X0111791Y0226996D01*
X0111954Y0227094D01*
X0112114Y0227197D01*
X0112272Y0227303D01*
X0112427Y0227413D01*
X0112580Y0227526D01*
X0112730Y0227644D01*
X0112876Y0227765D01*
X0113020Y0227889D01*
X0113161Y0228017D01*
X0113299Y0228148D01*
X0113434Y0228283D01*
X0113565Y0228421D01*
X0113693Y0228562D01*
X0113817Y0228706D01*
X0113938Y0228852D01*
X0114056Y0229002D01*
X0114169Y0229155D01*
X0114279Y0229310D01*
X0114385Y0229468D01*
X0114488Y0229628D01*
X0114586Y0229791D01*
X0114681Y0229956D01*
X0114771Y0230124D01*
X0114857Y0230293D01*
X0114940Y0230465D01*
X0115018Y0230638D01*
X0115092Y0230814D01*
X0115161Y0230991D01*
X0115227Y0231170D01*
X0115288Y0231350D01*
X0115344Y0231531D01*
X0115396Y0231714D01*
X0115444Y0231899D01*
X0115487Y0232084D01*
X0115526Y0232270D01*
X0115561Y0232457D01*
X0115590Y0232645D01*
X0115616Y0232834D01*
X0115636Y0233023D01*
X0115652Y0233213D01*
X0115664Y0233403D01*
X0115671Y0233593D01*
X0115673Y0233783D01*
X0115673Y0367642D01*
X0115675Y0367832D01*
X0115682Y0368022D01*
X0115694Y0368212D01*
X0115710Y0368402D01*
X0115730Y0368591D01*
X0115756Y0368780D01*
X0115785Y0368968D01*
X0115820Y0369155D01*
X0115859Y0369341D01*
X0115902Y0369526D01*
X0115950Y0369711D01*
X0116002Y0369894D01*
X0116058Y0370075D01*
X0116119Y0370255D01*
X0116185Y0370434D01*
X0116254Y0370611D01*
X0116328Y0370787D01*
X0116406Y0370960D01*
X0116489Y0371132D01*
X0116575Y0371301D01*
X0116665Y0371469D01*
X0116760Y0371634D01*
X0116858Y0371797D01*
X0116961Y0371957D01*
X0117067Y0372115D01*
X0117177Y0372270D01*
X0117290Y0372423D01*
X0117408Y0372573D01*
X0117529Y0372719D01*
X0117653Y0372863D01*
X0117781Y0373004D01*
X0117912Y0373142D01*
X0118047Y0373277D01*
X0118185Y0373408D01*
X0118326Y0373536D01*
X0118470Y0373660D01*
X0118616Y0373781D01*
X0118766Y0373899D01*
X0118919Y0374012D01*
X0119074Y0374122D01*
X0119232Y0374228D01*
X0119392Y0374331D01*
X0119555Y0374429D01*
X0119720Y0374524D01*
X0119888Y0374614D01*
X0120057Y0374700D01*
X0120229Y0374783D01*
X0120402Y0374861D01*
X0120578Y0374935D01*
X0120755Y0375004D01*
X0120934Y0375070D01*
X0121114Y0375131D01*
X0121295Y0375187D01*
X0121478Y0375239D01*
X0121663Y0375287D01*
X0121848Y0375330D01*
X0122034Y0375369D01*
X0122221Y0375404D01*
X0122409Y0375433D01*
X0122598Y0375459D01*
X0122787Y0375479D01*
X0122977Y0375495D01*
X0123167Y0375507D01*
X0123357Y0375514D01*
X0123547Y0375516D01*
X0377327Y0375516D01*
X0377517Y0375514D01*
X0377707Y0375507D01*
X0377897Y0375495D01*
X0378087Y0375479D01*
X0378276Y0375459D01*
X0378465Y0375433D01*
X0378653Y0375404D01*
X0378840Y0375369D01*
X0379026Y0375330D01*
X0379211Y0375287D01*
X0379396Y0375239D01*
X0379579Y0375187D01*
X0379760Y0375131D01*
X0379940Y0375070D01*
X0380119Y0375004D01*
X0380296Y0374935D01*
X0380472Y0374861D01*
X0380645Y0374783D01*
X0380817Y0374700D01*
X0380986Y0374614D01*
X0381154Y0374524D01*
X0381319Y0374429D01*
X0381482Y0374331D01*
X0381642Y0374228D01*
X0381800Y0374122D01*
X0381955Y0374012D01*
X0382108Y0373899D01*
X0382258Y0373781D01*
X0382404Y0373660D01*
X0382548Y0373536D01*
X0382689Y0373408D01*
X0382827Y0373277D01*
X0382962Y0373142D01*
X0383093Y0373004D01*
X0383221Y0372863D01*
X0383345Y0372719D01*
X0383466Y0372573D01*
X0383584Y0372423D01*
X0383697Y0372270D01*
X0383807Y0372115D01*
X0383913Y0371957D01*
X0384016Y0371797D01*
X0384114Y0371634D01*
X0384209Y0371469D01*
X0384299Y0371301D01*
X0384385Y0371132D01*
X0384468Y0370960D01*
X0384546Y0370787D01*
X0384620Y0370611D01*
X0384689Y0370434D01*
X0384755Y0370255D01*
X0384816Y0370075D01*
X0384872Y0369894D01*
X0384924Y0369711D01*
X0384972Y0369526D01*
X0385015Y0369341D01*
X0385054Y0369155D01*
X0385089Y0368968D01*
X0385118Y0368780D01*
X0385144Y0368591D01*
X0385164Y0368402D01*
X0385180Y0368212D01*
X0385192Y0368022D01*
X0385199Y0367832D01*
X0385201Y0367642D01*
X0385201Y0243177D01*
X0395201Y0233177D01*
X0395201Y0104177D01*
X0385201Y0094177D01*
X0385201Y0005437D01*
X0385199Y0005313D01*
X0385193Y0005190D01*
X0385184Y0005066D01*
X0385170Y0004944D01*
X0385153Y0004821D01*
X0385131Y0004699D01*
X0385106Y0004578D01*
X0385077Y0004458D01*
X0385045Y0004339D01*
X0385008Y0004220D01*
X0384968Y0004103D01*
X0384925Y0003988D01*
X0384877Y0003873D01*
X0384826Y0003761D01*
X0384772Y0003650D01*
X0384714Y0003540D01*
X0384653Y0003433D01*
X0384588Y0003327D01*
X0384520Y0003224D01*
X0384449Y0003123D01*
X0384375Y0003024D01*
X0384298Y0002927D01*
X0384217Y0002833D01*
X0384134Y0002742D01*
X0384048Y0002653D01*
X0383959Y0002567D01*
X0383868Y0002484D01*
X0383774Y0002403D01*
X0383677Y0002326D01*
X0383578Y0002252D01*
X0383477Y0002181D01*
X0383374Y0002113D01*
X0383268Y0002048D01*
X0383161Y0001987D01*
X0383051Y0001929D01*
X0382940Y0001875D01*
X0382828Y0001824D01*
X0382713Y0001776D01*
X0382598Y0001733D01*
X0382481Y0001693D01*
X0382362Y0001656D01*
X0382243Y0001624D01*
X0382123Y0001595D01*
X0382002Y0001570D01*
X0381880Y0001548D01*
X0381757Y0001531D01*
X0381635Y0001517D01*
X0381511Y0001508D01*
X0381388Y0001502D01*
X0381264Y0001500D01*
X0005437Y0001500D01*
X0005313Y0001502D01*
X0005190Y0001508D01*
X0005066Y0001517D01*
X0004944Y0001531D01*
X0004821Y0001548D01*
X0004699Y0001570D01*
X0004578Y0001595D01*
X0004458Y0001624D01*
X0004339Y0001656D01*
X0004220Y0001693D01*
X0004103Y0001733D01*
X0003988Y0001776D01*
X0003873Y0001824D01*
X0003761Y0001875D01*
X0003650Y0001929D01*
X0003540Y0001987D01*
X0003433Y0002048D01*
X0003327Y0002113D01*
X0003224Y0002181D01*
X0003123Y0002252D01*
X0003024Y0002326D01*
X0002927Y0002403D01*
X0002833Y0002484D01*
X0002742Y0002567D01*
X0002653Y0002653D01*
X0002567Y0002742D01*
X0002484Y0002833D01*
X0002403Y0002927D01*
X0002326Y0003024D01*
X0002252Y0003123D01*
X0002181Y0003224D01*
X0002113Y0003327D01*
X0002048Y0003433D01*
X0001987Y0003540D01*
X0001929Y0003650D01*
X0001875Y0003761D01*
X0001824Y0003873D01*
X0001776Y0003988D01*
X0001733Y0004103D01*
X0001693Y0004220D01*
X0001656Y0004339D01*
X0001624Y0004458D01*
X0001595Y0004578D01*
X0001570Y0004699D01*
X0001548Y0004821D01*
X0001531Y0004944D01*
X0001517Y0005066D01*
X0001508Y0005190D01*
X0001502Y0005313D01*
X0001500Y0005437D01*
X0180634Y0123547D02*
X0180634Y0186539D01*
X0180636Y0186663D01*
X0180642Y0186786D01*
X0180651Y0186910D01*
X0180665Y0187032D01*
X0180682Y0187155D01*
X0180704Y0187277D01*
X0180729Y0187398D01*
X0180758Y0187518D01*
X0180790Y0187637D01*
X0180827Y0187756D01*
X0180867Y0187873D01*
X0180910Y0187988D01*
X0180958Y0188103D01*
X0181009Y0188215D01*
X0181063Y0188326D01*
X0181121Y0188436D01*
X0181182Y0188543D01*
X0181247Y0188649D01*
X0181315Y0188752D01*
X0181386Y0188853D01*
X0181460Y0188952D01*
X0181537Y0189049D01*
X0181618Y0189143D01*
X0181701Y0189234D01*
X0181787Y0189323D01*
X0181876Y0189409D01*
X0181967Y0189492D01*
X0182061Y0189573D01*
X0182158Y0189650D01*
X0182257Y0189724D01*
X0182358Y0189795D01*
X0182461Y0189863D01*
X0182567Y0189928D01*
X0182674Y0189989D01*
X0182784Y0190047D01*
X0182895Y0190101D01*
X0183007Y0190152D01*
X0183122Y0190200D01*
X0183237Y0190243D01*
X0183354Y0190283D01*
X0183473Y0190320D01*
X0183592Y0190352D01*
X0183712Y0190381D01*
X0183833Y0190406D01*
X0183955Y0190428D01*
X0184078Y0190445D01*
X0184200Y0190459D01*
X0184324Y0190468D01*
X0184447Y0190474D01*
X0184571Y0190476D01*
X0235752Y0190476D01*
X0235876Y0190474D01*
X0235999Y0190468D01*
X0236123Y0190459D01*
X0236245Y0190445D01*
X0236368Y0190428D01*
X0236490Y0190406D01*
X0236611Y0190381D01*
X0236731Y0190352D01*
X0236850Y0190320D01*
X0236969Y0190283D01*
X0237086Y0190243D01*
X0237201Y0190200D01*
X0237316Y0190152D01*
X0237428Y0190101D01*
X0237539Y0190047D01*
X0237649Y0189989D01*
X0237756Y0189928D01*
X0237862Y0189863D01*
X0237965Y0189795D01*
X0238066Y0189724D01*
X0238165Y0189650D01*
X0238262Y0189573D01*
X0238356Y0189492D01*
X0238447Y0189409D01*
X0238536Y0189323D01*
X0238622Y0189234D01*
X0238705Y0189143D01*
X0238786Y0189049D01*
X0238863Y0188952D01*
X0238937Y0188853D01*
X0239008Y0188752D01*
X0239076Y0188649D01*
X0239141Y0188543D01*
X0239202Y0188436D01*
X0239260Y0188326D01*
X0239314Y0188215D01*
X0239365Y0188103D01*
X0239413Y0187988D01*
X0239456Y0187873D01*
X0239496Y0187756D01*
X0239533Y0187637D01*
X0239565Y0187518D01*
X0239594Y0187398D01*
X0239619Y0187277D01*
X0239641Y0187155D01*
X0239658Y0187032D01*
X0239672Y0186910D01*
X0239681Y0186786D01*
X0239687Y0186663D01*
X0239689Y0186539D01*
X0239689Y0123547D01*
X0239687Y0123423D01*
X0239681Y0123300D01*
X0239672Y0123176D01*
X0239658Y0123054D01*
X0239641Y0122931D01*
X0239619Y0122809D01*
X0239594Y0122688D01*
X0239565Y0122568D01*
X0239533Y0122449D01*
X0239496Y0122330D01*
X0239456Y0122213D01*
X0239413Y0122098D01*
X0239365Y0121983D01*
X0239314Y0121871D01*
X0239260Y0121760D01*
X0239202Y0121650D01*
X0239141Y0121543D01*
X0239076Y0121437D01*
X0239008Y0121334D01*
X0238937Y0121233D01*
X0238863Y0121134D01*
X0238786Y0121037D01*
X0238705Y0120943D01*
X0238622Y0120852D01*
X0238536Y0120763D01*
X0238447Y0120677D01*
X0238356Y0120594D01*
X0238262Y0120513D01*
X0238165Y0120436D01*
X0238066Y0120362D01*
X0237965Y0120291D01*
X0237862Y0120223D01*
X0237756Y0120158D01*
X0237649Y0120097D01*
X0237539Y0120039D01*
X0237428Y0119985D01*
X0237316Y0119934D01*
X0237201Y0119886D01*
X0237086Y0119843D01*
X0236969Y0119803D01*
X0236850Y0119766D01*
X0236731Y0119734D01*
X0236611Y0119705D01*
X0236490Y0119680D01*
X0236368Y0119658D01*
X0236245Y0119641D01*
X0236123Y0119627D01*
X0235999Y0119618D01*
X0235876Y0119612D01*
X0235752Y0119610D01*
X0184571Y0119610D01*
X0184447Y0119612D01*
X0184324Y0119618D01*
X0184200Y0119627D01*
X0184078Y0119641D01*
X0183955Y0119658D01*
X0183833Y0119680D01*
X0183712Y0119705D01*
X0183592Y0119734D01*
X0183473Y0119766D01*
X0183354Y0119803D01*
X0183237Y0119843D01*
X0183122Y0119886D01*
X0183007Y0119934D01*
X0182895Y0119985D01*
X0182784Y0120039D01*
X0182674Y0120097D01*
X0182567Y0120158D01*
X0182461Y0120223D01*
X0182358Y0120291D01*
X0182257Y0120362D01*
X0182158Y0120436D01*
X0182061Y0120513D01*
X0181967Y0120594D01*
X0181876Y0120677D01*
X0181787Y0120763D01*
X0181701Y0120852D01*
X0181618Y0120943D01*
X0181537Y0121037D01*
X0181460Y0121134D01*
X0181386Y0121233D01*
X0181315Y0121334D01*
X0181247Y0121437D01*
X0181182Y0121543D01*
X0181121Y0121650D01*
X0181063Y0121760D01*
X0181009Y0121871D01*
X0180958Y0121983D01*
X0180910Y0122098D01*
X0180867Y0122213D01*
X0180827Y0122330D01*
X0180790Y0122449D01*
X0180758Y0122568D01*
X0180729Y0122688D01*
X0180704Y0122809D01*
X0180682Y0122931D01*
X0180665Y0123054D01*
X0180651Y0123176D01*
X0180642Y0123300D01*
X0180636Y0123423D01*
X0180634Y0123547D01*
X0184571Y0194413D02*
X0235752Y0194413D01*
X0235876Y0194415D01*
X0235999Y0194421D01*
X0236123Y0194430D01*
X0236245Y0194444D01*
X0236368Y0194461D01*
X0236490Y0194483D01*
X0236611Y0194508D01*
X0236731Y0194537D01*
X0236850Y0194569D01*
X0236969Y0194606D01*
X0237086Y0194646D01*
X0237201Y0194689D01*
X0237316Y0194737D01*
X0237428Y0194788D01*
X0237539Y0194842D01*
X0237649Y0194900D01*
X0237756Y0194961D01*
X0237862Y0195026D01*
X0237965Y0195094D01*
X0238066Y0195165D01*
X0238165Y0195239D01*
X0238262Y0195316D01*
X0238356Y0195397D01*
X0238447Y0195480D01*
X0238536Y0195566D01*
X0238622Y0195655D01*
X0238705Y0195746D01*
X0238786Y0195840D01*
X0238863Y0195937D01*
X0238937Y0196036D01*
X0239008Y0196137D01*
X0239076Y0196240D01*
X0239141Y0196346D01*
X0239202Y0196453D01*
X0239260Y0196563D01*
X0239314Y0196674D01*
X0239365Y0196786D01*
X0239413Y0196901D01*
X0239456Y0197016D01*
X0239496Y0197133D01*
X0239533Y0197252D01*
X0239565Y0197371D01*
X0239594Y0197491D01*
X0239619Y0197612D01*
X0239641Y0197734D01*
X0239658Y0197857D01*
X0239672Y0197979D01*
X0239681Y0198103D01*
X0239687Y0198226D01*
X0239689Y0198350D01*
X0239689Y0261343D01*
X0239687Y0261467D01*
X0239681Y0261590D01*
X0239672Y0261714D01*
X0239658Y0261836D01*
X0239641Y0261959D01*
X0239619Y0262081D01*
X0239594Y0262202D01*
X0239565Y0262322D01*
X0239533Y0262441D01*
X0239496Y0262560D01*
X0239456Y0262677D01*
X0239413Y0262792D01*
X0239365Y0262907D01*
X0239314Y0263019D01*
X0239260Y0263130D01*
X0239202Y0263240D01*
X0239141Y0263347D01*
X0239076Y0263453D01*
X0239008Y0263556D01*
X0238937Y0263657D01*
X0238863Y0263756D01*
X0238786Y0263853D01*
X0238705Y0263947D01*
X0238622Y0264038D01*
X0238536Y0264127D01*
X0238447Y0264213D01*
X0238356Y0264296D01*
X0238262Y0264377D01*
X0238165Y0264454D01*
X0238066Y0264528D01*
X0237965Y0264599D01*
X0237862Y0264667D01*
X0237756Y0264732D01*
X0237649Y0264793D01*
X0237539Y0264851D01*
X0237428Y0264905D01*
X0237316Y0264956D01*
X0237201Y0265004D01*
X0237086Y0265047D01*
X0236969Y0265087D01*
X0236850Y0265124D01*
X0236731Y0265156D01*
X0236611Y0265185D01*
X0236490Y0265210D01*
X0236368Y0265232D01*
X0236245Y0265249D01*
X0236123Y0265263D01*
X0235999Y0265272D01*
X0235876Y0265278D01*
X0235752Y0265280D01*
X0184571Y0265280D01*
X0184447Y0265278D01*
X0184324Y0265272D01*
X0184200Y0265263D01*
X0184078Y0265249D01*
X0183955Y0265232D01*
X0183833Y0265210D01*
X0183712Y0265185D01*
X0183592Y0265156D01*
X0183473Y0265124D01*
X0183354Y0265087D01*
X0183237Y0265047D01*
X0183122Y0265004D01*
X0183007Y0264956D01*
X0182895Y0264905D01*
X0182784Y0264851D01*
X0182674Y0264793D01*
X0182567Y0264732D01*
X0182461Y0264667D01*
X0182358Y0264599D01*
X0182257Y0264528D01*
X0182158Y0264454D01*
X0182061Y0264377D01*
X0181967Y0264296D01*
X0181876Y0264213D01*
X0181787Y0264127D01*
X0181701Y0264038D01*
X0181618Y0263947D01*
X0181537Y0263853D01*
X0181460Y0263756D01*
X0181386Y0263657D01*
X0181315Y0263556D01*
X0181247Y0263453D01*
X0181182Y0263347D01*
X0181121Y0263240D01*
X0181063Y0263130D01*
X0181009Y0263019D01*
X0180958Y0262907D01*
X0180910Y0262792D01*
X0180867Y0262677D01*
X0180827Y0262560D01*
X0180790Y0262441D01*
X0180758Y0262322D01*
X0180729Y0262202D01*
X0180704Y0262081D01*
X0180682Y0261959D01*
X0180665Y0261836D01*
X0180651Y0261714D01*
X0180642Y0261590D01*
X0180636Y0261467D01*
X0180634Y0261343D01*
X0180634Y0198350D01*
X0180636Y0198226D01*
X0180642Y0198103D01*
X0180651Y0197979D01*
X0180665Y0197857D01*
X0180682Y0197734D01*
X0180704Y0197612D01*
X0180729Y0197491D01*
X0180758Y0197371D01*
X0180790Y0197252D01*
X0180827Y0197133D01*
X0180867Y0197016D01*
X0180910Y0196901D01*
X0180958Y0196786D01*
X0181009Y0196674D01*
X0181063Y0196563D01*
X0181121Y0196453D01*
X0181182Y0196346D01*
X0181247Y0196240D01*
X0181315Y0196137D01*
X0181386Y0196036D01*
X0181460Y0195937D01*
X0181537Y0195840D01*
X0181618Y0195746D01*
X0181701Y0195655D01*
X0181787Y0195566D01*
X0181876Y0195480D01*
X0181967Y0195397D01*
X0182061Y0195316D01*
X0182158Y0195239D01*
X0182257Y0195165D01*
X0182358Y0195094D01*
X0182461Y0195026D01*
X0182567Y0194961D01*
X0182674Y0194900D01*
X0182784Y0194842D01*
X0182895Y0194788D01*
X0183007Y0194737D01*
X0183122Y0194689D01*
X0183237Y0194646D01*
X0183354Y0194606D01*
X0183473Y0194569D01*
X0183592Y0194537D01*
X0183712Y0194508D01*
X0183833Y0194483D01*
X0183955Y0194461D01*
X0184078Y0194444D01*
X0184200Y0194430D01*
X0184324Y0194421D01*
X0184447Y0194415D01*
X0184571Y0194413D01*
D11*
X0194335Y0210254D02*
X0196137Y0210254D01*
X0197037Y0211155D01*
X0196137Y0212055D01*
X0194335Y0212055D01*
X0194335Y0213200D02*
X0194335Y0214101D01*
X0194335Y0213651D02*
X0197037Y0213651D01*
X0197037Y0214101D02*
X0197037Y0213200D01*
X0197037Y0215165D02*
X0194335Y0215165D01*
X0197037Y0216966D01*
X0194335Y0216966D01*
X0204335Y0217498D02*
X0204335Y0216147D01*
X0207037Y0216147D01*
X0207037Y0217498D01*
X0206587Y0217949D01*
X0204785Y0217949D01*
X0204335Y0217498D01*
X0204335Y0215002D02*
X0207037Y0215002D01*
X0204335Y0213200D01*
X0207037Y0213200D01*
X0206587Y0212055D02*
X0205686Y0212055D01*
X0205686Y0211155D01*
X0204785Y0212055D02*
X0204335Y0211605D01*
X0204335Y0210704D01*
X0204785Y0210254D01*
X0206587Y0210254D01*
X0207037Y0210704D01*
X0207037Y0211605D01*
X0206587Y0212055D01*
X0213115Y0211763D02*
X0213115Y0210862D01*
X0213565Y0210411D01*
X0214466Y0211312D02*
X0214466Y0211763D01*
X0214916Y0212213D01*
X0215367Y0212213D01*
X0215817Y0211763D01*
X0215817Y0210862D01*
X0215367Y0210411D01*
X0214466Y0211763D02*
X0214015Y0212213D01*
X0213565Y0212213D01*
X0213115Y0211763D01*
X0213115Y0213358D02*
X0214916Y0213358D01*
X0215817Y0214259D01*
X0214916Y0215159D01*
X0213115Y0215159D01*
X0213565Y0216304D02*
X0213115Y0216755D01*
X0213115Y0217656D01*
X0213565Y0218106D01*
X0214015Y0218106D01*
X0214466Y0217656D01*
X0214916Y0218106D01*
X0215367Y0218106D01*
X0215817Y0217656D01*
X0215817Y0216755D01*
X0215367Y0216304D01*
X0214466Y0217205D02*
X0214466Y0217656D01*
X0213734Y0173991D02*
X0213283Y0173540D01*
X0213283Y0172189D01*
X0215985Y0172189D01*
X0215985Y0173540D01*
X0215535Y0173991D01*
X0213734Y0173991D01*
X0213283Y0171044D02*
X0215985Y0171044D01*
X0213283Y0169243D01*
X0215985Y0169243D01*
X0215535Y0168098D02*
X0214634Y0168098D01*
X0214634Y0167197D01*
X0213734Y0166296D02*
X0215535Y0166296D01*
X0215985Y0166747D01*
X0215985Y0167647D01*
X0215535Y0168098D01*
X0213734Y0168098D02*
X0213283Y0167647D01*
X0213283Y0166747D01*
X0213734Y0166296D01*
X0206419Y0166195D02*
X0205968Y0165745D01*
X0206419Y0166195D02*
X0206419Y0167096D01*
X0205968Y0167547D01*
X0205067Y0167547D01*
X0204617Y0167096D01*
X0204617Y0166646D01*
X0205067Y0165745D01*
X0203716Y0165745D01*
X0203716Y0167547D01*
X0203716Y0168692D02*
X0205518Y0168692D01*
X0206419Y0169592D01*
X0205518Y0170493D01*
X0203716Y0170493D01*
X0204167Y0171638D02*
X0203716Y0172089D01*
X0203716Y0172989D01*
X0204167Y0173440D01*
X0205968Y0171638D01*
X0206419Y0172089D01*
X0206419Y0172989D01*
X0205968Y0173440D01*
X0204167Y0173440D01*
X0204167Y0171638D02*
X0205968Y0171638D01*
X0223283Y0171126D02*
X0223283Y0170225D01*
X0223283Y0170675D02*
X0225985Y0170675D01*
X0225985Y0170225D02*
X0225985Y0171126D01*
X0225985Y0172189D02*
X0223283Y0172189D01*
X0225985Y0173991D01*
X0223283Y0173991D01*
X0223283Y0169080D02*
X0225085Y0169080D01*
X0225985Y0168179D01*
X0225085Y0167278D01*
X0223283Y0167278D01*
X0244248Y0111993D02*
X0244248Y0110191D01*
X0246951Y0110191D01*
X0246951Y0109046D02*
X0246951Y0107245D01*
X0244248Y0107245D01*
X0244248Y0109046D01*
X0245600Y0108146D02*
X0245600Y0107245D01*
X0245600Y0106100D02*
X0246050Y0105649D01*
X0246050Y0104298D01*
X0246951Y0104298D02*
X0244248Y0104298D01*
X0244248Y0105649D01*
X0244699Y0106100D01*
X0245600Y0106100D01*
X0246050Y0105199D02*
X0246951Y0106100D01*
X0246500Y0103153D02*
X0244699Y0103153D01*
X0244248Y0102703D01*
X0244248Y0101802D01*
X0244699Y0101352D01*
X0246500Y0101352D01*
X0246951Y0101802D01*
X0246951Y0102703D01*
X0246500Y0103153D01*
X0246951Y0100288D02*
X0246951Y0099387D01*
X0246951Y0099838D02*
X0244248Y0099838D01*
X0244248Y0100288D02*
X0244248Y0099387D01*
X0254248Y0099387D02*
X0254248Y0100739D01*
X0254699Y0101189D01*
X0255600Y0101189D01*
X0256050Y0100739D01*
X0256050Y0099387D01*
X0256951Y0099387D02*
X0254248Y0099387D01*
X0256050Y0100288D02*
X0256951Y0101189D01*
X0256500Y0102334D02*
X0256951Y0102784D01*
X0256951Y0103685D01*
X0256500Y0104135D01*
X0256050Y0104135D01*
X0255600Y0103685D01*
X0255600Y0102784D01*
X0255149Y0102334D01*
X0254699Y0102334D01*
X0254248Y0102784D01*
X0254248Y0103685D01*
X0254699Y0104135D01*
X0254248Y0105280D02*
X0254248Y0107082D01*
X0254248Y0106181D02*
X0256951Y0106181D01*
X0262271Y0101679D02*
X0262721Y0102129D01*
X0263622Y0102129D01*
X0264072Y0101679D01*
X0264072Y0101229D01*
X0263622Y0100778D01*
X0264072Y0100328D01*
X0264072Y0099878D01*
X0263622Y0099427D01*
X0262721Y0099427D01*
X0262271Y0099878D01*
X0263172Y0100778D02*
X0263622Y0100778D01*
X0265217Y0100328D02*
X0266118Y0099427D01*
X0267019Y0100328D01*
X0267019Y0102129D01*
X0268164Y0101679D02*
X0268614Y0102129D01*
X0269515Y0102129D01*
X0269965Y0101679D01*
X0269965Y0101229D01*
X0269515Y0100778D01*
X0269965Y0100328D01*
X0269965Y0099878D01*
X0269515Y0099427D01*
X0268614Y0099427D01*
X0268164Y0099878D01*
X0269065Y0100778D02*
X0269515Y0100778D01*
X0273271Y0100778D02*
X0273271Y0102129D01*
X0275072Y0102129D01*
X0274622Y0101229D02*
X0275072Y0100778D01*
X0275072Y0099878D01*
X0274622Y0099427D01*
X0273721Y0099427D01*
X0273271Y0099878D01*
X0273271Y0100778D02*
X0274172Y0101229D01*
X0274622Y0101229D01*
X0276217Y0102129D02*
X0276217Y0100328D01*
X0277118Y0099427D01*
X0278019Y0100328D01*
X0278019Y0102129D01*
X0279164Y0101679D02*
X0279614Y0102129D01*
X0280515Y0102129D01*
X0280965Y0101679D01*
X0279164Y0099878D01*
X0279614Y0099427D01*
X0280515Y0099427D01*
X0280965Y0099878D01*
X0280965Y0101679D01*
X0279164Y0101679D02*
X0279164Y0099878D01*
X0285991Y0099878D02*
X0286441Y0099427D01*
X0287342Y0099427D01*
X0287792Y0099878D01*
X0287792Y0100778D01*
X0286891Y0100778D01*
X0285991Y0099878D02*
X0285991Y0101679D01*
X0286441Y0102129D01*
X0287342Y0102129D01*
X0287792Y0101679D01*
X0288937Y0102129D02*
X0288937Y0099427D01*
X0290739Y0099427D02*
X0288937Y0102129D01*
X0290739Y0102129D02*
X0290739Y0099427D01*
X0291884Y0099427D02*
X0293235Y0099427D01*
X0293685Y0099878D01*
X0293685Y0101679D01*
X0293235Y0102129D01*
X0291884Y0102129D01*
X0291884Y0099427D01*
X0301771Y0100328D02*
X0302672Y0099427D01*
X0303572Y0100328D01*
X0303572Y0102129D01*
X0304717Y0102129D02*
X0305618Y0102129D01*
X0305168Y0102129D02*
X0305168Y0099427D01*
X0305618Y0099427D02*
X0304717Y0099427D01*
X0306682Y0099427D02*
X0306682Y0102129D01*
X0308483Y0099427D01*
X0308483Y0102129D01*
X0301771Y0102129D02*
X0301771Y0100328D01*
X0323951Y0100778D02*
X0325752Y0100778D01*
X0325752Y0101229D02*
X0325752Y0099427D01*
X0326897Y0099878D02*
X0328699Y0101679D01*
X0328699Y0099878D01*
X0328248Y0099427D01*
X0327348Y0099427D01*
X0326897Y0099878D01*
X0326897Y0101679D01*
X0327348Y0102129D01*
X0328248Y0102129D01*
X0328699Y0101679D01*
X0325752Y0101229D02*
X0324852Y0102129D01*
X0323951Y0101229D01*
X0323951Y0099427D01*
X0333951Y0099427D02*
X0333951Y0101229D01*
X0334852Y0102129D01*
X0335752Y0101229D01*
X0335752Y0099427D01*
X0336897Y0099427D02*
X0338699Y0099427D01*
X0337798Y0099427D02*
X0337798Y0102129D01*
X0336897Y0101229D01*
X0335752Y0100778D02*
X0333951Y0100778D01*
X0343951Y0100778D02*
X0345752Y0100778D01*
X0345752Y0101229D02*
X0345752Y0099427D01*
X0346897Y0099427D02*
X0348699Y0101229D01*
X0348699Y0101679D01*
X0348248Y0102129D01*
X0347348Y0102129D01*
X0346897Y0101679D01*
X0345752Y0101229D02*
X0344852Y0102129D01*
X0343951Y0101229D01*
X0343951Y0099427D01*
X0346897Y0099427D02*
X0348699Y0099427D01*
X0353951Y0099427D02*
X0353951Y0101229D01*
X0354852Y0102129D01*
X0355752Y0101229D01*
X0355752Y0099427D01*
X0356897Y0099878D02*
X0357348Y0099427D01*
X0358248Y0099427D01*
X0358699Y0099878D01*
X0358699Y0100328D01*
X0358248Y0100778D01*
X0357798Y0100778D01*
X0358248Y0100778D02*
X0358699Y0101229D01*
X0358699Y0101679D01*
X0358248Y0102129D01*
X0357348Y0102129D01*
X0356897Y0101679D01*
X0355752Y0100778D02*
X0353951Y0100778D01*
X0363951Y0100778D02*
X0365752Y0100778D01*
X0365752Y0101229D02*
X0365752Y0099427D01*
X0366897Y0100778D02*
X0368699Y0100778D01*
X0368248Y0099427D02*
X0368248Y0102129D01*
X0366897Y0100778D01*
X0365752Y0101229D02*
X0364852Y0102129D01*
X0363951Y0101229D01*
X0363951Y0099427D01*
X0373951Y0099427D02*
X0373951Y0101229D01*
X0374852Y0102129D01*
X0375752Y0101229D01*
X0375752Y0099427D01*
X0376897Y0099878D02*
X0377348Y0099427D01*
X0378248Y0099427D01*
X0378699Y0099878D01*
X0378699Y0100778D01*
X0378248Y0101229D01*
X0377798Y0101229D01*
X0376897Y0100778D01*
X0376897Y0102129D01*
X0378699Y0102129D01*
X0375752Y0100778D02*
X0373951Y0100778D01*
X0326196Y0132802D02*
X0324394Y0132802D01*
X0324394Y0135504D01*
X0323249Y0135054D02*
X0322799Y0135504D01*
X0321898Y0135504D01*
X0321448Y0135054D01*
X0321448Y0133252D01*
X0321898Y0132802D01*
X0322799Y0132802D01*
X0323249Y0133252D01*
X0320303Y0133252D02*
X0319852Y0132802D01*
X0318951Y0132802D01*
X0318501Y0133252D01*
X0318951Y0134153D02*
X0319852Y0134153D01*
X0320303Y0133703D01*
X0320303Y0133252D01*
X0318951Y0134153D02*
X0318501Y0134604D01*
X0318501Y0135054D01*
X0318951Y0135504D01*
X0319852Y0135504D01*
X0320303Y0135054D01*
X0319852Y0142802D02*
X0318951Y0142802D01*
X0318501Y0143252D01*
X0318951Y0144153D02*
X0319852Y0144153D01*
X0320303Y0143703D01*
X0320303Y0143252D01*
X0319852Y0142802D01*
X0321448Y0142802D02*
X0321448Y0145504D01*
X0322799Y0145504D01*
X0323249Y0145054D01*
X0323249Y0143252D01*
X0322799Y0142802D01*
X0321448Y0142802D01*
X0320303Y0145054D02*
X0319852Y0145504D01*
X0318951Y0145504D01*
X0318501Y0145054D01*
X0318501Y0144604D01*
X0318951Y0144153D01*
X0324394Y0144153D02*
X0326196Y0144153D01*
X0326196Y0144604D02*
X0326196Y0142802D01*
X0326196Y0144604D02*
X0325295Y0145504D01*
X0324394Y0144604D01*
X0324394Y0142802D01*
X0324844Y0152802D02*
X0324394Y0153252D01*
X0326196Y0155054D01*
X0326196Y0153252D01*
X0325745Y0152802D01*
X0324844Y0152802D01*
X0324394Y0153252D02*
X0324394Y0155054D01*
X0324844Y0155504D01*
X0325745Y0155504D01*
X0326196Y0155054D01*
X0323249Y0155504D02*
X0323249Y0153703D01*
X0322348Y0152802D01*
X0321448Y0153703D01*
X0321448Y0155504D01*
X0320303Y0155504D02*
X0318501Y0155504D01*
X0318501Y0154153D01*
X0319402Y0154604D01*
X0319852Y0154604D01*
X0320303Y0154153D01*
X0320303Y0153252D01*
X0319852Y0152802D01*
X0318951Y0152802D01*
X0318501Y0153252D01*
X0318951Y0162802D02*
X0319852Y0162802D01*
X0320303Y0163252D01*
X0320303Y0164153D01*
X0319402Y0164153D01*
X0320303Y0165054D02*
X0319852Y0165504D01*
X0318951Y0165504D01*
X0318501Y0165054D01*
X0318501Y0163252D01*
X0318951Y0162802D01*
X0321448Y0162802D02*
X0321448Y0165504D01*
X0323249Y0162802D01*
X0323249Y0165504D01*
X0324394Y0165504D02*
X0325745Y0165504D01*
X0326196Y0165054D01*
X0326196Y0163252D01*
X0325745Y0162802D01*
X0324394Y0162802D01*
X0324394Y0165504D01*
X0364945Y0204062D02*
X0366747Y0204062D01*
X0365846Y0204062D02*
X0365846Y0206764D01*
X0364945Y0205863D01*
X0354485Y0217054D02*
X0354936Y0217504D01*
X0354936Y0219306D01*
X0354485Y0219756D01*
X0353134Y0219756D01*
X0353134Y0217054D01*
X0354485Y0217054D01*
X0351989Y0217054D02*
X0351989Y0219756D01*
X0350188Y0219756D02*
X0351989Y0217054D01*
X0350188Y0217054D02*
X0350188Y0219756D01*
X0349043Y0219306D02*
X0348592Y0219756D01*
X0347692Y0219756D01*
X0347241Y0219306D01*
X0347241Y0217504D01*
X0347692Y0217054D01*
X0348592Y0217054D01*
X0349043Y0217504D01*
X0349043Y0218405D01*
X0348142Y0218405D01*
X0348592Y0227054D02*
X0349043Y0227504D01*
X0348592Y0227054D02*
X0347692Y0227054D01*
X0347241Y0227504D01*
X0347241Y0229306D01*
X0347692Y0229756D01*
X0348592Y0229756D01*
X0349043Y0229306D01*
X0350188Y0229756D02*
X0351989Y0229756D01*
X0351088Y0229756D02*
X0351088Y0227054D01*
X0353134Y0227504D02*
X0353585Y0227054D01*
X0354485Y0227054D01*
X0354936Y0227504D01*
X0354936Y0227955D01*
X0354485Y0228405D01*
X0353585Y0228405D01*
X0353134Y0228855D01*
X0353134Y0229306D01*
X0353585Y0229756D01*
X0354485Y0229756D01*
X0354936Y0229306D01*
X0354485Y0237054D02*
X0353585Y0237054D01*
X0353134Y0237504D01*
X0354936Y0239306D01*
X0354936Y0237504D01*
X0354485Y0237054D01*
X0353134Y0237504D02*
X0353134Y0239306D01*
X0353585Y0239756D01*
X0354485Y0239756D01*
X0354936Y0239306D01*
X0351989Y0239756D02*
X0351989Y0237955D01*
X0351088Y0237054D01*
X0350188Y0237955D01*
X0350188Y0239756D01*
X0349043Y0239756D02*
X0347241Y0239756D01*
X0347241Y0238405D01*
X0348142Y0238855D01*
X0348592Y0238855D01*
X0349043Y0238405D01*
X0349043Y0237504D01*
X0348592Y0237054D01*
X0347692Y0237054D01*
X0347241Y0237504D01*
X0350188Y0247054D02*
X0350188Y0249756D01*
X0351539Y0249756D01*
X0351989Y0249306D01*
X0351989Y0248405D01*
X0351539Y0247955D01*
X0350188Y0247955D01*
X0351088Y0247955D02*
X0351989Y0247054D01*
X0353134Y0247054D02*
X0354936Y0249756D01*
X0353134Y0249756D02*
X0354936Y0247054D01*
X0354936Y0257054D02*
X0353134Y0259756D01*
X0351989Y0259756D02*
X0350188Y0259756D01*
X0351088Y0259756D02*
X0351088Y0257054D01*
X0353134Y0257054D02*
X0354936Y0259756D01*
X0354936Y0267054D02*
X0354035Y0267955D01*
X0354485Y0267955D02*
X0353134Y0267955D01*
X0353134Y0267054D02*
X0353134Y0269756D01*
X0354485Y0269756D01*
X0354936Y0269306D01*
X0354936Y0268405D01*
X0354485Y0267955D01*
X0351989Y0269756D02*
X0350188Y0269756D01*
X0351088Y0269756D02*
X0351088Y0267054D01*
X0349043Y0267504D02*
X0349043Y0269306D01*
X0348592Y0269756D01*
X0347241Y0269756D01*
X0347241Y0267054D01*
X0348592Y0267054D01*
X0349043Y0267504D01*
X0346355Y0276227D02*
X0345455Y0276227D01*
X0345004Y0276678D01*
X0345905Y0277578D02*
X0346355Y0277578D01*
X0346806Y0277128D01*
X0346806Y0276678D01*
X0346355Y0276227D01*
X0346355Y0277578D02*
X0346806Y0278029D01*
X0346806Y0278479D01*
X0346355Y0278929D01*
X0345455Y0278929D01*
X0345004Y0278479D01*
X0336806Y0277578D02*
X0335004Y0277578D01*
X0336355Y0278929D01*
X0336355Y0276227D01*
X0326806Y0276678D02*
X0326355Y0276227D01*
X0325455Y0276227D01*
X0325004Y0276678D01*
X0325004Y0277578D02*
X0325905Y0278029D01*
X0326355Y0278029D01*
X0326806Y0277578D01*
X0326806Y0276678D01*
X0325004Y0277578D02*
X0325004Y0278929D01*
X0326806Y0278929D01*
X0316806Y0278929D02*
X0315905Y0278479D01*
X0315004Y0277578D01*
X0316355Y0277578D01*
X0316806Y0277128D01*
X0316806Y0276678D01*
X0316355Y0276227D01*
X0315455Y0276227D01*
X0315004Y0276678D01*
X0315004Y0277578D01*
X0306806Y0278479D02*
X0305004Y0276678D01*
X0305004Y0276227D01*
X0305004Y0278929D02*
X0306806Y0278929D01*
X0306806Y0278479D01*
X0290806Y0278479D02*
X0290806Y0278029D01*
X0290355Y0277578D01*
X0289455Y0277578D01*
X0289004Y0278029D01*
X0289004Y0278479D01*
X0289455Y0278929D01*
X0290355Y0278929D01*
X0290806Y0278479D01*
X0290355Y0277578D02*
X0290806Y0277128D01*
X0290806Y0276678D01*
X0290355Y0276227D01*
X0289455Y0276227D01*
X0289004Y0276678D01*
X0289004Y0277128D01*
X0289455Y0277578D01*
X0280806Y0277578D02*
X0279455Y0277578D01*
X0279004Y0278029D01*
X0279004Y0278479D01*
X0279455Y0278929D01*
X0280355Y0278929D01*
X0280806Y0278479D01*
X0280806Y0276678D01*
X0280355Y0276227D01*
X0279455Y0276227D01*
X0279004Y0276678D01*
X0272806Y0276678D02*
X0272355Y0276227D01*
X0271455Y0276227D01*
X0271004Y0276678D01*
X0272806Y0278479D01*
X0272806Y0276678D01*
X0272806Y0278479D02*
X0272355Y0278929D01*
X0271455Y0278929D01*
X0271004Y0278479D01*
X0271004Y0276678D01*
X0269859Y0276227D02*
X0268058Y0276227D01*
X0268959Y0276227D02*
X0268959Y0278929D01*
X0268058Y0278029D01*
X0262806Y0276227D02*
X0261004Y0276227D01*
X0261905Y0276227D02*
X0261905Y0278929D01*
X0261004Y0278029D01*
X0259859Y0276227D02*
X0258058Y0276227D01*
X0258959Y0276227D02*
X0258959Y0278929D01*
X0258058Y0278029D01*
X0252806Y0278029D02*
X0252806Y0278479D01*
X0252355Y0278929D01*
X0251455Y0278929D01*
X0251004Y0278479D01*
X0252806Y0278029D02*
X0251004Y0276227D01*
X0252806Y0276227D01*
X0249859Y0276227D02*
X0248058Y0276227D01*
X0248959Y0276227D02*
X0248959Y0278929D01*
X0248058Y0278029D01*
X0242806Y0278029D02*
X0242355Y0277578D01*
X0242806Y0277128D01*
X0242806Y0276678D01*
X0242355Y0276227D01*
X0241455Y0276227D01*
X0241004Y0276678D01*
X0239859Y0276227D02*
X0238058Y0276227D01*
X0238959Y0276227D02*
X0238959Y0278929D01*
X0238058Y0278029D01*
X0241004Y0278479D02*
X0241455Y0278929D01*
X0242355Y0278929D01*
X0242806Y0278479D01*
X0242806Y0278029D01*
X0242355Y0277578D02*
X0241905Y0277578D01*
X0230119Y0277150D02*
X0230119Y0278501D01*
X0229669Y0278951D01*
X0227867Y0278951D01*
X0227417Y0278501D01*
X0227417Y0277150D01*
X0230119Y0277150D01*
X0230119Y0276005D02*
X0227417Y0276005D01*
X0227417Y0274203D02*
X0230119Y0276005D01*
X0230119Y0274203D02*
X0227417Y0274203D01*
X0227867Y0273058D02*
X0227417Y0272608D01*
X0227417Y0271707D01*
X0227867Y0271257D01*
X0229669Y0271257D01*
X0230119Y0271707D01*
X0230119Y0272608D01*
X0229669Y0273058D01*
X0228768Y0273058D01*
X0228768Y0272158D01*
X0220151Y0272239D02*
X0217448Y0272239D01*
X0217448Y0273590D01*
X0217899Y0274041D01*
X0218800Y0274041D01*
X0219250Y0273590D01*
X0219250Y0272239D01*
X0219250Y0273140D02*
X0220151Y0274041D01*
X0219700Y0275186D02*
X0218800Y0275186D01*
X0218349Y0275636D01*
X0218349Y0276537D01*
X0218800Y0276987D01*
X0219250Y0276987D01*
X0219250Y0275186D01*
X0219700Y0275186D02*
X0220151Y0275636D01*
X0220151Y0276537D01*
X0220151Y0278582D02*
X0217899Y0278582D01*
X0217448Y0279033D01*
X0218800Y0279033D02*
X0218800Y0278132D01*
X0218800Y0271094D02*
X0218800Y0269293D01*
X0218349Y0269293D02*
X0217448Y0270193D01*
X0218349Y0271094D01*
X0220151Y0271094D01*
X0220151Y0269293D02*
X0218349Y0269293D01*
X0210151Y0271707D02*
X0209700Y0271257D01*
X0210151Y0271707D02*
X0210151Y0272608D01*
X0209700Y0273058D01*
X0209250Y0273058D01*
X0208800Y0272608D01*
X0208800Y0271707D01*
X0208349Y0271257D01*
X0207899Y0271257D01*
X0207448Y0271707D01*
X0207448Y0272608D01*
X0207899Y0273058D01*
X0207448Y0274203D02*
X0207448Y0275555D01*
X0207899Y0276005D01*
X0209700Y0276005D01*
X0210151Y0275555D01*
X0210151Y0274203D01*
X0207448Y0274203D01*
X0208349Y0277150D02*
X0207448Y0278051D01*
X0208349Y0278951D01*
X0210151Y0278951D01*
X0208800Y0278951D02*
X0208800Y0277150D01*
X0208349Y0277150D02*
X0210151Y0277150D01*
X0200151Y0277150D02*
X0200151Y0278951D01*
X0200151Y0277150D02*
X0197448Y0277150D01*
X0197899Y0276005D02*
X0197448Y0275555D01*
X0197448Y0274654D01*
X0197899Y0274203D01*
X0199700Y0274203D01*
X0200151Y0274654D01*
X0200151Y0275555D01*
X0199700Y0276005D01*
X0199700Y0273058D02*
X0200151Y0272608D01*
X0200151Y0271707D01*
X0199700Y0271257D01*
X0198800Y0271707D02*
X0198800Y0272608D01*
X0199250Y0273058D01*
X0199700Y0273058D01*
X0198800Y0271707D02*
X0198349Y0271257D01*
X0197899Y0271257D01*
X0197448Y0271707D01*
X0197448Y0272608D01*
X0197899Y0273058D01*
X0355004Y0276227D02*
X0356806Y0278029D01*
X0356806Y0278479D01*
X0356355Y0278929D01*
X0355455Y0278929D01*
X0355004Y0278479D01*
X0355004Y0276227D02*
X0356806Y0276227D01*
X0365004Y0276227D02*
X0366806Y0276227D01*
X0365905Y0276227D02*
X0365905Y0278929D01*
X0365004Y0278029D01*
X0375004Y0278479D02*
X0375455Y0278929D01*
X0376355Y0278929D01*
X0376806Y0278479D01*
X0375004Y0276678D01*
X0375455Y0276227D01*
X0376355Y0276227D01*
X0376806Y0276678D01*
X0376806Y0278479D01*
X0375004Y0278479D02*
X0375004Y0276678D01*
X0375144Y0176893D02*
X0374243Y0176893D01*
X0373793Y0176443D01*
X0373793Y0175992D01*
X0374243Y0175542D01*
X0375144Y0175542D01*
X0375595Y0175092D01*
X0375595Y0174641D01*
X0375144Y0174191D01*
X0374243Y0174191D01*
X0373793Y0174641D01*
X0372730Y0174191D02*
X0371829Y0174191D01*
X0372279Y0174191D02*
X0372279Y0176893D01*
X0371829Y0176893D02*
X0372730Y0176893D01*
X0375144Y0176893D02*
X0375595Y0176443D01*
X0376740Y0176893D02*
X0378091Y0176893D01*
X0378541Y0176443D01*
X0378541Y0175542D01*
X0378091Y0175092D01*
X0376740Y0175092D01*
X0376740Y0174191D02*
X0376740Y0176893D01*
X0265217Y0102129D02*
X0265217Y0100328D01*
X0245600Y0110191D02*
X0245600Y0111092D01*
D12*
X0236620Y0126309D02*
X0237320Y0127010D01*
X0237320Y0128411D01*
X0236620Y0129112D01*
X0235219Y0129112D01*
X0234518Y0128411D01*
X0234518Y0127711D01*
X0235219Y0126309D01*
X0233117Y0126309D01*
X0233117Y0129112D01*
X0233117Y0130913D02*
X0235919Y0130913D01*
X0237320Y0132315D01*
X0235919Y0133716D01*
X0233117Y0133716D01*
X0233817Y0135517D02*
X0233117Y0136218D01*
X0233117Y0137619D01*
X0233817Y0138320D01*
X0236620Y0135517D01*
X0237320Y0136218D01*
X0237320Y0137619D01*
X0236620Y0138320D01*
X0233817Y0138320D01*
X0233817Y0135517D02*
X0236620Y0135517D01*
X0237320Y0144725D02*
X0233117Y0144725D01*
X0233117Y0146827D01*
X0233817Y0147528D01*
X0235219Y0147528D01*
X0235919Y0146827D01*
X0235919Y0144725D01*
X0235219Y0149329D02*
X0236620Y0149329D01*
X0237320Y0150030D01*
X0237320Y0151431D01*
X0236620Y0152131D01*
X0235219Y0152131D01*
X0234518Y0151431D01*
X0234518Y0150030D01*
X0235219Y0149329D01*
X0234518Y0153933D02*
X0236620Y0153933D01*
X0237320Y0154634D01*
X0236620Y0155334D01*
X0237320Y0156035D01*
X0236620Y0156735D01*
X0234518Y0156735D01*
X0235219Y0158537D02*
X0234518Y0159238D01*
X0234518Y0160639D01*
X0235219Y0161339D01*
X0235919Y0161339D01*
X0235919Y0158537D01*
X0235219Y0158537D02*
X0236620Y0158537D01*
X0237320Y0159238D01*
X0237320Y0160639D01*
X0237320Y0163141D02*
X0234518Y0163141D01*
X0234518Y0164542D02*
X0234518Y0165243D01*
X0234518Y0164542D02*
X0235919Y0163141D01*
X0235919Y0166977D02*
X0235919Y0169079D01*
X0235219Y0169780D01*
X0233817Y0169780D01*
X0233117Y0169079D01*
X0233117Y0166977D01*
X0237320Y0166977D01*
X0236620Y0171581D02*
X0233817Y0171581D01*
X0233117Y0172282D01*
X0233117Y0173683D01*
X0233817Y0174384D01*
X0236620Y0174384D01*
X0237320Y0173683D01*
X0237320Y0172282D01*
X0236620Y0171581D01*
X0237320Y0176185D02*
X0233117Y0176185D01*
X0233117Y0178287D01*
X0233817Y0178988D01*
X0236620Y0178988D01*
X0237320Y0178287D01*
X0237320Y0176185D01*
X0230161Y0180102D02*
X0227661Y0177602D01*
X0222661Y0177602D01*
X0220161Y0180102D01*
X0217661Y0177602D01*
X0212661Y0177602D01*
X0210161Y0180102D01*
X0207661Y0177602D01*
X0202661Y0177602D01*
X0200161Y0180102D01*
X0197661Y0177602D01*
X0192661Y0177602D01*
X0190161Y0180102D01*
X0190161Y0185102D01*
X0192661Y0187602D01*
X0197661Y0187602D01*
X0200161Y0185102D01*
X0202661Y0187602D01*
X0207661Y0187602D01*
X0210161Y0185102D01*
X0212661Y0187602D01*
X0217661Y0187602D01*
X0220161Y0185102D01*
X0222661Y0187602D01*
X0227661Y0187602D01*
X0230161Y0185102D01*
X0230161Y0180102D01*
X0227661Y0197287D02*
X0222661Y0197287D01*
X0220161Y0199787D01*
X0217661Y0197287D01*
X0212661Y0197287D01*
X0210161Y0199787D01*
X0207661Y0197287D01*
X0202661Y0197287D01*
X0200161Y0199787D01*
X0197661Y0197287D01*
X0192661Y0197287D01*
X0190161Y0199787D01*
X0190161Y0204787D01*
X0192661Y0207287D01*
X0197661Y0207287D01*
X0200161Y0204787D01*
X0202661Y0207287D01*
X0207661Y0207287D01*
X0210161Y0204787D01*
X0212661Y0207287D01*
X0217661Y0207287D01*
X0220161Y0204787D01*
X0222661Y0207287D01*
X0227661Y0207287D01*
X0230161Y0204787D01*
X0230161Y0199787D01*
X0227661Y0197287D01*
X0233117Y0202994D02*
X0233117Y0204395D01*
X0233817Y0205096D01*
X0234518Y0205096D01*
X0235219Y0204395D01*
X0235919Y0205096D01*
X0236620Y0205096D01*
X0237320Y0204395D01*
X0237320Y0202994D01*
X0236620Y0202294D01*
X0235219Y0203695D02*
X0235219Y0204395D01*
X0233817Y0202294D02*
X0233117Y0202994D01*
X0233117Y0206898D02*
X0235919Y0206898D01*
X0237320Y0208299D01*
X0235919Y0209700D01*
X0233117Y0209700D01*
X0233817Y0211502D02*
X0233117Y0212202D01*
X0233117Y0213603D01*
X0233817Y0214304D01*
X0234518Y0214304D01*
X0235219Y0213603D01*
X0235919Y0214304D01*
X0236620Y0214304D01*
X0237320Y0213603D01*
X0237320Y0212202D01*
X0236620Y0211502D01*
X0235219Y0212903D02*
X0235219Y0213603D01*
X0235919Y0220709D02*
X0235919Y0222811D01*
X0235219Y0223512D01*
X0233817Y0223512D01*
X0233117Y0222811D01*
X0233117Y0220709D01*
X0237320Y0220709D01*
X0236620Y0225313D02*
X0237320Y0226014D01*
X0237320Y0227415D01*
X0236620Y0228116D01*
X0235219Y0228116D01*
X0234518Y0227415D01*
X0234518Y0226014D01*
X0235219Y0225313D01*
X0236620Y0225313D01*
X0236620Y0229917D02*
X0237320Y0230618D01*
X0236620Y0231318D01*
X0237320Y0232019D01*
X0236620Y0232720D01*
X0234518Y0232720D01*
X0235219Y0234521D02*
X0234518Y0235222D01*
X0234518Y0236623D01*
X0235219Y0237324D01*
X0235919Y0237324D01*
X0235919Y0234521D01*
X0235219Y0234521D02*
X0236620Y0234521D01*
X0237320Y0235222D01*
X0237320Y0236623D01*
X0237320Y0239125D02*
X0234518Y0239125D01*
X0235919Y0239125D02*
X0234518Y0240526D01*
X0234518Y0241227D01*
X0233117Y0242962D02*
X0233117Y0245063D01*
X0233817Y0245764D01*
X0235219Y0245764D01*
X0235919Y0245063D01*
X0235919Y0242962D01*
X0237320Y0242962D02*
X0233117Y0242962D01*
X0233817Y0247566D02*
X0236620Y0247566D01*
X0237320Y0248266D01*
X0237320Y0249667D01*
X0236620Y0250368D01*
X0233817Y0250368D01*
X0233117Y0249667D01*
X0233117Y0248266D01*
X0233817Y0247566D01*
X0233117Y0252170D02*
X0233117Y0254271D01*
X0233817Y0254972D01*
X0236620Y0254972D01*
X0237320Y0254271D01*
X0237320Y0252170D01*
X0233117Y0252170D01*
X0234518Y0229917D02*
X0236620Y0229917D01*
X0171391Y0259687D02*
X0171391Y0262490D01*
X0170690Y0263190D01*
X0168588Y0263190D01*
X0168588Y0258987D01*
X0170690Y0258987D01*
X0171391Y0259687D01*
X0166787Y0258987D02*
X0166787Y0263190D01*
X0163984Y0263190D02*
X0163984Y0258987D01*
X0162183Y0259687D02*
X0162183Y0261088D01*
X0160782Y0261088D01*
X0162183Y0259687D02*
X0161482Y0258987D01*
X0160081Y0258987D01*
X0159380Y0259687D01*
X0159380Y0262490D01*
X0160081Y0263190D01*
X0161482Y0263190D01*
X0162183Y0262490D01*
X0163984Y0263190D02*
X0166787Y0258987D01*
X0166753Y0244293D02*
X0165352Y0244293D01*
X0164651Y0243592D01*
X0164651Y0240790D01*
X0167454Y0243592D01*
X0167454Y0240790D01*
X0166753Y0240089D01*
X0165352Y0240089D01*
X0164651Y0240790D01*
X0162850Y0241490D02*
X0162850Y0244293D01*
X0160047Y0244293D02*
X0160047Y0241490D01*
X0161448Y0240089D01*
X0162850Y0241490D01*
X0166753Y0244293D02*
X0167454Y0243592D01*
X0158246Y0244293D02*
X0155443Y0244293D01*
X0155443Y0242191D01*
X0156845Y0242891D01*
X0157545Y0242891D01*
X0158246Y0242191D01*
X0158246Y0240790D01*
X0157545Y0240089D01*
X0156144Y0240089D01*
X0155443Y0240790D01*
X0154256Y0231815D02*
X0150516Y0231815D01*
X0150516Y0290870D01*
X0154256Y0290870D01*
X0154256Y0231815D01*
X0150516Y0231815D02*
X0124728Y0231815D01*
X0124728Y0290870D01*
X0150516Y0290870D01*
X0158987Y0290356D02*
X0158987Y0287553D01*
X0160388Y0286152D01*
X0161789Y0287553D01*
X0161789Y0290356D01*
X0163591Y0290356D02*
X0164992Y0290356D01*
X0164291Y0290356D02*
X0164291Y0286152D01*
X0163591Y0286152D02*
X0164992Y0286152D01*
X0166660Y0286152D02*
X0166660Y0290356D01*
X0169462Y0286152D01*
X0169462Y0290356D01*
X0178075Y0306224D02*
X0178075Y0309374D01*
X0180437Y0309374D01*
X0186736Y0309374D02*
X0189098Y0309374D01*
X0189098Y0306224D01*
X0191854Y0306224D02*
X0191854Y0309374D01*
X0194217Y0309374D01*
X0200516Y0309374D02*
X0202878Y0309374D01*
X0202878Y0306224D01*
X0205634Y0306224D02*
X0205634Y0309374D01*
X0207996Y0309374D01*
X0214295Y0309374D02*
X0216657Y0309374D01*
X0216657Y0306224D01*
X0219413Y0306224D02*
X0219413Y0309374D01*
X0221776Y0309374D01*
X0228075Y0309374D02*
X0230437Y0309374D01*
X0230437Y0306224D01*
X0233193Y0306224D02*
X0233193Y0309374D01*
X0235555Y0309374D01*
X0241854Y0309374D02*
X0244217Y0309374D01*
X0244217Y0306224D01*
X0246972Y0306224D02*
X0246972Y0309374D01*
X0249335Y0309374D01*
X0255634Y0309374D02*
X0257996Y0309374D01*
X0257996Y0306224D01*
X0260752Y0306224D02*
X0260752Y0309374D01*
X0263114Y0309374D01*
X0269413Y0309374D02*
X0271776Y0309374D01*
X0271776Y0306224D01*
X0274531Y0306224D02*
X0274531Y0309374D01*
X0276894Y0309374D01*
X0283193Y0309374D02*
X0285555Y0309374D01*
X0285555Y0306224D01*
X0288311Y0306224D02*
X0288311Y0309374D01*
X0290673Y0309374D01*
X0296972Y0309374D02*
X0299335Y0309374D01*
X0299335Y0306224D01*
X0302091Y0306224D02*
X0302091Y0309374D01*
X0304453Y0309374D01*
X0310752Y0309374D02*
X0313114Y0309374D01*
X0313114Y0306224D01*
X0315870Y0306224D02*
X0315870Y0309374D01*
X0318232Y0309374D01*
X0324531Y0309374D02*
X0326894Y0309374D01*
X0326894Y0306224D01*
X0329650Y0306224D02*
X0329650Y0309374D01*
X0332012Y0309374D01*
X0338311Y0309374D02*
X0340673Y0309374D01*
X0340673Y0306224D01*
X0343153Y0316857D02*
X0342452Y0317558D01*
X0342452Y0318258D01*
X0343153Y0318959D01*
X0342452Y0319659D01*
X0342452Y0320360D01*
X0343153Y0321061D01*
X0344554Y0321061D01*
X0345255Y0320360D01*
X0347056Y0321061D02*
X0349859Y0321061D01*
X0348457Y0321061D02*
X0348457Y0316857D01*
X0349859Y0318258D01*
X0351660Y0317558D02*
X0351660Y0318959D01*
X0352361Y0319659D01*
X0354463Y0319659D01*
X0353061Y0319659D02*
X0351660Y0321061D01*
X0354463Y0321061D02*
X0354463Y0316857D01*
X0352361Y0316857D01*
X0351660Y0317558D01*
X0345255Y0317558D02*
X0344554Y0316857D01*
X0343153Y0316857D01*
X0343153Y0318959D02*
X0343854Y0318959D01*
X0334778Y0319659D02*
X0332676Y0319659D01*
X0331975Y0318959D01*
X0331975Y0317558D01*
X0332676Y0316857D01*
X0334778Y0316857D01*
X0334778Y0321061D01*
X0333376Y0319659D02*
X0331975Y0321061D01*
X0330174Y0321061D02*
X0327371Y0321061D01*
X0328772Y0321061D02*
X0328772Y0316857D01*
X0330174Y0318258D01*
X0325570Y0318959D02*
X0322767Y0318959D01*
X0323468Y0321061D02*
X0323468Y0316857D01*
X0325570Y0318959D01*
X0327602Y0328429D02*
X0327602Y0330240D01*
X0328823Y0331161D01*
X0327602Y0332051D02*
X0327602Y0330240D01*
X0327663Y0330140D02*
X0328823Y0329380D01*
X0318429Y0334965D02*
X0318429Y0338705D01*
X0259374Y0338705D01*
X0200319Y0338705D01*
X0141264Y0338705D01*
X0141264Y0364492D01*
X0200319Y0364492D01*
X0200319Y0338705D01*
X0200319Y0334965D01*
X0141264Y0334965D01*
X0141264Y0338705D01*
X0150437Y0332051D02*
X0150437Y0330240D01*
X0151657Y0331161D01*
X0150437Y0330240D02*
X0150437Y0328429D01*
X0151657Y0329380D02*
X0150498Y0330140D01*
X0150206Y0321061D02*
X0153008Y0321061D01*
X0150206Y0318258D01*
X0150206Y0317558D01*
X0150906Y0316857D01*
X0152308Y0316857D01*
X0153008Y0317558D01*
X0154810Y0317558D02*
X0154810Y0318959D01*
X0155510Y0319659D01*
X0157612Y0319659D01*
X0156211Y0319659D02*
X0154810Y0321061D01*
X0157612Y0321061D02*
X0157612Y0316857D01*
X0155510Y0316857D01*
X0154810Y0317558D01*
X0148404Y0317558D02*
X0147704Y0316857D01*
X0146303Y0316857D01*
X0145602Y0317558D01*
X0145602Y0318258D01*
X0146303Y0318959D01*
X0145602Y0319659D01*
X0145602Y0320360D01*
X0146303Y0321061D01*
X0147704Y0321061D01*
X0148404Y0320360D01*
X0147003Y0318959D02*
X0146303Y0318959D01*
X0165287Y0318258D02*
X0165287Y0317558D01*
X0165988Y0316857D01*
X0167389Y0316857D01*
X0168089Y0317558D01*
X0169891Y0317558D02*
X0170592Y0316857D01*
X0171993Y0316857D01*
X0172693Y0317558D01*
X0174495Y0317558D02*
X0174495Y0318959D01*
X0175195Y0319659D01*
X0177297Y0319659D01*
X0175896Y0319659D02*
X0174495Y0321061D01*
X0172693Y0321061D02*
X0169891Y0318258D01*
X0169891Y0317558D01*
X0169891Y0321061D02*
X0172693Y0321061D01*
X0174495Y0317558D02*
X0175195Y0316857D01*
X0177297Y0316857D01*
X0177297Y0321061D01*
X0184972Y0321061D02*
X0187774Y0321061D01*
X0186373Y0321061D02*
X0186373Y0316857D01*
X0187774Y0318258D01*
X0189576Y0318258D02*
X0189576Y0317558D01*
X0190277Y0316857D01*
X0191678Y0316857D01*
X0192378Y0317558D01*
X0194180Y0317558D02*
X0194180Y0318959D01*
X0194880Y0319659D01*
X0196982Y0319659D01*
X0195581Y0319659D02*
X0194180Y0321061D01*
X0192378Y0321061D02*
X0189576Y0318258D01*
X0189576Y0321061D02*
X0192378Y0321061D01*
X0194180Y0317558D02*
X0194880Y0316857D01*
X0196982Y0316857D01*
X0196982Y0321061D01*
X0204657Y0320360D02*
X0205358Y0321061D01*
X0206759Y0321061D01*
X0207459Y0320360D01*
X0204657Y0317558D01*
X0204657Y0320360D01*
X0204657Y0317558D02*
X0205358Y0316857D01*
X0206759Y0316857D01*
X0207459Y0317558D01*
X0207459Y0320360D01*
X0209261Y0321061D02*
X0212063Y0321061D01*
X0209261Y0318258D01*
X0209261Y0317558D01*
X0209962Y0316857D01*
X0211363Y0316857D01*
X0212063Y0317558D01*
X0213865Y0317558D02*
X0213865Y0318959D01*
X0214566Y0319659D01*
X0216667Y0319659D01*
X0215266Y0319659D02*
X0213865Y0321061D01*
X0216667Y0321061D02*
X0216667Y0316857D01*
X0214566Y0316857D01*
X0213865Y0317558D01*
X0224342Y0317558D02*
X0225043Y0316857D01*
X0226444Y0316857D01*
X0227145Y0317558D01*
X0227145Y0318258D01*
X0226444Y0318959D01*
X0224342Y0318959D01*
X0224342Y0320360D02*
X0224342Y0317558D01*
X0224342Y0320360D02*
X0225043Y0321061D01*
X0226444Y0321061D01*
X0227145Y0320360D01*
X0228946Y0321061D02*
X0231748Y0321061D01*
X0230347Y0321061D02*
X0230347Y0316857D01*
X0231748Y0318258D01*
X0233550Y0317558D02*
X0233550Y0318959D01*
X0234251Y0319659D01*
X0236352Y0319659D01*
X0234951Y0319659D02*
X0233550Y0321061D01*
X0236352Y0321061D02*
X0236352Y0316857D01*
X0234251Y0316857D01*
X0233550Y0317558D01*
X0244027Y0317558D02*
X0244027Y0318258D01*
X0244728Y0318959D01*
X0246129Y0318959D01*
X0246830Y0318258D01*
X0246830Y0317558D01*
X0246129Y0316857D01*
X0244728Y0316857D01*
X0244027Y0317558D01*
X0244728Y0318959D02*
X0244027Y0319659D01*
X0244027Y0320360D01*
X0244728Y0321061D01*
X0246129Y0321061D01*
X0246830Y0320360D01*
X0246830Y0319659D01*
X0246129Y0318959D01*
X0248631Y0321061D02*
X0251433Y0321061D01*
X0250032Y0321061D02*
X0250032Y0316857D01*
X0251433Y0318258D01*
X0253235Y0317558D02*
X0253235Y0318959D01*
X0253936Y0319659D01*
X0256037Y0319659D01*
X0254636Y0319659D02*
X0253235Y0321061D01*
X0256037Y0321061D02*
X0256037Y0316857D01*
X0253936Y0316857D01*
X0253235Y0317558D01*
X0263712Y0317558D02*
X0266515Y0320360D01*
X0266515Y0321061D01*
X0268316Y0321061D02*
X0271119Y0321061D01*
X0269717Y0321061D02*
X0269717Y0316857D01*
X0271119Y0318258D01*
X0272920Y0317558D02*
X0272920Y0318959D01*
X0273621Y0319659D01*
X0275722Y0319659D01*
X0274321Y0319659D02*
X0272920Y0321061D01*
X0275722Y0321061D02*
X0275722Y0316857D01*
X0273621Y0316857D01*
X0272920Y0317558D01*
X0266515Y0316857D02*
X0263712Y0316857D01*
X0263712Y0317558D01*
X0268547Y0328429D02*
X0268547Y0330240D01*
X0269768Y0331161D01*
X0268547Y0332051D02*
X0268547Y0330240D01*
X0268608Y0330140D02*
X0269768Y0329380D01*
X0259374Y0334965D02*
X0200319Y0334965D01*
X0200319Y0338705D01*
X0200319Y0364492D01*
X0259374Y0364492D01*
X0259374Y0338705D01*
X0259374Y0334965D01*
X0259374Y0338705D01*
X0259374Y0364492D01*
X0318429Y0364492D01*
X0318429Y0338705D01*
X0377484Y0338705D01*
X0377484Y0334965D01*
X0318429Y0334965D01*
X0259374Y0334965D01*
X0250083Y0331161D02*
X0248862Y0330240D01*
X0248862Y0328429D01*
X0250083Y0329380D02*
X0248923Y0330140D01*
X0248862Y0330240D02*
X0248862Y0332051D01*
X0230398Y0331161D02*
X0229177Y0330240D01*
X0229177Y0328429D01*
X0230398Y0329380D02*
X0229238Y0330140D01*
X0229177Y0330240D02*
X0229177Y0332051D01*
X0210713Y0331161D02*
X0209492Y0330240D01*
X0209492Y0328429D01*
X0210713Y0329380D02*
X0209553Y0330140D01*
X0209492Y0330240D02*
X0209492Y0332051D01*
X0191028Y0331161D02*
X0189807Y0330240D01*
X0189807Y0328429D01*
X0191028Y0329380D02*
X0189868Y0330140D01*
X0189807Y0330240D02*
X0189807Y0332051D01*
X0171343Y0331161D02*
X0170122Y0330240D01*
X0170122Y0328429D01*
X0171343Y0329380D02*
X0170183Y0330140D01*
X0170122Y0330240D02*
X0170122Y0332051D01*
X0168089Y0321061D02*
X0165287Y0321061D01*
X0168089Y0321061D02*
X0165287Y0318258D01*
X0123151Y0286766D02*
X0120348Y0286766D01*
X0118947Y0285365D01*
X0120348Y0283964D01*
X0123151Y0283964D01*
X0123151Y0282162D02*
X0123151Y0280761D01*
X0123151Y0281462D02*
X0118947Y0281462D01*
X0118947Y0282162D02*
X0118947Y0280761D01*
X0118947Y0279093D02*
X0123151Y0279093D01*
X0118947Y0276291D01*
X0123151Y0276291D01*
X0122450Y0267848D02*
X0119648Y0267848D01*
X0118947Y0267148D01*
X0118947Y0265747D01*
X0119648Y0265046D01*
X0121049Y0265046D01*
X0121049Y0266447D01*
X0122450Y0265046D02*
X0123151Y0265747D01*
X0123151Y0267148D01*
X0122450Y0267848D01*
X0123151Y0263244D02*
X0118947Y0260442D01*
X0123151Y0260442D01*
X0123151Y0258641D02*
X0123151Y0256539D01*
X0122450Y0255838D01*
X0119648Y0255838D01*
X0118947Y0256539D01*
X0118947Y0258641D01*
X0123151Y0258641D01*
X0123151Y0263244D02*
X0118947Y0263244D01*
X0119648Y0248163D02*
X0118947Y0247463D01*
X0118947Y0246062D01*
X0119648Y0245361D01*
X0121049Y0245361D01*
X0121750Y0246062D01*
X0121750Y0246762D01*
X0121049Y0248163D01*
X0123151Y0248163D01*
X0123151Y0245361D01*
X0123151Y0243559D02*
X0120348Y0243559D01*
X0118947Y0242158D01*
X0120348Y0240757D01*
X0123151Y0240757D01*
X0122450Y0238956D02*
X0123151Y0238255D01*
X0123151Y0236854D01*
X0122450Y0236153D01*
X0119648Y0238956D01*
X0118947Y0238255D01*
X0118947Y0236854D01*
X0119648Y0236153D01*
X0122450Y0236153D01*
X0122450Y0238956D02*
X0119648Y0238956D01*
X0082260Y0186380D02*
X0082262Y0186427D01*
X0082268Y0186474D01*
X0082278Y0186521D01*
X0082291Y0186566D01*
X0082309Y0186610D01*
X0082330Y0186652D01*
X0082354Y0186693D01*
X0082382Y0186731D01*
X0082413Y0186767D01*
X0082447Y0186800D01*
X0082483Y0186830D01*
X0082522Y0186857D01*
X0082563Y0186881D01*
X0082606Y0186901D01*
X0082650Y0186917D01*
X0082696Y0186930D01*
X0082742Y0186939D01*
X0082790Y0186944D01*
X0082837Y0186945D01*
X0082884Y0186942D01*
X0082931Y0186935D01*
X0082977Y0186924D01*
X0083022Y0186910D01*
X0083066Y0186891D01*
X0083107Y0186869D01*
X0083147Y0186844D01*
X0083185Y0186815D01*
X0083220Y0186784D01*
X0083253Y0186749D01*
X0083282Y0186712D01*
X0083308Y0186673D01*
X0083331Y0186631D01*
X0083350Y0186588D01*
X0083366Y0186543D01*
X0083378Y0186497D01*
X0083386Y0186451D01*
X0083390Y0186404D01*
X0083390Y0186356D01*
X0083386Y0186309D01*
X0083378Y0186263D01*
X0083366Y0186217D01*
X0083350Y0186172D01*
X0083331Y0186129D01*
X0083308Y0186087D01*
X0083282Y0186048D01*
X0083253Y0186011D01*
X0083220Y0185976D01*
X0083185Y0185945D01*
X0083147Y0185916D01*
X0083108Y0185891D01*
X0083066Y0185869D01*
X0083022Y0185850D01*
X0082977Y0185836D01*
X0082931Y0185825D01*
X0082884Y0185818D01*
X0082837Y0185815D01*
X0082790Y0185816D01*
X0082742Y0185821D01*
X0082696Y0185830D01*
X0082650Y0185843D01*
X0082606Y0185859D01*
X0082563Y0185879D01*
X0082522Y0185903D01*
X0082483Y0185930D01*
X0082447Y0185960D01*
X0082413Y0185993D01*
X0082382Y0186029D01*
X0082354Y0186067D01*
X0082330Y0186108D01*
X0082309Y0186150D01*
X0082291Y0186194D01*
X0082278Y0186239D01*
X0082268Y0186286D01*
X0082262Y0186333D01*
X0082260Y0186380D01*
X0042051Y0196382D02*
X0042051Y0137327D01*
X0042051Y0078272D01*
X0038311Y0078272D01*
X0038311Y0137327D01*
X0042051Y0137327D01*
X0038311Y0137327D01*
X0012524Y0137327D01*
X0012524Y0078272D01*
X0038311Y0078272D01*
X0038311Y0078665D02*
X0038311Y0038508D01*
X0012524Y0038508D01*
X0012524Y0078665D01*
X0038311Y0078665D01*
X0042051Y0078665D01*
X0042051Y0038508D01*
X0038311Y0038508D01*
X0008978Y0046309D02*
X0008277Y0046309D01*
X0005475Y0049111D01*
X0004774Y0049111D01*
X0004774Y0050780D02*
X0004774Y0052181D01*
X0004774Y0051480D02*
X0008978Y0051480D01*
X0008978Y0050780D02*
X0008978Y0052181D01*
X0008978Y0049111D02*
X0008978Y0046309D01*
X0008978Y0065994D02*
X0008277Y0067395D01*
X0006876Y0068796D01*
X0006876Y0066695D01*
X0006175Y0065994D01*
X0005475Y0065994D01*
X0004774Y0066695D01*
X0004774Y0068096D01*
X0005475Y0068796D01*
X0006876Y0068796D01*
X0008978Y0070465D02*
X0008978Y0071866D01*
X0008978Y0071165D02*
X0004774Y0071165D01*
X0004774Y0070465D02*
X0004774Y0071866D01*
X0005475Y0085679D02*
X0004774Y0086380D01*
X0004774Y0087781D01*
X0005475Y0088481D01*
X0006876Y0088481D02*
X0007576Y0087080D01*
X0007576Y0086380D01*
X0006876Y0085679D01*
X0005475Y0085679D01*
X0006876Y0088481D02*
X0008978Y0088481D01*
X0008978Y0085679D01*
X0008978Y0090150D02*
X0008978Y0091551D01*
X0008978Y0090850D02*
X0004774Y0090850D01*
X0004774Y0090150D02*
X0004774Y0091551D01*
X0006876Y0105364D02*
X0006876Y0108167D01*
X0008978Y0106065D01*
X0004774Y0106065D01*
X0004774Y0109835D02*
X0004774Y0111236D01*
X0004774Y0110535D02*
X0008978Y0110535D01*
X0008978Y0109835D02*
X0008978Y0111236D01*
X0008277Y0125049D02*
X0007576Y0125049D01*
X0006876Y0125750D01*
X0006175Y0125049D01*
X0005475Y0125049D01*
X0004774Y0125750D01*
X0004774Y0127151D01*
X0005475Y0127852D01*
X0004774Y0129520D02*
X0004774Y0130921D01*
X0004774Y0130220D02*
X0008978Y0130220D01*
X0008978Y0129520D02*
X0008978Y0130921D01*
X0008277Y0127852D02*
X0008978Y0127151D01*
X0008978Y0125750D01*
X0008277Y0125049D01*
X0006876Y0125750D02*
X0006876Y0126450D01*
X0012524Y0137327D02*
X0038311Y0137327D01*
X0038311Y0196382D01*
X0042051Y0196382D01*
X0038311Y0196382D02*
X0012524Y0196382D01*
X0012524Y0137327D01*
X0008277Y0144734D02*
X0007576Y0144734D01*
X0004774Y0147537D01*
X0004774Y0144734D01*
X0008277Y0144734D02*
X0008978Y0145435D01*
X0008978Y0146836D01*
X0008277Y0147537D01*
X0008978Y0149205D02*
X0008978Y0150606D01*
X0008978Y0149905D02*
X0004774Y0149905D01*
X0004774Y0149205D02*
X0004774Y0150606D01*
X0004774Y0164419D02*
X0004774Y0167222D01*
X0004774Y0165820D02*
X0008978Y0165820D01*
X0007576Y0167222D01*
X0008978Y0168890D02*
X0008978Y0170291D01*
X0008978Y0169590D02*
X0004774Y0169590D01*
X0004774Y0168890D02*
X0004774Y0170291D01*
X0005475Y0184104D02*
X0004774Y0184805D01*
X0004774Y0186206D01*
X0005475Y0186907D01*
X0008277Y0184104D01*
X0005475Y0184104D01*
X0008277Y0184104D02*
X0008978Y0184805D01*
X0008978Y0186206D01*
X0008277Y0186907D01*
X0005475Y0186907D01*
X0004774Y0188575D02*
X0004774Y0189976D01*
X0004774Y0189275D02*
X0008978Y0189275D01*
X0008978Y0188575D02*
X0008978Y0189976D01*
X0082260Y0137167D02*
X0082262Y0137214D01*
X0082268Y0137261D01*
X0082278Y0137308D01*
X0082291Y0137353D01*
X0082309Y0137397D01*
X0082330Y0137439D01*
X0082354Y0137480D01*
X0082382Y0137518D01*
X0082413Y0137554D01*
X0082447Y0137587D01*
X0082483Y0137617D01*
X0082522Y0137644D01*
X0082563Y0137668D01*
X0082606Y0137688D01*
X0082650Y0137704D01*
X0082696Y0137717D01*
X0082742Y0137726D01*
X0082790Y0137731D01*
X0082837Y0137732D01*
X0082884Y0137729D01*
X0082931Y0137722D01*
X0082977Y0137711D01*
X0083022Y0137697D01*
X0083066Y0137678D01*
X0083107Y0137656D01*
X0083147Y0137631D01*
X0083185Y0137602D01*
X0083220Y0137571D01*
X0083253Y0137536D01*
X0083282Y0137499D01*
X0083308Y0137460D01*
X0083331Y0137418D01*
X0083350Y0137375D01*
X0083366Y0137330D01*
X0083378Y0137284D01*
X0083386Y0137238D01*
X0083390Y0137191D01*
X0083390Y0137143D01*
X0083386Y0137096D01*
X0083378Y0137050D01*
X0083366Y0137004D01*
X0083350Y0136959D01*
X0083331Y0136916D01*
X0083308Y0136874D01*
X0083282Y0136835D01*
X0083253Y0136798D01*
X0083220Y0136763D01*
X0083185Y0136732D01*
X0083147Y0136703D01*
X0083108Y0136678D01*
X0083066Y0136656D01*
X0083022Y0136637D01*
X0082977Y0136623D01*
X0082931Y0136612D01*
X0082884Y0136605D01*
X0082837Y0136602D01*
X0082790Y0136603D01*
X0082742Y0136608D01*
X0082696Y0136617D01*
X0082650Y0136630D01*
X0082606Y0136646D01*
X0082563Y0136666D01*
X0082522Y0136690D01*
X0082483Y0136717D01*
X0082447Y0136747D01*
X0082413Y0136780D01*
X0082382Y0136816D01*
X0082354Y0136854D01*
X0082330Y0136895D01*
X0082309Y0136937D01*
X0082291Y0136981D01*
X0082278Y0137026D01*
X0082268Y0137073D01*
X0082262Y0137120D01*
X0082260Y0137167D01*
X0082260Y0087954D02*
X0082262Y0088001D01*
X0082268Y0088048D01*
X0082278Y0088095D01*
X0082291Y0088140D01*
X0082309Y0088184D01*
X0082330Y0088226D01*
X0082354Y0088267D01*
X0082382Y0088305D01*
X0082413Y0088341D01*
X0082447Y0088374D01*
X0082483Y0088404D01*
X0082522Y0088431D01*
X0082563Y0088455D01*
X0082606Y0088475D01*
X0082650Y0088491D01*
X0082696Y0088504D01*
X0082742Y0088513D01*
X0082790Y0088518D01*
X0082837Y0088519D01*
X0082884Y0088516D01*
X0082931Y0088509D01*
X0082977Y0088498D01*
X0083022Y0088484D01*
X0083066Y0088465D01*
X0083107Y0088443D01*
X0083147Y0088418D01*
X0083185Y0088389D01*
X0083220Y0088358D01*
X0083253Y0088323D01*
X0083282Y0088286D01*
X0083308Y0088247D01*
X0083331Y0088205D01*
X0083350Y0088162D01*
X0083366Y0088117D01*
X0083378Y0088071D01*
X0083386Y0088025D01*
X0083390Y0087978D01*
X0083390Y0087930D01*
X0083386Y0087883D01*
X0083378Y0087837D01*
X0083366Y0087791D01*
X0083350Y0087746D01*
X0083331Y0087703D01*
X0083308Y0087661D01*
X0083282Y0087622D01*
X0083253Y0087585D01*
X0083220Y0087550D01*
X0083185Y0087519D01*
X0083147Y0087490D01*
X0083108Y0087465D01*
X0083066Y0087443D01*
X0083022Y0087424D01*
X0082977Y0087410D01*
X0082931Y0087399D01*
X0082884Y0087392D01*
X0082837Y0087389D01*
X0082790Y0087390D01*
X0082742Y0087395D01*
X0082696Y0087404D01*
X0082650Y0087417D01*
X0082606Y0087433D01*
X0082563Y0087453D01*
X0082522Y0087477D01*
X0082483Y0087504D01*
X0082447Y0087534D01*
X0082413Y0087567D01*
X0082382Y0087603D01*
X0082354Y0087641D01*
X0082330Y0087682D01*
X0082309Y0087724D01*
X0082291Y0087768D01*
X0082278Y0087813D01*
X0082268Y0087860D01*
X0082262Y0087907D01*
X0082260Y0087954D01*
X0082260Y0040710D02*
X0082262Y0040757D01*
X0082268Y0040804D01*
X0082278Y0040851D01*
X0082291Y0040896D01*
X0082309Y0040940D01*
X0082330Y0040982D01*
X0082354Y0041023D01*
X0082382Y0041061D01*
X0082413Y0041097D01*
X0082447Y0041130D01*
X0082483Y0041160D01*
X0082522Y0041187D01*
X0082563Y0041211D01*
X0082606Y0041231D01*
X0082650Y0041247D01*
X0082696Y0041260D01*
X0082742Y0041269D01*
X0082790Y0041274D01*
X0082837Y0041275D01*
X0082884Y0041272D01*
X0082931Y0041265D01*
X0082977Y0041254D01*
X0083022Y0041240D01*
X0083066Y0041221D01*
X0083107Y0041199D01*
X0083147Y0041174D01*
X0083185Y0041145D01*
X0083220Y0041114D01*
X0083253Y0041079D01*
X0083282Y0041042D01*
X0083308Y0041003D01*
X0083331Y0040961D01*
X0083350Y0040918D01*
X0083366Y0040873D01*
X0083378Y0040827D01*
X0083386Y0040781D01*
X0083390Y0040734D01*
X0083390Y0040686D01*
X0083386Y0040639D01*
X0083378Y0040593D01*
X0083366Y0040547D01*
X0083350Y0040502D01*
X0083331Y0040459D01*
X0083308Y0040417D01*
X0083282Y0040378D01*
X0083253Y0040341D01*
X0083220Y0040306D01*
X0083185Y0040275D01*
X0083147Y0040246D01*
X0083108Y0040221D01*
X0083066Y0040199D01*
X0083022Y0040180D01*
X0082977Y0040166D01*
X0082931Y0040155D01*
X0082884Y0040148D01*
X0082837Y0040145D01*
X0082790Y0040146D01*
X0082742Y0040151D01*
X0082696Y0040160D01*
X0082650Y0040173D01*
X0082606Y0040189D01*
X0082563Y0040209D01*
X0082522Y0040233D01*
X0082483Y0040260D01*
X0082447Y0040290D01*
X0082413Y0040323D01*
X0082382Y0040359D01*
X0082354Y0040397D01*
X0082330Y0040438D01*
X0082309Y0040480D01*
X0082291Y0040524D01*
X0082278Y0040569D01*
X0082268Y0040616D01*
X0082262Y0040663D01*
X0082260Y0040710D01*
X0141264Y0042051D02*
X0141264Y0038311D01*
X0200319Y0038311D01*
X0259374Y0038311D01*
X0318429Y0038311D01*
X0377484Y0038311D01*
X0377484Y0012524D01*
X0318429Y0012524D01*
X0318429Y0038311D01*
X0318429Y0042051D01*
X0377484Y0042051D01*
X0377484Y0038311D01*
X0368311Y0044965D02*
X0368311Y0046776D01*
X0367091Y0045855D01*
X0368311Y0046776D02*
X0368311Y0048587D01*
X0367091Y0047635D02*
X0368250Y0046876D01*
X0368542Y0055955D02*
X0365740Y0055955D01*
X0367141Y0055955D02*
X0367141Y0060159D01*
X0365740Y0058758D01*
X0363938Y0059458D02*
X0363938Y0058057D01*
X0363238Y0057356D01*
X0361136Y0057356D01*
X0361136Y0055955D02*
X0361136Y0060159D01*
X0363238Y0060159D01*
X0363938Y0059458D01*
X0362537Y0057356D02*
X0363938Y0055955D01*
X0370344Y0055955D02*
X0373146Y0055955D01*
X0371745Y0055955D02*
X0371745Y0060159D01*
X0370344Y0058758D01*
X0372687Y0073783D02*
X0373447Y0074943D01*
X0373547Y0075004D02*
X0374468Y0073783D01*
X0375358Y0075004D02*
X0373547Y0075004D01*
X0371736Y0075004D01*
X0367484Y0075004D02*
X0365673Y0075004D01*
X0366594Y0073783D01*
X0365673Y0075004D02*
X0363862Y0075004D01*
X0364813Y0073783D02*
X0365573Y0074943D01*
X0359610Y0075004D02*
X0357799Y0075004D01*
X0358720Y0073783D01*
X0357799Y0075004D02*
X0355988Y0075004D01*
X0356939Y0073783D02*
X0357699Y0074943D01*
X0351736Y0075004D02*
X0349925Y0075004D01*
X0350846Y0073783D01*
X0349925Y0075004D02*
X0348114Y0075004D01*
X0349065Y0073783D02*
X0349825Y0074943D01*
X0340673Y0070791D02*
X0340673Y0067642D01*
X0338311Y0067642D01*
X0332012Y0067642D02*
X0329650Y0067642D01*
X0329650Y0070791D01*
X0326894Y0070791D02*
X0326894Y0067642D01*
X0324531Y0067642D01*
X0318232Y0067642D02*
X0315870Y0067642D01*
X0315870Y0070791D01*
X0313114Y0070791D02*
X0313114Y0067642D01*
X0310752Y0067642D01*
X0304453Y0067642D02*
X0302091Y0067642D01*
X0302091Y0070791D01*
X0299335Y0070791D02*
X0299335Y0067642D01*
X0296972Y0067642D01*
X0290673Y0067642D02*
X0288311Y0067642D01*
X0288311Y0070791D01*
X0285555Y0070791D02*
X0285555Y0067642D01*
X0283193Y0067642D01*
X0276894Y0067642D02*
X0274531Y0067642D01*
X0274531Y0070791D01*
X0271776Y0070791D02*
X0271776Y0067642D01*
X0269413Y0067642D01*
X0263114Y0067642D02*
X0260752Y0067642D01*
X0260752Y0070791D01*
X0257996Y0070791D02*
X0257996Y0067642D01*
X0255634Y0067642D01*
X0249335Y0067642D02*
X0246972Y0067642D01*
X0246972Y0070791D01*
X0244217Y0070791D02*
X0244217Y0067642D01*
X0241854Y0067642D01*
X0235555Y0067642D02*
X0233193Y0067642D01*
X0233193Y0070791D01*
X0230437Y0070791D02*
X0230437Y0067642D01*
X0228075Y0067642D01*
X0221776Y0067642D02*
X0219413Y0067642D01*
X0219413Y0070791D01*
X0216657Y0070791D02*
X0216657Y0067642D01*
X0214295Y0067642D01*
X0207996Y0067642D02*
X0205634Y0067642D01*
X0205634Y0070791D01*
X0202878Y0070791D02*
X0202878Y0067642D01*
X0200516Y0067642D01*
X0194217Y0067642D02*
X0191854Y0067642D01*
X0191854Y0070791D01*
X0189098Y0070791D02*
X0189098Y0067642D01*
X0186736Y0067642D01*
X0180437Y0067642D02*
X0178075Y0067642D01*
X0178075Y0070791D01*
X0172593Y0060159D02*
X0172593Y0055955D01*
X0173994Y0055955D02*
X0171191Y0055955D01*
X0169390Y0055955D02*
X0167989Y0057356D01*
X0168689Y0057356D02*
X0166587Y0057356D01*
X0166587Y0055955D02*
X0166587Y0060159D01*
X0168689Y0060159D01*
X0169390Y0059458D01*
X0169390Y0058057D01*
X0168689Y0057356D01*
X0171191Y0058758D02*
X0172593Y0060159D01*
X0171461Y0048587D02*
X0171461Y0046776D01*
X0170240Y0045855D01*
X0171461Y0044965D02*
X0171461Y0046776D01*
X0171400Y0046876D02*
X0170240Y0047635D01*
X0186272Y0055955D02*
X0186272Y0060159D01*
X0188374Y0060159D01*
X0189075Y0059458D01*
X0189075Y0058057D01*
X0188374Y0057356D01*
X0186272Y0057356D01*
X0187674Y0057356D02*
X0189075Y0055955D01*
X0190876Y0055955D02*
X0193679Y0058758D01*
X0193679Y0059458D01*
X0192978Y0060159D01*
X0191577Y0060159D01*
X0190876Y0059458D01*
X0190876Y0055955D02*
X0193679Y0055955D01*
X0191146Y0048587D02*
X0191146Y0046776D01*
X0189925Y0045855D01*
X0191146Y0044965D02*
X0191146Y0046776D01*
X0191085Y0046876D02*
X0189925Y0047635D01*
X0200319Y0042051D02*
X0200319Y0038311D01*
X0200319Y0012524D01*
X0259374Y0012524D01*
X0259374Y0038311D01*
X0259374Y0042051D01*
X0318429Y0042051D01*
X0318429Y0038311D01*
X0318429Y0012524D01*
X0259374Y0012524D01*
X0259374Y0038311D01*
X0259374Y0042051D01*
X0200319Y0042051D01*
X0200319Y0038311D01*
X0200319Y0012524D01*
X0141264Y0012524D01*
X0141264Y0038311D01*
X0141264Y0042051D02*
X0200319Y0042051D01*
X0209610Y0045855D02*
X0210831Y0046776D01*
X0210831Y0048587D01*
X0209610Y0047635D02*
X0210770Y0046876D01*
X0210831Y0046776D02*
X0210831Y0044965D01*
X0211262Y0055955D02*
X0210561Y0056656D01*
X0211262Y0055955D02*
X0212663Y0055955D01*
X0213364Y0056656D01*
X0213364Y0057356D01*
X0212663Y0058057D01*
X0211963Y0058057D01*
X0212663Y0058057D02*
X0213364Y0058758D01*
X0213364Y0059458D01*
X0212663Y0060159D01*
X0211262Y0060159D01*
X0210561Y0059458D01*
X0208760Y0059458D02*
X0208760Y0058057D01*
X0208059Y0057356D01*
X0205957Y0057356D01*
X0205957Y0055955D02*
X0205957Y0060159D01*
X0208059Y0060159D01*
X0208760Y0059458D01*
X0207359Y0057356D02*
X0208760Y0055955D01*
X0225643Y0055955D02*
X0225643Y0060159D01*
X0227744Y0060159D01*
X0228445Y0059458D01*
X0228445Y0058057D01*
X0227744Y0057356D01*
X0225643Y0057356D01*
X0227044Y0057356D02*
X0228445Y0055955D01*
X0230246Y0058057D02*
X0233049Y0058057D01*
X0232348Y0060159D02*
X0230246Y0058057D01*
X0232348Y0055955D02*
X0232348Y0060159D01*
X0230516Y0048587D02*
X0230516Y0046776D01*
X0229295Y0045855D01*
X0230516Y0044965D02*
X0230516Y0046776D01*
X0230455Y0046876D02*
X0229295Y0047635D01*
X0245328Y0055955D02*
X0245328Y0060159D01*
X0247429Y0060159D01*
X0248130Y0059458D01*
X0248130Y0058057D01*
X0247429Y0057356D01*
X0245328Y0057356D01*
X0246729Y0057356D02*
X0248130Y0055955D01*
X0249931Y0056656D02*
X0250632Y0055955D01*
X0252033Y0055955D01*
X0252734Y0056656D01*
X0252734Y0058057D01*
X0252033Y0058758D01*
X0251333Y0058758D01*
X0249931Y0058057D01*
X0249931Y0060159D01*
X0252734Y0060159D01*
X0250201Y0048587D02*
X0250201Y0046776D01*
X0248980Y0045855D01*
X0250201Y0044965D02*
X0250201Y0046776D01*
X0250140Y0046876D02*
X0248980Y0047635D01*
X0265013Y0055955D02*
X0265013Y0060159D01*
X0267114Y0060159D01*
X0267815Y0059458D01*
X0267815Y0058057D01*
X0267114Y0057356D01*
X0265013Y0057356D01*
X0266414Y0057356D02*
X0267815Y0055955D01*
X0269617Y0056656D02*
X0270317Y0055955D01*
X0271718Y0055955D01*
X0272419Y0056656D01*
X0272419Y0057356D01*
X0271718Y0058057D01*
X0269617Y0058057D01*
X0269617Y0056656D01*
X0269617Y0058057D02*
X0271018Y0059458D01*
X0272419Y0060159D01*
X0269886Y0048587D02*
X0269886Y0046776D01*
X0268665Y0045855D01*
X0269886Y0044965D02*
X0269886Y0046776D01*
X0269825Y0046876D02*
X0268665Y0047635D01*
X0284698Y0055955D02*
X0284698Y0060159D01*
X0286799Y0060159D01*
X0287500Y0059458D01*
X0287500Y0058057D01*
X0286799Y0057356D01*
X0284698Y0057356D01*
X0286099Y0057356D02*
X0287500Y0055955D01*
X0289302Y0055955D02*
X0289302Y0056656D01*
X0292104Y0059458D01*
X0292104Y0060159D01*
X0289302Y0060159D01*
X0289571Y0048587D02*
X0289571Y0046776D01*
X0288350Y0045855D01*
X0289571Y0044965D02*
X0289571Y0046776D01*
X0289510Y0046876D02*
X0288350Y0047635D01*
X0304383Y0055955D02*
X0304383Y0060159D01*
X0306484Y0060159D01*
X0307185Y0059458D01*
X0307185Y0058057D01*
X0306484Y0057356D01*
X0304383Y0057356D01*
X0305784Y0057356D02*
X0307185Y0055955D01*
X0308987Y0056656D02*
X0308987Y0057356D01*
X0309687Y0058057D01*
X0311088Y0058057D01*
X0311789Y0057356D01*
X0311789Y0056656D01*
X0311088Y0055955D01*
X0309687Y0055955D01*
X0308987Y0056656D01*
X0309687Y0058057D02*
X0308987Y0058758D01*
X0308987Y0059458D01*
X0309687Y0060159D01*
X0311088Y0060159D01*
X0311789Y0059458D01*
X0311789Y0058758D01*
X0311088Y0058057D01*
X0309256Y0048587D02*
X0309256Y0046776D01*
X0308035Y0045855D01*
X0309256Y0044965D02*
X0309256Y0046776D01*
X0309195Y0046876D02*
X0308035Y0047635D01*
X0324068Y0055955D02*
X0324068Y0060159D01*
X0326170Y0060159D01*
X0326870Y0059458D01*
X0326870Y0058057D01*
X0326170Y0057356D01*
X0324068Y0057356D01*
X0325469Y0057356D02*
X0326870Y0055955D01*
X0328672Y0056656D02*
X0329372Y0055955D01*
X0330773Y0055955D01*
X0331474Y0056656D01*
X0331474Y0059458D01*
X0330773Y0060159D01*
X0329372Y0060159D01*
X0328672Y0059458D01*
X0328672Y0058758D01*
X0329372Y0058057D01*
X0331474Y0058057D01*
X0328941Y0048587D02*
X0328941Y0046776D01*
X0327720Y0045855D01*
X0328941Y0044965D02*
X0328941Y0046776D01*
X0328880Y0046876D02*
X0327720Y0047635D01*
X0341451Y0055955D02*
X0341451Y0060159D01*
X0343553Y0060159D01*
X0344253Y0059458D01*
X0344253Y0058057D01*
X0343553Y0057356D01*
X0341451Y0057356D01*
X0342852Y0057356D02*
X0344253Y0055955D01*
X0346055Y0055955D02*
X0348857Y0055955D01*
X0347456Y0055955D02*
X0347456Y0060159D01*
X0346055Y0058758D01*
X0350659Y0059458D02*
X0351359Y0060159D01*
X0352760Y0060159D01*
X0353461Y0059458D01*
X0350659Y0056656D01*
X0351359Y0055955D01*
X0352760Y0055955D01*
X0353461Y0056656D01*
X0353461Y0059458D01*
X0350659Y0059458D02*
X0350659Y0056656D01*
X0348626Y0048587D02*
X0348626Y0046776D01*
X0347406Y0045855D01*
X0348626Y0044965D02*
X0348626Y0046776D01*
X0348565Y0046876D02*
X0347406Y0047635D01*
X0347456Y0008978D02*
X0347456Y0004774D01*
X0346055Y0004774D02*
X0348857Y0004774D01*
X0350659Y0005475D02*
X0350659Y0008277D01*
X0351359Y0008978D01*
X0352760Y0008978D01*
X0353461Y0008277D01*
X0350659Y0005475D01*
X0351359Y0004774D01*
X0352760Y0004774D01*
X0353461Y0005475D01*
X0353461Y0008277D01*
X0347456Y0008978D02*
X0346055Y0007576D01*
X0344253Y0006876D02*
X0343553Y0006175D01*
X0341451Y0006175D01*
X0341451Y0004774D02*
X0341451Y0008978D01*
X0343553Y0008978D01*
X0344253Y0008277D01*
X0344253Y0006876D01*
X0342852Y0006175D02*
X0344253Y0004774D01*
X0331474Y0005475D02*
X0331474Y0008277D01*
X0330773Y0008978D01*
X0329372Y0008978D01*
X0328672Y0008277D01*
X0328672Y0007576D01*
X0329372Y0006876D01*
X0331474Y0006876D01*
X0331474Y0005475D02*
X0330773Y0004774D01*
X0329372Y0004774D01*
X0328672Y0005475D01*
X0326870Y0004774D02*
X0325469Y0006175D01*
X0326170Y0006175D02*
X0324068Y0006175D01*
X0324068Y0004774D02*
X0324068Y0008978D01*
X0326170Y0008978D01*
X0326870Y0008277D01*
X0326870Y0006876D01*
X0326170Y0006175D01*
X0311789Y0006175D02*
X0311789Y0005475D01*
X0311088Y0004774D01*
X0309687Y0004774D01*
X0308987Y0005475D01*
X0308987Y0006175D01*
X0309687Y0006876D01*
X0311088Y0006876D01*
X0311789Y0006175D01*
X0311088Y0006876D02*
X0311789Y0007576D01*
X0311789Y0008277D01*
X0311088Y0008978D01*
X0309687Y0008978D01*
X0308987Y0008277D01*
X0308987Y0007576D01*
X0309687Y0006876D01*
X0307185Y0006876D02*
X0307185Y0008277D01*
X0306484Y0008978D01*
X0304383Y0008978D01*
X0304383Y0004774D01*
X0304383Y0006175D02*
X0306484Y0006175D01*
X0307185Y0006876D01*
X0305784Y0006175D02*
X0307185Y0004774D01*
X0292104Y0008277D02*
X0289302Y0005475D01*
X0289302Y0004774D01*
X0287500Y0004774D02*
X0286099Y0006175D01*
X0286799Y0006175D02*
X0284698Y0006175D01*
X0284698Y0004774D02*
X0284698Y0008978D01*
X0286799Y0008978D01*
X0287500Y0008277D01*
X0287500Y0006876D01*
X0286799Y0006175D01*
X0289302Y0008978D02*
X0292104Y0008978D01*
X0292104Y0008277D01*
X0272419Y0008978D02*
X0271018Y0008277D01*
X0269617Y0006876D01*
X0271718Y0006876D01*
X0272419Y0006175D01*
X0272419Y0005475D01*
X0271718Y0004774D01*
X0270317Y0004774D01*
X0269617Y0005475D01*
X0269617Y0006876D01*
X0267815Y0006876D02*
X0267114Y0006175D01*
X0265013Y0006175D01*
X0266414Y0006175D02*
X0267815Y0004774D01*
X0267815Y0006876D02*
X0267815Y0008277D01*
X0267114Y0008978D01*
X0265013Y0008978D01*
X0265013Y0004774D01*
X0252734Y0005475D02*
X0252033Y0004774D01*
X0250632Y0004774D01*
X0249931Y0005475D01*
X0249931Y0006876D02*
X0251333Y0007576D01*
X0252033Y0007576D01*
X0252734Y0006876D01*
X0252734Y0005475D01*
X0249931Y0006876D02*
X0249931Y0008978D01*
X0252734Y0008978D01*
X0248130Y0008277D02*
X0248130Y0006876D01*
X0247429Y0006175D01*
X0245328Y0006175D01*
X0246729Y0006175D02*
X0248130Y0004774D01*
X0245328Y0004774D02*
X0245328Y0008978D01*
X0247429Y0008978D01*
X0248130Y0008277D01*
X0233049Y0006876D02*
X0230246Y0006876D01*
X0232348Y0008978D01*
X0232348Y0004774D01*
X0228445Y0004774D02*
X0227044Y0006175D01*
X0227744Y0006175D02*
X0225643Y0006175D01*
X0225643Y0004774D02*
X0225643Y0008978D01*
X0227744Y0008978D01*
X0228445Y0008277D01*
X0228445Y0006876D01*
X0227744Y0006175D01*
X0213364Y0006175D02*
X0213364Y0005475D01*
X0212663Y0004774D01*
X0211262Y0004774D01*
X0210561Y0005475D01*
X0208760Y0004774D02*
X0207359Y0006175D01*
X0208059Y0006175D02*
X0205957Y0006175D01*
X0205957Y0004774D02*
X0205957Y0008978D01*
X0208059Y0008978D01*
X0208760Y0008277D01*
X0208760Y0006876D01*
X0208059Y0006175D01*
X0210561Y0008277D02*
X0211262Y0008978D01*
X0212663Y0008978D01*
X0213364Y0008277D01*
X0213364Y0007576D01*
X0212663Y0006876D01*
X0213364Y0006175D01*
X0212663Y0006876D02*
X0211963Y0006876D01*
X0193679Y0007576D02*
X0190876Y0004774D01*
X0193679Y0004774D01*
X0193679Y0007576D02*
X0193679Y0008277D01*
X0192978Y0008978D01*
X0191577Y0008978D01*
X0190876Y0008277D01*
X0189075Y0008277D02*
X0189075Y0006876D01*
X0188374Y0006175D01*
X0186272Y0006175D01*
X0186272Y0004774D02*
X0186272Y0008978D01*
X0188374Y0008978D01*
X0189075Y0008277D01*
X0187674Y0006175D02*
X0189075Y0004774D01*
X0173994Y0004774D02*
X0171191Y0004774D01*
X0172593Y0004774D02*
X0172593Y0008978D01*
X0171191Y0007576D01*
X0169390Y0006876D02*
X0168689Y0006175D01*
X0166587Y0006175D01*
X0166587Y0004774D02*
X0166587Y0008978D01*
X0168689Y0008978D01*
X0169390Y0008277D01*
X0169390Y0006876D01*
X0167989Y0006175D02*
X0169390Y0004774D01*
X0154309Y0005475D02*
X0153608Y0004774D01*
X0152207Y0004774D01*
X0151506Y0005475D01*
X0154309Y0008277D01*
X0154309Y0005475D01*
X0154309Y0008277D02*
X0153608Y0008978D01*
X0152207Y0008978D01*
X0151506Y0008277D01*
X0151506Y0005475D01*
X0149705Y0004774D02*
X0148304Y0006175D01*
X0149004Y0006175D02*
X0146902Y0006175D01*
X0146902Y0004774D02*
X0146902Y0008978D01*
X0149004Y0008978D01*
X0149705Y0008277D01*
X0149705Y0006876D01*
X0149004Y0006175D01*
X0151776Y0044965D02*
X0151776Y0046776D01*
X0150555Y0045855D01*
X0151776Y0046776D02*
X0151776Y0048587D01*
X0150555Y0047635D02*
X0151715Y0046876D01*
X0152207Y0055955D02*
X0151506Y0056656D01*
X0154309Y0059458D01*
X0154309Y0056656D01*
X0153608Y0055955D01*
X0152207Y0055955D01*
X0151506Y0056656D02*
X0151506Y0059458D01*
X0152207Y0060159D01*
X0153608Y0060159D01*
X0154309Y0059458D01*
X0149705Y0059458D02*
X0149705Y0058057D01*
X0149004Y0057356D01*
X0146902Y0057356D01*
X0146902Y0055955D02*
X0146902Y0060159D01*
X0149004Y0060159D01*
X0149705Y0059458D01*
X0148304Y0057356D02*
X0149705Y0055955D01*
X0329177Y0132465D02*
X0331677Y0129965D01*
X0336677Y0129965D01*
X0339177Y0132465D01*
X0339177Y0137465D01*
X0336677Y0139965D01*
X0339177Y0142465D01*
X0339177Y0147465D01*
X0336677Y0149965D01*
X0339177Y0152465D01*
X0339177Y0157465D01*
X0336677Y0159965D01*
X0339177Y0162465D01*
X0339177Y0167465D01*
X0336677Y0169965D01*
X0331677Y0169965D01*
X0329177Y0167465D01*
X0329177Y0162465D01*
X0331677Y0159965D01*
X0329177Y0157465D01*
X0329177Y0152465D01*
X0331677Y0149965D01*
X0329177Y0147465D01*
X0329177Y0142465D01*
X0331677Y0139965D01*
X0329177Y0137465D01*
X0329177Y0132465D01*
X0343747Y0129351D02*
X0343747Y0127250D01*
X0347950Y0127250D01*
X0347950Y0129351D01*
X0347250Y0130052D01*
X0344447Y0130052D01*
X0343747Y0129351D01*
X0344447Y0125448D02*
X0343747Y0124747D01*
X0343747Y0123346D01*
X0344447Y0122646D01*
X0347250Y0122646D01*
X0347950Y0123346D01*
X0347950Y0124747D01*
X0347250Y0125448D01*
X0347950Y0120844D02*
X0347950Y0118042D01*
X0343747Y0118042D01*
X0343747Y0136457D02*
X0343747Y0137859D01*
X0343747Y0137158D02*
X0347950Y0137158D01*
X0347950Y0136457D02*
X0347950Y0137859D01*
X0347950Y0139527D02*
X0345148Y0139527D01*
X0345148Y0141629D01*
X0345849Y0142329D01*
X0347950Y0142329D01*
X0347250Y0144831D02*
X0344447Y0144831D01*
X0345148Y0144131D02*
X0345148Y0145532D01*
X0345849Y0147200D02*
X0345148Y0147901D01*
X0345148Y0149302D01*
X0345849Y0150002D01*
X0346549Y0150002D01*
X0346549Y0147200D01*
X0345849Y0147200D02*
X0347250Y0147200D01*
X0347950Y0147901D01*
X0347950Y0149302D01*
X0347950Y0151804D02*
X0345148Y0151804D01*
X0345148Y0153205D02*
X0345148Y0153906D01*
X0345148Y0153205D02*
X0346549Y0151804D01*
X0345849Y0155640D02*
X0345849Y0157042D01*
X0344447Y0156341D02*
X0347950Y0156341D01*
X0347250Y0158710D02*
X0346549Y0159410D01*
X0346549Y0161512D01*
X0345849Y0161512D02*
X0347950Y0161512D01*
X0347950Y0159410D01*
X0347250Y0158710D01*
X0345148Y0159410D02*
X0345148Y0160812D01*
X0345849Y0161512D01*
X0345849Y0163314D02*
X0347250Y0163314D01*
X0347950Y0164014D01*
X0347950Y0166116D01*
X0347250Y0167918D02*
X0345849Y0167918D01*
X0345148Y0168618D01*
X0345148Y0170019D01*
X0345849Y0170720D01*
X0346549Y0170720D01*
X0346549Y0167918D01*
X0347250Y0167918D02*
X0347950Y0168618D01*
X0347950Y0170019D01*
X0345148Y0166116D02*
X0345148Y0164014D01*
X0345849Y0163314D01*
X0343747Y0157042D02*
X0344447Y0156341D01*
X0347950Y0145532D02*
X0347250Y0144831D01*
X0361205Y0213035D02*
X0358705Y0215535D01*
X0358705Y0220535D01*
X0361205Y0223035D01*
X0358705Y0225535D01*
X0358705Y0230535D01*
X0361205Y0233035D01*
X0358705Y0235535D01*
X0358705Y0240535D01*
X0361205Y0243035D01*
X0358705Y0245535D01*
X0358705Y0250535D01*
X0361205Y0253035D01*
X0358705Y0255535D01*
X0358705Y0260535D01*
X0361205Y0263035D01*
X0358705Y0265535D01*
X0358705Y0270535D01*
X0361205Y0273035D01*
X0366205Y0273035D01*
X0368705Y0270535D01*
X0368705Y0265535D01*
X0366205Y0263035D01*
X0368705Y0260535D01*
X0368705Y0255535D01*
X0366205Y0253035D01*
X0368705Y0250535D01*
X0368705Y0245535D01*
X0366205Y0243035D01*
X0368705Y0240535D01*
X0368705Y0235535D01*
X0366205Y0233035D01*
X0368705Y0230535D01*
X0368705Y0225535D01*
X0366205Y0223035D01*
X0368705Y0220535D01*
X0368705Y0215535D01*
X0366205Y0213035D01*
X0361205Y0213035D01*
X0338608Y0231358D02*
X0332108Y0231358D01*
X0332048Y0231360D01*
X0331987Y0231365D01*
X0331928Y0231374D01*
X0331869Y0231387D01*
X0331810Y0231403D01*
X0331753Y0231423D01*
X0331698Y0231446D01*
X0331643Y0231473D01*
X0331591Y0231502D01*
X0331540Y0231535D01*
X0331491Y0231571D01*
X0331445Y0231609D01*
X0331401Y0231651D01*
X0331359Y0231695D01*
X0331321Y0231741D01*
X0331285Y0231790D01*
X0331252Y0231841D01*
X0331223Y0231893D01*
X0331196Y0231948D01*
X0331173Y0232003D01*
X0331153Y0232060D01*
X0331137Y0232119D01*
X0331124Y0232178D01*
X0331115Y0232237D01*
X0331110Y0232298D01*
X0331108Y0232358D01*
X0331108Y0238358D02*
X0331110Y0238418D01*
X0331115Y0238479D01*
X0331124Y0238538D01*
X0331137Y0238597D01*
X0331153Y0238656D01*
X0331173Y0238713D01*
X0331196Y0238768D01*
X0331223Y0238823D01*
X0331252Y0238875D01*
X0331285Y0238926D01*
X0331321Y0238975D01*
X0331359Y0239021D01*
X0331401Y0239065D01*
X0331445Y0239107D01*
X0331491Y0239145D01*
X0331540Y0239181D01*
X0331591Y0239214D01*
X0331643Y0239243D01*
X0331698Y0239270D01*
X0331753Y0239293D01*
X0331810Y0239313D01*
X0331869Y0239329D01*
X0331928Y0239342D01*
X0331987Y0239351D01*
X0332048Y0239356D01*
X0332108Y0239358D01*
X0338608Y0239358D01*
X0338668Y0239356D01*
X0338729Y0239351D01*
X0338788Y0239342D01*
X0338847Y0239329D01*
X0338906Y0239313D01*
X0338963Y0239293D01*
X0339018Y0239270D01*
X0339073Y0239243D01*
X0339125Y0239214D01*
X0339176Y0239181D01*
X0339225Y0239145D01*
X0339271Y0239107D01*
X0339315Y0239065D01*
X0339357Y0239021D01*
X0339395Y0238975D01*
X0339431Y0238926D01*
X0339464Y0238875D01*
X0339493Y0238823D01*
X0339520Y0238768D01*
X0339543Y0238713D01*
X0339563Y0238656D01*
X0339579Y0238597D01*
X0339592Y0238538D01*
X0339601Y0238479D01*
X0339606Y0238418D01*
X0339608Y0238358D01*
X0339022Y0243239D02*
X0339022Y0246041D01*
X0339022Y0247843D02*
X0339022Y0250645D01*
X0339022Y0249244D02*
X0343226Y0249244D01*
X0343226Y0252446D02*
X0343226Y0254548D01*
X0342525Y0255249D01*
X0339723Y0255249D01*
X0339022Y0254548D01*
X0339022Y0252446D01*
X0343226Y0252446D01*
X0343226Y0257050D02*
X0343226Y0258452D01*
X0343226Y0257751D02*
X0339022Y0257751D01*
X0339022Y0257050D02*
X0339022Y0258452D01*
X0341124Y0244640D02*
X0341124Y0243239D01*
X0343226Y0243239D02*
X0339022Y0243239D01*
X0339608Y0232358D02*
X0339606Y0232298D01*
X0339601Y0232237D01*
X0339592Y0232178D01*
X0339579Y0232119D01*
X0339563Y0232060D01*
X0339543Y0232003D01*
X0339520Y0231948D01*
X0339493Y0231893D01*
X0339464Y0231841D01*
X0339431Y0231790D01*
X0339395Y0231741D01*
X0339357Y0231695D01*
X0339315Y0231651D01*
X0339271Y0231609D01*
X0339225Y0231571D01*
X0339176Y0231535D01*
X0339125Y0231502D01*
X0339073Y0231473D01*
X0339018Y0231446D01*
X0338963Y0231423D01*
X0338906Y0231403D01*
X0338847Y0231387D01*
X0338788Y0231374D01*
X0338729Y0231365D01*
X0338668Y0231360D01*
X0338608Y0231358D01*
X0315093Y0316857D02*
X0312991Y0316857D01*
X0312290Y0317558D01*
X0312290Y0318959D01*
X0312991Y0319659D01*
X0315093Y0319659D01*
X0315093Y0321061D02*
X0315093Y0316857D01*
X0313691Y0319659D02*
X0312290Y0321061D01*
X0310489Y0321061D02*
X0307686Y0321061D01*
X0309087Y0321061D02*
X0309087Y0316857D01*
X0310489Y0318258D01*
X0305885Y0318959D02*
X0304483Y0318258D01*
X0303783Y0318258D01*
X0303082Y0318959D01*
X0303082Y0320360D01*
X0303783Y0321061D01*
X0305184Y0321061D01*
X0305885Y0320360D01*
X0305885Y0318959D02*
X0305885Y0316857D01*
X0303082Y0316857D01*
X0295407Y0316857D02*
X0293306Y0316857D01*
X0292605Y0317558D01*
X0292605Y0318959D01*
X0293306Y0319659D01*
X0295407Y0319659D01*
X0294006Y0319659D02*
X0292605Y0321061D01*
X0290804Y0321061D02*
X0288001Y0321061D01*
X0289402Y0321061D02*
X0289402Y0316857D01*
X0290804Y0318258D01*
X0286200Y0318959D02*
X0284098Y0318959D01*
X0283397Y0319659D01*
X0283397Y0320360D01*
X0284098Y0321061D01*
X0285499Y0321061D01*
X0286200Y0320360D01*
X0286200Y0318959D01*
X0284798Y0317558D01*
X0283397Y0316857D01*
X0295407Y0316857D02*
X0295407Y0321061D01*
X0289453Y0329380D02*
X0288293Y0330140D01*
X0288232Y0330240D02*
X0289453Y0331161D01*
X0288232Y0332051D02*
X0288232Y0330240D01*
X0288232Y0328429D01*
X0307917Y0328429D02*
X0307917Y0330240D01*
X0309138Y0331161D01*
X0307917Y0332051D02*
X0307917Y0330240D01*
X0307978Y0330140D02*
X0309138Y0329380D01*
X0318429Y0334965D02*
X0318429Y0338705D01*
X0318429Y0364492D01*
X0377484Y0364492D01*
X0377484Y0338705D01*
X0368193Y0331161D02*
X0366972Y0330240D01*
X0366972Y0328429D01*
X0368193Y0329380D02*
X0367033Y0330140D01*
X0366972Y0330240D02*
X0366972Y0332051D01*
X0366741Y0321061D02*
X0369544Y0321061D01*
X0368143Y0321061D02*
X0368143Y0316857D01*
X0369544Y0318258D01*
X0371345Y0317558D02*
X0371345Y0318959D01*
X0372046Y0319659D01*
X0374148Y0319659D01*
X0372746Y0319659D02*
X0371345Y0321061D01*
X0374148Y0321061D02*
X0374148Y0316857D01*
X0372046Y0316857D01*
X0371345Y0317558D01*
X0364940Y0317558D02*
X0364239Y0316857D01*
X0362838Y0316857D01*
X0362137Y0317558D01*
X0362137Y0318258D01*
X0364940Y0321061D01*
X0362137Y0321061D01*
X0348508Y0329380D02*
X0347348Y0330140D01*
X0347287Y0330240D02*
X0348508Y0331161D01*
X0347287Y0332051D02*
X0347287Y0330240D01*
X0347287Y0328429D01*
X0348457Y0368038D02*
X0348457Y0372242D01*
X0347056Y0372242D02*
X0349859Y0372242D01*
X0351660Y0372242D02*
X0353061Y0370841D01*
X0352361Y0370841D02*
X0354463Y0370841D01*
X0354463Y0372242D02*
X0354463Y0368038D01*
X0352361Y0368038D01*
X0351660Y0368739D01*
X0351660Y0370140D01*
X0352361Y0370841D01*
X0349859Y0369439D02*
X0348457Y0368038D01*
X0345255Y0368739D02*
X0344554Y0368038D01*
X0343153Y0368038D01*
X0342452Y0368739D01*
X0342452Y0369439D01*
X0343153Y0370140D01*
X0342452Y0370841D01*
X0342452Y0371541D01*
X0343153Y0372242D01*
X0344554Y0372242D01*
X0345255Y0371541D01*
X0343854Y0370140D02*
X0343153Y0370140D01*
X0334778Y0370841D02*
X0332676Y0370841D01*
X0331975Y0370140D01*
X0331975Y0368739D01*
X0332676Y0368038D01*
X0334778Y0368038D01*
X0334778Y0372242D01*
X0333376Y0370841D02*
X0331975Y0372242D01*
X0330174Y0372242D02*
X0327371Y0372242D01*
X0328772Y0372242D02*
X0328772Y0368038D01*
X0330174Y0369439D01*
X0325570Y0370140D02*
X0322767Y0370140D01*
X0323468Y0372242D02*
X0323468Y0368038D01*
X0325570Y0370140D01*
X0315093Y0370841D02*
X0312991Y0370841D01*
X0312290Y0370140D01*
X0312290Y0368739D01*
X0312991Y0368038D01*
X0315093Y0368038D01*
X0315093Y0372242D01*
X0313691Y0370841D02*
X0312290Y0372242D01*
X0310489Y0372242D02*
X0307686Y0372242D01*
X0309087Y0372242D02*
X0309087Y0368038D01*
X0310489Y0369439D01*
X0305885Y0370140D02*
X0304483Y0369439D01*
X0303783Y0369439D01*
X0303082Y0370140D01*
X0303082Y0371541D01*
X0303783Y0372242D01*
X0305184Y0372242D01*
X0305885Y0371541D01*
X0305885Y0370140D02*
X0305885Y0368038D01*
X0303082Y0368038D01*
X0295407Y0368038D02*
X0293306Y0368038D01*
X0292605Y0368739D01*
X0292605Y0370140D01*
X0293306Y0370841D01*
X0295407Y0370841D01*
X0294006Y0370841D02*
X0292605Y0372242D01*
X0290804Y0372242D02*
X0288001Y0372242D01*
X0289402Y0372242D02*
X0289402Y0368038D01*
X0290804Y0369439D01*
X0286200Y0370140D02*
X0284098Y0370140D01*
X0283397Y0370841D01*
X0283397Y0371541D01*
X0284098Y0372242D01*
X0285499Y0372242D01*
X0286200Y0371541D01*
X0286200Y0370140D01*
X0284798Y0368739D01*
X0283397Y0368038D01*
X0275722Y0368038D02*
X0273621Y0368038D01*
X0272920Y0368739D01*
X0272920Y0370140D01*
X0273621Y0370841D01*
X0275722Y0370841D01*
X0275722Y0372242D02*
X0275722Y0368038D01*
X0274321Y0370841D02*
X0272920Y0372242D01*
X0271119Y0372242D02*
X0268316Y0372242D01*
X0269717Y0372242D02*
X0269717Y0368038D01*
X0271119Y0369439D01*
X0266515Y0368038D02*
X0263712Y0368038D01*
X0263712Y0368739D01*
X0266515Y0371541D01*
X0266515Y0372242D01*
X0256037Y0372242D02*
X0256037Y0368038D01*
X0253936Y0368038D01*
X0253235Y0368739D01*
X0253235Y0370140D01*
X0253936Y0370841D01*
X0256037Y0370841D01*
X0254636Y0370841D02*
X0253235Y0372242D01*
X0251433Y0372242D02*
X0248631Y0372242D01*
X0250032Y0372242D02*
X0250032Y0368038D01*
X0251433Y0369439D01*
X0246830Y0369439D02*
X0246129Y0370140D01*
X0244728Y0370140D01*
X0244027Y0370841D01*
X0244027Y0371541D01*
X0244728Y0372242D01*
X0246129Y0372242D01*
X0246830Y0371541D01*
X0246830Y0370841D01*
X0246129Y0370140D01*
X0246830Y0369439D02*
X0246830Y0368739D01*
X0246129Y0368038D01*
X0244728Y0368038D01*
X0244027Y0368739D01*
X0244027Y0369439D01*
X0244728Y0370140D01*
X0236352Y0370841D02*
X0234251Y0370841D01*
X0233550Y0370140D01*
X0233550Y0368739D01*
X0234251Y0368038D01*
X0236352Y0368038D01*
X0236352Y0372242D01*
X0234951Y0370841D02*
X0233550Y0372242D01*
X0231748Y0372242D02*
X0228946Y0372242D01*
X0230347Y0372242D02*
X0230347Y0368038D01*
X0231748Y0369439D01*
X0227145Y0369439D02*
X0226444Y0370140D01*
X0224342Y0370140D01*
X0224342Y0371541D02*
X0224342Y0368739D01*
X0225043Y0368038D01*
X0226444Y0368038D01*
X0227145Y0368739D01*
X0227145Y0369439D01*
X0227145Y0371541D02*
X0226444Y0372242D01*
X0225043Y0372242D01*
X0224342Y0371541D01*
X0216667Y0370841D02*
X0214566Y0370841D01*
X0213865Y0370140D01*
X0213865Y0368739D01*
X0214566Y0368038D01*
X0216667Y0368038D01*
X0216667Y0372242D01*
X0215266Y0370841D02*
X0213865Y0372242D01*
X0212063Y0372242D02*
X0209261Y0369439D01*
X0209261Y0368739D01*
X0209962Y0368038D01*
X0211363Y0368038D01*
X0212063Y0368739D01*
X0212063Y0372242D02*
X0209261Y0372242D01*
X0207459Y0371541D02*
X0204657Y0368739D01*
X0204657Y0371541D01*
X0205358Y0372242D01*
X0206759Y0372242D01*
X0207459Y0371541D01*
X0207459Y0368739D01*
X0206759Y0368038D01*
X0205358Y0368038D01*
X0204657Y0368739D01*
X0196982Y0368038D02*
X0194880Y0368038D01*
X0194180Y0368739D01*
X0194180Y0370140D01*
X0194880Y0370841D01*
X0196982Y0370841D01*
X0196982Y0372242D02*
X0196982Y0368038D01*
X0195581Y0370841D02*
X0194180Y0372242D01*
X0192378Y0372242D02*
X0189576Y0369439D01*
X0189576Y0368739D01*
X0190277Y0368038D01*
X0191678Y0368038D01*
X0192378Y0368739D01*
X0192378Y0372242D02*
X0189576Y0372242D01*
X0187774Y0372242D02*
X0184972Y0372242D01*
X0186373Y0372242D02*
X0186373Y0368038D01*
X0187774Y0369439D01*
X0177297Y0368038D02*
X0175195Y0368038D01*
X0174495Y0368739D01*
X0174495Y0370140D01*
X0175195Y0370841D01*
X0177297Y0370841D01*
X0177297Y0372242D02*
X0177297Y0368038D01*
X0175896Y0370841D02*
X0174495Y0372242D01*
X0172693Y0372242D02*
X0169891Y0369439D01*
X0169891Y0368739D01*
X0170592Y0368038D01*
X0171993Y0368038D01*
X0172693Y0368739D01*
X0172693Y0372242D02*
X0169891Y0372242D01*
X0168089Y0372242D02*
X0165287Y0369439D01*
X0165287Y0368739D01*
X0165988Y0368038D01*
X0167389Y0368038D01*
X0168089Y0368739D01*
X0168089Y0372242D02*
X0165287Y0372242D01*
X0157612Y0372242D02*
X0157612Y0368038D01*
X0155510Y0368038D01*
X0154810Y0368739D01*
X0154810Y0370140D01*
X0155510Y0370841D01*
X0157612Y0370841D01*
X0156211Y0370841D02*
X0154810Y0372242D01*
X0153008Y0372242D02*
X0150206Y0369439D01*
X0150206Y0368739D01*
X0150906Y0368038D01*
X0152308Y0368038D01*
X0153008Y0368739D01*
X0153008Y0372242D02*
X0150206Y0372242D01*
X0148404Y0371541D02*
X0147704Y0372242D01*
X0146303Y0372242D01*
X0145602Y0371541D01*
X0145602Y0370841D01*
X0146303Y0370140D01*
X0147003Y0370140D01*
X0146303Y0370140D02*
X0145602Y0369439D01*
X0145602Y0368739D01*
X0146303Y0368038D01*
X0147704Y0368038D01*
X0148404Y0368739D01*
X0295407Y0368038D02*
X0295407Y0372242D01*
X0362137Y0372242D02*
X0364940Y0372242D01*
X0362137Y0369439D01*
X0362137Y0368739D01*
X0362838Y0368038D01*
X0364239Y0368038D01*
X0364940Y0368739D01*
X0368143Y0368038D02*
X0368143Y0372242D01*
X0369544Y0372242D02*
X0366741Y0372242D01*
X0369544Y0369439D02*
X0368143Y0368038D01*
X0371345Y0368739D02*
X0371345Y0370140D01*
X0372046Y0370841D01*
X0374148Y0370841D01*
X0374148Y0372242D02*
X0374148Y0368038D01*
X0372046Y0368038D01*
X0371345Y0368739D01*
X0372746Y0370841D02*
X0371345Y0372242D01*
X0371745Y0008978D02*
X0371745Y0004774D01*
X0370344Y0004774D02*
X0373146Y0004774D01*
X0370344Y0007576D02*
X0371745Y0008978D01*
X0367141Y0008978D02*
X0367141Y0004774D01*
X0365740Y0004774D02*
X0368542Y0004774D01*
X0365740Y0007576D02*
X0367141Y0008978D01*
X0363938Y0008277D02*
X0363938Y0006876D01*
X0363238Y0006175D01*
X0361136Y0006175D01*
X0361136Y0004774D02*
X0361136Y0008978D01*
X0363238Y0008978D01*
X0363938Y0008277D01*
X0362537Y0006175D02*
X0363938Y0004774D01*
D13*
X0363417Y0108349D02*
X0361448Y0108349D01*
X0360464Y0109333D01*
X0364401Y0113270D01*
X0364401Y0109333D01*
X0363417Y0108349D01*
X0360464Y0109333D02*
X0360464Y0113270D01*
X0361448Y0114254D01*
X0363417Y0114254D01*
X0364401Y0113270D01*
X0357955Y0112286D02*
X0355987Y0108349D01*
X0354019Y0112286D01*
X0366909Y0109333D02*
X0367894Y0109333D01*
X0367894Y0108349D01*
X0366909Y0108349D01*
X0366909Y0109333D01*
X0370132Y0108349D02*
X0374069Y0108349D01*
X0372101Y0108349D02*
X0372101Y0114254D01*
X0370132Y0112286D01*
X0063951Y0021211D02*
X0062967Y0022195D01*
X0060998Y0022195D01*
X0060014Y0021211D01*
X0060014Y0020227D01*
X0060998Y0019243D01*
X0062967Y0019243D01*
X0063951Y0018259D01*
X0063951Y0017274D01*
X0062967Y0016290D01*
X0060998Y0016290D01*
X0060014Y0017274D01*
X0057506Y0022195D02*
X0053569Y0022195D01*
X0055537Y0022195D02*
X0055537Y0016290D01*
X0050256Y0012679D02*
X0050256Y0011695D01*
X0050256Y0009727D02*
X0050256Y0005790D01*
X0049272Y0005790D02*
X0051240Y0005790D01*
X0053569Y0005790D02*
X0053569Y0009727D01*
X0056521Y0009727D01*
X0057506Y0008743D01*
X0057506Y0005790D01*
X0060014Y0006774D02*
X0060014Y0008743D01*
X0060998Y0009727D01*
X0063951Y0009727D01*
X0063951Y0004806D01*
X0062967Y0003822D01*
X0061983Y0003822D01*
X0060998Y0005790D02*
X0063951Y0005790D01*
X0060998Y0005790D02*
X0060014Y0006774D01*
X0050256Y0009727D02*
X0049272Y0009727D01*
X0046943Y0009727D02*
X0044975Y0009727D01*
X0045959Y0010711D02*
X0045959Y0006774D01*
X0046943Y0005790D01*
X0042466Y0005790D02*
X0042466Y0008743D01*
X0041482Y0009727D01*
X0039513Y0009727D01*
X0038529Y0008743D01*
X0036021Y0009727D02*
X0033068Y0009727D01*
X0032084Y0008743D01*
X0032084Y0006774D01*
X0033068Y0005790D01*
X0036021Y0005790D01*
X0036021Y0004806D02*
X0036021Y0009727D01*
X0038529Y0011695D02*
X0038529Y0005790D01*
X0036021Y0004806D02*
X0035036Y0003822D01*
X0034052Y0003822D01*
X0029755Y0005790D02*
X0027787Y0005790D01*
X0028771Y0005790D02*
X0028771Y0009727D01*
X0027787Y0009727D01*
X0028771Y0011695D02*
X0028771Y0012679D01*
X0028771Y0016290D02*
X0027787Y0017274D01*
X0028771Y0016290D02*
X0030739Y0016290D01*
X0031724Y0017274D01*
X0031724Y0018259D01*
X0030739Y0019243D01*
X0028771Y0019243D01*
X0027787Y0020227D01*
X0027787Y0021211D01*
X0028771Y0022195D01*
X0030739Y0022195D01*
X0031724Y0021211D01*
X0034232Y0022195D02*
X0034232Y0016290D01*
X0038169Y0016290D02*
X0034232Y0022195D01*
X0038169Y0022195D02*
X0038169Y0016290D01*
X0040678Y0017274D02*
X0040678Y0021211D01*
X0041662Y0022195D01*
X0043630Y0022195D01*
X0044615Y0021211D01*
X0044615Y0017274D01*
X0043630Y0016290D01*
X0041662Y0016290D01*
X0040678Y0017274D01*
X0047123Y0022195D02*
X0051060Y0022195D01*
X0049092Y0022195D02*
X0049092Y0016290D01*
X0025278Y0016290D02*
X0025278Y0022195D01*
X0025278Y0019243D02*
X0021341Y0019243D01*
X0021341Y0022195D02*
X0021341Y0016290D01*
X0021341Y0011695D02*
X0021341Y0005790D01*
X0025278Y0005790D01*
D14*
X0005201Y0011500D02*
X0005203Y0011658D01*
X0005209Y0011816D01*
X0005219Y0011974D01*
X0005233Y0012132D01*
X0005251Y0012289D01*
X0005272Y0012446D01*
X0005298Y0012602D01*
X0005328Y0012758D01*
X0005361Y0012913D01*
X0005399Y0013066D01*
X0005440Y0013219D01*
X0005485Y0013371D01*
X0005534Y0013522D01*
X0005587Y0013671D01*
X0005643Y0013819D01*
X0005703Y0013965D01*
X0005767Y0014110D01*
X0005835Y0014253D01*
X0005906Y0014395D01*
X0005980Y0014535D01*
X0006058Y0014672D01*
X0006140Y0014808D01*
X0006224Y0014942D01*
X0006313Y0015073D01*
X0006404Y0015202D01*
X0006499Y0015329D01*
X0006596Y0015454D01*
X0006697Y0015576D01*
X0006801Y0015695D01*
X0006908Y0015812D01*
X0007018Y0015926D01*
X0007131Y0016037D01*
X0007246Y0016146D01*
X0007364Y0016251D01*
X0007485Y0016353D01*
X0007608Y0016453D01*
X0007734Y0016549D01*
X0007862Y0016642D01*
X0007992Y0016732D01*
X0008125Y0016818D01*
X0008260Y0016902D01*
X0008396Y0016981D01*
X0008535Y0017058D01*
X0008676Y0017130D01*
X0008818Y0017200D01*
X0008962Y0017265D01*
X0009108Y0017327D01*
X0009255Y0017385D01*
X0009404Y0017440D01*
X0009554Y0017491D01*
X0009705Y0017538D01*
X0009857Y0017581D01*
X0010010Y0017620D01*
X0010165Y0017656D01*
X0010320Y0017687D01*
X0010476Y0017715D01*
X0010632Y0017739D01*
X0010789Y0017759D01*
X0010947Y0017775D01*
X0011104Y0017787D01*
X0011263Y0017795D01*
X0011421Y0017799D01*
X0011579Y0017799D01*
X0011737Y0017795D01*
X0011896Y0017787D01*
X0012053Y0017775D01*
X0012211Y0017759D01*
X0012368Y0017739D01*
X0012524Y0017715D01*
X0012680Y0017687D01*
X0012835Y0017656D01*
X0012990Y0017620D01*
X0013143Y0017581D01*
X0013295Y0017538D01*
X0013446Y0017491D01*
X0013596Y0017440D01*
X0013745Y0017385D01*
X0013892Y0017327D01*
X0014038Y0017265D01*
X0014182Y0017200D01*
X0014324Y0017130D01*
X0014465Y0017058D01*
X0014604Y0016981D01*
X0014740Y0016902D01*
X0014875Y0016818D01*
X0015008Y0016732D01*
X0015138Y0016642D01*
X0015266Y0016549D01*
X0015392Y0016453D01*
X0015515Y0016353D01*
X0015636Y0016251D01*
X0015754Y0016146D01*
X0015869Y0016037D01*
X0015982Y0015926D01*
X0016092Y0015812D01*
X0016199Y0015695D01*
X0016303Y0015576D01*
X0016404Y0015454D01*
X0016501Y0015329D01*
X0016596Y0015202D01*
X0016687Y0015073D01*
X0016776Y0014942D01*
X0016860Y0014808D01*
X0016942Y0014672D01*
X0017020Y0014535D01*
X0017094Y0014395D01*
X0017165Y0014253D01*
X0017233Y0014110D01*
X0017297Y0013965D01*
X0017357Y0013819D01*
X0017413Y0013671D01*
X0017466Y0013522D01*
X0017515Y0013371D01*
X0017560Y0013219D01*
X0017601Y0013066D01*
X0017639Y0012913D01*
X0017672Y0012758D01*
X0017702Y0012602D01*
X0017728Y0012446D01*
X0017749Y0012289D01*
X0017767Y0012132D01*
X0017781Y0011974D01*
X0017791Y0011816D01*
X0017797Y0011658D01*
X0017799Y0011500D01*
X0017797Y0011342D01*
X0017791Y0011184D01*
X0017781Y0011026D01*
X0017767Y0010868D01*
X0017749Y0010711D01*
X0017728Y0010554D01*
X0017702Y0010398D01*
X0017672Y0010242D01*
X0017639Y0010087D01*
X0017601Y0009934D01*
X0017560Y0009781D01*
X0017515Y0009629D01*
X0017466Y0009478D01*
X0017413Y0009329D01*
X0017357Y0009181D01*
X0017297Y0009035D01*
X0017233Y0008890D01*
X0017165Y0008747D01*
X0017094Y0008605D01*
X0017020Y0008465D01*
X0016942Y0008328D01*
X0016860Y0008192D01*
X0016776Y0008058D01*
X0016687Y0007927D01*
X0016596Y0007798D01*
X0016501Y0007671D01*
X0016404Y0007546D01*
X0016303Y0007424D01*
X0016199Y0007305D01*
X0016092Y0007188D01*
X0015982Y0007074D01*
X0015869Y0006963D01*
X0015754Y0006854D01*
X0015636Y0006749D01*
X0015515Y0006647D01*
X0015392Y0006547D01*
X0015266Y0006451D01*
X0015138Y0006358D01*
X0015008Y0006268D01*
X0014875Y0006182D01*
X0014740Y0006098D01*
X0014604Y0006019D01*
X0014465Y0005942D01*
X0014324Y0005870D01*
X0014182Y0005800D01*
X0014038Y0005735D01*
X0013892Y0005673D01*
X0013745Y0005615D01*
X0013596Y0005560D01*
X0013446Y0005509D01*
X0013295Y0005462D01*
X0013143Y0005419D01*
X0012990Y0005380D01*
X0012835Y0005344D01*
X0012680Y0005313D01*
X0012524Y0005285D01*
X0012368Y0005261D01*
X0012211Y0005241D01*
X0012053Y0005225D01*
X0011896Y0005213D01*
X0011737Y0005205D01*
X0011579Y0005201D01*
X0011421Y0005201D01*
X0011263Y0005205D01*
X0011104Y0005213D01*
X0010947Y0005225D01*
X0010789Y0005241D01*
X0010632Y0005261D01*
X0010476Y0005285D01*
X0010320Y0005313D01*
X0010165Y0005344D01*
X0010010Y0005380D01*
X0009857Y0005419D01*
X0009705Y0005462D01*
X0009554Y0005509D01*
X0009404Y0005560D01*
X0009255Y0005615D01*
X0009108Y0005673D01*
X0008962Y0005735D01*
X0008818Y0005800D01*
X0008676Y0005870D01*
X0008535Y0005942D01*
X0008396Y0006019D01*
X0008260Y0006098D01*
X0008125Y0006182D01*
X0007992Y0006268D01*
X0007862Y0006358D01*
X0007734Y0006451D01*
X0007608Y0006547D01*
X0007485Y0006647D01*
X0007364Y0006749D01*
X0007246Y0006854D01*
X0007131Y0006963D01*
X0007018Y0007074D01*
X0006908Y0007188D01*
X0006801Y0007305D01*
X0006697Y0007424D01*
X0006596Y0007546D01*
X0006499Y0007671D01*
X0006404Y0007798D01*
X0006313Y0007927D01*
X0006224Y0008058D01*
X0006140Y0008192D01*
X0006058Y0008328D01*
X0005980Y0008465D01*
X0005906Y0008605D01*
X0005835Y0008747D01*
X0005767Y0008890D01*
X0005703Y0009035D01*
X0005643Y0009181D01*
X0005587Y0009329D01*
X0005534Y0009478D01*
X0005485Y0009629D01*
X0005440Y0009781D01*
X0005399Y0009934D01*
X0005361Y0010087D01*
X0005328Y0010242D01*
X0005298Y0010398D01*
X0005272Y0010554D01*
X0005251Y0010711D01*
X0005233Y0010868D01*
X0005219Y0011026D01*
X0005209Y0011184D01*
X0005203Y0011342D01*
X0005201Y0011500D01*
X0121185Y0011500D02*
X0121187Y0011658D01*
X0121193Y0011816D01*
X0121203Y0011974D01*
X0121217Y0012132D01*
X0121235Y0012289D01*
X0121256Y0012446D01*
X0121282Y0012602D01*
X0121312Y0012758D01*
X0121345Y0012913D01*
X0121383Y0013066D01*
X0121424Y0013219D01*
X0121469Y0013371D01*
X0121518Y0013522D01*
X0121571Y0013671D01*
X0121627Y0013819D01*
X0121687Y0013965D01*
X0121751Y0014110D01*
X0121819Y0014253D01*
X0121890Y0014395D01*
X0121964Y0014535D01*
X0122042Y0014672D01*
X0122124Y0014808D01*
X0122208Y0014942D01*
X0122297Y0015073D01*
X0122388Y0015202D01*
X0122483Y0015329D01*
X0122580Y0015454D01*
X0122681Y0015576D01*
X0122785Y0015695D01*
X0122892Y0015812D01*
X0123002Y0015926D01*
X0123115Y0016037D01*
X0123230Y0016146D01*
X0123348Y0016251D01*
X0123469Y0016353D01*
X0123592Y0016453D01*
X0123718Y0016549D01*
X0123846Y0016642D01*
X0123976Y0016732D01*
X0124109Y0016818D01*
X0124244Y0016902D01*
X0124380Y0016981D01*
X0124519Y0017058D01*
X0124660Y0017130D01*
X0124802Y0017200D01*
X0124946Y0017265D01*
X0125092Y0017327D01*
X0125239Y0017385D01*
X0125388Y0017440D01*
X0125538Y0017491D01*
X0125689Y0017538D01*
X0125841Y0017581D01*
X0125994Y0017620D01*
X0126149Y0017656D01*
X0126304Y0017687D01*
X0126460Y0017715D01*
X0126616Y0017739D01*
X0126773Y0017759D01*
X0126931Y0017775D01*
X0127088Y0017787D01*
X0127247Y0017795D01*
X0127405Y0017799D01*
X0127563Y0017799D01*
X0127721Y0017795D01*
X0127880Y0017787D01*
X0128037Y0017775D01*
X0128195Y0017759D01*
X0128352Y0017739D01*
X0128508Y0017715D01*
X0128664Y0017687D01*
X0128819Y0017656D01*
X0128974Y0017620D01*
X0129127Y0017581D01*
X0129279Y0017538D01*
X0129430Y0017491D01*
X0129580Y0017440D01*
X0129729Y0017385D01*
X0129876Y0017327D01*
X0130022Y0017265D01*
X0130166Y0017200D01*
X0130308Y0017130D01*
X0130449Y0017058D01*
X0130588Y0016981D01*
X0130724Y0016902D01*
X0130859Y0016818D01*
X0130992Y0016732D01*
X0131122Y0016642D01*
X0131250Y0016549D01*
X0131376Y0016453D01*
X0131499Y0016353D01*
X0131620Y0016251D01*
X0131738Y0016146D01*
X0131853Y0016037D01*
X0131966Y0015926D01*
X0132076Y0015812D01*
X0132183Y0015695D01*
X0132287Y0015576D01*
X0132388Y0015454D01*
X0132485Y0015329D01*
X0132580Y0015202D01*
X0132671Y0015073D01*
X0132760Y0014942D01*
X0132844Y0014808D01*
X0132926Y0014672D01*
X0133004Y0014535D01*
X0133078Y0014395D01*
X0133149Y0014253D01*
X0133217Y0014110D01*
X0133281Y0013965D01*
X0133341Y0013819D01*
X0133397Y0013671D01*
X0133450Y0013522D01*
X0133499Y0013371D01*
X0133544Y0013219D01*
X0133585Y0013066D01*
X0133623Y0012913D01*
X0133656Y0012758D01*
X0133686Y0012602D01*
X0133712Y0012446D01*
X0133733Y0012289D01*
X0133751Y0012132D01*
X0133765Y0011974D01*
X0133775Y0011816D01*
X0133781Y0011658D01*
X0133783Y0011500D01*
X0133781Y0011342D01*
X0133775Y0011184D01*
X0133765Y0011026D01*
X0133751Y0010868D01*
X0133733Y0010711D01*
X0133712Y0010554D01*
X0133686Y0010398D01*
X0133656Y0010242D01*
X0133623Y0010087D01*
X0133585Y0009934D01*
X0133544Y0009781D01*
X0133499Y0009629D01*
X0133450Y0009478D01*
X0133397Y0009329D01*
X0133341Y0009181D01*
X0133281Y0009035D01*
X0133217Y0008890D01*
X0133149Y0008747D01*
X0133078Y0008605D01*
X0133004Y0008465D01*
X0132926Y0008328D01*
X0132844Y0008192D01*
X0132760Y0008058D01*
X0132671Y0007927D01*
X0132580Y0007798D01*
X0132485Y0007671D01*
X0132388Y0007546D01*
X0132287Y0007424D01*
X0132183Y0007305D01*
X0132076Y0007188D01*
X0131966Y0007074D01*
X0131853Y0006963D01*
X0131738Y0006854D01*
X0131620Y0006749D01*
X0131499Y0006647D01*
X0131376Y0006547D01*
X0131250Y0006451D01*
X0131122Y0006358D01*
X0130992Y0006268D01*
X0130859Y0006182D01*
X0130724Y0006098D01*
X0130588Y0006019D01*
X0130449Y0005942D01*
X0130308Y0005870D01*
X0130166Y0005800D01*
X0130022Y0005735D01*
X0129876Y0005673D01*
X0129729Y0005615D01*
X0129580Y0005560D01*
X0129430Y0005509D01*
X0129279Y0005462D01*
X0129127Y0005419D01*
X0128974Y0005380D01*
X0128819Y0005344D01*
X0128664Y0005313D01*
X0128508Y0005285D01*
X0128352Y0005261D01*
X0128195Y0005241D01*
X0128037Y0005225D01*
X0127880Y0005213D01*
X0127721Y0005205D01*
X0127563Y0005201D01*
X0127405Y0005201D01*
X0127247Y0005205D01*
X0127088Y0005213D01*
X0126931Y0005225D01*
X0126773Y0005241D01*
X0126616Y0005261D01*
X0126460Y0005285D01*
X0126304Y0005313D01*
X0126149Y0005344D01*
X0125994Y0005380D01*
X0125841Y0005419D01*
X0125689Y0005462D01*
X0125538Y0005509D01*
X0125388Y0005560D01*
X0125239Y0005615D01*
X0125092Y0005673D01*
X0124946Y0005735D01*
X0124802Y0005800D01*
X0124660Y0005870D01*
X0124519Y0005942D01*
X0124380Y0006019D01*
X0124244Y0006098D01*
X0124109Y0006182D01*
X0123976Y0006268D01*
X0123846Y0006358D01*
X0123718Y0006451D01*
X0123592Y0006547D01*
X0123469Y0006647D01*
X0123348Y0006749D01*
X0123230Y0006854D01*
X0123115Y0006963D01*
X0123002Y0007074D01*
X0122892Y0007188D01*
X0122785Y0007305D01*
X0122681Y0007424D01*
X0122580Y0007546D01*
X0122483Y0007671D01*
X0122388Y0007798D01*
X0122297Y0007927D01*
X0122208Y0008058D01*
X0122124Y0008192D01*
X0122042Y0008328D01*
X0121964Y0008465D01*
X0121890Y0008605D01*
X0121819Y0008747D01*
X0121751Y0008890D01*
X0121687Y0009035D01*
X0121627Y0009181D01*
X0121571Y0009329D01*
X0121518Y0009478D01*
X0121469Y0009629D01*
X0121424Y0009781D01*
X0121383Y0009934D01*
X0121345Y0010087D01*
X0121312Y0010242D01*
X0121282Y0010398D01*
X0121256Y0010554D01*
X0121235Y0010711D01*
X0121217Y0010868D01*
X0121203Y0011026D01*
X0121193Y0011184D01*
X0121187Y0011342D01*
X0121185Y0011500D01*
X0378981Y0114177D02*
X0378983Y0114335D01*
X0378989Y0114493D01*
X0378999Y0114651D01*
X0379013Y0114809D01*
X0379031Y0114966D01*
X0379052Y0115123D01*
X0379078Y0115279D01*
X0379108Y0115435D01*
X0379141Y0115590D01*
X0379179Y0115743D01*
X0379220Y0115896D01*
X0379265Y0116048D01*
X0379314Y0116199D01*
X0379367Y0116348D01*
X0379423Y0116496D01*
X0379483Y0116642D01*
X0379547Y0116787D01*
X0379615Y0116930D01*
X0379686Y0117072D01*
X0379760Y0117212D01*
X0379838Y0117349D01*
X0379920Y0117485D01*
X0380004Y0117619D01*
X0380093Y0117750D01*
X0380184Y0117879D01*
X0380279Y0118006D01*
X0380376Y0118131D01*
X0380477Y0118253D01*
X0380581Y0118372D01*
X0380688Y0118489D01*
X0380798Y0118603D01*
X0380911Y0118714D01*
X0381026Y0118823D01*
X0381144Y0118928D01*
X0381265Y0119030D01*
X0381388Y0119130D01*
X0381514Y0119226D01*
X0381642Y0119319D01*
X0381772Y0119409D01*
X0381905Y0119495D01*
X0382040Y0119579D01*
X0382176Y0119658D01*
X0382315Y0119735D01*
X0382456Y0119807D01*
X0382598Y0119877D01*
X0382742Y0119942D01*
X0382888Y0120004D01*
X0383035Y0120062D01*
X0383184Y0120117D01*
X0383334Y0120168D01*
X0383485Y0120215D01*
X0383637Y0120258D01*
X0383790Y0120297D01*
X0383945Y0120333D01*
X0384100Y0120364D01*
X0384256Y0120392D01*
X0384412Y0120416D01*
X0384569Y0120436D01*
X0384727Y0120452D01*
X0384884Y0120464D01*
X0385043Y0120472D01*
X0385201Y0120476D01*
X0385359Y0120476D01*
X0385517Y0120472D01*
X0385676Y0120464D01*
X0385833Y0120452D01*
X0385991Y0120436D01*
X0386148Y0120416D01*
X0386304Y0120392D01*
X0386460Y0120364D01*
X0386615Y0120333D01*
X0386770Y0120297D01*
X0386923Y0120258D01*
X0387075Y0120215D01*
X0387226Y0120168D01*
X0387376Y0120117D01*
X0387525Y0120062D01*
X0387672Y0120004D01*
X0387818Y0119942D01*
X0387962Y0119877D01*
X0388104Y0119807D01*
X0388245Y0119735D01*
X0388384Y0119658D01*
X0388520Y0119579D01*
X0388655Y0119495D01*
X0388788Y0119409D01*
X0388918Y0119319D01*
X0389046Y0119226D01*
X0389172Y0119130D01*
X0389295Y0119030D01*
X0389416Y0118928D01*
X0389534Y0118823D01*
X0389649Y0118714D01*
X0389762Y0118603D01*
X0389872Y0118489D01*
X0389979Y0118372D01*
X0390083Y0118253D01*
X0390184Y0118131D01*
X0390281Y0118006D01*
X0390376Y0117879D01*
X0390467Y0117750D01*
X0390556Y0117619D01*
X0390640Y0117485D01*
X0390722Y0117349D01*
X0390800Y0117212D01*
X0390874Y0117072D01*
X0390945Y0116930D01*
X0391013Y0116787D01*
X0391077Y0116642D01*
X0391137Y0116496D01*
X0391193Y0116348D01*
X0391246Y0116199D01*
X0391295Y0116048D01*
X0391340Y0115896D01*
X0391381Y0115743D01*
X0391419Y0115590D01*
X0391452Y0115435D01*
X0391482Y0115279D01*
X0391508Y0115123D01*
X0391529Y0114966D01*
X0391547Y0114809D01*
X0391561Y0114651D01*
X0391571Y0114493D01*
X0391577Y0114335D01*
X0391579Y0114177D01*
X0391577Y0114019D01*
X0391571Y0113861D01*
X0391561Y0113703D01*
X0391547Y0113545D01*
X0391529Y0113388D01*
X0391508Y0113231D01*
X0391482Y0113075D01*
X0391452Y0112919D01*
X0391419Y0112764D01*
X0391381Y0112611D01*
X0391340Y0112458D01*
X0391295Y0112306D01*
X0391246Y0112155D01*
X0391193Y0112006D01*
X0391137Y0111858D01*
X0391077Y0111712D01*
X0391013Y0111567D01*
X0390945Y0111424D01*
X0390874Y0111282D01*
X0390800Y0111142D01*
X0390722Y0111005D01*
X0390640Y0110869D01*
X0390556Y0110735D01*
X0390467Y0110604D01*
X0390376Y0110475D01*
X0390281Y0110348D01*
X0390184Y0110223D01*
X0390083Y0110101D01*
X0389979Y0109982D01*
X0389872Y0109865D01*
X0389762Y0109751D01*
X0389649Y0109640D01*
X0389534Y0109531D01*
X0389416Y0109426D01*
X0389295Y0109324D01*
X0389172Y0109224D01*
X0389046Y0109128D01*
X0388918Y0109035D01*
X0388788Y0108945D01*
X0388655Y0108859D01*
X0388520Y0108775D01*
X0388384Y0108696D01*
X0388245Y0108619D01*
X0388104Y0108547D01*
X0387962Y0108477D01*
X0387818Y0108412D01*
X0387672Y0108350D01*
X0387525Y0108292D01*
X0387376Y0108237D01*
X0387226Y0108186D01*
X0387075Y0108139D01*
X0386923Y0108096D01*
X0386770Y0108057D01*
X0386615Y0108021D01*
X0386460Y0107990D01*
X0386304Y0107962D01*
X0386148Y0107938D01*
X0385991Y0107918D01*
X0385833Y0107902D01*
X0385676Y0107890D01*
X0385517Y0107882D01*
X0385359Y0107878D01*
X0385201Y0107878D01*
X0385043Y0107882D01*
X0384884Y0107890D01*
X0384727Y0107902D01*
X0384569Y0107918D01*
X0384412Y0107938D01*
X0384256Y0107962D01*
X0384100Y0107990D01*
X0383945Y0108021D01*
X0383790Y0108057D01*
X0383637Y0108096D01*
X0383485Y0108139D01*
X0383334Y0108186D01*
X0383184Y0108237D01*
X0383035Y0108292D01*
X0382888Y0108350D01*
X0382742Y0108412D01*
X0382598Y0108477D01*
X0382456Y0108547D01*
X0382315Y0108619D01*
X0382176Y0108696D01*
X0382040Y0108775D01*
X0381905Y0108859D01*
X0381772Y0108945D01*
X0381642Y0109035D01*
X0381514Y0109128D01*
X0381388Y0109224D01*
X0381265Y0109324D01*
X0381144Y0109426D01*
X0381026Y0109531D01*
X0380911Y0109640D01*
X0380798Y0109751D01*
X0380688Y0109865D01*
X0380581Y0109982D01*
X0380477Y0110101D01*
X0380376Y0110223D01*
X0380279Y0110348D01*
X0380184Y0110475D01*
X0380093Y0110604D01*
X0380004Y0110735D01*
X0379920Y0110869D01*
X0379838Y0111005D01*
X0379760Y0111142D01*
X0379686Y0111282D01*
X0379615Y0111424D01*
X0379547Y0111567D01*
X0379483Y0111712D01*
X0379423Y0111858D01*
X0379367Y0112006D01*
X0379314Y0112155D01*
X0379265Y0112306D01*
X0379220Y0112458D01*
X0379179Y0112611D01*
X0379141Y0112764D01*
X0379108Y0112919D01*
X0379078Y0113075D01*
X0379052Y0113231D01*
X0379031Y0113388D01*
X0379013Y0113545D01*
X0378999Y0113703D01*
X0378989Y0113861D01*
X0378983Y0114019D01*
X0378981Y0114177D01*
X0378981Y0224177D02*
X0378983Y0224335D01*
X0378989Y0224493D01*
X0378999Y0224651D01*
X0379013Y0224809D01*
X0379031Y0224966D01*
X0379052Y0225123D01*
X0379078Y0225279D01*
X0379108Y0225435D01*
X0379141Y0225590D01*
X0379179Y0225743D01*
X0379220Y0225896D01*
X0379265Y0226048D01*
X0379314Y0226199D01*
X0379367Y0226348D01*
X0379423Y0226496D01*
X0379483Y0226642D01*
X0379547Y0226787D01*
X0379615Y0226930D01*
X0379686Y0227072D01*
X0379760Y0227212D01*
X0379838Y0227349D01*
X0379920Y0227485D01*
X0380004Y0227619D01*
X0380093Y0227750D01*
X0380184Y0227879D01*
X0380279Y0228006D01*
X0380376Y0228131D01*
X0380477Y0228253D01*
X0380581Y0228372D01*
X0380688Y0228489D01*
X0380798Y0228603D01*
X0380911Y0228714D01*
X0381026Y0228823D01*
X0381144Y0228928D01*
X0381265Y0229030D01*
X0381388Y0229130D01*
X0381514Y0229226D01*
X0381642Y0229319D01*
X0381772Y0229409D01*
X0381905Y0229495D01*
X0382040Y0229579D01*
X0382176Y0229658D01*
X0382315Y0229735D01*
X0382456Y0229807D01*
X0382598Y0229877D01*
X0382742Y0229942D01*
X0382888Y0230004D01*
X0383035Y0230062D01*
X0383184Y0230117D01*
X0383334Y0230168D01*
X0383485Y0230215D01*
X0383637Y0230258D01*
X0383790Y0230297D01*
X0383945Y0230333D01*
X0384100Y0230364D01*
X0384256Y0230392D01*
X0384412Y0230416D01*
X0384569Y0230436D01*
X0384727Y0230452D01*
X0384884Y0230464D01*
X0385043Y0230472D01*
X0385201Y0230476D01*
X0385359Y0230476D01*
X0385517Y0230472D01*
X0385676Y0230464D01*
X0385833Y0230452D01*
X0385991Y0230436D01*
X0386148Y0230416D01*
X0386304Y0230392D01*
X0386460Y0230364D01*
X0386615Y0230333D01*
X0386770Y0230297D01*
X0386923Y0230258D01*
X0387075Y0230215D01*
X0387226Y0230168D01*
X0387376Y0230117D01*
X0387525Y0230062D01*
X0387672Y0230004D01*
X0387818Y0229942D01*
X0387962Y0229877D01*
X0388104Y0229807D01*
X0388245Y0229735D01*
X0388384Y0229658D01*
X0388520Y0229579D01*
X0388655Y0229495D01*
X0388788Y0229409D01*
X0388918Y0229319D01*
X0389046Y0229226D01*
X0389172Y0229130D01*
X0389295Y0229030D01*
X0389416Y0228928D01*
X0389534Y0228823D01*
X0389649Y0228714D01*
X0389762Y0228603D01*
X0389872Y0228489D01*
X0389979Y0228372D01*
X0390083Y0228253D01*
X0390184Y0228131D01*
X0390281Y0228006D01*
X0390376Y0227879D01*
X0390467Y0227750D01*
X0390556Y0227619D01*
X0390640Y0227485D01*
X0390722Y0227349D01*
X0390800Y0227212D01*
X0390874Y0227072D01*
X0390945Y0226930D01*
X0391013Y0226787D01*
X0391077Y0226642D01*
X0391137Y0226496D01*
X0391193Y0226348D01*
X0391246Y0226199D01*
X0391295Y0226048D01*
X0391340Y0225896D01*
X0391381Y0225743D01*
X0391419Y0225590D01*
X0391452Y0225435D01*
X0391482Y0225279D01*
X0391508Y0225123D01*
X0391529Y0224966D01*
X0391547Y0224809D01*
X0391561Y0224651D01*
X0391571Y0224493D01*
X0391577Y0224335D01*
X0391579Y0224177D01*
X0391577Y0224019D01*
X0391571Y0223861D01*
X0391561Y0223703D01*
X0391547Y0223545D01*
X0391529Y0223388D01*
X0391508Y0223231D01*
X0391482Y0223075D01*
X0391452Y0222919D01*
X0391419Y0222764D01*
X0391381Y0222611D01*
X0391340Y0222458D01*
X0391295Y0222306D01*
X0391246Y0222155D01*
X0391193Y0222006D01*
X0391137Y0221858D01*
X0391077Y0221712D01*
X0391013Y0221567D01*
X0390945Y0221424D01*
X0390874Y0221282D01*
X0390800Y0221142D01*
X0390722Y0221005D01*
X0390640Y0220869D01*
X0390556Y0220735D01*
X0390467Y0220604D01*
X0390376Y0220475D01*
X0390281Y0220348D01*
X0390184Y0220223D01*
X0390083Y0220101D01*
X0389979Y0219982D01*
X0389872Y0219865D01*
X0389762Y0219751D01*
X0389649Y0219640D01*
X0389534Y0219531D01*
X0389416Y0219426D01*
X0389295Y0219324D01*
X0389172Y0219224D01*
X0389046Y0219128D01*
X0388918Y0219035D01*
X0388788Y0218945D01*
X0388655Y0218859D01*
X0388520Y0218775D01*
X0388384Y0218696D01*
X0388245Y0218619D01*
X0388104Y0218547D01*
X0387962Y0218477D01*
X0387818Y0218412D01*
X0387672Y0218350D01*
X0387525Y0218292D01*
X0387376Y0218237D01*
X0387226Y0218186D01*
X0387075Y0218139D01*
X0386923Y0218096D01*
X0386770Y0218057D01*
X0386615Y0218021D01*
X0386460Y0217990D01*
X0386304Y0217962D01*
X0386148Y0217938D01*
X0385991Y0217918D01*
X0385833Y0217902D01*
X0385676Y0217890D01*
X0385517Y0217882D01*
X0385359Y0217878D01*
X0385201Y0217878D01*
X0385043Y0217882D01*
X0384884Y0217890D01*
X0384727Y0217902D01*
X0384569Y0217918D01*
X0384412Y0217938D01*
X0384256Y0217962D01*
X0384100Y0217990D01*
X0383945Y0218021D01*
X0383790Y0218057D01*
X0383637Y0218096D01*
X0383485Y0218139D01*
X0383334Y0218186D01*
X0383184Y0218237D01*
X0383035Y0218292D01*
X0382888Y0218350D01*
X0382742Y0218412D01*
X0382598Y0218477D01*
X0382456Y0218547D01*
X0382315Y0218619D01*
X0382176Y0218696D01*
X0382040Y0218775D01*
X0381905Y0218859D01*
X0381772Y0218945D01*
X0381642Y0219035D01*
X0381514Y0219128D01*
X0381388Y0219224D01*
X0381265Y0219324D01*
X0381144Y0219426D01*
X0381026Y0219531D01*
X0380911Y0219640D01*
X0380798Y0219751D01*
X0380688Y0219865D01*
X0380581Y0219982D01*
X0380477Y0220101D01*
X0380376Y0220223D01*
X0380279Y0220348D01*
X0380184Y0220475D01*
X0380093Y0220604D01*
X0380004Y0220735D01*
X0379920Y0220869D01*
X0379838Y0221005D01*
X0379760Y0221142D01*
X0379686Y0221282D01*
X0379615Y0221424D01*
X0379547Y0221567D01*
X0379483Y0221712D01*
X0379423Y0221858D01*
X0379367Y0222006D01*
X0379314Y0222155D01*
X0379265Y0222306D01*
X0379220Y0222458D01*
X0379179Y0222611D01*
X0379141Y0222764D01*
X0379108Y0222919D01*
X0379078Y0223075D01*
X0379052Y0223231D01*
X0379031Y0223388D01*
X0379013Y0223545D01*
X0378999Y0223703D01*
X0378989Y0223861D01*
X0378983Y0224019D01*
X0378981Y0224177D01*
X0121185Y0365516D02*
X0121187Y0365674D01*
X0121193Y0365832D01*
X0121203Y0365990D01*
X0121217Y0366148D01*
X0121235Y0366305D01*
X0121256Y0366462D01*
X0121282Y0366618D01*
X0121312Y0366774D01*
X0121345Y0366929D01*
X0121383Y0367082D01*
X0121424Y0367235D01*
X0121469Y0367387D01*
X0121518Y0367538D01*
X0121571Y0367687D01*
X0121627Y0367835D01*
X0121687Y0367981D01*
X0121751Y0368126D01*
X0121819Y0368269D01*
X0121890Y0368411D01*
X0121964Y0368551D01*
X0122042Y0368688D01*
X0122124Y0368824D01*
X0122208Y0368958D01*
X0122297Y0369089D01*
X0122388Y0369218D01*
X0122483Y0369345D01*
X0122580Y0369470D01*
X0122681Y0369592D01*
X0122785Y0369711D01*
X0122892Y0369828D01*
X0123002Y0369942D01*
X0123115Y0370053D01*
X0123230Y0370162D01*
X0123348Y0370267D01*
X0123469Y0370369D01*
X0123592Y0370469D01*
X0123718Y0370565D01*
X0123846Y0370658D01*
X0123976Y0370748D01*
X0124109Y0370834D01*
X0124244Y0370918D01*
X0124380Y0370997D01*
X0124519Y0371074D01*
X0124660Y0371146D01*
X0124802Y0371216D01*
X0124946Y0371281D01*
X0125092Y0371343D01*
X0125239Y0371401D01*
X0125388Y0371456D01*
X0125538Y0371507D01*
X0125689Y0371554D01*
X0125841Y0371597D01*
X0125994Y0371636D01*
X0126149Y0371672D01*
X0126304Y0371703D01*
X0126460Y0371731D01*
X0126616Y0371755D01*
X0126773Y0371775D01*
X0126931Y0371791D01*
X0127088Y0371803D01*
X0127247Y0371811D01*
X0127405Y0371815D01*
X0127563Y0371815D01*
X0127721Y0371811D01*
X0127880Y0371803D01*
X0128037Y0371791D01*
X0128195Y0371775D01*
X0128352Y0371755D01*
X0128508Y0371731D01*
X0128664Y0371703D01*
X0128819Y0371672D01*
X0128974Y0371636D01*
X0129127Y0371597D01*
X0129279Y0371554D01*
X0129430Y0371507D01*
X0129580Y0371456D01*
X0129729Y0371401D01*
X0129876Y0371343D01*
X0130022Y0371281D01*
X0130166Y0371216D01*
X0130308Y0371146D01*
X0130449Y0371074D01*
X0130588Y0370997D01*
X0130724Y0370918D01*
X0130859Y0370834D01*
X0130992Y0370748D01*
X0131122Y0370658D01*
X0131250Y0370565D01*
X0131376Y0370469D01*
X0131499Y0370369D01*
X0131620Y0370267D01*
X0131738Y0370162D01*
X0131853Y0370053D01*
X0131966Y0369942D01*
X0132076Y0369828D01*
X0132183Y0369711D01*
X0132287Y0369592D01*
X0132388Y0369470D01*
X0132485Y0369345D01*
X0132580Y0369218D01*
X0132671Y0369089D01*
X0132760Y0368958D01*
X0132844Y0368824D01*
X0132926Y0368688D01*
X0133004Y0368551D01*
X0133078Y0368411D01*
X0133149Y0368269D01*
X0133217Y0368126D01*
X0133281Y0367981D01*
X0133341Y0367835D01*
X0133397Y0367687D01*
X0133450Y0367538D01*
X0133499Y0367387D01*
X0133544Y0367235D01*
X0133585Y0367082D01*
X0133623Y0366929D01*
X0133656Y0366774D01*
X0133686Y0366618D01*
X0133712Y0366462D01*
X0133733Y0366305D01*
X0133751Y0366148D01*
X0133765Y0365990D01*
X0133775Y0365832D01*
X0133781Y0365674D01*
X0133783Y0365516D01*
X0133781Y0365358D01*
X0133775Y0365200D01*
X0133765Y0365042D01*
X0133751Y0364884D01*
X0133733Y0364727D01*
X0133712Y0364570D01*
X0133686Y0364414D01*
X0133656Y0364258D01*
X0133623Y0364103D01*
X0133585Y0363950D01*
X0133544Y0363797D01*
X0133499Y0363645D01*
X0133450Y0363494D01*
X0133397Y0363345D01*
X0133341Y0363197D01*
X0133281Y0363051D01*
X0133217Y0362906D01*
X0133149Y0362763D01*
X0133078Y0362621D01*
X0133004Y0362481D01*
X0132926Y0362344D01*
X0132844Y0362208D01*
X0132760Y0362074D01*
X0132671Y0361943D01*
X0132580Y0361814D01*
X0132485Y0361687D01*
X0132388Y0361562D01*
X0132287Y0361440D01*
X0132183Y0361321D01*
X0132076Y0361204D01*
X0131966Y0361090D01*
X0131853Y0360979D01*
X0131738Y0360870D01*
X0131620Y0360765D01*
X0131499Y0360663D01*
X0131376Y0360563D01*
X0131250Y0360467D01*
X0131122Y0360374D01*
X0130992Y0360284D01*
X0130859Y0360198D01*
X0130724Y0360114D01*
X0130588Y0360035D01*
X0130449Y0359958D01*
X0130308Y0359886D01*
X0130166Y0359816D01*
X0130022Y0359751D01*
X0129876Y0359689D01*
X0129729Y0359631D01*
X0129580Y0359576D01*
X0129430Y0359525D01*
X0129279Y0359478D01*
X0129127Y0359435D01*
X0128974Y0359396D01*
X0128819Y0359360D01*
X0128664Y0359329D01*
X0128508Y0359301D01*
X0128352Y0359277D01*
X0128195Y0359257D01*
X0128037Y0359241D01*
X0127880Y0359229D01*
X0127721Y0359221D01*
X0127563Y0359217D01*
X0127405Y0359217D01*
X0127247Y0359221D01*
X0127088Y0359229D01*
X0126931Y0359241D01*
X0126773Y0359257D01*
X0126616Y0359277D01*
X0126460Y0359301D01*
X0126304Y0359329D01*
X0126149Y0359360D01*
X0125994Y0359396D01*
X0125841Y0359435D01*
X0125689Y0359478D01*
X0125538Y0359525D01*
X0125388Y0359576D01*
X0125239Y0359631D01*
X0125092Y0359689D01*
X0124946Y0359751D01*
X0124802Y0359816D01*
X0124660Y0359886D01*
X0124519Y0359958D01*
X0124380Y0360035D01*
X0124244Y0360114D01*
X0124109Y0360198D01*
X0123976Y0360284D01*
X0123846Y0360374D01*
X0123718Y0360467D01*
X0123592Y0360563D01*
X0123469Y0360663D01*
X0123348Y0360765D01*
X0123230Y0360870D01*
X0123115Y0360979D01*
X0123002Y0361090D01*
X0122892Y0361204D01*
X0122785Y0361321D01*
X0122681Y0361440D01*
X0122580Y0361562D01*
X0122483Y0361687D01*
X0122388Y0361814D01*
X0122297Y0361943D01*
X0122208Y0362074D01*
X0122124Y0362208D01*
X0122042Y0362344D01*
X0121964Y0362481D01*
X0121890Y0362621D01*
X0121819Y0362763D01*
X0121751Y0362906D01*
X0121687Y0363051D01*
X0121627Y0363197D01*
X0121571Y0363345D01*
X0121518Y0363494D01*
X0121469Y0363645D01*
X0121424Y0363797D01*
X0121383Y0363950D01*
X0121345Y0364103D01*
X0121312Y0364258D01*
X0121282Y0364414D01*
X0121256Y0364570D01*
X0121235Y0364727D01*
X0121217Y0364884D01*
X0121203Y0365042D01*
X0121193Y0365200D01*
X0121187Y0365358D01*
X0121185Y0365516D01*
D15*
X0119224Y0207614D02*
X0119224Y0185150D01*
X0119224Y0158402D02*
X0119224Y0135937D01*
X0119224Y0109189D02*
X0119224Y0086724D01*
X0119224Y0061945D02*
X0119224Y0039480D01*
X0080626Y0039480D02*
X0080626Y0061945D01*
X0080626Y0086724D02*
X0080626Y0109189D01*
X0080626Y0135937D02*
X0080626Y0158402D01*
X0080626Y0185150D02*
X0080626Y0207614D01*
X0370701Y0206677D02*
X0370701Y0201677D01*
X0373201Y0199177D01*
X0370701Y0196677D01*
X0370701Y0191677D01*
X0373201Y0189177D01*
X0370701Y0186677D01*
X0370701Y0181677D01*
X0373201Y0179177D01*
X0388201Y0179177D01*
X0390701Y0181677D01*
X0390701Y0186677D01*
X0388201Y0189177D01*
X0390701Y0191677D01*
X0390701Y0196677D01*
X0388201Y0199177D01*
X0390701Y0201677D01*
X0390701Y0206677D01*
X0388201Y0209177D01*
X0373201Y0209177D01*
X0370701Y0206677D01*
D16*
X0299075Y0210268D02*
X0299075Y0216567D01*
X0286476Y0216567D02*
X0286476Y0210268D01*
D17*
X0295791Y0202681D02*
X0296185Y0203075D01*
X0313114Y0203075D02*
X0313508Y0202681D01*
X0313508Y0185752D02*
X0313114Y0185358D01*
X0296185Y0185358D02*
X0295791Y0185752D01*
D18*
X0311539Y0201106D03*
D19*
X0262917Y0207996D02*
X0257602Y0202681D01*
X0256421Y0202681D01*
X0248941Y0202681D02*
X0247760Y0202681D01*
X0242445Y0207996D01*
X0242445Y0223154D01*
X0248941Y0223154D01*
X0256421Y0223154D02*
X0262917Y0223154D01*
X0262917Y0207996D01*
X0256028Y0203862D02*
X0256247Y0203946D01*
X0256464Y0204035D01*
X0256679Y0204130D01*
X0256892Y0204230D01*
X0257102Y0204335D01*
X0257309Y0204445D01*
X0257514Y0204560D01*
X0257716Y0204680D01*
X0257915Y0204805D01*
X0258111Y0204935D01*
X0258304Y0205069D01*
X0258493Y0205208D01*
X0258679Y0205352D01*
X0258861Y0205500D01*
X0259040Y0205653D01*
X0259215Y0205810D01*
X0259386Y0205971D01*
X0259553Y0206136D01*
X0259716Y0206305D01*
X0259874Y0206478D01*
X0260029Y0206655D01*
X0260179Y0206836D01*
X0260325Y0207020D01*
X0260466Y0207208D01*
X0260603Y0207399D01*
X0260735Y0207594D01*
X0260862Y0207791D01*
X0260984Y0207992D01*
X0261101Y0208195D01*
X0261214Y0208402D01*
X0261321Y0208611D01*
X0261423Y0208822D01*
X0261521Y0209036D01*
X0261612Y0209252D01*
X0261699Y0209471D01*
X0261780Y0209691D01*
X0261856Y0209913D01*
X0261926Y0210138D01*
X0261991Y0210363D01*
X0262051Y0210591D01*
X0262104Y0210819D01*
X0262153Y0211049D01*
X0262195Y0211280D01*
X0262232Y0211512D01*
X0262264Y0211745D01*
X0262289Y0211979D01*
X0262309Y0212213D01*
X0262324Y0212447D01*
X0262332Y0212682D01*
X0262335Y0212917D01*
X0262332Y0213152D01*
X0262324Y0213387D01*
X0262309Y0213621D01*
X0262289Y0213855D01*
X0262264Y0214089D01*
X0262232Y0214322D01*
X0262195Y0214554D01*
X0262153Y0214785D01*
X0262104Y0215015D01*
X0262051Y0215243D01*
X0261991Y0215471D01*
X0261926Y0215696D01*
X0261856Y0215921D01*
X0261780Y0216143D01*
X0261699Y0216363D01*
X0261612Y0216582D01*
X0261521Y0216798D01*
X0261423Y0217012D01*
X0261321Y0217223D01*
X0261214Y0217432D01*
X0261101Y0217639D01*
X0260984Y0217842D01*
X0260862Y0218043D01*
X0260735Y0218240D01*
X0260603Y0218435D01*
X0260466Y0218626D01*
X0260325Y0218814D01*
X0260179Y0218998D01*
X0260029Y0219179D01*
X0259874Y0219356D01*
X0259716Y0219529D01*
X0259553Y0219698D01*
X0259386Y0219863D01*
X0259215Y0220024D01*
X0259040Y0220181D01*
X0258861Y0220334D01*
X0258679Y0220482D01*
X0258493Y0220626D01*
X0258304Y0220765D01*
X0258111Y0220899D01*
X0257915Y0221029D01*
X0257716Y0221154D01*
X0257514Y0221274D01*
X0257309Y0221389D01*
X0257102Y0221499D01*
X0256892Y0221604D01*
X0256679Y0221704D01*
X0256464Y0221799D01*
X0256247Y0221888D01*
X0256028Y0221972D01*
X0249334Y0221972D02*
X0249115Y0221888D01*
X0248898Y0221799D01*
X0248683Y0221704D01*
X0248470Y0221604D01*
X0248260Y0221499D01*
X0248053Y0221389D01*
X0247848Y0221274D01*
X0247646Y0221154D01*
X0247447Y0221029D01*
X0247251Y0220899D01*
X0247058Y0220765D01*
X0246869Y0220626D01*
X0246683Y0220482D01*
X0246501Y0220334D01*
X0246322Y0220181D01*
X0246147Y0220024D01*
X0245976Y0219863D01*
X0245809Y0219698D01*
X0245646Y0219529D01*
X0245488Y0219356D01*
X0245333Y0219179D01*
X0245183Y0218998D01*
X0245037Y0218814D01*
X0244896Y0218626D01*
X0244759Y0218435D01*
X0244627Y0218240D01*
X0244500Y0218043D01*
X0244378Y0217842D01*
X0244261Y0217639D01*
X0244148Y0217432D01*
X0244041Y0217223D01*
X0243939Y0217012D01*
X0243841Y0216798D01*
X0243750Y0216582D01*
X0243663Y0216363D01*
X0243582Y0216143D01*
X0243506Y0215921D01*
X0243436Y0215696D01*
X0243371Y0215471D01*
X0243311Y0215243D01*
X0243258Y0215015D01*
X0243209Y0214785D01*
X0243167Y0214554D01*
X0243130Y0214322D01*
X0243098Y0214089D01*
X0243073Y0213855D01*
X0243053Y0213621D01*
X0243038Y0213387D01*
X0243030Y0213152D01*
X0243027Y0212917D01*
X0243030Y0212682D01*
X0243038Y0212447D01*
X0243053Y0212213D01*
X0243073Y0211979D01*
X0243098Y0211745D01*
X0243130Y0211512D01*
X0243167Y0211280D01*
X0243209Y0211049D01*
X0243258Y0210819D01*
X0243311Y0210591D01*
X0243371Y0210363D01*
X0243436Y0210138D01*
X0243506Y0209913D01*
X0243582Y0209691D01*
X0243663Y0209471D01*
X0243750Y0209252D01*
X0243841Y0209036D01*
X0243939Y0208822D01*
X0244041Y0208611D01*
X0244148Y0208402D01*
X0244261Y0208195D01*
X0244378Y0207992D01*
X0244500Y0207791D01*
X0244627Y0207594D01*
X0244759Y0207399D01*
X0244896Y0207208D01*
X0245037Y0207020D01*
X0245183Y0206836D01*
X0245333Y0206655D01*
X0245488Y0206478D01*
X0245646Y0206305D01*
X0245809Y0206136D01*
X0245976Y0205971D01*
X0246147Y0205810D01*
X0246322Y0205653D01*
X0246501Y0205500D01*
X0246683Y0205352D01*
X0246869Y0205208D01*
X0247058Y0205069D01*
X0247251Y0204935D01*
X0247447Y0204805D01*
X0247646Y0204680D01*
X0247848Y0204560D01*
X0248053Y0204445D01*
X0248260Y0204335D01*
X0248470Y0204230D01*
X0248683Y0204130D01*
X0248898Y0204035D01*
X0249115Y0203946D01*
X0249334Y0203862D01*
X0186736Y0268823D02*
X0185555Y0268823D01*
X0186736Y0268823D02*
X0192051Y0274138D01*
X0192051Y0289295D01*
X0185555Y0289295D01*
X0178075Y0289295D02*
X0171579Y0289295D01*
X0171579Y0274138D01*
X0176894Y0268823D01*
X0178075Y0268823D01*
X0178468Y0270004D02*
X0178249Y0270088D01*
X0178032Y0270177D01*
X0177817Y0270272D01*
X0177604Y0270372D01*
X0177394Y0270477D01*
X0177187Y0270587D01*
X0176982Y0270702D01*
X0176780Y0270822D01*
X0176581Y0270947D01*
X0176385Y0271077D01*
X0176192Y0271211D01*
X0176003Y0271350D01*
X0175817Y0271494D01*
X0175635Y0271642D01*
X0175456Y0271795D01*
X0175281Y0271952D01*
X0175110Y0272113D01*
X0174943Y0272278D01*
X0174780Y0272447D01*
X0174622Y0272620D01*
X0174467Y0272797D01*
X0174317Y0272978D01*
X0174171Y0273162D01*
X0174030Y0273350D01*
X0173893Y0273541D01*
X0173761Y0273736D01*
X0173634Y0273933D01*
X0173512Y0274134D01*
X0173395Y0274337D01*
X0173282Y0274544D01*
X0173175Y0274753D01*
X0173073Y0274964D01*
X0172975Y0275178D01*
X0172884Y0275394D01*
X0172797Y0275613D01*
X0172716Y0275833D01*
X0172640Y0276055D01*
X0172570Y0276280D01*
X0172505Y0276505D01*
X0172445Y0276733D01*
X0172392Y0276961D01*
X0172343Y0277191D01*
X0172301Y0277422D01*
X0172264Y0277654D01*
X0172232Y0277887D01*
X0172207Y0278121D01*
X0172187Y0278355D01*
X0172172Y0278589D01*
X0172164Y0278824D01*
X0172161Y0279059D01*
X0172164Y0279294D01*
X0172172Y0279529D01*
X0172187Y0279763D01*
X0172207Y0279997D01*
X0172232Y0280231D01*
X0172264Y0280464D01*
X0172301Y0280696D01*
X0172343Y0280927D01*
X0172392Y0281157D01*
X0172445Y0281385D01*
X0172505Y0281613D01*
X0172570Y0281838D01*
X0172640Y0282063D01*
X0172716Y0282285D01*
X0172797Y0282505D01*
X0172884Y0282724D01*
X0172975Y0282940D01*
X0173073Y0283154D01*
X0173175Y0283365D01*
X0173282Y0283574D01*
X0173395Y0283781D01*
X0173512Y0283984D01*
X0173634Y0284185D01*
X0173761Y0284382D01*
X0173893Y0284577D01*
X0174030Y0284768D01*
X0174171Y0284956D01*
X0174317Y0285140D01*
X0174467Y0285321D01*
X0174622Y0285498D01*
X0174780Y0285671D01*
X0174943Y0285840D01*
X0175110Y0286005D01*
X0175281Y0286166D01*
X0175456Y0286323D01*
X0175635Y0286476D01*
X0175817Y0286624D01*
X0176003Y0286768D01*
X0176192Y0286907D01*
X0176385Y0287041D01*
X0176581Y0287171D01*
X0176780Y0287296D01*
X0176982Y0287416D01*
X0177187Y0287531D01*
X0177394Y0287641D01*
X0177604Y0287746D01*
X0177817Y0287846D01*
X0178032Y0287941D01*
X0178249Y0288030D01*
X0178468Y0288114D01*
X0185162Y0288114D02*
X0185381Y0288030D01*
X0185598Y0287941D01*
X0185813Y0287846D01*
X0186026Y0287746D01*
X0186236Y0287641D01*
X0186443Y0287531D01*
X0186648Y0287416D01*
X0186850Y0287296D01*
X0187049Y0287171D01*
X0187245Y0287041D01*
X0187438Y0286907D01*
X0187627Y0286768D01*
X0187813Y0286624D01*
X0187995Y0286476D01*
X0188174Y0286323D01*
X0188349Y0286166D01*
X0188520Y0286005D01*
X0188687Y0285840D01*
X0188850Y0285671D01*
X0189008Y0285498D01*
X0189163Y0285321D01*
X0189313Y0285140D01*
X0189459Y0284956D01*
X0189600Y0284768D01*
X0189737Y0284577D01*
X0189869Y0284382D01*
X0189996Y0284185D01*
X0190118Y0283984D01*
X0190235Y0283781D01*
X0190348Y0283574D01*
X0190455Y0283365D01*
X0190557Y0283154D01*
X0190655Y0282940D01*
X0190746Y0282724D01*
X0190833Y0282505D01*
X0190914Y0282285D01*
X0190990Y0282063D01*
X0191060Y0281838D01*
X0191125Y0281613D01*
X0191185Y0281385D01*
X0191238Y0281157D01*
X0191287Y0280927D01*
X0191329Y0280696D01*
X0191366Y0280464D01*
X0191398Y0280231D01*
X0191423Y0279997D01*
X0191443Y0279763D01*
X0191458Y0279529D01*
X0191466Y0279294D01*
X0191469Y0279059D01*
X0191466Y0278824D01*
X0191458Y0278589D01*
X0191443Y0278355D01*
X0191423Y0278121D01*
X0191398Y0277887D01*
X0191366Y0277654D01*
X0191329Y0277422D01*
X0191287Y0277191D01*
X0191238Y0276961D01*
X0191185Y0276733D01*
X0191125Y0276505D01*
X0191060Y0276280D01*
X0190990Y0276055D01*
X0190914Y0275833D01*
X0190833Y0275613D01*
X0190746Y0275394D01*
X0190655Y0275178D01*
X0190557Y0274964D01*
X0190455Y0274753D01*
X0190348Y0274544D01*
X0190235Y0274337D01*
X0190118Y0274134D01*
X0189996Y0273933D01*
X0189869Y0273736D01*
X0189737Y0273541D01*
X0189600Y0273350D01*
X0189459Y0273162D01*
X0189313Y0272978D01*
X0189163Y0272797D01*
X0189008Y0272620D01*
X0188850Y0272447D01*
X0188687Y0272278D01*
X0188520Y0272113D01*
X0188349Y0271952D01*
X0188174Y0271795D01*
X0187995Y0271642D01*
X0187813Y0271494D01*
X0187627Y0271350D01*
X0187438Y0271211D01*
X0187245Y0271077D01*
X0187049Y0270947D01*
X0186850Y0270822D01*
X0186648Y0270702D01*
X0186443Y0270587D01*
X0186236Y0270477D01*
X0186026Y0270372D01*
X0185813Y0270272D01*
X0185598Y0270177D01*
X0185381Y0270088D01*
X0185162Y0270004D01*
X0174335Y0141657D02*
X0179650Y0136343D01*
X0179650Y0121185D01*
X0173154Y0121185D01*
X0165673Y0121185D02*
X0159177Y0121185D01*
X0159177Y0136343D01*
X0164492Y0141657D01*
X0165673Y0141657D01*
X0173154Y0141657D02*
X0174335Y0141657D01*
X0172760Y0140476D02*
X0172979Y0140392D01*
X0173196Y0140303D01*
X0173411Y0140208D01*
X0173624Y0140108D01*
X0173834Y0140003D01*
X0174041Y0139893D01*
X0174246Y0139778D01*
X0174448Y0139658D01*
X0174647Y0139533D01*
X0174843Y0139403D01*
X0175036Y0139269D01*
X0175225Y0139130D01*
X0175411Y0138986D01*
X0175593Y0138838D01*
X0175772Y0138685D01*
X0175947Y0138528D01*
X0176118Y0138367D01*
X0176285Y0138202D01*
X0176448Y0138033D01*
X0176606Y0137860D01*
X0176761Y0137683D01*
X0176911Y0137502D01*
X0177057Y0137318D01*
X0177198Y0137130D01*
X0177335Y0136939D01*
X0177467Y0136744D01*
X0177594Y0136547D01*
X0177716Y0136346D01*
X0177833Y0136143D01*
X0177946Y0135936D01*
X0178053Y0135727D01*
X0178155Y0135516D01*
X0178253Y0135302D01*
X0178344Y0135086D01*
X0178431Y0134867D01*
X0178512Y0134647D01*
X0178588Y0134425D01*
X0178658Y0134200D01*
X0178723Y0133975D01*
X0178783Y0133747D01*
X0178836Y0133519D01*
X0178885Y0133289D01*
X0178927Y0133058D01*
X0178964Y0132826D01*
X0178996Y0132593D01*
X0179021Y0132359D01*
X0179041Y0132125D01*
X0179056Y0131891D01*
X0179064Y0131656D01*
X0179067Y0131421D01*
X0179064Y0131186D01*
X0179056Y0130951D01*
X0179041Y0130717D01*
X0179021Y0130483D01*
X0178996Y0130249D01*
X0178964Y0130016D01*
X0178927Y0129784D01*
X0178885Y0129553D01*
X0178836Y0129323D01*
X0178783Y0129095D01*
X0178723Y0128867D01*
X0178658Y0128642D01*
X0178588Y0128417D01*
X0178512Y0128195D01*
X0178431Y0127975D01*
X0178344Y0127756D01*
X0178253Y0127540D01*
X0178155Y0127326D01*
X0178053Y0127115D01*
X0177946Y0126906D01*
X0177833Y0126699D01*
X0177716Y0126496D01*
X0177594Y0126295D01*
X0177467Y0126098D01*
X0177335Y0125903D01*
X0177198Y0125712D01*
X0177057Y0125524D01*
X0176911Y0125340D01*
X0176761Y0125159D01*
X0176606Y0124982D01*
X0176448Y0124809D01*
X0176285Y0124640D01*
X0176118Y0124475D01*
X0175947Y0124314D01*
X0175772Y0124157D01*
X0175593Y0124004D01*
X0175411Y0123856D01*
X0175225Y0123712D01*
X0175036Y0123573D01*
X0174843Y0123439D01*
X0174647Y0123309D01*
X0174448Y0123184D01*
X0174246Y0123064D01*
X0174041Y0122949D01*
X0173834Y0122839D01*
X0173624Y0122734D01*
X0173411Y0122634D01*
X0173196Y0122539D01*
X0172979Y0122450D01*
X0172760Y0122366D01*
X0166066Y0122366D02*
X0165847Y0122450D01*
X0165630Y0122539D01*
X0165415Y0122634D01*
X0165202Y0122734D01*
X0164992Y0122839D01*
X0164785Y0122949D01*
X0164580Y0123064D01*
X0164378Y0123184D01*
X0164179Y0123309D01*
X0163983Y0123439D01*
X0163790Y0123573D01*
X0163601Y0123712D01*
X0163415Y0123856D01*
X0163233Y0124004D01*
X0163054Y0124157D01*
X0162879Y0124314D01*
X0162708Y0124475D01*
X0162541Y0124640D01*
X0162378Y0124809D01*
X0162220Y0124982D01*
X0162065Y0125159D01*
X0161915Y0125340D01*
X0161769Y0125524D01*
X0161628Y0125712D01*
X0161491Y0125903D01*
X0161359Y0126098D01*
X0161232Y0126295D01*
X0161110Y0126496D01*
X0160993Y0126699D01*
X0160880Y0126906D01*
X0160773Y0127115D01*
X0160671Y0127326D01*
X0160573Y0127540D01*
X0160482Y0127756D01*
X0160395Y0127975D01*
X0160314Y0128195D01*
X0160238Y0128417D01*
X0160168Y0128642D01*
X0160103Y0128867D01*
X0160043Y0129095D01*
X0159990Y0129323D01*
X0159941Y0129553D01*
X0159899Y0129784D01*
X0159862Y0130016D01*
X0159830Y0130249D01*
X0159805Y0130483D01*
X0159785Y0130717D01*
X0159770Y0130951D01*
X0159762Y0131186D01*
X0159759Y0131421D01*
X0159762Y0131656D01*
X0159770Y0131891D01*
X0159785Y0132125D01*
X0159805Y0132359D01*
X0159830Y0132593D01*
X0159862Y0132826D01*
X0159899Y0133058D01*
X0159941Y0133289D01*
X0159990Y0133519D01*
X0160043Y0133747D01*
X0160103Y0133975D01*
X0160168Y0134200D01*
X0160238Y0134425D01*
X0160314Y0134647D01*
X0160395Y0134867D01*
X0160482Y0135086D01*
X0160573Y0135302D01*
X0160671Y0135516D01*
X0160773Y0135727D01*
X0160880Y0135936D01*
X0160993Y0136143D01*
X0161110Y0136346D01*
X0161232Y0136547D01*
X0161359Y0136744D01*
X0161491Y0136939D01*
X0161628Y0137130D01*
X0161769Y0137318D01*
X0161915Y0137502D01*
X0162065Y0137683D01*
X0162220Y0137860D01*
X0162378Y0138033D01*
X0162541Y0138202D01*
X0162708Y0138367D01*
X0162879Y0138528D01*
X0163054Y0138685D01*
X0163233Y0138838D01*
X0163415Y0138986D01*
X0163601Y0139130D01*
X0163790Y0139269D01*
X0163983Y0139403D01*
X0164179Y0139533D01*
X0164378Y0139658D01*
X0164580Y0139778D01*
X0164785Y0139893D01*
X0164992Y0140003D01*
X0165202Y0140108D01*
X0165415Y0140208D01*
X0165630Y0140303D01*
X0165847Y0140392D01*
X0166066Y0140476D01*
M02*
