%
M48
M72
T01C0.0197
T02C0.0394
T03C0.0400
T04C0.0512
T05C0.1260
%
T01
X2119Y2119
X2119Y4087
X2119Y6056
X5465Y6843
X6056Y7630
X5465Y8811
X6252Y9796
X5465Y10780
X6449Y11764
X7237Y11272
X7729Y12158
X8713Y10977
X9205Y10977
X9697Y9894
X8221Y9894
X7729Y7237
X7729Y6056
X8713Y6252
X9205Y6252
X10583Y6154
X10878Y5859
X11174Y5563
X11469Y5268
X12650Y3890
X12945Y4185
X13142Y4579
X13339Y4973
X12256Y3300
X11764Y2709
X11961Y2119
X8713Y2611
X9402Y4874
X11764Y7433
X12158Y8024
X13142Y9402
X12748Y9599
X12748Y10189
X13142Y10386
X13536Y10583
X13930Y10780
X14126Y9205
X13536Y9205
X11666Y10780
X11764Y12355
X12158Y12945
X11961Y13536
X12748Y13831
X13142Y14126
X13437Y14520
X11961Y14717
X11764Y15111
X11567Y15504
X11567Y15996
X11567Y17276
X11567Y18556
X9599Y17178
X9205Y15898
X8713Y15898
X7729Y16882
X8221Y17178
X7729Y17768
X7433Y18457
X7237Y18851
X6941Y19146
X6646Y19441
X6351Y19737
X6056Y20032
X5760Y20327
X6843Y21311
X7729Y21804
X8221Y20918
X8713Y20918
X9205Y20918
X8319Y18359
X5465Y18654
X5465Y16685
X7040Y15701
X6843Y15111
X7040Y14422
X6646Y13733
X5465Y14717
X5465Y12748
X8221Y13634
X9796Y14520
X13930Y15898
X15898Y15898
X15898Y17867
X15898Y19835
X16095Y20229
X15898Y20918
X13930Y19835
X13733Y22099
X17374Y25248
X18260Y24559
X19441Y24559
X20071Y23103
X21213Y22591
X21508Y22886
X23142Y25819
X23477Y28989
X24461Y29185
X25741Y29382
X26036Y30859
X25642Y31449
X24953Y31941
X24363Y31351
X24658Y30859
X23477Y31646
X22886Y31252
X23280Y30859
X21902Y30859
X21508Y31252
X20524Y30859
X19737Y31646
X19146Y30859
X17768Y30859
X16784Y32433
X15701Y31744
X14815Y32433
X14717Y29678
X16292Y28693
X17178Y28004
X17473Y28693
X18851Y28693
X20426Y28792
X21410Y28792
X18457Y26056
X18575Y19874
X21016Y17355
X20150Y15111
X21292Y14874
X21410Y13142
X21961Y11922
X23260Y12985
X23339Y14756
X24953Y15898
X24953Y17867
X23772Y18693
X25307Y19638
X25819Y19363
X26174Y20347
X25819Y21449
X26213Y23181
X28772Y23063
X29205Y22276
X30229Y21804
X30662Y21784
X29953Y23418
X32315Y23536
X32945Y23536
X32630Y22512
X32591Y20977
X33300Y19520
X32985Y19087
X32670Y18457
X34441Y18418
X36016Y16922
X35977Y14717
X38056Y15496
X38733Y15111
X37355Y12945
X34402Y7729
X34107Y6843
X33122Y6548
X32729Y6843
X31744Y6449
X31351Y6843
X30760Y6154
X29973Y6843
X29382Y6154
X28595Y6843
X28398Y6154
X27611Y6154
X26823Y6154
X27217Y6843
X25839Y6843
X25445Y6154
X25248Y5268
X23870Y6154
X24461Y6843
X23083Y6843
X22591Y6154
X21705Y6843
X21213Y6154
X20327Y6843
X18949Y6843
X19343Y5268
X21311Y5268
X23280Y5268
X23772Y2119
X27217Y5268
X29185Y5268
X31154Y5268
X33122Y5268
X35091Y5268
X36174Y5957
X37059Y5268
X37945Y7532
X32827Y8024
X31449Y8024
X31528Y9363
X30071Y8024
X28693Y8221
X27315Y8418
X25937Y8615
X24559Y8811
X22000Y9008
X20426Y9008
X19441Y9008
X19835Y9993
X18359Y11469
X17571Y12355
X18359Y13142
X19441Y13142
X19835Y11961
X16784Y11469
X15898Y10977
X15898Y9993
X17670Y9008
X17374Y5268
X15406Y5268
X17867Y2119
X25032Y11370
X25898Y11370
X25937Y12315
X25504Y13024
X25071Y12276
X27315Y12748
X28103Y11174
X29678Y13142
X29323Y14874
X30544Y15859
X31174Y15662
X32473Y14481
X32709Y14993
X29973Y17493
X29205Y18142
X28693Y18615
X28536Y18221
X28221Y18930
X27748Y18063
X27985Y16725
X27512Y15622
X30111Y19067
X30465Y19422
X30819Y19776
X30111Y19776
X30819Y19067
X35189Y20229
X37355Y21095
X38162Y21489
X34756Y24363
X34756Y25347
X33575Y25032
X37473Y26528
X35583Y29678
X34205Y29678
X32827Y29678
X32926Y30859
X32630Y31351
X32532Y32433
X34500Y32433
X36469Y32433
X37355Y31252
X38142Y31252
X38142Y32237
X35583Y35583
X30563Y32433
X30170Y30859
X30071Y29678
X28693Y29678
X28792Y30859
X28496Y31449
X27414Y30859
X27119Y31449
X26430Y31843
X26626Y32433
X24658Y32433
X22689Y32433
X20721Y32433
X18752Y32433
X17867Y35583
X13930Y35583
X23772Y35583
X28595Y32433
X31548Y30859
X31449Y29678
X29166Y25662
X27315Y29579
X29678Y35583
X18536Y17079
X14520Y12985
X16292Y12552
X6056Y4087
X5465Y4874
X5859Y5465
X2119Y9993
X2119Y13930
X2119Y17867
X2119Y21804
X5662Y21705
X29678Y2119
X35583Y2119
X31646Y11174
T02
X23520Y9418
X24520Y9418
X25520Y9418
X26520Y9418
X27520Y9418
X28520Y9418
X29520Y9418
X30520Y9418
X32520Y9418
X33520Y9418
X34520Y9418
X35520Y9418
X36520Y9418
X37520Y9418
X37520Y28418
X36520Y28418
X35520Y28418
X34520Y28418
X33520Y28418
X32520Y28418
X31520Y28418
X30520Y28418
X28920Y28418
X27920Y28418
X26920Y28418
X25920Y28418
X24920Y28418
X23920Y28418
X22920Y28418
X21920Y28418
X20920Y28418
X19920Y28418
T03
X19516Y18260
X20516Y18260
X21516Y18260
X22516Y18260
X22516Y20229
X21516Y20229
X20516Y20229
X19516Y20229
X33418Y16496
X33418Y15496
X33418Y14496
X33418Y13496
X37570Y18418
X37570Y19418
X37570Y20418
X38570Y20418
X38570Y19418
X38570Y18418
X36370Y21804
X36370Y22804
X36370Y23804
X36370Y24804
X36370Y25804
X36370Y26804
T04
X2906Y4874
X2906Y6843
X2906Y8811
X2906Y10780
X2906Y12748
X2906Y14717
X2906Y16685
X2906Y18654
X14126Y24166
X14126Y26134
X14126Y28103
X15111Y34796
X17079Y34796
X19048Y34796
X21016Y34796
X22985Y34796
X24953Y34796
X26922Y34796
X28890Y34796
X30859Y34796
X32827Y34796
X34796Y34796
X36764Y34796
X36764Y2906
X34796Y2906
X32827Y2906
X30859Y2906
X28890Y2906
X26922Y2906
X24953Y2906
X22985Y2906
X21016Y2906
X19048Y2906
X17079Y2906
X15111Y2906
T05
X1150Y1150
X12748Y1150
X38528Y11418
X38528Y22418
X12748Y36552
M30
