G75*
%MOIN*%
%OFA0B0*%
%FSLAX25Y25*%
%IPPOS*%
%LPD*%
%AMOC8*
5,1,8,0,0,1.08239X$1,22.5*
%
%ADD10C,0.00591*%
%ADD11C,0.00000*%
D10*
X0001500Y0005437D02*
X0001500Y0218035D01*
X0001502Y0218225D01*
X0001509Y0218415D01*
X0001521Y0218605D01*
X0001537Y0218795D01*
X0001557Y0218984D01*
X0001583Y0219173D01*
X0001612Y0219361D01*
X0001647Y0219548D01*
X0001686Y0219734D01*
X0001729Y0219919D01*
X0001777Y0220104D01*
X0001829Y0220287D01*
X0001885Y0220468D01*
X0001946Y0220648D01*
X0002012Y0220827D01*
X0002081Y0221004D01*
X0002155Y0221180D01*
X0002233Y0221353D01*
X0002316Y0221525D01*
X0002402Y0221694D01*
X0002492Y0221862D01*
X0002587Y0222027D01*
X0002685Y0222190D01*
X0002788Y0222350D01*
X0002894Y0222508D01*
X0003004Y0222663D01*
X0003117Y0222816D01*
X0003235Y0222966D01*
X0003356Y0223112D01*
X0003480Y0223256D01*
X0003608Y0223397D01*
X0003739Y0223535D01*
X0003874Y0223670D01*
X0004012Y0223801D01*
X0004153Y0223929D01*
X0004297Y0224053D01*
X0004443Y0224174D01*
X0004593Y0224292D01*
X0004746Y0224405D01*
X0004901Y0224515D01*
X0005059Y0224621D01*
X0005219Y0224724D01*
X0005382Y0224822D01*
X0005547Y0224917D01*
X0005715Y0225007D01*
X0005884Y0225093D01*
X0006056Y0225176D01*
X0006229Y0225254D01*
X0006405Y0225328D01*
X0006582Y0225397D01*
X0006761Y0225463D01*
X0006941Y0225524D01*
X0007122Y0225580D01*
X0007305Y0225632D01*
X0007490Y0225680D01*
X0007675Y0225723D01*
X0007861Y0225762D01*
X0008048Y0225797D01*
X0008236Y0225826D01*
X0008425Y0225852D01*
X0008614Y0225872D01*
X0008804Y0225888D01*
X0008994Y0225900D01*
X0009184Y0225907D01*
X0009374Y0225909D01*
X0107799Y0225909D01*
X0107989Y0225911D01*
X0108179Y0225918D01*
X0108369Y0225930D01*
X0108559Y0225946D01*
X0108748Y0225966D01*
X0108937Y0225992D01*
X0109125Y0226021D01*
X0109312Y0226056D01*
X0109498Y0226095D01*
X0109683Y0226138D01*
X0109868Y0226186D01*
X0110051Y0226238D01*
X0110232Y0226294D01*
X0110412Y0226355D01*
X0110591Y0226421D01*
X0110768Y0226490D01*
X0110944Y0226564D01*
X0111117Y0226642D01*
X0111289Y0226725D01*
X0111458Y0226811D01*
X0111626Y0226901D01*
X0111791Y0226996D01*
X0111954Y0227094D01*
X0112114Y0227197D01*
X0112272Y0227303D01*
X0112427Y0227413D01*
X0112580Y0227526D01*
X0112730Y0227644D01*
X0112876Y0227765D01*
X0113020Y0227889D01*
X0113161Y0228017D01*
X0113299Y0228148D01*
X0113434Y0228283D01*
X0113565Y0228421D01*
X0113693Y0228562D01*
X0113817Y0228706D01*
X0113938Y0228852D01*
X0114056Y0229002D01*
X0114169Y0229155D01*
X0114279Y0229310D01*
X0114385Y0229468D01*
X0114488Y0229628D01*
X0114586Y0229791D01*
X0114681Y0229956D01*
X0114771Y0230124D01*
X0114857Y0230293D01*
X0114940Y0230465D01*
X0115018Y0230638D01*
X0115092Y0230814D01*
X0115161Y0230991D01*
X0115227Y0231170D01*
X0115288Y0231350D01*
X0115344Y0231531D01*
X0115396Y0231714D01*
X0115444Y0231899D01*
X0115487Y0232084D01*
X0115526Y0232270D01*
X0115561Y0232457D01*
X0115590Y0232645D01*
X0115616Y0232834D01*
X0115636Y0233023D01*
X0115652Y0233213D01*
X0115664Y0233403D01*
X0115671Y0233593D01*
X0115673Y0233783D01*
X0115673Y0367642D01*
X0115675Y0367832D01*
X0115682Y0368022D01*
X0115694Y0368212D01*
X0115710Y0368402D01*
X0115730Y0368591D01*
X0115756Y0368780D01*
X0115785Y0368968D01*
X0115820Y0369155D01*
X0115859Y0369341D01*
X0115902Y0369526D01*
X0115950Y0369711D01*
X0116002Y0369894D01*
X0116058Y0370075D01*
X0116119Y0370255D01*
X0116185Y0370434D01*
X0116254Y0370611D01*
X0116328Y0370787D01*
X0116406Y0370960D01*
X0116489Y0371132D01*
X0116575Y0371301D01*
X0116665Y0371469D01*
X0116760Y0371634D01*
X0116858Y0371797D01*
X0116961Y0371957D01*
X0117067Y0372115D01*
X0117177Y0372270D01*
X0117290Y0372423D01*
X0117408Y0372573D01*
X0117529Y0372719D01*
X0117653Y0372863D01*
X0117781Y0373004D01*
X0117912Y0373142D01*
X0118047Y0373277D01*
X0118185Y0373408D01*
X0118326Y0373536D01*
X0118470Y0373660D01*
X0118616Y0373781D01*
X0118766Y0373899D01*
X0118919Y0374012D01*
X0119074Y0374122D01*
X0119232Y0374228D01*
X0119392Y0374331D01*
X0119555Y0374429D01*
X0119720Y0374524D01*
X0119888Y0374614D01*
X0120057Y0374700D01*
X0120229Y0374783D01*
X0120402Y0374861D01*
X0120578Y0374935D01*
X0120755Y0375004D01*
X0120934Y0375070D01*
X0121114Y0375131D01*
X0121295Y0375187D01*
X0121478Y0375239D01*
X0121663Y0375287D01*
X0121848Y0375330D01*
X0122034Y0375369D01*
X0122221Y0375404D01*
X0122409Y0375433D01*
X0122598Y0375459D01*
X0122787Y0375479D01*
X0122977Y0375495D01*
X0123167Y0375507D01*
X0123357Y0375514D01*
X0123547Y0375516D01*
X0377327Y0375516D01*
X0377517Y0375514D01*
X0377707Y0375507D01*
X0377897Y0375495D01*
X0378087Y0375479D01*
X0378276Y0375459D01*
X0378465Y0375433D01*
X0378653Y0375404D01*
X0378840Y0375369D01*
X0379026Y0375330D01*
X0379211Y0375287D01*
X0379396Y0375239D01*
X0379579Y0375187D01*
X0379760Y0375131D01*
X0379940Y0375070D01*
X0380119Y0375004D01*
X0380296Y0374935D01*
X0380472Y0374861D01*
X0380645Y0374783D01*
X0380817Y0374700D01*
X0380986Y0374614D01*
X0381154Y0374524D01*
X0381319Y0374429D01*
X0381482Y0374331D01*
X0381642Y0374228D01*
X0381800Y0374122D01*
X0381955Y0374012D01*
X0382108Y0373899D01*
X0382258Y0373781D01*
X0382404Y0373660D01*
X0382548Y0373536D01*
X0382689Y0373408D01*
X0382827Y0373277D01*
X0382962Y0373142D01*
X0383093Y0373004D01*
X0383221Y0372863D01*
X0383345Y0372719D01*
X0383466Y0372573D01*
X0383584Y0372423D01*
X0383697Y0372270D01*
X0383807Y0372115D01*
X0383913Y0371957D01*
X0384016Y0371797D01*
X0384114Y0371634D01*
X0384209Y0371469D01*
X0384299Y0371301D01*
X0384385Y0371132D01*
X0384468Y0370960D01*
X0384546Y0370787D01*
X0384620Y0370611D01*
X0384689Y0370434D01*
X0384755Y0370255D01*
X0384816Y0370075D01*
X0384872Y0369894D01*
X0384924Y0369711D01*
X0384972Y0369526D01*
X0385015Y0369341D01*
X0385054Y0369155D01*
X0385089Y0368968D01*
X0385118Y0368780D01*
X0385144Y0368591D01*
X0385164Y0368402D01*
X0385180Y0368212D01*
X0385192Y0368022D01*
X0385199Y0367832D01*
X0385201Y0367642D01*
X0385201Y0243177D01*
X0395201Y0233177D01*
X0395201Y0104177D01*
X0385201Y0094177D01*
X0385201Y0005437D01*
X0385199Y0005313D01*
X0385193Y0005190D01*
X0385184Y0005066D01*
X0385170Y0004944D01*
X0385153Y0004821D01*
X0385131Y0004699D01*
X0385106Y0004578D01*
X0385077Y0004458D01*
X0385045Y0004339D01*
X0385008Y0004220D01*
X0384968Y0004103D01*
X0384925Y0003988D01*
X0384877Y0003873D01*
X0384826Y0003761D01*
X0384772Y0003650D01*
X0384714Y0003540D01*
X0384653Y0003433D01*
X0384588Y0003327D01*
X0384520Y0003224D01*
X0384449Y0003123D01*
X0384375Y0003024D01*
X0384298Y0002927D01*
X0384217Y0002833D01*
X0384134Y0002742D01*
X0384048Y0002653D01*
X0383959Y0002567D01*
X0383868Y0002484D01*
X0383774Y0002403D01*
X0383677Y0002326D01*
X0383578Y0002252D01*
X0383477Y0002181D01*
X0383374Y0002113D01*
X0383268Y0002048D01*
X0383161Y0001987D01*
X0383051Y0001929D01*
X0382940Y0001875D01*
X0382828Y0001824D01*
X0382713Y0001776D01*
X0382598Y0001733D01*
X0382481Y0001693D01*
X0382362Y0001656D01*
X0382243Y0001624D01*
X0382123Y0001595D01*
X0382002Y0001570D01*
X0381880Y0001548D01*
X0381757Y0001531D01*
X0381635Y0001517D01*
X0381511Y0001508D01*
X0381388Y0001502D01*
X0381264Y0001500D01*
X0005437Y0001500D01*
X0005313Y0001502D01*
X0005190Y0001508D01*
X0005066Y0001517D01*
X0004944Y0001531D01*
X0004821Y0001548D01*
X0004699Y0001570D01*
X0004578Y0001595D01*
X0004458Y0001624D01*
X0004339Y0001656D01*
X0004220Y0001693D01*
X0004103Y0001733D01*
X0003988Y0001776D01*
X0003873Y0001824D01*
X0003761Y0001875D01*
X0003650Y0001929D01*
X0003540Y0001987D01*
X0003433Y0002048D01*
X0003327Y0002113D01*
X0003224Y0002181D01*
X0003123Y0002252D01*
X0003024Y0002326D01*
X0002927Y0002403D01*
X0002833Y0002484D01*
X0002742Y0002567D01*
X0002653Y0002653D01*
X0002567Y0002742D01*
X0002484Y0002833D01*
X0002403Y0002927D01*
X0002326Y0003024D01*
X0002252Y0003123D01*
X0002181Y0003224D01*
X0002113Y0003327D01*
X0002048Y0003433D01*
X0001987Y0003540D01*
X0001929Y0003650D01*
X0001875Y0003761D01*
X0001824Y0003873D01*
X0001776Y0003988D01*
X0001733Y0004103D01*
X0001693Y0004220D01*
X0001656Y0004339D01*
X0001624Y0004458D01*
X0001595Y0004578D01*
X0001570Y0004699D01*
X0001548Y0004821D01*
X0001531Y0004944D01*
X0001517Y0005066D01*
X0001508Y0005190D01*
X0001502Y0005313D01*
X0001500Y0005437D01*
D11*
X0005201Y0011500D02*
X0005203Y0011658D01*
X0005209Y0011816D01*
X0005219Y0011974D01*
X0005233Y0012132D01*
X0005251Y0012289D01*
X0005272Y0012446D01*
X0005298Y0012602D01*
X0005328Y0012758D01*
X0005361Y0012913D01*
X0005399Y0013066D01*
X0005440Y0013219D01*
X0005485Y0013371D01*
X0005534Y0013522D01*
X0005587Y0013671D01*
X0005643Y0013819D01*
X0005703Y0013965D01*
X0005767Y0014110D01*
X0005835Y0014253D01*
X0005906Y0014395D01*
X0005980Y0014535D01*
X0006058Y0014672D01*
X0006140Y0014808D01*
X0006224Y0014942D01*
X0006313Y0015073D01*
X0006404Y0015202D01*
X0006499Y0015329D01*
X0006596Y0015454D01*
X0006697Y0015576D01*
X0006801Y0015695D01*
X0006908Y0015812D01*
X0007018Y0015926D01*
X0007131Y0016037D01*
X0007246Y0016146D01*
X0007364Y0016251D01*
X0007485Y0016353D01*
X0007608Y0016453D01*
X0007734Y0016549D01*
X0007862Y0016642D01*
X0007992Y0016732D01*
X0008125Y0016818D01*
X0008260Y0016902D01*
X0008396Y0016981D01*
X0008535Y0017058D01*
X0008676Y0017130D01*
X0008818Y0017200D01*
X0008962Y0017265D01*
X0009108Y0017327D01*
X0009255Y0017385D01*
X0009404Y0017440D01*
X0009554Y0017491D01*
X0009705Y0017538D01*
X0009857Y0017581D01*
X0010010Y0017620D01*
X0010165Y0017656D01*
X0010320Y0017687D01*
X0010476Y0017715D01*
X0010632Y0017739D01*
X0010789Y0017759D01*
X0010947Y0017775D01*
X0011104Y0017787D01*
X0011263Y0017795D01*
X0011421Y0017799D01*
X0011579Y0017799D01*
X0011737Y0017795D01*
X0011896Y0017787D01*
X0012053Y0017775D01*
X0012211Y0017759D01*
X0012368Y0017739D01*
X0012524Y0017715D01*
X0012680Y0017687D01*
X0012835Y0017656D01*
X0012990Y0017620D01*
X0013143Y0017581D01*
X0013295Y0017538D01*
X0013446Y0017491D01*
X0013596Y0017440D01*
X0013745Y0017385D01*
X0013892Y0017327D01*
X0014038Y0017265D01*
X0014182Y0017200D01*
X0014324Y0017130D01*
X0014465Y0017058D01*
X0014604Y0016981D01*
X0014740Y0016902D01*
X0014875Y0016818D01*
X0015008Y0016732D01*
X0015138Y0016642D01*
X0015266Y0016549D01*
X0015392Y0016453D01*
X0015515Y0016353D01*
X0015636Y0016251D01*
X0015754Y0016146D01*
X0015869Y0016037D01*
X0015982Y0015926D01*
X0016092Y0015812D01*
X0016199Y0015695D01*
X0016303Y0015576D01*
X0016404Y0015454D01*
X0016501Y0015329D01*
X0016596Y0015202D01*
X0016687Y0015073D01*
X0016776Y0014942D01*
X0016860Y0014808D01*
X0016942Y0014672D01*
X0017020Y0014535D01*
X0017094Y0014395D01*
X0017165Y0014253D01*
X0017233Y0014110D01*
X0017297Y0013965D01*
X0017357Y0013819D01*
X0017413Y0013671D01*
X0017466Y0013522D01*
X0017515Y0013371D01*
X0017560Y0013219D01*
X0017601Y0013066D01*
X0017639Y0012913D01*
X0017672Y0012758D01*
X0017702Y0012602D01*
X0017728Y0012446D01*
X0017749Y0012289D01*
X0017767Y0012132D01*
X0017781Y0011974D01*
X0017791Y0011816D01*
X0017797Y0011658D01*
X0017799Y0011500D01*
X0017797Y0011342D01*
X0017791Y0011184D01*
X0017781Y0011026D01*
X0017767Y0010868D01*
X0017749Y0010711D01*
X0017728Y0010554D01*
X0017702Y0010398D01*
X0017672Y0010242D01*
X0017639Y0010087D01*
X0017601Y0009934D01*
X0017560Y0009781D01*
X0017515Y0009629D01*
X0017466Y0009478D01*
X0017413Y0009329D01*
X0017357Y0009181D01*
X0017297Y0009035D01*
X0017233Y0008890D01*
X0017165Y0008747D01*
X0017094Y0008605D01*
X0017020Y0008465D01*
X0016942Y0008328D01*
X0016860Y0008192D01*
X0016776Y0008058D01*
X0016687Y0007927D01*
X0016596Y0007798D01*
X0016501Y0007671D01*
X0016404Y0007546D01*
X0016303Y0007424D01*
X0016199Y0007305D01*
X0016092Y0007188D01*
X0015982Y0007074D01*
X0015869Y0006963D01*
X0015754Y0006854D01*
X0015636Y0006749D01*
X0015515Y0006647D01*
X0015392Y0006547D01*
X0015266Y0006451D01*
X0015138Y0006358D01*
X0015008Y0006268D01*
X0014875Y0006182D01*
X0014740Y0006098D01*
X0014604Y0006019D01*
X0014465Y0005942D01*
X0014324Y0005870D01*
X0014182Y0005800D01*
X0014038Y0005735D01*
X0013892Y0005673D01*
X0013745Y0005615D01*
X0013596Y0005560D01*
X0013446Y0005509D01*
X0013295Y0005462D01*
X0013143Y0005419D01*
X0012990Y0005380D01*
X0012835Y0005344D01*
X0012680Y0005313D01*
X0012524Y0005285D01*
X0012368Y0005261D01*
X0012211Y0005241D01*
X0012053Y0005225D01*
X0011896Y0005213D01*
X0011737Y0005205D01*
X0011579Y0005201D01*
X0011421Y0005201D01*
X0011263Y0005205D01*
X0011104Y0005213D01*
X0010947Y0005225D01*
X0010789Y0005241D01*
X0010632Y0005261D01*
X0010476Y0005285D01*
X0010320Y0005313D01*
X0010165Y0005344D01*
X0010010Y0005380D01*
X0009857Y0005419D01*
X0009705Y0005462D01*
X0009554Y0005509D01*
X0009404Y0005560D01*
X0009255Y0005615D01*
X0009108Y0005673D01*
X0008962Y0005735D01*
X0008818Y0005800D01*
X0008676Y0005870D01*
X0008535Y0005942D01*
X0008396Y0006019D01*
X0008260Y0006098D01*
X0008125Y0006182D01*
X0007992Y0006268D01*
X0007862Y0006358D01*
X0007734Y0006451D01*
X0007608Y0006547D01*
X0007485Y0006647D01*
X0007364Y0006749D01*
X0007246Y0006854D01*
X0007131Y0006963D01*
X0007018Y0007074D01*
X0006908Y0007188D01*
X0006801Y0007305D01*
X0006697Y0007424D01*
X0006596Y0007546D01*
X0006499Y0007671D01*
X0006404Y0007798D01*
X0006313Y0007927D01*
X0006224Y0008058D01*
X0006140Y0008192D01*
X0006058Y0008328D01*
X0005980Y0008465D01*
X0005906Y0008605D01*
X0005835Y0008747D01*
X0005767Y0008890D01*
X0005703Y0009035D01*
X0005643Y0009181D01*
X0005587Y0009329D01*
X0005534Y0009478D01*
X0005485Y0009629D01*
X0005440Y0009781D01*
X0005399Y0009934D01*
X0005361Y0010087D01*
X0005328Y0010242D01*
X0005298Y0010398D01*
X0005272Y0010554D01*
X0005251Y0010711D01*
X0005233Y0010868D01*
X0005219Y0011026D01*
X0005209Y0011184D01*
X0005203Y0011342D01*
X0005201Y0011500D01*
X0121185Y0011500D02*
X0121187Y0011658D01*
X0121193Y0011816D01*
X0121203Y0011974D01*
X0121217Y0012132D01*
X0121235Y0012289D01*
X0121256Y0012446D01*
X0121282Y0012602D01*
X0121312Y0012758D01*
X0121345Y0012913D01*
X0121383Y0013066D01*
X0121424Y0013219D01*
X0121469Y0013371D01*
X0121518Y0013522D01*
X0121571Y0013671D01*
X0121627Y0013819D01*
X0121687Y0013965D01*
X0121751Y0014110D01*
X0121819Y0014253D01*
X0121890Y0014395D01*
X0121964Y0014535D01*
X0122042Y0014672D01*
X0122124Y0014808D01*
X0122208Y0014942D01*
X0122297Y0015073D01*
X0122388Y0015202D01*
X0122483Y0015329D01*
X0122580Y0015454D01*
X0122681Y0015576D01*
X0122785Y0015695D01*
X0122892Y0015812D01*
X0123002Y0015926D01*
X0123115Y0016037D01*
X0123230Y0016146D01*
X0123348Y0016251D01*
X0123469Y0016353D01*
X0123592Y0016453D01*
X0123718Y0016549D01*
X0123846Y0016642D01*
X0123976Y0016732D01*
X0124109Y0016818D01*
X0124244Y0016902D01*
X0124380Y0016981D01*
X0124519Y0017058D01*
X0124660Y0017130D01*
X0124802Y0017200D01*
X0124946Y0017265D01*
X0125092Y0017327D01*
X0125239Y0017385D01*
X0125388Y0017440D01*
X0125538Y0017491D01*
X0125689Y0017538D01*
X0125841Y0017581D01*
X0125994Y0017620D01*
X0126149Y0017656D01*
X0126304Y0017687D01*
X0126460Y0017715D01*
X0126616Y0017739D01*
X0126773Y0017759D01*
X0126931Y0017775D01*
X0127088Y0017787D01*
X0127247Y0017795D01*
X0127405Y0017799D01*
X0127563Y0017799D01*
X0127721Y0017795D01*
X0127880Y0017787D01*
X0128037Y0017775D01*
X0128195Y0017759D01*
X0128352Y0017739D01*
X0128508Y0017715D01*
X0128664Y0017687D01*
X0128819Y0017656D01*
X0128974Y0017620D01*
X0129127Y0017581D01*
X0129279Y0017538D01*
X0129430Y0017491D01*
X0129580Y0017440D01*
X0129729Y0017385D01*
X0129876Y0017327D01*
X0130022Y0017265D01*
X0130166Y0017200D01*
X0130308Y0017130D01*
X0130449Y0017058D01*
X0130588Y0016981D01*
X0130724Y0016902D01*
X0130859Y0016818D01*
X0130992Y0016732D01*
X0131122Y0016642D01*
X0131250Y0016549D01*
X0131376Y0016453D01*
X0131499Y0016353D01*
X0131620Y0016251D01*
X0131738Y0016146D01*
X0131853Y0016037D01*
X0131966Y0015926D01*
X0132076Y0015812D01*
X0132183Y0015695D01*
X0132287Y0015576D01*
X0132388Y0015454D01*
X0132485Y0015329D01*
X0132580Y0015202D01*
X0132671Y0015073D01*
X0132760Y0014942D01*
X0132844Y0014808D01*
X0132926Y0014672D01*
X0133004Y0014535D01*
X0133078Y0014395D01*
X0133149Y0014253D01*
X0133217Y0014110D01*
X0133281Y0013965D01*
X0133341Y0013819D01*
X0133397Y0013671D01*
X0133450Y0013522D01*
X0133499Y0013371D01*
X0133544Y0013219D01*
X0133585Y0013066D01*
X0133623Y0012913D01*
X0133656Y0012758D01*
X0133686Y0012602D01*
X0133712Y0012446D01*
X0133733Y0012289D01*
X0133751Y0012132D01*
X0133765Y0011974D01*
X0133775Y0011816D01*
X0133781Y0011658D01*
X0133783Y0011500D01*
X0133781Y0011342D01*
X0133775Y0011184D01*
X0133765Y0011026D01*
X0133751Y0010868D01*
X0133733Y0010711D01*
X0133712Y0010554D01*
X0133686Y0010398D01*
X0133656Y0010242D01*
X0133623Y0010087D01*
X0133585Y0009934D01*
X0133544Y0009781D01*
X0133499Y0009629D01*
X0133450Y0009478D01*
X0133397Y0009329D01*
X0133341Y0009181D01*
X0133281Y0009035D01*
X0133217Y0008890D01*
X0133149Y0008747D01*
X0133078Y0008605D01*
X0133004Y0008465D01*
X0132926Y0008328D01*
X0132844Y0008192D01*
X0132760Y0008058D01*
X0132671Y0007927D01*
X0132580Y0007798D01*
X0132485Y0007671D01*
X0132388Y0007546D01*
X0132287Y0007424D01*
X0132183Y0007305D01*
X0132076Y0007188D01*
X0131966Y0007074D01*
X0131853Y0006963D01*
X0131738Y0006854D01*
X0131620Y0006749D01*
X0131499Y0006647D01*
X0131376Y0006547D01*
X0131250Y0006451D01*
X0131122Y0006358D01*
X0130992Y0006268D01*
X0130859Y0006182D01*
X0130724Y0006098D01*
X0130588Y0006019D01*
X0130449Y0005942D01*
X0130308Y0005870D01*
X0130166Y0005800D01*
X0130022Y0005735D01*
X0129876Y0005673D01*
X0129729Y0005615D01*
X0129580Y0005560D01*
X0129430Y0005509D01*
X0129279Y0005462D01*
X0129127Y0005419D01*
X0128974Y0005380D01*
X0128819Y0005344D01*
X0128664Y0005313D01*
X0128508Y0005285D01*
X0128352Y0005261D01*
X0128195Y0005241D01*
X0128037Y0005225D01*
X0127880Y0005213D01*
X0127721Y0005205D01*
X0127563Y0005201D01*
X0127405Y0005201D01*
X0127247Y0005205D01*
X0127088Y0005213D01*
X0126931Y0005225D01*
X0126773Y0005241D01*
X0126616Y0005261D01*
X0126460Y0005285D01*
X0126304Y0005313D01*
X0126149Y0005344D01*
X0125994Y0005380D01*
X0125841Y0005419D01*
X0125689Y0005462D01*
X0125538Y0005509D01*
X0125388Y0005560D01*
X0125239Y0005615D01*
X0125092Y0005673D01*
X0124946Y0005735D01*
X0124802Y0005800D01*
X0124660Y0005870D01*
X0124519Y0005942D01*
X0124380Y0006019D01*
X0124244Y0006098D01*
X0124109Y0006182D01*
X0123976Y0006268D01*
X0123846Y0006358D01*
X0123718Y0006451D01*
X0123592Y0006547D01*
X0123469Y0006647D01*
X0123348Y0006749D01*
X0123230Y0006854D01*
X0123115Y0006963D01*
X0123002Y0007074D01*
X0122892Y0007188D01*
X0122785Y0007305D01*
X0122681Y0007424D01*
X0122580Y0007546D01*
X0122483Y0007671D01*
X0122388Y0007798D01*
X0122297Y0007927D01*
X0122208Y0008058D01*
X0122124Y0008192D01*
X0122042Y0008328D01*
X0121964Y0008465D01*
X0121890Y0008605D01*
X0121819Y0008747D01*
X0121751Y0008890D01*
X0121687Y0009035D01*
X0121627Y0009181D01*
X0121571Y0009329D01*
X0121518Y0009478D01*
X0121469Y0009629D01*
X0121424Y0009781D01*
X0121383Y0009934D01*
X0121345Y0010087D01*
X0121312Y0010242D01*
X0121282Y0010398D01*
X0121256Y0010554D01*
X0121235Y0010711D01*
X0121217Y0010868D01*
X0121203Y0011026D01*
X0121193Y0011184D01*
X0121187Y0011342D01*
X0121185Y0011500D01*
X0378981Y0114177D02*
X0378983Y0114335D01*
X0378989Y0114493D01*
X0378999Y0114651D01*
X0379013Y0114809D01*
X0379031Y0114966D01*
X0379052Y0115123D01*
X0379078Y0115279D01*
X0379108Y0115435D01*
X0379141Y0115590D01*
X0379179Y0115743D01*
X0379220Y0115896D01*
X0379265Y0116048D01*
X0379314Y0116199D01*
X0379367Y0116348D01*
X0379423Y0116496D01*
X0379483Y0116642D01*
X0379547Y0116787D01*
X0379615Y0116930D01*
X0379686Y0117072D01*
X0379760Y0117212D01*
X0379838Y0117349D01*
X0379920Y0117485D01*
X0380004Y0117619D01*
X0380093Y0117750D01*
X0380184Y0117879D01*
X0380279Y0118006D01*
X0380376Y0118131D01*
X0380477Y0118253D01*
X0380581Y0118372D01*
X0380688Y0118489D01*
X0380798Y0118603D01*
X0380911Y0118714D01*
X0381026Y0118823D01*
X0381144Y0118928D01*
X0381265Y0119030D01*
X0381388Y0119130D01*
X0381514Y0119226D01*
X0381642Y0119319D01*
X0381772Y0119409D01*
X0381905Y0119495D01*
X0382040Y0119579D01*
X0382176Y0119658D01*
X0382315Y0119735D01*
X0382456Y0119807D01*
X0382598Y0119877D01*
X0382742Y0119942D01*
X0382888Y0120004D01*
X0383035Y0120062D01*
X0383184Y0120117D01*
X0383334Y0120168D01*
X0383485Y0120215D01*
X0383637Y0120258D01*
X0383790Y0120297D01*
X0383945Y0120333D01*
X0384100Y0120364D01*
X0384256Y0120392D01*
X0384412Y0120416D01*
X0384569Y0120436D01*
X0384727Y0120452D01*
X0384884Y0120464D01*
X0385043Y0120472D01*
X0385201Y0120476D01*
X0385359Y0120476D01*
X0385517Y0120472D01*
X0385676Y0120464D01*
X0385833Y0120452D01*
X0385991Y0120436D01*
X0386148Y0120416D01*
X0386304Y0120392D01*
X0386460Y0120364D01*
X0386615Y0120333D01*
X0386770Y0120297D01*
X0386923Y0120258D01*
X0387075Y0120215D01*
X0387226Y0120168D01*
X0387376Y0120117D01*
X0387525Y0120062D01*
X0387672Y0120004D01*
X0387818Y0119942D01*
X0387962Y0119877D01*
X0388104Y0119807D01*
X0388245Y0119735D01*
X0388384Y0119658D01*
X0388520Y0119579D01*
X0388655Y0119495D01*
X0388788Y0119409D01*
X0388918Y0119319D01*
X0389046Y0119226D01*
X0389172Y0119130D01*
X0389295Y0119030D01*
X0389416Y0118928D01*
X0389534Y0118823D01*
X0389649Y0118714D01*
X0389762Y0118603D01*
X0389872Y0118489D01*
X0389979Y0118372D01*
X0390083Y0118253D01*
X0390184Y0118131D01*
X0390281Y0118006D01*
X0390376Y0117879D01*
X0390467Y0117750D01*
X0390556Y0117619D01*
X0390640Y0117485D01*
X0390722Y0117349D01*
X0390800Y0117212D01*
X0390874Y0117072D01*
X0390945Y0116930D01*
X0391013Y0116787D01*
X0391077Y0116642D01*
X0391137Y0116496D01*
X0391193Y0116348D01*
X0391246Y0116199D01*
X0391295Y0116048D01*
X0391340Y0115896D01*
X0391381Y0115743D01*
X0391419Y0115590D01*
X0391452Y0115435D01*
X0391482Y0115279D01*
X0391508Y0115123D01*
X0391529Y0114966D01*
X0391547Y0114809D01*
X0391561Y0114651D01*
X0391571Y0114493D01*
X0391577Y0114335D01*
X0391579Y0114177D01*
X0391577Y0114019D01*
X0391571Y0113861D01*
X0391561Y0113703D01*
X0391547Y0113545D01*
X0391529Y0113388D01*
X0391508Y0113231D01*
X0391482Y0113075D01*
X0391452Y0112919D01*
X0391419Y0112764D01*
X0391381Y0112611D01*
X0391340Y0112458D01*
X0391295Y0112306D01*
X0391246Y0112155D01*
X0391193Y0112006D01*
X0391137Y0111858D01*
X0391077Y0111712D01*
X0391013Y0111567D01*
X0390945Y0111424D01*
X0390874Y0111282D01*
X0390800Y0111142D01*
X0390722Y0111005D01*
X0390640Y0110869D01*
X0390556Y0110735D01*
X0390467Y0110604D01*
X0390376Y0110475D01*
X0390281Y0110348D01*
X0390184Y0110223D01*
X0390083Y0110101D01*
X0389979Y0109982D01*
X0389872Y0109865D01*
X0389762Y0109751D01*
X0389649Y0109640D01*
X0389534Y0109531D01*
X0389416Y0109426D01*
X0389295Y0109324D01*
X0389172Y0109224D01*
X0389046Y0109128D01*
X0388918Y0109035D01*
X0388788Y0108945D01*
X0388655Y0108859D01*
X0388520Y0108775D01*
X0388384Y0108696D01*
X0388245Y0108619D01*
X0388104Y0108547D01*
X0387962Y0108477D01*
X0387818Y0108412D01*
X0387672Y0108350D01*
X0387525Y0108292D01*
X0387376Y0108237D01*
X0387226Y0108186D01*
X0387075Y0108139D01*
X0386923Y0108096D01*
X0386770Y0108057D01*
X0386615Y0108021D01*
X0386460Y0107990D01*
X0386304Y0107962D01*
X0386148Y0107938D01*
X0385991Y0107918D01*
X0385833Y0107902D01*
X0385676Y0107890D01*
X0385517Y0107882D01*
X0385359Y0107878D01*
X0385201Y0107878D01*
X0385043Y0107882D01*
X0384884Y0107890D01*
X0384727Y0107902D01*
X0384569Y0107918D01*
X0384412Y0107938D01*
X0384256Y0107962D01*
X0384100Y0107990D01*
X0383945Y0108021D01*
X0383790Y0108057D01*
X0383637Y0108096D01*
X0383485Y0108139D01*
X0383334Y0108186D01*
X0383184Y0108237D01*
X0383035Y0108292D01*
X0382888Y0108350D01*
X0382742Y0108412D01*
X0382598Y0108477D01*
X0382456Y0108547D01*
X0382315Y0108619D01*
X0382176Y0108696D01*
X0382040Y0108775D01*
X0381905Y0108859D01*
X0381772Y0108945D01*
X0381642Y0109035D01*
X0381514Y0109128D01*
X0381388Y0109224D01*
X0381265Y0109324D01*
X0381144Y0109426D01*
X0381026Y0109531D01*
X0380911Y0109640D01*
X0380798Y0109751D01*
X0380688Y0109865D01*
X0380581Y0109982D01*
X0380477Y0110101D01*
X0380376Y0110223D01*
X0380279Y0110348D01*
X0380184Y0110475D01*
X0380093Y0110604D01*
X0380004Y0110735D01*
X0379920Y0110869D01*
X0379838Y0111005D01*
X0379760Y0111142D01*
X0379686Y0111282D01*
X0379615Y0111424D01*
X0379547Y0111567D01*
X0379483Y0111712D01*
X0379423Y0111858D01*
X0379367Y0112006D01*
X0379314Y0112155D01*
X0379265Y0112306D01*
X0379220Y0112458D01*
X0379179Y0112611D01*
X0379141Y0112764D01*
X0379108Y0112919D01*
X0379078Y0113075D01*
X0379052Y0113231D01*
X0379031Y0113388D01*
X0379013Y0113545D01*
X0378999Y0113703D01*
X0378989Y0113861D01*
X0378983Y0114019D01*
X0378981Y0114177D01*
X0378981Y0224177D02*
X0378983Y0224335D01*
X0378989Y0224493D01*
X0378999Y0224651D01*
X0379013Y0224809D01*
X0379031Y0224966D01*
X0379052Y0225123D01*
X0379078Y0225279D01*
X0379108Y0225435D01*
X0379141Y0225590D01*
X0379179Y0225743D01*
X0379220Y0225896D01*
X0379265Y0226048D01*
X0379314Y0226199D01*
X0379367Y0226348D01*
X0379423Y0226496D01*
X0379483Y0226642D01*
X0379547Y0226787D01*
X0379615Y0226930D01*
X0379686Y0227072D01*
X0379760Y0227212D01*
X0379838Y0227349D01*
X0379920Y0227485D01*
X0380004Y0227619D01*
X0380093Y0227750D01*
X0380184Y0227879D01*
X0380279Y0228006D01*
X0380376Y0228131D01*
X0380477Y0228253D01*
X0380581Y0228372D01*
X0380688Y0228489D01*
X0380798Y0228603D01*
X0380911Y0228714D01*
X0381026Y0228823D01*
X0381144Y0228928D01*
X0381265Y0229030D01*
X0381388Y0229130D01*
X0381514Y0229226D01*
X0381642Y0229319D01*
X0381772Y0229409D01*
X0381905Y0229495D01*
X0382040Y0229579D01*
X0382176Y0229658D01*
X0382315Y0229735D01*
X0382456Y0229807D01*
X0382598Y0229877D01*
X0382742Y0229942D01*
X0382888Y0230004D01*
X0383035Y0230062D01*
X0383184Y0230117D01*
X0383334Y0230168D01*
X0383485Y0230215D01*
X0383637Y0230258D01*
X0383790Y0230297D01*
X0383945Y0230333D01*
X0384100Y0230364D01*
X0384256Y0230392D01*
X0384412Y0230416D01*
X0384569Y0230436D01*
X0384727Y0230452D01*
X0384884Y0230464D01*
X0385043Y0230472D01*
X0385201Y0230476D01*
X0385359Y0230476D01*
X0385517Y0230472D01*
X0385676Y0230464D01*
X0385833Y0230452D01*
X0385991Y0230436D01*
X0386148Y0230416D01*
X0386304Y0230392D01*
X0386460Y0230364D01*
X0386615Y0230333D01*
X0386770Y0230297D01*
X0386923Y0230258D01*
X0387075Y0230215D01*
X0387226Y0230168D01*
X0387376Y0230117D01*
X0387525Y0230062D01*
X0387672Y0230004D01*
X0387818Y0229942D01*
X0387962Y0229877D01*
X0388104Y0229807D01*
X0388245Y0229735D01*
X0388384Y0229658D01*
X0388520Y0229579D01*
X0388655Y0229495D01*
X0388788Y0229409D01*
X0388918Y0229319D01*
X0389046Y0229226D01*
X0389172Y0229130D01*
X0389295Y0229030D01*
X0389416Y0228928D01*
X0389534Y0228823D01*
X0389649Y0228714D01*
X0389762Y0228603D01*
X0389872Y0228489D01*
X0389979Y0228372D01*
X0390083Y0228253D01*
X0390184Y0228131D01*
X0390281Y0228006D01*
X0390376Y0227879D01*
X0390467Y0227750D01*
X0390556Y0227619D01*
X0390640Y0227485D01*
X0390722Y0227349D01*
X0390800Y0227212D01*
X0390874Y0227072D01*
X0390945Y0226930D01*
X0391013Y0226787D01*
X0391077Y0226642D01*
X0391137Y0226496D01*
X0391193Y0226348D01*
X0391246Y0226199D01*
X0391295Y0226048D01*
X0391340Y0225896D01*
X0391381Y0225743D01*
X0391419Y0225590D01*
X0391452Y0225435D01*
X0391482Y0225279D01*
X0391508Y0225123D01*
X0391529Y0224966D01*
X0391547Y0224809D01*
X0391561Y0224651D01*
X0391571Y0224493D01*
X0391577Y0224335D01*
X0391579Y0224177D01*
X0391577Y0224019D01*
X0391571Y0223861D01*
X0391561Y0223703D01*
X0391547Y0223545D01*
X0391529Y0223388D01*
X0391508Y0223231D01*
X0391482Y0223075D01*
X0391452Y0222919D01*
X0391419Y0222764D01*
X0391381Y0222611D01*
X0391340Y0222458D01*
X0391295Y0222306D01*
X0391246Y0222155D01*
X0391193Y0222006D01*
X0391137Y0221858D01*
X0391077Y0221712D01*
X0391013Y0221567D01*
X0390945Y0221424D01*
X0390874Y0221282D01*
X0390800Y0221142D01*
X0390722Y0221005D01*
X0390640Y0220869D01*
X0390556Y0220735D01*
X0390467Y0220604D01*
X0390376Y0220475D01*
X0390281Y0220348D01*
X0390184Y0220223D01*
X0390083Y0220101D01*
X0389979Y0219982D01*
X0389872Y0219865D01*
X0389762Y0219751D01*
X0389649Y0219640D01*
X0389534Y0219531D01*
X0389416Y0219426D01*
X0389295Y0219324D01*
X0389172Y0219224D01*
X0389046Y0219128D01*
X0388918Y0219035D01*
X0388788Y0218945D01*
X0388655Y0218859D01*
X0388520Y0218775D01*
X0388384Y0218696D01*
X0388245Y0218619D01*
X0388104Y0218547D01*
X0387962Y0218477D01*
X0387818Y0218412D01*
X0387672Y0218350D01*
X0387525Y0218292D01*
X0387376Y0218237D01*
X0387226Y0218186D01*
X0387075Y0218139D01*
X0386923Y0218096D01*
X0386770Y0218057D01*
X0386615Y0218021D01*
X0386460Y0217990D01*
X0386304Y0217962D01*
X0386148Y0217938D01*
X0385991Y0217918D01*
X0385833Y0217902D01*
X0385676Y0217890D01*
X0385517Y0217882D01*
X0385359Y0217878D01*
X0385201Y0217878D01*
X0385043Y0217882D01*
X0384884Y0217890D01*
X0384727Y0217902D01*
X0384569Y0217918D01*
X0384412Y0217938D01*
X0384256Y0217962D01*
X0384100Y0217990D01*
X0383945Y0218021D01*
X0383790Y0218057D01*
X0383637Y0218096D01*
X0383485Y0218139D01*
X0383334Y0218186D01*
X0383184Y0218237D01*
X0383035Y0218292D01*
X0382888Y0218350D01*
X0382742Y0218412D01*
X0382598Y0218477D01*
X0382456Y0218547D01*
X0382315Y0218619D01*
X0382176Y0218696D01*
X0382040Y0218775D01*
X0381905Y0218859D01*
X0381772Y0218945D01*
X0381642Y0219035D01*
X0381514Y0219128D01*
X0381388Y0219224D01*
X0381265Y0219324D01*
X0381144Y0219426D01*
X0381026Y0219531D01*
X0380911Y0219640D01*
X0380798Y0219751D01*
X0380688Y0219865D01*
X0380581Y0219982D01*
X0380477Y0220101D01*
X0380376Y0220223D01*
X0380279Y0220348D01*
X0380184Y0220475D01*
X0380093Y0220604D01*
X0380004Y0220735D01*
X0379920Y0220869D01*
X0379838Y0221005D01*
X0379760Y0221142D01*
X0379686Y0221282D01*
X0379615Y0221424D01*
X0379547Y0221567D01*
X0379483Y0221712D01*
X0379423Y0221858D01*
X0379367Y0222006D01*
X0379314Y0222155D01*
X0379265Y0222306D01*
X0379220Y0222458D01*
X0379179Y0222611D01*
X0379141Y0222764D01*
X0379108Y0222919D01*
X0379078Y0223075D01*
X0379052Y0223231D01*
X0379031Y0223388D01*
X0379013Y0223545D01*
X0378999Y0223703D01*
X0378989Y0223861D01*
X0378983Y0224019D01*
X0378981Y0224177D01*
X0121185Y0365516D02*
X0121187Y0365674D01*
X0121193Y0365832D01*
X0121203Y0365990D01*
X0121217Y0366148D01*
X0121235Y0366305D01*
X0121256Y0366462D01*
X0121282Y0366618D01*
X0121312Y0366774D01*
X0121345Y0366929D01*
X0121383Y0367082D01*
X0121424Y0367235D01*
X0121469Y0367387D01*
X0121518Y0367538D01*
X0121571Y0367687D01*
X0121627Y0367835D01*
X0121687Y0367981D01*
X0121751Y0368126D01*
X0121819Y0368269D01*
X0121890Y0368411D01*
X0121964Y0368551D01*
X0122042Y0368688D01*
X0122124Y0368824D01*
X0122208Y0368958D01*
X0122297Y0369089D01*
X0122388Y0369218D01*
X0122483Y0369345D01*
X0122580Y0369470D01*
X0122681Y0369592D01*
X0122785Y0369711D01*
X0122892Y0369828D01*
X0123002Y0369942D01*
X0123115Y0370053D01*
X0123230Y0370162D01*
X0123348Y0370267D01*
X0123469Y0370369D01*
X0123592Y0370469D01*
X0123718Y0370565D01*
X0123846Y0370658D01*
X0123976Y0370748D01*
X0124109Y0370834D01*
X0124244Y0370918D01*
X0124380Y0370997D01*
X0124519Y0371074D01*
X0124660Y0371146D01*
X0124802Y0371216D01*
X0124946Y0371281D01*
X0125092Y0371343D01*
X0125239Y0371401D01*
X0125388Y0371456D01*
X0125538Y0371507D01*
X0125689Y0371554D01*
X0125841Y0371597D01*
X0125994Y0371636D01*
X0126149Y0371672D01*
X0126304Y0371703D01*
X0126460Y0371731D01*
X0126616Y0371755D01*
X0126773Y0371775D01*
X0126931Y0371791D01*
X0127088Y0371803D01*
X0127247Y0371811D01*
X0127405Y0371815D01*
X0127563Y0371815D01*
X0127721Y0371811D01*
X0127880Y0371803D01*
X0128037Y0371791D01*
X0128195Y0371775D01*
X0128352Y0371755D01*
X0128508Y0371731D01*
X0128664Y0371703D01*
X0128819Y0371672D01*
X0128974Y0371636D01*
X0129127Y0371597D01*
X0129279Y0371554D01*
X0129430Y0371507D01*
X0129580Y0371456D01*
X0129729Y0371401D01*
X0129876Y0371343D01*
X0130022Y0371281D01*
X0130166Y0371216D01*
X0130308Y0371146D01*
X0130449Y0371074D01*
X0130588Y0370997D01*
X0130724Y0370918D01*
X0130859Y0370834D01*
X0130992Y0370748D01*
X0131122Y0370658D01*
X0131250Y0370565D01*
X0131376Y0370469D01*
X0131499Y0370369D01*
X0131620Y0370267D01*
X0131738Y0370162D01*
X0131853Y0370053D01*
X0131966Y0369942D01*
X0132076Y0369828D01*
X0132183Y0369711D01*
X0132287Y0369592D01*
X0132388Y0369470D01*
X0132485Y0369345D01*
X0132580Y0369218D01*
X0132671Y0369089D01*
X0132760Y0368958D01*
X0132844Y0368824D01*
X0132926Y0368688D01*
X0133004Y0368551D01*
X0133078Y0368411D01*
X0133149Y0368269D01*
X0133217Y0368126D01*
X0133281Y0367981D01*
X0133341Y0367835D01*
X0133397Y0367687D01*
X0133450Y0367538D01*
X0133499Y0367387D01*
X0133544Y0367235D01*
X0133585Y0367082D01*
X0133623Y0366929D01*
X0133656Y0366774D01*
X0133686Y0366618D01*
X0133712Y0366462D01*
X0133733Y0366305D01*
X0133751Y0366148D01*
X0133765Y0365990D01*
X0133775Y0365832D01*
X0133781Y0365674D01*
X0133783Y0365516D01*
X0133781Y0365358D01*
X0133775Y0365200D01*
X0133765Y0365042D01*
X0133751Y0364884D01*
X0133733Y0364727D01*
X0133712Y0364570D01*
X0133686Y0364414D01*
X0133656Y0364258D01*
X0133623Y0364103D01*
X0133585Y0363950D01*
X0133544Y0363797D01*
X0133499Y0363645D01*
X0133450Y0363494D01*
X0133397Y0363345D01*
X0133341Y0363197D01*
X0133281Y0363051D01*
X0133217Y0362906D01*
X0133149Y0362763D01*
X0133078Y0362621D01*
X0133004Y0362481D01*
X0132926Y0362344D01*
X0132844Y0362208D01*
X0132760Y0362074D01*
X0132671Y0361943D01*
X0132580Y0361814D01*
X0132485Y0361687D01*
X0132388Y0361562D01*
X0132287Y0361440D01*
X0132183Y0361321D01*
X0132076Y0361204D01*
X0131966Y0361090D01*
X0131853Y0360979D01*
X0131738Y0360870D01*
X0131620Y0360765D01*
X0131499Y0360663D01*
X0131376Y0360563D01*
X0131250Y0360467D01*
X0131122Y0360374D01*
X0130992Y0360284D01*
X0130859Y0360198D01*
X0130724Y0360114D01*
X0130588Y0360035D01*
X0130449Y0359958D01*
X0130308Y0359886D01*
X0130166Y0359816D01*
X0130022Y0359751D01*
X0129876Y0359689D01*
X0129729Y0359631D01*
X0129580Y0359576D01*
X0129430Y0359525D01*
X0129279Y0359478D01*
X0129127Y0359435D01*
X0128974Y0359396D01*
X0128819Y0359360D01*
X0128664Y0359329D01*
X0128508Y0359301D01*
X0128352Y0359277D01*
X0128195Y0359257D01*
X0128037Y0359241D01*
X0127880Y0359229D01*
X0127721Y0359221D01*
X0127563Y0359217D01*
X0127405Y0359217D01*
X0127247Y0359221D01*
X0127088Y0359229D01*
X0126931Y0359241D01*
X0126773Y0359257D01*
X0126616Y0359277D01*
X0126460Y0359301D01*
X0126304Y0359329D01*
X0126149Y0359360D01*
X0125994Y0359396D01*
X0125841Y0359435D01*
X0125689Y0359478D01*
X0125538Y0359525D01*
X0125388Y0359576D01*
X0125239Y0359631D01*
X0125092Y0359689D01*
X0124946Y0359751D01*
X0124802Y0359816D01*
X0124660Y0359886D01*
X0124519Y0359958D01*
X0124380Y0360035D01*
X0124244Y0360114D01*
X0124109Y0360198D01*
X0123976Y0360284D01*
X0123846Y0360374D01*
X0123718Y0360467D01*
X0123592Y0360563D01*
X0123469Y0360663D01*
X0123348Y0360765D01*
X0123230Y0360870D01*
X0123115Y0360979D01*
X0123002Y0361090D01*
X0122892Y0361204D01*
X0122785Y0361321D01*
X0122681Y0361440D01*
X0122580Y0361562D01*
X0122483Y0361687D01*
X0122388Y0361814D01*
X0122297Y0361943D01*
X0122208Y0362074D01*
X0122124Y0362208D01*
X0122042Y0362344D01*
X0121964Y0362481D01*
X0121890Y0362621D01*
X0121819Y0362763D01*
X0121751Y0362906D01*
X0121687Y0363051D01*
X0121627Y0363197D01*
X0121571Y0363345D01*
X0121518Y0363494D01*
X0121469Y0363645D01*
X0121424Y0363797D01*
X0121383Y0363950D01*
X0121345Y0364103D01*
X0121312Y0364258D01*
X0121282Y0364414D01*
X0121256Y0364570D01*
X0121235Y0364727D01*
X0121217Y0364884D01*
X0121203Y0365042D01*
X0121193Y0365200D01*
X0121187Y0365358D01*
X0121185Y0365516D01*
M02*
